<?xml version="1.0" encoding="utf-8" standalone="no"?>
<!DOCTYPE svg PUBLIC "-//W3C//DTD SVG 1.1//EN"
  "http://www.w3.org/Graphics/SVG/1.1/DTD/svg11.dtd">
<!-- Created with matplotlib (https://matplotlib.org/) -->
<svg height="342.114844pt" version="1.1" viewBox="0 0 1128.030313 342.114844" width="1128.030313pt" xmlns="http://www.w3.org/2000/svg" xmlns:xlink="http://www.w3.org/1999/xlink">
 <defs>
  <style type="text/css">
*{stroke-linecap:butt;stroke-linejoin:round;}
  </style>
 </defs>
 <g id="figure_1">
  <g id="patch_1">
   <path d="M 0 342.114844 
L 1128.030313 342.114844 
L 1128.030313 0 
L 0 0 
z
" style="fill:#ffffff;"/>
  </g>
  <g id="axes_1">
   <g id="patch_2">
    <path d="M 47.045313 237.642538 
L 325.770313 237.642538 
L 325.770313 10.778906 
L 47.045313 10.778906 
z
" style="fill:#ffffff;"/>
   </g>
   <g id="PathCollection_1">
    <defs>
     <path d="M 0 4.609772 
C 1.222526 4.609772 2.395145 4.124058 3.259601 3.259601 
C 4.124058 2.395145 4.609772 1.222526 4.609772 0 
C 4.609772 -1.222526 4.124058 -2.395145 3.259601 -3.259601 
C 2.395145 -4.124058 1.222526 -4.609772 0 -4.609772 
C -1.222526 -4.609772 -2.395145 -4.124058 -3.259601 -3.259601 
C -4.124058 -2.395145 -4.609772 -1.222526 -4.609772 0 
C -4.609772 1.222526 -4.124058 2.395145 -3.259601 3.259601 
C -2.395145 4.124058 -1.222526 4.609772 0 4.609772 
z
" id="me55800ab78" style="stroke:#a5628d;"/>
    </defs>
    <g clip-path="url(#pa8069ad210)">
     <use style="fill:#a5628d;stroke:#a5628d;" x="66.543507" xlink:href="#me55800ab78" y="226.452643"/>
     <use style="fill:#a5628d;stroke:#a5628d;" x="264.212264" xlink:href="#me55800ab78" y="31.217276"/>
     <use style="fill:#a5628d;stroke:#a5628d;" x="120.781886" xlink:href="#me55800ab78" y="31.217276"/>
    </g>
   </g>
   <g id="PathCollection_2">
    <defs>
     <path d="M 0 4.609772 
C 1.222526 4.609772 2.395145 4.124058 3.259601 3.259601 
C 4.124058 2.395145 4.609772 1.222526 4.609772 0 
C 4.609772 -1.222526 4.124058 -2.395145 3.259601 -3.259601 
C 2.395145 -4.124058 1.222526 -4.609772 0 -4.609772 
C -1.222526 -4.609772 -2.395145 -4.124058 -3.259601 -3.259601 
C -4.124058 -2.395145 -4.609772 -1.222526 -4.609772 0 
C -4.609772 1.222526 -4.124058 2.395145 -3.259601 3.259601 
C -2.395145 4.124058 -1.222526 4.609772 0 4.609772 
z
" id="m0e12326a2f" style="stroke:#2d3047;"/>
    </defs>
    <g clip-path="url(#pa8069ad210)">
     <use style="fill:#2d3047;stroke:#2d3047;" x="61.621877" xlink:href="#m0e12326a2f" y="222.978155"/>
     <use style="fill:#2d3047;stroke:#2d3047;" x="92.658282" xlink:href="#m0e12326a2f" y="49.284409"/>
     <use style="fill:#2d3047;stroke:#2d3047;" x="68.615112" xlink:href="#m0e12326a2f" y="235.598722"/>
     <use style="fill:#2d3047;stroke:#2d3047;" x="122.288507" xlink:href="#m0e12326a2f" y="235.598722"/>
     <use style="fill:#2d3047;stroke:#2d3047;" x="73.072201" xlink:href="#m0e12326a2f" y="235.598722"/>
     <use style="fill:#2d3047;stroke:#2d3047;" x="63.881809" xlink:href="#m0e12326a2f" y="235.598722"/>
    </g>
   </g>
   <g id="PathCollection_3">
    <defs>
     <path d="M 0 4.609772 
C 1.222526 4.609772 2.395145 4.124058 3.259601 3.259601 
C 4.124058 2.395145 4.609772 1.222526 4.609772 0 
C 4.609772 -1.222526 4.124058 -2.395145 3.259601 -3.259601 
C 2.395145 -4.124058 1.222526 -4.609772 0 -4.609772 
C -1.222526 -4.609772 -2.395145 -4.124058 -3.259601 -3.259601 
C -4.124058 -2.395145 -4.609772 -1.222526 -4.609772 0 
C -4.609772 1.222526 -4.124058 2.395145 -3.259601 3.259601 
C -2.395145 4.124058 -1.222526 4.609772 0 4.609772 
z
" id="m8ce9a78c44" style="stroke:#42797c;"/>
    </defs>
    <g clip-path="url(#pa8069ad210)">
     <use style="fill:#42797c;stroke:#42797c;" x="66.681614" xlink:href="#m8ce9a78c44" y="226.319795"/>
     <use style="fill:#42797c;stroke:#42797c;" x="69.50653" xlink:href="#m8ce9a78c44" y="40.107673"/>
     <use style="fill:#42797c;stroke:#42797c;" x="269.372443" xlink:href="#m8ce9a78c44" y="235.598722"/>
     <use style="fill:#42797c;stroke:#42797c;" x="71.27681" xlink:href="#m8ce9a78c44" y="31.217276"/>
    </g>
   </g>
   <g id="matplotlib.axis_1">
    <g id="xtick_1">
     <g id="line2d_1">
      <defs>
       <path d="M 0 0 
L 0 3.5 
" id="m698904fc2a" style="stroke:#000000;stroke-width:0.8;"/>
      </defs>
      <g>
       <use style="stroke:#000000;stroke-width:0.8;" x="49.556349" xlink:href="#m698904fc2a" y="237.642538"/>
      </g>
     </g>
     <g id="text_1">
      <!-- 0.00 -->
      <defs>
       <path d="M 4.15625 35.296875 
Q 4.15625 48 6.765625 55.734375 
Q 9.375 63.484375 14.515625 67.671875 
Q 19.671875 71.875 27.484375 71.875 
Q 33.25 71.875 37.59375 69.546875 
Q 41.9375 67.234375 44.765625 62.859375 
Q 47.609375 58.5 49.21875 52.21875 
Q 50.828125 45.953125 50.828125 35.296875 
Q 50.828125 22.703125 48.234375 14.96875 
Q 45.65625 7.234375 40.5 3 
Q 35.359375 -1.21875 27.484375 -1.21875 
Q 17.140625 -1.21875 11.234375 6.203125 
Q 4.15625 15.140625 4.15625 35.296875 
z
M 13.1875 35.296875 
Q 13.1875 17.671875 17.3125 11.828125 
Q 21.4375 6 27.484375 6 
Q 33.546875 6 37.671875 11.859375 
Q 41.796875 17.71875 41.796875 35.296875 
Q 41.796875 52.984375 37.671875 58.78125 
Q 33.546875 64.59375 27.390625 64.59375 
Q 21.34375 64.59375 17.71875 59.46875 
Q 13.1875 52.9375 13.1875 35.296875 
z
" id="ArialMT-48"/>
       <path d="M 9.078125 0 
L 9.078125 10.015625 
L 19.09375 10.015625 
L 19.09375 0 
z
" id="ArialMT-46"/>
      </defs>
      <g transform="translate(39.82588 251.800351)scale(0.1 -0.1)">
       <use xlink:href="#ArialMT-48"/>
       <use x="55.615234" xlink:href="#ArialMT-46"/>
       <use x="83.398438" xlink:href="#ArialMT-48"/>
       <use x="139.013672" xlink:href="#ArialMT-48"/>
      </g>
     </g>
    </g>
    <g id="xtick_2">
     <g id="line2d_2">
      <g>
       <use style="stroke:#000000;stroke-width:0.8;" x="112.332249" xlink:href="#m698904fc2a" y="237.642538"/>
      </g>
     </g>
     <g id="text_2">
      <!-- 0.25 -->
      <defs>
       <path d="M 50.34375 8.453125 
L 50.34375 0 
L 3.03125 0 
Q 2.9375 3.171875 4.046875 6.109375 
Q 5.859375 10.9375 9.828125 15.625 
Q 13.8125 20.3125 21.34375 26.46875 
Q 33.015625 36.03125 37.109375 41.625 
Q 41.21875 47.21875 41.21875 52.203125 
Q 41.21875 57.421875 37.46875 61 
Q 33.734375 64.59375 27.734375 64.59375 
Q 21.390625 64.59375 17.578125 60.78125 
Q 13.765625 56.984375 13.71875 50.25 
L 4.6875 51.171875 
Q 5.609375 61.28125 11.65625 66.578125 
Q 17.71875 71.875 27.9375 71.875 
Q 38.234375 71.875 44.234375 66.15625 
Q 50.25 60.453125 50.25 52 
Q 50.25 47.703125 48.484375 43.546875 
Q 46.734375 39.40625 42.65625 34.8125 
Q 38.578125 30.21875 29.109375 22.21875 
Q 21.1875 15.578125 18.9375 13.203125 
Q 16.703125 10.84375 15.234375 8.453125 
z
" id="ArialMT-50"/>
       <path d="M 4.15625 18.75 
L 13.375 19.53125 
Q 14.40625 12.796875 18.140625 9.390625 
Q 21.875 6 27.15625 6 
Q 33.5 6 37.890625 10.78125 
Q 42.28125 15.578125 42.28125 23.484375 
Q 42.28125 31 38.0625 35.34375 
Q 33.84375 39.703125 27 39.703125 
Q 22.75 39.703125 19.328125 37.765625 
Q 15.921875 35.84375 13.96875 32.765625 
L 5.71875 33.84375 
L 12.640625 70.609375 
L 48.25 70.609375 
L 48.25 62.203125 
L 19.671875 62.203125 
L 15.828125 42.96875 
Q 22.265625 47.46875 29.34375 47.46875 
Q 38.71875 47.46875 45.15625 40.96875 
Q 51.609375 34.46875 51.609375 24.265625 
Q 51.609375 14.546875 45.953125 7.46875 
Q 39.0625 -1.21875 27.15625 -1.21875 
Q 17.390625 -1.21875 11.203125 4.25 
Q 5.03125 9.71875 4.15625 18.75 
z
" id="ArialMT-53"/>
      </defs>
      <g transform="translate(102.601781 251.800351)scale(0.1 -0.1)">
       <use xlink:href="#ArialMT-48"/>
       <use x="55.615234" xlink:href="#ArialMT-46"/>
       <use x="83.398438" xlink:href="#ArialMT-50"/>
       <use x="139.013672" xlink:href="#ArialMT-53"/>
      </g>
     </g>
    </g>
    <g id="xtick_3">
     <g id="line2d_3">
      <g>
       <use style="stroke:#000000;stroke-width:0.8;" x="175.10815" xlink:href="#m698904fc2a" y="237.642538"/>
      </g>
     </g>
     <g id="text_3">
      <!-- 0.50 -->
      <g transform="translate(165.377682 251.800351)scale(0.1 -0.1)">
       <use xlink:href="#ArialMT-48"/>
       <use x="55.615234" xlink:href="#ArialMT-46"/>
       <use x="83.398438" xlink:href="#ArialMT-53"/>
       <use x="139.013672" xlink:href="#ArialMT-48"/>
      </g>
     </g>
    </g>
    <g id="xtick_4">
     <g id="line2d_4">
      <g>
       <use style="stroke:#000000;stroke-width:0.8;" x="237.884051" xlink:href="#m698904fc2a" y="237.642538"/>
      </g>
     </g>
     <g id="text_4">
      <!-- 0.75 -->
      <defs>
       <path d="M 4.734375 62.203125 
L 4.734375 70.65625 
L 51.078125 70.65625 
L 51.078125 63.8125 
Q 44.234375 56.546875 37.515625 44.484375 
Q 30.8125 32.421875 27.15625 19.671875 
Q 24.515625 10.6875 23.78125 0 
L 14.75 0 
Q 14.890625 8.453125 18.0625 20.40625 
Q 21.234375 32.375 27.171875 43.484375 
Q 33.109375 54.59375 39.796875 62.203125 
z
" id="ArialMT-55"/>
      </defs>
      <g transform="translate(228.153582 251.800351)scale(0.1 -0.1)">
       <use xlink:href="#ArialMT-48"/>
       <use x="55.615234" xlink:href="#ArialMT-46"/>
       <use x="83.398438" xlink:href="#ArialMT-55"/>
       <use x="139.013672" xlink:href="#ArialMT-53"/>
      </g>
     </g>
    </g>
    <g id="xtick_5">
     <g id="line2d_5">
      <g>
       <use style="stroke:#000000;stroke-width:0.8;" x="300.659952" xlink:href="#m698904fc2a" y="237.642538"/>
      </g>
     </g>
     <g id="text_5">
      <!-- 1.00 -->
      <defs>
       <path d="M 37.25 0 
L 28.46875 0 
L 28.46875 56 
Q 25.296875 52.984375 20.140625 49.953125 
Q 14.984375 46.921875 10.890625 45.40625 
L 10.890625 53.90625 
Q 18.265625 57.375 23.78125 62.296875 
Q 29.296875 67.234375 31.59375 71.875 
L 37.25 71.875 
z
" id="ArialMT-49"/>
      </defs>
      <g transform="translate(290.929483 251.800351)scale(0.1 -0.1)">
       <use xlink:href="#ArialMT-49"/>
       <use x="55.615234" xlink:href="#ArialMT-46"/>
       <use x="83.398438" xlink:href="#ArialMT-48"/>
       <use x="139.013672" xlink:href="#ArialMT-48"/>
      </g>
     </g>
    </g>
    <g id="text_6">
     <!-- Index SNV frequency -->
     <defs>
      <path d="M 9.328125 0 
L 9.328125 71.578125 
L 18.796875 71.578125 
L 18.796875 0 
z
" id="ArialMT-73"/>
      <path d="M 6.59375 0 
L 6.59375 51.859375 
L 14.5 51.859375 
L 14.5 44.484375 
Q 20.21875 53.03125 31 53.03125 
Q 35.6875 53.03125 39.625 51.34375 
Q 43.5625 49.65625 45.515625 46.921875 
Q 47.46875 44.1875 48.25 40.4375 
Q 48.734375 37.984375 48.734375 31.890625 
L 48.734375 0 
L 39.9375 0 
L 39.9375 31.546875 
Q 39.9375 36.921875 38.90625 39.578125 
Q 37.890625 42.234375 35.28125 43.8125 
Q 32.671875 45.40625 29.15625 45.40625 
Q 23.53125 45.40625 19.453125 41.84375 
Q 15.375 38.28125 15.375 28.328125 
L 15.375 0 
z
" id="ArialMT-110"/>
      <path d="M 40.234375 0 
L 40.234375 6.546875 
Q 35.296875 -1.171875 25.734375 -1.171875 
Q 19.53125 -1.171875 14.328125 2.25 
Q 9.125 5.671875 6.265625 11.796875 
Q 3.421875 17.921875 3.421875 25.875 
Q 3.421875 33.640625 6 39.96875 
Q 8.59375 46.296875 13.765625 49.65625 
Q 18.953125 53.03125 25.34375 53.03125 
Q 30.03125 53.03125 33.6875 51.046875 
Q 37.359375 49.078125 39.65625 45.90625 
L 39.65625 71.578125 
L 48.390625 71.578125 
L 48.390625 0 
z
M 12.453125 25.875 
Q 12.453125 15.921875 16.640625 10.984375 
Q 20.84375 6.0625 26.5625 6.0625 
Q 32.328125 6.0625 36.34375 10.765625 
Q 40.375 15.484375 40.375 25.140625 
Q 40.375 35.796875 36.265625 40.765625 
Q 32.171875 45.75 26.171875 45.75 
Q 20.3125 45.75 16.375 40.96875 
Q 12.453125 36.1875 12.453125 25.875 
z
" id="ArialMT-100"/>
      <path d="M 42.09375 16.703125 
L 51.171875 15.578125 
Q 49.03125 7.625 43.21875 3.21875 
Q 37.40625 -1.171875 28.375 -1.171875 
Q 17 -1.171875 10.328125 5.828125 
Q 3.65625 12.84375 3.65625 25.484375 
Q 3.65625 38.578125 10.390625 45.796875 
Q 17.140625 53.03125 27.875 53.03125 
Q 38.28125 53.03125 44.875 45.953125 
Q 51.46875 38.875 51.46875 26.03125 
Q 51.46875 25.25 51.421875 23.6875 
L 12.75 23.6875 
Q 13.234375 15.140625 17.578125 10.59375 
Q 21.921875 6.0625 28.421875 6.0625 
Q 33.25 6.0625 36.671875 8.59375 
Q 40.09375 11.140625 42.09375 16.703125 
z
M 13.234375 30.90625 
L 42.1875 30.90625 
Q 41.609375 37.453125 38.875 40.71875 
Q 34.671875 45.796875 27.984375 45.796875 
Q 21.921875 45.796875 17.796875 41.75 
Q 13.671875 37.703125 13.234375 30.90625 
z
" id="ArialMT-101"/>
      <path d="M 0.734375 0 
L 19.671875 26.953125 
L 2.15625 51.859375 
L 13.140625 51.859375 
L 21.09375 39.703125 
Q 23.34375 36.234375 24.703125 33.890625 
Q 26.859375 37.109375 28.65625 39.59375 
L 37.40625 51.859375 
L 47.90625 51.859375 
L 29.984375 27.4375 
L 49.265625 0 
L 38.484375 0 
L 27.828125 16.109375 
L 25 20.453125 
L 11.375 0 
z
" id="ArialMT-120"/>
      <path id="ArialMT-32"/>
      <path d="M 4.5 23 
L 13.421875 23.78125 
Q 14.0625 18.40625 16.375 14.96875 
Q 18.703125 11.53125 23.578125 9.40625 
Q 28.46875 7.28125 34.578125 7.28125 
Q 39.984375 7.28125 44.140625 8.890625 
Q 48.296875 10.5 50.3125 13.296875 
Q 52.34375 16.109375 52.34375 19.4375 
Q 52.34375 22.796875 50.390625 25.3125 
Q 48.4375 27.828125 43.953125 29.546875 
Q 41.0625 30.671875 31.203125 33.03125 
Q 21.34375 35.40625 17.390625 37.5 
Q 12.25 40.1875 9.734375 44.15625 
Q 7.234375 48.140625 7.234375 53.078125 
Q 7.234375 58.5 10.296875 63.203125 
Q 13.375 67.921875 19.28125 70.359375 
Q 25.203125 72.796875 32.421875 72.796875 
Q 40.375 72.796875 46.453125 70.234375 
Q 52.546875 67.671875 55.8125 62.6875 
Q 59.078125 57.71875 59.328125 51.421875 
L 50.25 50.734375 
Q 49.515625 57.515625 45.28125 60.984375 
Q 41.0625 64.453125 32.8125 64.453125 
Q 24.21875 64.453125 20.28125 61.296875 
Q 16.359375 58.15625 16.359375 53.71875 
Q 16.359375 49.859375 19.140625 47.359375 
Q 21.875 44.875 33.421875 42.265625 
Q 44.96875 39.65625 49.265625 37.703125 
Q 55.515625 34.8125 58.484375 30.390625 
Q 61.46875 25.984375 61.46875 20.21875 
Q 61.46875 14.5 58.203125 9.4375 
Q 54.9375 4.390625 48.796875 1.578125 
Q 42.671875 -1.21875 35.015625 -1.21875 
Q 25.296875 -1.21875 18.71875 1.609375 
Q 12.15625 4.4375 8.421875 10.125 
Q 4.6875 15.828125 4.5 23 
z
" id="ArialMT-83"/>
      <path d="M 7.625 0 
L 7.625 71.578125 
L 17.328125 71.578125 
L 54.9375 15.375 
L 54.9375 71.578125 
L 64.015625 71.578125 
L 64.015625 0 
L 54.296875 0 
L 16.703125 56.25 
L 16.703125 0 
z
" id="ArialMT-78"/>
      <path d="M 28.171875 0 
L 0.4375 71.578125 
L 10.6875 71.578125 
L 29.296875 19.578125 
Q 31.546875 13.328125 33.0625 7.859375 
Q 34.71875 13.71875 36.921875 19.578125 
L 56.25 71.578125 
L 65.921875 71.578125 
L 37.890625 0 
z
" id="ArialMT-86"/>
      <path d="M 8.6875 0 
L 8.6875 45.015625 
L 0.921875 45.015625 
L 0.921875 51.859375 
L 8.6875 51.859375 
L 8.6875 57.375 
Q 8.6875 62.59375 9.625 65.140625 
Q 10.890625 68.5625 14.078125 70.671875 
Q 17.28125 72.796875 23.046875 72.796875 
Q 26.765625 72.796875 31.25 71.921875 
L 29.9375 64.265625 
Q 27.203125 64.75 24.75 64.75 
Q 20.75 64.75 19.09375 63.03125 
Q 17.4375 61.328125 17.4375 56.640625 
L 17.4375 51.859375 
L 27.546875 51.859375 
L 27.546875 45.015625 
L 17.4375 45.015625 
L 17.4375 0 
z
" id="ArialMT-102"/>
      <path d="M 6.5 0 
L 6.5 51.859375 
L 14.40625 51.859375 
L 14.40625 44 
Q 17.4375 49.515625 20 51.265625 
Q 22.5625 53.03125 25.640625 53.03125 
Q 30.078125 53.03125 34.671875 50.203125 
L 31.640625 42.046875 
Q 28.421875 43.953125 25.203125 43.953125 
Q 22.3125 43.953125 20.015625 42.21875 
Q 17.71875 40.484375 16.75 37.40625 
Q 15.28125 32.71875 15.28125 27.15625 
L 15.28125 0 
z
" id="ArialMT-114"/>
      <path d="M 39.65625 -19.875 
L 39.65625 5.515625 
Q 37.59375 2.640625 33.90625 0.734375 
Q 30.21875 -1.171875 26.078125 -1.171875 
Q 16.84375 -1.171875 10.171875 6.203125 
Q 3.515625 13.578125 3.515625 26.421875 
Q 3.515625 34.234375 6.21875 40.421875 
Q 8.9375 46.625 14.078125 49.828125 
Q 19.234375 53.03125 25.390625 53.03125 
Q 35.015625 53.03125 40.53125 44.921875 
L 40.53125 51.859375 
L 48.4375 51.859375 
L 48.4375 -19.875 
z
M 12.546875 26.078125 
Q 12.546875 16.0625 16.75 11.0625 
Q 20.953125 6.0625 26.8125 6.0625 
Q 32.421875 6.0625 36.46875 10.8125 
Q 40.53125 15.578125 40.53125 25.296875 
Q 40.53125 35.640625 36.25 40.859375 
Q 31.984375 46.09375 26.21875 46.09375 
Q 20.515625 46.09375 16.53125 41.234375 
Q 12.546875 36.375 12.546875 26.078125 
z
" id="ArialMT-113"/>
      <path d="M 40.578125 0 
L 40.578125 7.625 
Q 34.515625 -1.171875 24.125 -1.171875 
Q 19.53125 -1.171875 15.546875 0.578125 
Q 11.578125 2.34375 9.640625 5 
Q 7.71875 7.671875 6.9375 11.53125 
Q 6.390625 14.109375 6.390625 19.734375 
L 6.390625 51.859375 
L 15.1875 51.859375 
L 15.1875 23.09375 
Q 15.1875 16.21875 15.71875 13.8125 
Q 16.546875 10.359375 19.234375 8.375 
Q 21.921875 6.390625 25.875 6.390625 
Q 29.828125 6.390625 33.296875 8.421875 
Q 36.765625 10.453125 38.203125 13.9375 
Q 39.65625 17.4375 39.65625 24.078125 
L 39.65625 51.859375 
L 48.4375 51.859375 
L 48.4375 0 
z
" id="ArialMT-117"/>
      <path d="M 40.4375 19 
L 49.078125 17.875 
Q 47.65625 8.9375 41.8125 3.875 
Q 35.984375 -1.171875 27.484375 -1.171875 
Q 16.84375 -1.171875 10.375 5.78125 
Q 3.90625 12.75 3.90625 25.734375 
Q 3.90625 34.125 6.6875 40.421875 
Q 9.46875 46.734375 15.15625 49.875 
Q 20.84375 53.03125 27.546875 53.03125 
Q 35.984375 53.03125 41.359375 48.75 
Q 46.734375 44.484375 48.25 36.625 
L 39.703125 35.296875 
Q 38.484375 40.53125 35.375 43.15625 
Q 32.28125 45.796875 27.875 45.796875 
Q 21.234375 45.796875 17.078125 41.03125 
Q 12.9375 36.28125 12.9375 25.984375 
Q 12.9375 15.53125 16.9375 10.796875 
Q 20.953125 6.0625 27.390625 6.0625 
Q 32.5625 6.0625 36.03125 9.234375 
Q 39.5 12.40625 40.4375 19 
z
" id="ArialMT-99"/>
      <path d="M 6.203125 -19.96875 
L 5.21875 -11.71875 
Q 8.109375 -12.5 10.25 -12.5 
Q 13.1875 -12.5 14.9375 -11.515625 
Q 16.703125 -10.546875 17.828125 -8.796875 
Q 18.65625 -7.46875 20.515625 -2.25 
Q 20.75 -1.515625 21.296875 -0.09375 
L 1.609375 51.859375 
L 11.078125 51.859375 
L 21.875 21.828125 
Q 23.96875 16.109375 25.640625 9.8125 
Q 27.15625 15.875 29.25 21.625 
L 40.328125 51.859375 
L 49.125 51.859375 
L 29.390625 -0.875 
Q 26.21875 -9.421875 24.46875 -12.640625 
Q 22.125 -17 19.09375 -19.015625 
Q 16.0625 -21.046875 11.859375 -21.046875 
Q 9.328125 -21.046875 6.203125 -19.96875 
z
" id="ArialMT-121"/>
     </defs>
     <g transform="translate(139.161719 265.067538)scale(0.1 -0.1)">
      <use xlink:href="#ArialMT-73"/>
      <use x="27.783203" xlink:href="#ArialMT-110"/>
      <use x="83.398438" xlink:href="#ArialMT-100"/>
      <use x="139.013672" xlink:href="#ArialMT-101"/>
      <use x="194.628906" xlink:href="#ArialMT-120"/>
      <use x="244.628906" xlink:href="#ArialMT-32"/>
      <use x="272.412109" xlink:href="#ArialMT-83"/>
      <use x="339.111328" xlink:href="#ArialMT-78"/>
      <use x="411.328125" xlink:href="#ArialMT-86"/>
      <use x="478.027344" xlink:href="#ArialMT-32"/>
      <use x="505.810547" xlink:href="#ArialMT-102"/>
      <use x="533.59375" xlink:href="#ArialMT-114"/>
      <use x="566.894531" xlink:href="#ArialMT-101"/>
      <use x="622.509766" xlink:href="#ArialMT-113"/>
      <use x="678.125" xlink:href="#ArialMT-117"/>
      <use x="733.740234" xlink:href="#ArialMT-101"/>
      <use x="789.355469" xlink:href="#ArialMT-110"/>
      <use x="844.970703" xlink:href="#ArialMT-99"/>
      <use x="894.970703" xlink:href="#ArialMT-121"/>
     </g>
    </g>
   </g>
   <g id="matplotlib.axis_2">
    <g id="ytick_1">
     <g id="line2d_6">
      <defs>
       <path d="M 0 0 
L -3.5 0 
" id="maa59298ecc" style="stroke:#000000;stroke-width:0.8;"/>
      </defs>
      <g>
       <use style="stroke:#000000;stroke-width:0.8;" x="47.045313" xlink:href="#maa59298ecc" y="235.598722"/>
      </g>
     </g>
     <g id="text_7">
      <!-- 0.00 -->
      <g transform="translate(20.584375 239.177628)scale(0.1 -0.1)">
       <use xlink:href="#ArialMT-48"/>
       <use x="55.615234" xlink:href="#ArialMT-46"/>
       <use x="83.398438" xlink:href="#ArialMT-48"/>
       <use x="139.013672" xlink:href="#ArialMT-48"/>
      </g>
     </g>
    </g>
    <g id="ytick_2">
     <g id="line2d_7">
      <g>
       <use style="stroke:#000000;stroke-width:0.8;" x="47.045313" xlink:href="#maa59298ecc" y="184.503309"/>
      </g>
     </g>
     <g id="text_8">
      <!-- 0.25 -->
      <g transform="translate(20.584375 188.082215)scale(0.1 -0.1)">
       <use xlink:href="#ArialMT-48"/>
       <use x="55.615234" xlink:href="#ArialMT-46"/>
       <use x="83.398438" xlink:href="#ArialMT-50"/>
       <use x="139.013672" xlink:href="#ArialMT-53"/>
      </g>
     </g>
    </g>
    <g id="ytick_3">
     <g id="line2d_8">
      <g>
       <use style="stroke:#000000;stroke-width:0.8;" x="47.045313" xlink:href="#maa59298ecc" y="133.407896"/>
      </g>
     </g>
     <g id="text_9">
      <!-- 0.50 -->
      <g transform="translate(20.584375 136.986803)scale(0.1 -0.1)">
       <use xlink:href="#ArialMT-48"/>
       <use x="55.615234" xlink:href="#ArialMT-46"/>
       <use x="83.398438" xlink:href="#ArialMT-53"/>
       <use x="139.013672" xlink:href="#ArialMT-48"/>
      </g>
     </g>
    </g>
    <g id="ytick_4">
     <g id="line2d_9">
      <g>
       <use style="stroke:#000000;stroke-width:0.8;" x="47.045313" xlink:href="#maa59298ecc" y="82.312484"/>
      </g>
     </g>
     <g id="text_10">
      <!-- 0.75 -->
      <g transform="translate(20.584375 85.89139)scale(0.1 -0.1)">
       <use xlink:href="#ArialMT-48"/>
       <use x="55.615234" xlink:href="#ArialMT-46"/>
       <use x="83.398438" xlink:href="#ArialMT-55"/>
       <use x="139.013672" xlink:href="#ArialMT-53"/>
      </g>
     </g>
    </g>
    <g id="ytick_5">
     <g id="line2d_10">
      <g>
       <use style="stroke:#000000;stroke-width:0.8;" x="47.045313" xlink:href="#maa59298ecc" y="31.217071"/>
      </g>
     </g>
     <g id="text_11">
      <!-- 1.00 -->
      <g transform="translate(20.584375 34.795978)scale(0.1 -0.1)">
       <use xlink:href="#ArialMT-49"/>
       <use x="55.615234" xlink:href="#ArialMT-46"/>
       <use x="83.398438" xlink:href="#ArialMT-48"/>
       <use x="139.013672" xlink:href="#ArialMT-48"/>
      </g>
     </g>
    </g>
    <g id="text_12">
     <!-- Contact SNV frequency -->
     <defs>
      <path d="M 58.796875 25.09375 
L 68.265625 22.703125 
Q 65.28125 11.03125 57.546875 4.90625 
Q 49.8125 -1.21875 38.625 -1.21875 
Q 27.046875 -1.21875 19.796875 3.484375 
Q 12.546875 8.203125 8.765625 17.140625 
Q 4.984375 26.078125 4.984375 36.328125 
Q 4.984375 47.515625 9.25 55.828125 
Q 13.53125 64.15625 21.40625 68.46875 
Q 29.296875 72.796875 38.765625 72.796875 
Q 49.515625 72.796875 56.828125 67.328125 
Q 64.15625 61.859375 67.046875 51.953125 
L 57.71875 49.75 
Q 55.21875 57.5625 50.484375 61.125 
Q 45.75 64.703125 38.578125 64.703125 
Q 30.328125 64.703125 24.78125 60.734375 
Q 19.234375 56.78125 16.984375 50.109375 
Q 14.75 43.453125 14.75 36.375 
Q 14.75 27.25 17.40625 20.4375 
Q 20.0625 13.625 25.671875 10.25 
Q 31.296875 6.890625 37.84375 6.890625 
Q 45.796875 6.890625 51.3125 11.46875 
Q 56.84375 16.0625 58.796875 25.09375 
z
" id="ArialMT-67"/>
      <path d="M 3.328125 25.921875 
Q 3.328125 40.328125 11.328125 47.265625 
Q 18.015625 53.03125 27.640625 53.03125 
Q 38.328125 53.03125 45.109375 46.015625 
Q 51.90625 39.015625 51.90625 26.65625 
Q 51.90625 16.65625 48.90625 10.90625 
Q 45.90625 5.171875 40.15625 2 
Q 34.421875 -1.171875 27.640625 -1.171875 
Q 16.75 -1.171875 10.03125 5.8125 
Q 3.328125 12.796875 3.328125 25.921875 
z
M 12.359375 25.921875 
Q 12.359375 15.96875 16.703125 11.015625 
Q 21.046875 6.0625 27.640625 6.0625 
Q 34.1875 6.0625 38.53125 11.03125 
Q 42.875 16.015625 42.875 26.21875 
Q 42.875 35.84375 38.5 40.796875 
Q 34.125 45.75 27.640625 45.75 
Q 21.046875 45.75 16.703125 40.8125 
Q 12.359375 35.890625 12.359375 25.921875 
z
" id="ArialMT-111"/>
      <path d="M 25.78125 7.859375 
L 27.046875 0.09375 
Q 23.34375 -0.6875 20.40625 -0.6875 
Q 15.625 -0.6875 12.984375 0.828125 
Q 10.359375 2.34375 9.28125 4.8125 
Q 8.203125 7.28125 8.203125 15.1875 
L 8.203125 45.015625 
L 1.765625 45.015625 
L 1.765625 51.859375 
L 8.203125 51.859375 
L 8.203125 64.703125 
L 16.9375 69.96875 
L 16.9375 51.859375 
L 25.78125 51.859375 
L 25.78125 45.015625 
L 16.9375 45.015625 
L 16.9375 14.703125 
Q 16.9375 10.9375 17.40625 9.859375 
Q 17.875 8.796875 18.921875 8.15625 
Q 19.96875 7.515625 21.921875 7.515625 
Q 23.390625 7.515625 25.78125 7.859375 
z
" id="ArialMT-116"/>
      <path d="M 40.4375 6.390625 
Q 35.546875 2.25 31.03125 0.53125 
Q 26.515625 -1.171875 21.34375 -1.171875 
Q 12.796875 -1.171875 8.203125 3 
Q 3.609375 7.171875 3.609375 13.671875 
Q 3.609375 17.484375 5.34375 20.625 
Q 7.078125 23.78125 9.890625 25.6875 
Q 12.703125 27.59375 16.21875 28.5625 
Q 18.796875 29.25 24.03125 29.890625 
Q 34.671875 31.15625 39.703125 32.90625 
Q 39.75 34.71875 39.75 35.203125 
Q 39.75 40.578125 37.25 42.78125 
Q 33.890625 45.75 27.25 45.75 
Q 21.046875 45.75 18.09375 43.578125 
Q 15.140625 41.40625 13.71875 35.890625 
L 5.125 37.0625 
Q 6.296875 42.578125 8.984375 45.96875 
Q 11.671875 49.359375 16.75 51.1875 
Q 21.828125 53.03125 28.515625 53.03125 
Q 35.15625 53.03125 39.296875 51.46875 
Q 43.453125 49.90625 45.40625 47.53125 
Q 47.359375 45.171875 48.140625 41.546875 
Q 48.578125 39.3125 48.578125 33.453125 
L 48.578125 21.734375 
Q 48.578125 9.46875 49.140625 6.21875 
Q 49.703125 2.984375 51.375 0 
L 42.1875 0 
Q 40.828125 2.734375 40.4375 6.390625 
z
M 39.703125 26.03125 
Q 34.90625 24.078125 25.34375 22.703125 
Q 19.921875 21.921875 17.671875 20.9375 
Q 15.4375 19.96875 14.203125 18.09375 
Q 12.984375 16.21875 12.984375 13.921875 
Q 12.984375 10.40625 15.640625 8.0625 
Q 18.3125 5.71875 23.4375 5.71875 
Q 28.515625 5.71875 32.46875 7.9375 
Q 36.421875 10.15625 38.28125 14.015625 
Q 39.703125 17 39.703125 22.796875 
z
" id="ArialMT-97"/>
     </defs>
     <g transform="translate(14.479688 176.456816)rotate(-90)scale(0.1 -0.1)">
      <use xlink:href="#ArialMT-67"/>
      <use x="72.216797" xlink:href="#ArialMT-111"/>
      <use x="127.832031" xlink:href="#ArialMT-110"/>
      <use x="183.447266" xlink:href="#ArialMT-116"/>
      <use x="211.230469" xlink:href="#ArialMT-97"/>
      <use x="266.845703" xlink:href="#ArialMT-99"/>
      <use x="316.845703" xlink:href="#ArialMT-116"/>
      <use x="344.628906" xlink:href="#ArialMT-32"/>
      <use x="372.412109" xlink:href="#ArialMT-83"/>
      <use x="439.111328" xlink:href="#ArialMT-78"/>
      <use x="511.328125" xlink:href="#ArialMT-86"/>
      <use x="578.027344" xlink:href="#ArialMT-32"/>
      <use x="605.810547" xlink:href="#ArialMT-102"/>
      <use x="633.59375" xlink:href="#ArialMT-114"/>
      <use x="666.894531" xlink:href="#ArialMT-101"/>
      <use x="722.509766" xlink:href="#ArialMT-113"/>
      <use x="778.125" xlink:href="#ArialMT-117"/>
      <use x="833.740234" xlink:href="#ArialMT-101"/>
      <use x="889.355469" xlink:href="#ArialMT-110"/>
      <use x="944.970703" xlink:href="#ArialMT-99"/>
      <use x="994.970703" xlink:href="#ArialMT-121"/>
     </g>
    </g>
   </g>
   <g id="patch_3">
    <path d="M 47.045313 237.642538 
L 47.045313 10.778906 
" style="fill:none;stroke:#000000;stroke-linecap:square;stroke-linejoin:miter;stroke-width:0.8;"/>
   </g>
   <g id="patch_4">
    <path d="M 47.045313 237.642538 
L 325.770313 237.642538 
" style="fill:none;stroke:#000000;stroke-linecap:square;stroke-linejoin:miter;stroke-width:0.8;"/>
   </g>
  </g>
  <g id="axes_2">
   <g id="patch_5">
    <path d="M 379.445313 237.642538 
L 658.170312 237.642538 
L 658.170312 10.778906 
L 379.445313 10.778906 
z
" style="fill:#ffffff;"/>
   </g>
   <g id="PathCollection_4">
    <defs>
     <path d="M 0 3 
C 0.795609 3 1.55874 2.683901 2.12132 2.12132 
C 2.683901 1.55874 3 0.795609 3 0 
C 3 -0.795609 2.683901 -1.55874 2.12132 -2.12132 
C 1.55874 -2.683901 0.795609 -3 0 -3 
C -0.795609 -3 -1.55874 -2.683901 -2.12132 -2.12132 
C -2.683901 -1.55874 -3 -0.795609 -3 0 
C -3 0.795609 -2.683901 1.55874 -2.12132 2.12132 
C -1.55874 2.683901 -0.795609 3 0 3 
z
" id="m98cbab2844" style="stroke:#a5628d;"/>
    </defs>
    <g clip-path="url(#p68b6b87252)">
     <use style="fill:#a5628d;stroke:#a5628d;" x="572.296467" xlink:href="#m98cbab2844" y="130.152389"/>
     <use style="fill:#a5628d;stroke:#a5628d;" x="705.083523" xlink:href="#m98cbab2844" y="-1"/>
    </g>
   </g>
   <g id="PathCollection_5">
    <defs>
     <path d="M 0 3 
C 0.795609 3 1.55874 2.683901 2.12132 2.12132 
C 2.683901 1.55874 3 0.795609 3 0 
C 3 -0.795609 2.683901 -1.55874 2.12132 -2.12132 
C 1.55874 -2.683901 0.795609 -3 0 -3 
C -0.795609 -3 -1.55874 -2.683901 -2.12132 -2.12132 
C -2.683901 -1.55874 -3 -0.795609 -3 0 
C -3 0.795609 -2.683901 1.55874 -2.12132 2.12132 
C -1.55874 2.683901 -0.795609 3 0 3 
z
" id="m0586198fff" style="stroke:#2d3047;"/>
    </defs>
    <g clip-path="url(#p68b6b87252)">
     <use style="fill:#2d3047;stroke:#2d3047;" x="520.267801" xlink:href="#m0586198fff" y="93.422086"/>
     <use style="fill:#2d3047;stroke:#2d3047;" x="537.139578" xlink:href="#m0586198fff" y="-1"/>
     <use style="fill:#2d3047;stroke:#2d3047;" x="623.598131" xlink:href="#m0586198fff" y="-1"/>
     <use style="fill:#2d3047;stroke:#2d3047;" x="594.196289" xlink:href="#m0586198fff" y="226.839508"/>
     <use style="fill:#2d3047;stroke:#2d3047;" x="1161.600753" xlink:href="#m0586198fff" y="226.839508"/>
     <use style="fill:#2d3047;stroke:#2d3047;" x="641.314086" xlink:href="#m0586198fff" y="226.839508"/>
     <use style="fill:#2d3047;stroke:#2d3047;" x="544.158515" xlink:href="#m0586198fff" y="226.839508"/>
    </g>
   </g>
   <g id="PathCollection_6">
    <defs>
     <path d="M 0 3 
C 0.795609 3 1.55874 2.683901 2.12132 2.12132 
C 2.683901 1.55874 3 0.795609 3 0 
C 3 -0.795609 2.683901 -1.55874 2.12132 -2.12132 
C 1.55874 -2.683901 0.795609 -3 0 -3 
C -0.795609 -3 -1.55874 -2.683901 -2.12132 -2.12132 
C -2.683901 -1.55874 -3 -0.795609 -3 0 
C -3 0.795609 -2.683901 1.55874 -2.12132 2.12132 
C -1.55874 2.683901 -0.795609 3 0 3 
z
" id="m73d55ab75b" style="stroke:#42797c;"/>
    </defs>
    <g clip-path="url(#p68b6b87252)">
     <use style="fill:#42797c;stroke:#42797c;" x="573.756455" xlink:href="#m73d55ab75b" y="128.747995"/>
     <use style="fill:#42797c;stroke:#42797c;" x="575.724787" xlink:href="#m73d55ab75b" y="-1"/>
     <use style="fill:#42797c;stroke:#42797c;" x="2483.54978" xlink:href="#m73d55ab75b" y="-1"/>
     <use style="fill:#42797c;stroke:#42797c;" x="2716.488074" xlink:href="#m73d55ab75b" y="226.839508"/>
     <use style="fill:#42797c;stroke:#42797c;" x="2495.655839" xlink:href="#m73d55ab75b" y="-1"/>
    </g>
   </g>
   <g id="matplotlib.axis_3">
    <g id="xtick_6">
     <g id="line2d_11">
      <g>
       <use style="stroke:#000000;stroke-width:0.8;" x="392.717932" xlink:href="#m698904fc2a" y="237.642538"/>
      </g>
     </g>
     <g id="text_13">
      <!-- 0.00 -->
      <g transform="translate(382.987463 251.800351)scale(0.1 -0.1)">
       <use xlink:href="#ArialMT-48"/>
       <use x="55.615234" xlink:href="#ArialMT-46"/>
       <use x="83.398438" xlink:href="#ArialMT-48"/>
       <use x="139.013672" xlink:href="#ArialMT-48"/>
      </g>
     </g>
    </g>
    <g id="xtick_7">
     <g id="line2d_12">
      <g>
       <use style="stroke:#000000;stroke-width:0.8;" x="525.444122" xlink:href="#m698904fc2a" y="237.642538"/>
      </g>
     </g>
     <g id="text_14">
      <!-- 0.05 -->
      <g transform="translate(515.713653 251.800351)scale(0.1 -0.1)">
       <use xlink:href="#ArialMT-48"/>
       <use x="55.615234" xlink:href="#ArialMT-46"/>
       <use x="83.398438" xlink:href="#ArialMT-48"/>
       <use x="139.013672" xlink:href="#ArialMT-53"/>
      </g>
     </g>
    </g>
    <g id="xtick_8">
     <g id="line2d_13">
      <g>
       <use style="stroke:#000000;stroke-width:0.8;" x="658.170312" xlink:href="#m698904fc2a" y="237.642538"/>
      </g>
     </g>
     <g id="text_15">
      <!-- 0.10 -->
      <g transform="translate(648.439844 251.800351)scale(0.1 -0.1)">
       <use xlink:href="#ArialMT-48"/>
       <use x="55.615234" xlink:href="#ArialMT-46"/>
       <use x="83.398438" xlink:href="#ArialMT-49"/>
       <use x="139.013672" xlink:href="#ArialMT-48"/>
      </g>
     </g>
    </g>
    <g id="text_16">
     <!-- Index SNV frequency ZOOM -->
     <defs>
      <path d="M 2 0 
L 2 8.796875 
L 38.671875 54.640625 
Q 42.578125 59.515625 46.09375 63.140625 
L 6.15625 63.140625 
L 6.15625 71.578125 
L 57.421875 71.578125 
L 57.421875 63.140625 
L 17.234375 13.484375 
L 12.890625 8.453125 
L 58.59375 8.453125 
L 58.59375 0 
z
" id="ArialMT-90"/>
      <path d="M 4.828125 34.859375 
Q 4.828125 52.6875 14.390625 62.765625 
Q 23.96875 72.859375 39.109375 72.859375 
Q 49.03125 72.859375 56.984375 68.109375 
Q 64.9375 63.375 69.109375 54.90625 
Q 73.296875 46.4375 73.296875 35.6875 
Q 73.296875 24.8125 68.890625 16.21875 
Q 64.5 7.625 56.4375 3.203125 
Q 48.390625 -1.21875 39.0625 -1.21875 
Q 28.953125 -1.21875 20.984375 3.65625 
Q 13.03125 8.546875 8.921875 16.984375 
Q 4.828125 25.4375 4.828125 34.859375 
z
M 14.59375 34.71875 
Q 14.59375 21.78125 21.546875 14.328125 
Q 28.515625 6.890625 39.015625 6.890625 
Q 49.703125 6.890625 56.609375 14.40625 
Q 63.53125 21.921875 63.53125 35.75 
Q 63.53125 44.484375 60.578125 51 
Q 57.625 57.515625 51.921875 61.109375 
Q 46.234375 64.703125 39.15625 64.703125 
Q 29.109375 64.703125 21.84375 57.78125 
Q 14.59375 50.875 14.59375 34.71875 
z
" id="ArialMT-79"/>
      <path d="M 7.421875 0 
L 7.421875 71.578125 
L 21.6875 71.578125 
L 38.625 20.90625 
Q 40.96875 13.8125 42.046875 10.296875 
Q 43.265625 14.203125 45.84375 21.78125 
L 62.984375 71.578125 
L 75.734375 71.578125 
L 75.734375 0 
L 66.609375 0 
L 66.609375 59.90625 
L 45.796875 0 
L 37.25 0 
L 16.546875 60.9375 
L 16.546875 0 
z
" id="ArialMT-77"/>
     </defs>
     <g transform="translate(455.175781 265.073788)scale(0.1 -0.1)">
      <use xlink:href="#ArialMT-73"/>
      <use x="27.783203" xlink:href="#ArialMT-110"/>
      <use x="83.398438" xlink:href="#ArialMT-100"/>
      <use x="139.013672" xlink:href="#ArialMT-101"/>
      <use x="194.628906" xlink:href="#ArialMT-120"/>
      <use x="244.628906" xlink:href="#ArialMT-32"/>
      <use x="272.412109" xlink:href="#ArialMT-83"/>
      <use x="339.111328" xlink:href="#ArialMT-78"/>
      <use x="411.328125" xlink:href="#ArialMT-86"/>
      <use x="478.027344" xlink:href="#ArialMT-32"/>
      <use x="505.810547" xlink:href="#ArialMT-102"/>
      <use x="533.59375" xlink:href="#ArialMT-114"/>
      <use x="566.894531" xlink:href="#ArialMT-101"/>
      <use x="622.509766" xlink:href="#ArialMT-113"/>
      <use x="678.125" xlink:href="#ArialMT-117"/>
      <use x="733.740234" xlink:href="#ArialMT-101"/>
      <use x="789.355469" xlink:href="#ArialMT-110"/>
      <use x="844.970703" xlink:href="#ArialMT-99"/>
      <use x="894.970703" xlink:href="#ArialMT-121"/>
      <use x="944.970703" xlink:href="#ArialMT-32"/>
      <use x="972.753906" xlink:href="#ArialMT-90"/>
      <use x="1033.837891" xlink:href="#ArialMT-79"/>
      <use x="1111.621094" xlink:href="#ArialMT-79"/>
      <use x="1189.404297" xlink:href="#ArialMT-77"/>
     </g>
    </g>
   </g>
   <g id="matplotlib.axis_4">
    <g id="ytick_6">
     <g id="line2d_14">
      <g>
       <use style="stroke:#000000;stroke-width:0.8;" x="379.445313" xlink:href="#maa59298ecc" y="226.839508"/>
      </g>
     </g>
     <g id="text_17">
      <!-- 0.00 -->
      <g transform="translate(352.984375 230.418414)scale(0.1 -0.1)">
       <use xlink:href="#ArialMT-48"/>
       <use x="55.615234" xlink:href="#ArialMT-46"/>
       <use x="83.398438" xlink:href="#ArialMT-48"/>
       <use x="139.013672" xlink:href="#ArialMT-48"/>
      </g>
     </g>
    </g>
    <g id="ytick_7">
     <g id="line2d_15">
      <g>
       <use style="stroke:#000000;stroke-width:0.8;" x="379.445313" xlink:href="#maa59298ecc" y="118.809207"/>
      </g>
     </g>
     <g id="text_18">
      <!-- 0.05 -->
      <g transform="translate(352.984375 122.388113)scale(0.1 -0.1)">
       <use xlink:href="#ArialMT-48"/>
       <use x="55.615234" xlink:href="#ArialMT-46"/>
       <use x="83.398438" xlink:href="#ArialMT-48"/>
       <use x="139.013672" xlink:href="#ArialMT-53"/>
      </g>
     </g>
    </g>
    <g id="ytick_8">
     <g id="line2d_16">
      <g>
       <use style="stroke:#000000;stroke-width:0.8;" x="379.445313" xlink:href="#maa59298ecc" y="10.778906"/>
      </g>
     </g>
     <g id="text_19">
      <!-- 0.10 -->
      <g transform="translate(352.984375 14.357812)scale(0.1 -0.1)">
       <use xlink:href="#ArialMT-48"/>
       <use x="55.615234" xlink:href="#ArialMT-46"/>
       <use x="83.398438" xlink:href="#ArialMT-49"/>
       <use x="139.013672" xlink:href="#ArialMT-48"/>
      </g>
     </g>
    </g>
    <g id="text_20">
     <!-- Contact SNV frequency ZOOM -->
     <g transform="translate(346.879688 192.842753)rotate(-90)scale(0.1 -0.1)">
      <use xlink:href="#ArialMT-67"/>
      <use x="72.216797" xlink:href="#ArialMT-111"/>
      <use x="127.832031" xlink:href="#ArialMT-110"/>
      <use x="183.447266" xlink:href="#ArialMT-116"/>
      <use x="211.230469" xlink:href="#ArialMT-97"/>
      <use x="266.845703" xlink:href="#ArialMT-99"/>
      <use x="316.845703" xlink:href="#ArialMT-116"/>
      <use x="344.628906" xlink:href="#ArialMT-32"/>
      <use x="372.412109" xlink:href="#ArialMT-83"/>
      <use x="439.111328" xlink:href="#ArialMT-78"/>
      <use x="511.328125" xlink:href="#ArialMT-86"/>
      <use x="578.027344" xlink:href="#ArialMT-32"/>
      <use x="605.810547" xlink:href="#ArialMT-102"/>
      <use x="633.59375" xlink:href="#ArialMT-114"/>
      <use x="666.894531" xlink:href="#ArialMT-101"/>
      <use x="722.509766" xlink:href="#ArialMT-113"/>
      <use x="778.125" xlink:href="#ArialMT-117"/>
      <use x="833.740234" xlink:href="#ArialMT-101"/>
      <use x="889.355469" xlink:href="#ArialMT-110"/>
      <use x="944.970703" xlink:href="#ArialMT-99"/>
      <use x="994.970703" xlink:href="#ArialMT-121"/>
      <use x="1044.970703" xlink:href="#ArialMT-32"/>
      <use x="1072.753906" xlink:href="#ArialMT-90"/>
      <use x="1133.837891" xlink:href="#ArialMT-79"/>
      <use x="1211.621094" xlink:href="#ArialMT-79"/>
      <use x="1289.404297" xlink:href="#ArialMT-77"/>
     </g>
    </g>
   </g>
   <g id="patch_6">
    <path d="M 379.445313 237.642538 
L 379.445313 10.778906 
" style="fill:none;stroke:#000000;stroke-linecap:square;stroke-linejoin:miter;stroke-width:0.8;"/>
   </g>
   <g id="patch_7">
    <path d="M 379.445313 237.642538 
L 658.170312 237.642538 
" style="fill:none;stroke:#000000;stroke-linecap:square;stroke-linejoin:miter;stroke-width:0.8;"/>
   </g>
  </g>
  <g id="axes_3">
   <g id="patch_8">
    <path d="M 711.845312 237.642538 
L 990.570312 237.642538 
L 990.570312 10.778906 
L 711.845312 10.778906 
z
" style="fill:#ffffff;"/>
   </g>
   <g id="patch_9">
    <path clip-path="url(#p5c4aebdb81)" d="M 724.514631 237.642538 
L 796.910735 237.642538 
L 796.910735 180.92663 
L 724.514631 180.92663 
z
" style="fill:#9d6a8b;"/>
   </g>
   <g id="patch_10">
    <path clip-path="url(#p5c4aebdb81)" d="M 815.009761 237.642538 
L 887.405864 237.642538 
L 887.405864 203.612993 
L 815.009761 203.612993 
z
" style="fill:#303244;"/>
   </g>
   <g id="patch_11">
    <path clip-path="url(#p5c4aebdb81)" d="M 905.50489 237.642538 
L 977.900994 237.642538 
L 977.900994 214.956175 
L 905.50489 214.956175 
z
" style="fill:#497275;"/>
   </g>
   <g id="matplotlib.axis_5">
    <g id="xtick_9">
     <g id="line2d_17">
      <g>
       <use style="stroke:#000000;stroke-width:0.8;" x="760.712683" xlink:href="#m698904fc2a" y="237.642538"/>
      </g>
     </g>
     <g id="text_21">
      <!-- Pair 1 (DPI 2 - -&gt; DPI 3) -->
      <defs>
       <path d="M 7.71875 0 
L 7.71875 71.578125 
L 34.71875 71.578125 
Q 41.84375 71.578125 45.609375 70.90625 
Q 50.875 70.015625 54.4375 67.546875 
Q 58.015625 65.09375 60.1875 60.640625 
Q 62.359375 56.203125 62.359375 50.875 
Q 62.359375 41.75 56.546875 35.421875 
Q 50.734375 29.109375 35.546875 29.109375 
L 17.1875 29.109375 
L 17.1875 0 
z
M 17.1875 37.546875 
L 35.6875 37.546875 
Q 44.875 37.546875 48.734375 40.96875 
Q 52.59375 44.390625 52.59375 50.59375 
Q 52.59375 55.078125 50.3125 58.265625 
Q 48.046875 61.46875 44.34375 62.5 
Q 41.9375 63.140625 35.5 63.140625 
L 17.1875 63.140625 
z
" id="ArialMT-80"/>
       <path d="M 6.640625 61.46875 
L 6.640625 71.578125 
L 15.4375 71.578125 
L 15.4375 61.46875 
z
M 6.640625 0 
L 6.640625 51.859375 
L 15.4375 51.859375 
L 15.4375 0 
z
" id="ArialMT-105"/>
       <path d="M 23.390625 -21.046875 
Q 16.109375 -11.859375 11.078125 0.4375 
Q 6.0625 12.75 6.0625 25.921875 
Q 6.0625 37.546875 9.8125 48.1875 
Q 14.203125 60.546875 23.390625 72.796875 
L 29.6875 72.796875 
Q 23.78125 62.640625 21.875 58.296875 
Q 18.890625 51.5625 17.1875 44.234375 
Q 15.09375 35.109375 15.09375 25.875 
Q 15.09375 2.390625 29.6875 -21.046875 
z
" id="ArialMT-40"/>
       <path d="M 7.71875 0 
L 7.71875 71.578125 
L 32.375 71.578125 
Q 40.71875 71.578125 45.125 70.5625 
Q 51.265625 69.140625 55.609375 65.4375 
Q 61.28125 60.640625 64.078125 53.1875 
Q 66.890625 45.75 66.890625 36.1875 
Q 66.890625 28.03125 64.984375 21.734375 
Q 63.09375 15.4375 60.109375 11.296875 
Q 57.125 7.171875 53.578125 4.796875 
Q 50.046875 2.4375 45.046875 1.21875 
Q 40.046875 0 33.546875 0 
z
M 17.1875 8.453125 
L 32.46875 8.453125 
Q 39.546875 8.453125 43.578125 9.765625 
Q 47.609375 11.078125 50 13.484375 
Q 53.375 16.84375 55.25 22.53125 
Q 57.125 28.21875 57.125 36.328125 
Q 57.125 47.5625 53.4375 53.59375 
Q 49.75 59.625 44.484375 61.671875 
Q 40.671875 63.140625 32.234375 63.140625 
L 17.1875 63.140625 
z
" id="ArialMT-68"/>
       <path d="M 3.171875 21.484375 
L 3.171875 30.328125 
L 30.171875 30.328125 
L 30.171875 21.484375 
z
" id="ArialMT-45"/>
       <path d="M 52.875 31.296875 
L 5.46875 11.03125 
L 5.46875 19.78125 
L 43.015625 35.359375 
L 5.46875 50.78125 
L 5.46875 59.515625 
L 52.875 39.5 
z
" id="ArialMT-62"/>
       <path d="M 4.203125 18.890625 
L 12.984375 20.0625 
Q 14.5 12.59375 18.140625 9.296875 
Q 21.78125 6 27 6 
Q 33.203125 6 37.46875 10.296875 
Q 41.75 14.59375 41.75 20.953125 
Q 41.75 27 37.796875 30.921875 
Q 33.84375 34.859375 27.734375 34.859375 
Q 25.25 34.859375 21.53125 33.890625 
L 22.515625 41.609375 
Q 23.390625 41.5 23.921875 41.5 
Q 29.546875 41.5 34.03125 44.421875 
Q 38.53125 47.359375 38.53125 53.46875 
Q 38.53125 58.296875 35.25 61.46875 
Q 31.984375 64.65625 26.8125 64.65625 
Q 21.6875 64.65625 18.265625 61.421875 
Q 14.84375 58.203125 13.875 51.765625 
L 5.078125 53.328125 
Q 6.6875 62.15625 12.390625 67.015625 
Q 18.109375 71.875 26.609375 71.875 
Q 32.46875 71.875 37.390625 69.359375 
Q 42.328125 66.84375 44.9375 62.5 
Q 47.5625 58.15625 47.5625 53.265625 
Q 47.5625 48.640625 45.0625 44.828125 
Q 42.578125 41.015625 37.703125 38.765625 
Q 44.046875 37.3125 47.5625 32.6875 
Q 51.078125 28.078125 51.078125 21.140625 
Q 51.078125 11.765625 44.234375 5.25 
Q 37.40625 -1.265625 26.953125 -1.265625 
Q 17.53125 -1.265625 11.296875 4.34375 
Q 5.078125 9.96875 4.203125 18.890625 
z
" id="ArialMT-51"/>
       <path d="M 12.359375 -21.046875 
L 6.0625 -21.046875 
Q 20.65625 2.390625 20.65625 25.875 
Q 20.65625 35.0625 18.5625 44.09375 
Q 16.890625 51.421875 13.921875 58.15625 
Q 12.015625 62.546875 6.0625 72.796875 
L 12.359375 72.796875 
Q 21.53125 60.546875 25.921875 48.1875 
Q 29.6875 37.546875 29.6875 25.921875 
Q 29.6875 12.75 24.625 0.4375 
Q 19.578125 -11.859375 12.359375 -21.046875 
z
" id="ArialMT-41"/>
      </defs>
      <g transform="translate(725.902037 323.070624)rotate(-45)scale(0.1 -0.1)">
       <use xlink:href="#ArialMT-80"/>
       <use x="66.699219" xlink:href="#ArialMT-97"/>
       <use x="122.314453" xlink:href="#ArialMT-105"/>
       <use x="144.53125" xlink:href="#ArialMT-114"/>
       <use x="177.832031" xlink:href="#ArialMT-32"/>
       <use x="205.615234" xlink:href="#ArialMT-49"/>
       <use x="261.230469" xlink:href="#ArialMT-32"/>
       <use x="289.013672" xlink:href="#ArialMT-40"/>
       <use x="322.314453" xlink:href="#ArialMT-68"/>
       <use x="394.53125" xlink:href="#ArialMT-80"/>
       <use x="461.230469" xlink:href="#ArialMT-73"/>
       <use x="489.013672" xlink:href="#ArialMT-32"/>
       <use x="516.796875" xlink:href="#ArialMT-50"/>
       <use x="572.412109" xlink:href="#ArialMT-32"/>
       <use x="600.195312" xlink:href="#ArialMT-45"/>
       <use x="633.496094" xlink:href="#ArialMT-45"/>
       <use x="666.796875" xlink:href="#ArialMT-62"/>
       <use x="725.195312" xlink:href="#ArialMT-32"/>
       <use x="752.978516" xlink:href="#ArialMT-68"/>
       <use x="825.195312" xlink:href="#ArialMT-80"/>
       <use x="891.894531" xlink:href="#ArialMT-73"/>
       <use x="919.677734" xlink:href="#ArialMT-32"/>
       <use x="947.460938" xlink:href="#ArialMT-51"/>
       <use x="1003.076172" xlink:href="#ArialMT-41"/>
      </g>
     </g>
    </g>
    <g id="xtick_10">
     <g id="line2d_18">
      <g>
       <use style="stroke:#000000;stroke-width:0.8;" x="851.207812" xlink:href="#m698904fc2a" y="237.642538"/>
      </g>
     </g>
     <g id="text_22">
      <!-- Pair 2 (DPI 5 - -&gt; DPI 6) -->
      <defs>
       <path d="M 49.75 54.046875 
L 41.015625 53.375 
Q 39.84375 58.546875 37.703125 60.890625 
Q 34.125 64.65625 28.90625 64.65625 
Q 24.703125 64.65625 21.53125 62.3125 
Q 17.390625 59.28125 14.984375 53.46875 
Q 12.59375 47.65625 12.5 36.921875 
Q 15.671875 41.75 20.265625 44.09375 
Q 24.859375 46.4375 29.890625 46.4375 
Q 38.671875 46.4375 44.84375 39.96875 
Q 51.03125 33.5 51.03125 23.25 
Q 51.03125 16.5 48.125 10.71875 
Q 45.21875 4.9375 40.140625 1.859375 
Q 35.0625 -1.21875 28.609375 -1.21875 
Q 17.625 -1.21875 10.6875 6.859375 
Q 3.765625 14.9375 3.765625 33.5 
Q 3.765625 54.25 11.421875 63.671875 
Q 18.109375 71.875 29.4375 71.875 
Q 37.890625 71.875 43.28125 67.140625 
Q 48.6875 62.40625 49.75 54.046875 
z
M 13.875 23.1875 
Q 13.875 18.65625 15.796875 14.5 
Q 17.71875 10.359375 21.1875 8.171875 
Q 24.65625 6 28.46875 6 
Q 34.03125 6 38.03125 10.484375 
Q 42.046875 14.984375 42.046875 22.703125 
Q 42.046875 30.125 38.078125 34.390625 
Q 34.125 38.671875 28.125 38.671875 
Q 22.171875 38.671875 18.015625 34.390625 
Q 13.875 30.125 13.875 23.1875 
z
" id="ArialMT-54"/>
      </defs>
      <g transform="translate(816.397167 323.070624)rotate(-45)scale(0.1 -0.1)">
       <use xlink:href="#ArialMT-80"/>
       <use x="66.699219" xlink:href="#ArialMT-97"/>
       <use x="122.314453" xlink:href="#ArialMT-105"/>
       <use x="144.53125" xlink:href="#ArialMT-114"/>
       <use x="177.832031" xlink:href="#ArialMT-32"/>
       <use x="205.615234" xlink:href="#ArialMT-50"/>
       <use x="261.230469" xlink:href="#ArialMT-32"/>
       <use x="289.013672" xlink:href="#ArialMT-40"/>
       <use x="322.314453" xlink:href="#ArialMT-68"/>
       <use x="394.53125" xlink:href="#ArialMT-80"/>
       <use x="461.230469" xlink:href="#ArialMT-73"/>
       <use x="489.013672" xlink:href="#ArialMT-32"/>
       <use x="516.796875" xlink:href="#ArialMT-53"/>
       <use x="572.412109" xlink:href="#ArialMT-32"/>
       <use x="600.195312" xlink:href="#ArialMT-45"/>
       <use x="633.496094" xlink:href="#ArialMT-45"/>
       <use x="666.796875" xlink:href="#ArialMT-62"/>
       <use x="725.195312" xlink:href="#ArialMT-32"/>
       <use x="752.978516" xlink:href="#ArialMT-68"/>
       <use x="825.195312" xlink:href="#ArialMT-80"/>
       <use x="891.894531" xlink:href="#ArialMT-73"/>
       <use x="919.677734" xlink:href="#ArialMT-32"/>
       <use x="947.460938" xlink:href="#ArialMT-54"/>
       <use x="1003.076172" xlink:href="#ArialMT-41"/>
      </g>
     </g>
    </g>
    <g id="xtick_11">
     <g id="line2d_19">
      <g>
       <use style="stroke:#000000;stroke-width:0.8;" x="941.702942" xlink:href="#m698904fc2a" y="237.642538"/>
      </g>
     </g>
     <g id="text_23">
      <!-- Pair 3 (DPI 4 - -&gt; DPI 5) -->
      <defs>
       <path d="M 32.328125 0 
L 32.328125 17.140625 
L 1.265625 17.140625 
L 1.265625 25.203125 
L 33.9375 71.578125 
L 41.109375 71.578125 
L 41.109375 25.203125 
L 50.78125 25.203125 
L 50.78125 17.140625 
L 41.109375 17.140625 
L 41.109375 0 
z
M 32.328125 25.203125 
L 32.328125 57.46875 
L 9.90625 25.203125 
z
" id="ArialMT-52"/>
      </defs>
      <g transform="translate(906.892297 323.070624)rotate(-45)scale(0.1 -0.1)">
       <use xlink:href="#ArialMT-80"/>
       <use x="66.699219" xlink:href="#ArialMT-97"/>
       <use x="122.314453" xlink:href="#ArialMT-105"/>
       <use x="144.53125" xlink:href="#ArialMT-114"/>
       <use x="177.832031" xlink:href="#ArialMT-32"/>
       <use x="205.615234" xlink:href="#ArialMT-51"/>
       <use x="261.230469" xlink:href="#ArialMT-32"/>
       <use x="289.013672" xlink:href="#ArialMT-40"/>
       <use x="322.314453" xlink:href="#ArialMT-68"/>
       <use x="394.53125" xlink:href="#ArialMT-80"/>
       <use x="461.230469" xlink:href="#ArialMT-73"/>
       <use x="489.013672" xlink:href="#ArialMT-32"/>
       <use x="516.796875" xlink:href="#ArialMT-52"/>
       <use x="572.412109" xlink:href="#ArialMT-32"/>
       <use x="600.195312" xlink:href="#ArialMT-45"/>
       <use x="633.496094" xlink:href="#ArialMT-45"/>
       <use x="666.796875" xlink:href="#ArialMT-62"/>
       <use x="725.195312" xlink:href="#ArialMT-32"/>
       <use x="752.978516" xlink:href="#ArialMT-68"/>
       <use x="825.195312" xlink:href="#ArialMT-80"/>
       <use x="891.894531" xlink:href="#ArialMT-73"/>
       <use x="919.677734" xlink:href="#ArialMT-32"/>
       <use x="947.460938" xlink:href="#ArialMT-53"/>
       <use x="1003.076172" xlink:href="#ArialMT-41"/>
      </g>
     </g>
    </g>
   </g>
   <g id="matplotlib.axis_6">
    <g id="ytick_9">
     <g id="line2d_20">
      <g>
       <use style="stroke:#000000;stroke-width:0.8;" x="711.845312" xlink:href="#maa59298ecc" y="237.642538"/>
      </g>
     </g>
     <g id="text_24">
      <!-- 0 -->
      <g transform="translate(699.284375 241.221444)scale(0.1 -0.1)">
       <use xlink:href="#ArialMT-48"/>
      </g>
     </g>
    </g>
    <g id="ytick_10">
     <g id="line2d_21">
      <g>
       <use style="stroke:#000000;stroke-width:0.8;" x="711.845312" xlink:href="#maa59298ecc" y="180.92663"/>
      </g>
     </g>
     <g id="text_25">
      <!-- 5 -->
      <g transform="translate(699.284375 184.505536)scale(0.1 -0.1)">
       <use xlink:href="#ArialMT-53"/>
      </g>
     </g>
    </g>
    <g id="ytick_11">
     <g id="line2d_22">
      <g>
       <use style="stroke:#000000;stroke-width:0.8;" x="711.845312" xlink:href="#maa59298ecc" y="124.210722"/>
      </g>
     </g>
     <g id="text_26">
      <!-- 10 -->
      <g transform="translate(693.723437 127.789628)scale(0.1 -0.1)">
       <use xlink:href="#ArialMT-49"/>
       <use x="55.615234" xlink:href="#ArialMT-48"/>
      </g>
     </g>
    </g>
    <g id="ytick_12">
     <g id="line2d_23">
      <g>
       <use style="stroke:#000000;stroke-width:0.8;" x="711.845312" xlink:href="#maa59298ecc" y="67.494814"/>
      </g>
     </g>
     <g id="text_27">
      <!-- 15 -->
      <g transform="translate(693.723437 71.07372)scale(0.1 -0.1)">
       <use xlink:href="#ArialMT-49"/>
       <use x="55.615234" xlink:href="#ArialMT-53"/>
      </g>
     </g>
    </g>
    <g id="ytick_13">
     <g id="line2d_24">
      <g>
       <use style="stroke:#000000;stroke-width:0.8;" x="711.845312" xlink:href="#maa59298ecc" y="10.778906"/>
      </g>
     </g>
     <g id="text_28">
      <!-- 20 -->
      <g transform="translate(693.723437 14.357812)scale(0.1 -0.1)">
       <use xlink:href="#ArialMT-50"/>
       <use x="55.615234" xlink:href="#ArialMT-48"/>
      </g>
     </g>
    </g>
    <g id="text_29">
     <!-- Transmission bottleneck size (Nb) -->
     <defs>
      <path d="M 25.921875 0 
L 25.921875 63.140625 
L 2.34375 63.140625 
L 2.34375 71.578125 
L 59.078125 71.578125 
L 59.078125 63.140625 
L 35.40625 63.140625 
L 35.40625 0 
z
" id="ArialMT-84"/>
      <path d="M 3.078125 15.484375 
L 11.765625 16.84375 
Q 12.5 11.625 15.84375 8.84375 
Q 19.1875 6.0625 25.203125 6.0625 
Q 31.25 6.0625 34.171875 8.515625 
Q 37.109375 10.984375 37.109375 14.3125 
Q 37.109375 17.28125 34.515625 19 
Q 32.71875 20.171875 25.53125 21.96875 
Q 15.875 24.421875 12.140625 26.203125 
Q 8.40625 27.984375 6.46875 31.125 
Q 4.546875 34.28125 4.546875 38.09375 
Q 4.546875 41.546875 6.125 44.5 
Q 7.71875 47.46875 10.453125 49.421875 
Q 12.5 50.921875 16.03125 51.96875 
Q 19.578125 53.03125 23.640625 53.03125 
Q 29.734375 53.03125 34.34375 51.265625 
Q 38.96875 49.515625 41.15625 46.5 
Q 43.359375 43.5 44.1875 38.484375 
L 35.59375 37.3125 
Q 35.015625 41.3125 32.203125 43.546875 
Q 29.390625 45.796875 24.265625 45.796875 
Q 18.21875 45.796875 15.625 43.796875 
Q 13.03125 41.796875 13.03125 39.109375 
Q 13.03125 37.40625 14.109375 36.03125 
Q 15.1875 34.625 17.484375 33.6875 
Q 18.796875 33.203125 25.25 31.453125 
Q 34.578125 28.953125 38.25 27.359375 
Q 41.9375 25.78125 44.03125 22.75 
Q 46.140625 19.734375 46.140625 15.234375 
Q 46.140625 10.84375 43.578125 6.953125 
Q 41.015625 3.078125 36.171875 0.953125 
Q 31.34375 -1.171875 25.25 -1.171875 
Q 15.140625 -1.171875 9.84375 3.03125 
Q 4.546875 7.234375 3.078125 15.484375 
z
" id="ArialMT-115"/>
      <path d="M 6.59375 0 
L 6.59375 51.859375 
L 14.453125 51.859375 
L 14.453125 44.578125 
Q 16.890625 48.390625 20.9375 50.703125 
Q 25 53.03125 30.171875 53.03125 
Q 35.9375 53.03125 39.625 50.640625 
Q 43.3125 48.25 44.828125 43.953125 
Q 50.984375 53.03125 60.84375 53.03125 
Q 68.5625 53.03125 72.703125 48.75 
Q 76.859375 44.484375 76.859375 35.59375 
L 76.859375 0 
L 68.109375 0 
L 68.109375 32.671875 
Q 68.109375 37.9375 67.25 40.25 
Q 66.40625 42.578125 64.15625 43.984375 
Q 61.921875 45.40625 58.890625 45.40625 
Q 53.421875 45.40625 49.796875 41.765625 
Q 46.1875 38.140625 46.1875 30.125 
L 46.1875 0 
L 37.40625 0 
L 37.40625 33.6875 
Q 37.40625 39.546875 35.25 42.46875 
Q 33.109375 45.40625 28.21875 45.40625 
Q 24.515625 45.40625 21.359375 43.453125 
Q 18.21875 41.5 16.796875 37.734375 
Q 15.375 33.984375 15.375 26.90625 
L 15.375 0 
z
" id="ArialMT-109"/>
      <path d="M 14.703125 0 
L 6.546875 0 
L 6.546875 71.578125 
L 15.328125 71.578125 
L 15.328125 46.046875 
Q 20.90625 53.03125 29.546875 53.03125 
Q 34.328125 53.03125 38.59375 51.09375 
Q 42.875 49.171875 45.625 45.671875 
Q 48.390625 42.1875 49.953125 37.25 
Q 51.515625 32.328125 51.515625 26.703125 
Q 51.515625 13.375 44.921875 6.09375 
Q 38.328125 -1.171875 29.109375 -1.171875 
Q 19.921875 -1.171875 14.703125 6.5 
z
M 14.59375 26.3125 
Q 14.59375 17 17.140625 12.84375 
Q 21.296875 6.0625 28.375 6.0625 
Q 34.125 6.0625 38.328125 11.0625 
Q 42.53125 16.0625 42.53125 25.984375 
Q 42.53125 36.140625 38.5 40.96875 
Q 34.46875 45.796875 28.765625 45.796875 
Q 23 45.796875 18.796875 40.796875 
Q 14.59375 35.796875 14.59375 26.3125 
z
" id="ArialMT-98"/>
      <path d="M 6.390625 0 
L 6.390625 71.578125 
L 15.1875 71.578125 
L 15.1875 0 
z
" id="ArialMT-108"/>
      <path d="M 6.640625 0 
L 6.640625 71.578125 
L 15.4375 71.578125 
L 15.4375 30.765625 
L 36.234375 51.859375 
L 47.609375 51.859375 
L 27.78125 32.625 
L 49.609375 0 
L 38.765625 0 
L 21.625 26.515625 
L 15.4375 20.5625 
L 15.4375 0 
z
" id="ArialMT-107"/>
      <path d="M 1.953125 0 
L 1.953125 7.125 
L 34.96875 45.015625 
Q 29.34375 44.734375 25.046875 44.734375 
L 3.90625 44.734375 
L 3.90625 51.859375 
L 46.296875 51.859375 
L 46.296875 46.046875 
L 18.21875 13.140625 
L 12.796875 7.125 
Q 18.703125 7.5625 23.875 7.5625 
L 47.859375 7.5625 
L 47.859375 0 
z
" id="ArialMT-122"/>
     </defs>
     <g transform="translate(687.61875 199.506816)rotate(-90)scale(0.1 -0.1)">
      <use xlink:href="#ArialMT-84"/>
      <use x="61.037109" xlink:href="#ArialMT-114"/>
      <use x="94.337891" xlink:href="#ArialMT-97"/>
      <use x="149.953125" xlink:href="#ArialMT-110"/>
      <use x="205.568359" xlink:href="#ArialMT-115"/>
      <use x="255.568359" xlink:href="#ArialMT-109"/>
      <use x="338.869141" xlink:href="#ArialMT-105"/>
      <use x="361.085938" xlink:href="#ArialMT-115"/>
      <use x="411.085938" xlink:href="#ArialMT-115"/>
      <use x="461.085938" xlink:href="#ArialMT-105"/>
      <use x="483.302734" xlink:href="#ArialMT-111"/>
      <use x="538.917969" xlink:href="#ArialMT-110"/>
      <use x="594.533203" xlink:href="#ArialMT-32"/>
      <use x="622.316406" xlink:href="#ArialMT-98"/>
      <use x="677.931641" xlink:href="#ArialMT-111"/>
      <use x="733.546875" xlink:href="#ArialMT-116"/>
      <use x="761.330078" xlink:href="#ArialMT-116"/>
      <use x="789.113281" xlink:href="#ArialMT-108"/>
      <use x="811.330078" xlink:href="#ArialMT-101"/>
      <use x="866.945312" xlink:href="#ArialMT-110"/>
      <use x="922.560547" xlink:href="#ArialMT-101"/>
      <use x="978.175781" xlink:href="#ArialMT-99"/>
      <use x="1028.175781" xlink:href="#ArialMT-107"/>
      <use x="1078.175781" xlink:href="#ArialMT-32"/>
      <use x="1105.958984" xlink:href="#ArialMT-115"/>
      <use x="1155.958984" xlink:href="#ArialMT-105"/>
      <use x="1178.175781" xlink:href="#ArialMT-122"/>
      <use x="1228.175781" xlink:href="#ArialMT-101"/>
      <use x="1283.791016" xlink:href="#ArialMT-32"/>
      <use x="1311.574219" xlink:href="#ArialMT-40"/>
      <use x="1344.875" xlink:href="#ArialMT-78"/>
      <use x="1417.091797" xlink:href="#ArialMT-98"/>
      <use x="1472.707031" xlink:href="#ArialMT-41"/>
     </g>
    </g>
   </g>
   <g id="LineCollection_1">
    <path clip-path="url(#p5c4aebdb81)" d="M 760.712683 226.299357 
L 760.712683 124.210722 
" style="fill:none;stroke:#a5628d;stroke-width:1.5;"/>
   </g>
   <g id="LineCollection_2">
    <path clip-path="url(#p5c4aebdb81)" d="M 851.207812 226.299357 
L 851.207812 158.240267 
" style="fill:none;stroke:#2d3047;stroke-width:1.5;"/>
   </g>
   <g id="LineCollection_3">
    <path clip-path="url(#p5c4aebdb81)" d="M 941.702942 226.299357 
L 941.702942 203.612993 
" style="fill:none;stroke:#42797c;stroke-width:1.5;"/>
   </g>
   <g id="line2d_25">
    <defs>
     <path d="M 4 0 
L -4 -0 
" id="md5d2084bd1" style="stroke:#a5628d;"/>
    </defs>
    <g clip-path="url(#p5c4aebdb81)">
     <use style="fill:#a5628d;stroke:#a5628d;" x="760.712683" xlink:href="#md5d2084bd1" y="226.299357"/>
    </g>
   </g>
   <g id="line2d_26">
    <g clip-path="url(#p5c4aebdb81)">
     <use style="fill:#a5628d;stroke:#a5628d;" x="760.712683" xlink:href="#md5d2084bd1" y="124.210722"/>
    </g>
   </g>
   <g id="line2d_27">
    <defs>
     <path d="M 4 0 
L -4 -0 
" id="m4978eae2e8" style="stroke:#2d3047;"/>
    </defs>
    <g clip-path="url(#p5c4aebdb81)">
     <use style="fill:#2d3047;stroke:#2d3047;" x="851.207812" xlink:href="#m4978eae2e8" y="226.299357"/>
    </g>
   </g>
   <g id="line2d_28">
    <g clip-path="url(#p5c4aebdb81)">
     <use style="fill:#2d3047;stroke:#2d3047;" x="851.207812" xlink:href="#m4978eae2e8" y="158.240267"/>
    </g>
   </g>
   <g id="line2d_29">
    <defs>
     <path d="M 4 0 
L -4 -0 
" id="m25c12b6bb5" style="stroke:#42797c;"/>
    </defs>
    <g clip-path="url(#p5c4aebdb81)">
     <use style="fill:#42797c;stroke:#42797c;" x="941.702942" xlink:href="#m25c12b6bb5" y="226.299357"/>
    </g>
   </g>
   <g id="line2d_30">
    <g clip-path="url(#p5c4aebdb81)">
     <use style="fill:#42797c;stroke:#42797c;" x="941.702942" xlink:href="#m25c12b6bb5" y="203.612993"/>
    </g>
   </g>
   <g id="line2d_31">
    <path clip-path="url(#p5c4aebdb81)" d="M 760.712683 180.92663 
" style="fill:none;stroke:#4c72b0;stroke-linecap:square;stroke-width:1.5;"/>
   </g>
   <g id="line2d_32">
    <path clip-path="url(#p5c4aebdb81)" d="M 851.207812 203.612993 
" style="fill:none;stroke:#4c72b0;stroke-linecap:square;stroke-width:1.5;"/>
   </g>
   <g id="line2d_33">
    <path clip-path="url(#p5c4aebdb81)" d="M 941.702942 214.956175 
" style="fill:none;stroke:#4c72b0;stroke-linecap:square;stroke-width:1.5;"/>
   </g>
   <g id="patch_12">
    <path d="M 711.845312 237.642538 
L 711.845312 10.778906 
" style="fill:none;stroke:#000000;stroke-linecap:square;stroke-linejoin:miter;stroke-width:0.8;"/>
   </g>
   <g id="patch_13">
    <path d="M 711.845312 237.642538 
L 990.570312 237.642538 
" style="fill:none;stroke:#000000;stroke-linecap:square;stroke-linejoin:miter;stroke-width:0.8;"/>
   </g>
  </g>
  <g id="legend_1">
   <g id="patch_14">
    <path d="M 994.985 70.272656 
L 1014.985 70.272656 
L 1014.985 63.272656 
L 994.985 63.272656 
z
" style="fill:#a5628d;stroke:#a5628d;stroke-linejoin:miter;"/>
   </g>
   <g id="text_30">
    <!-- Pair 1 DPI 2 - -&gt; DPI 3 -->
    <g transform="translate(1022.985 70.272656)scale(0.1 -0.1)">
     <use xlink:href="#ArialMT-80"/>
     <use x="66.699219" xlink:href="#ArialMT-97"/>
     <use x="122.314453" xlink:href="#ArialMT-105"/>
     <use x="144.53125" xlink:href="#ArialMT-114"/>
     <use x="177.832031" xlink:href="#ArialMT-32"/>
     <use x="205.615234" xlink:href="#ArialMT-49"/>
     <use x="261.230469" xlink:href="#ArialMT-32"/>
     <use x="289.013672" xlink:href="#ArialMT-68"/>
     <use x="361.230469" xlink:href="#ArialMT-80"/>
     <use x="427.929688" xlink:href="#ArialMT-73"/>
     <use x="455.712891" xlink:href="#ArialMT-32"/>
     <use x="483.496094" xlink:href="#ArialMT-50"/>
     <use x="539.111328" xlink:href="#ArialMT-32"/>
     <use x="566.894531" xlink:href="#ArialMT-45"/>
     <use x="600.195312" xlink:href="#ArialMT-45"/>
     <use x="633.496094" xlink:href="#ArialMT-62"/>
     <use x="691.894531" xlink:href="#ArialMT-32"/>
     <use x="719.677734" xlink:href="#ArialMT-68"/>
     <use x="791.894531" xlink:href="#ArialMT-80"/>
     <use x="858.59375" xlink:href="#ArialMT-73"/>
     <use x="886.376953" xlink:href="#ArialMT-32"/>
     <use x="914.160156" xlink:href="#ArialMT-51"/>
    </g>
   </g>
   <g id="patch_15">
    <path d="M 994.985 84.417969 
L 1014.985 84.417969 
L 1014.985 77.417969 
L 994.985 77.417969 
z
" style="fill:#2d3047;stroke:#2d3047;stroke-linejoin:miter;"/>
   </g>
   <g id="text_31">
    <!-- Pair 2 DPI 5 - -&gt; DPI 6 -->
    <g transform="translate(1022.985 84.417969)scale(0.1 -0.1)">
     <use xlink:href="#ArialMT-80"/>
     <use x="66.699219" xlink:href="#ArialMT-97"/>
     <use x="122.314453" xlink:href="#ArialMT-105"/>
     <use x="144.53125" xlink:href="#ArialMT-114"/>
     <use x="177.832031" xlink:href="#ArialMT-32"/>
     <use x="205.615234" xlink:href="#ArialMT-50"/>
     <use x="261.230469" xlink:href="#ArialMT-32"/>
     <use x="289.013672" xlink:href="#ArialMT-68"/>
     <use x="361.230469" xlink:href="#ArialMT-80"/>
     <use x="427.929688" xlink:href="#ArialMT-73"/>
     <use x="455.712891" xlink:href="#ArialMT-32"/>
     <use x="483.496094" xlink:href="#ArialMT-53"/>
     <use x="539.111328" xlink:href="#ArialMT-32"/>
     <use x="566.894531" xlink:href="#ArialMT-45"/>
     <use x="600.195312" xlink:href="#ArialMT-45"/>
     <use x="633.496094" xlink:href="#ArialMT-62"/>
     <use x="691.894531" xlink:href="#ArialMT-32"/>
     <use x="719.677734" xlink:href="#ArialMT-68"/>
     <use x="791.894531" xlink:href="#ArialMT-80"/>
     <use x="858.59375" xlink:href="#ArialMT-73"/>
     <use x="886.376953" xlink:href="#ArialMT-32"/>
     <use x="914.160156" xlink:href="#ArialMT-54"/>
    </g>
   </g>
   <g id="patch_16">
    <path d="M 994.985 98.563281 
L 1014.985 98.563281 
L 1014.985 91.563281 
L 994.985 91.563281 
z
" style="fill:#42797c;stroke:#42797c;stroke-linejoin:miter;"/>
   </g>
   <g id="text_32">
    <!-- Pair 3 DPI 4 - -&gt; DPI 5 -->
    <g transform="translate(1022.985 98.563281)scale(0.1 -0.1)">
     <use xlink:href="#ArialMT-80"/>
     <use x="66.699219" xlink:href="#ArialMT-97"/>
     <use x="122.314453" xlink:href="#ArialMT-105"/>
     <use x="144.53125" xlink:href="#ArialMT-114"/>
     <use x="177.832031" xlink:href="#ArialMT-32"/>
     <use x="205.615234" xlink:href="#ArialMT-51"/>
     <use x="261.230469" xlink:href="#ArialMT-32"/>
     <use x="289.013672" xlink:href="#ArialMT-68"/>
     <use x="361.230469" xlink:href="#ArialMT-80"/>
     <use x="427.929688" xlink:href="#ArialMT-73"/>
     <use x="455.712891" xlink:href="#ArialMT-32"/>
     <use x="483.496094" xlink:href="#ArialMT-52"/>
     <use x="539.111328" xlink:href="#ArialMT-32"/>
     <use x="566.894531" xlink:href="#ArialMT-45"/>
     <use x="600.195312" xlink:href="#ArialMT-45"/>
     <use x="633.496094" xlink:href="#ArialMT-62"/>
     <use x="691.894531" xlink:href="#ArialMT-32"/>
     <use x="719.677734" xlink:href="#ArialMT-68"/>
     <use x="791.894531" xlink:href="#ArialMT-80"/>
     <use x="858.59375" xlink:href="#ArialMT-73"/>
     <use x="886.376953" xlink:href="#ArialMT-32"/>
     <use x="914.160156" xlink:href="#ArialMT-53"/>
    </g>
   </g>
  </g>
 </g>
 <defs>
  <clipPath id="pa8069ad210">
   <rect height="226.863632" width="278.725" x="47.045313" y="10.778906"/>
  </clipPath>
  <clipPath id="p68b6b87252">
   <rect height="226.863632" width="278.725" x="379.445313" y="10.778906"/>
  </clipPath>
  <clipPath id="p5c4aebdb81">
   <rect height="226.863632" width="278.725" x="711.845312" y="10.778906"/>
  </clipPath>
 </defs>
</svg>
