<?xml version="1.0" encoding="utf-8" standalone="no"?>
<!DOCTYPE svg PUBLIC "-//W3C//DTD SVG 1.1//EN"
  "http://www.w3.org/Graphics/SVG/1.1/DTD/svg11.dtd">
<!-- Created with matplotlib (https://matplotlib.org/) -->
<svg height="180.662125pt" version="1.1" viewBox="0 0 552.935089 180.662125" width="552.935089pt" xmlns="http://www.w3.org/2000/svg" xmlns:xlink="http://www.w3.org/1999/xlink">
 <defs>
  <style type="text/css">
*{stroke-linecap:butt;stroke-linejoin:round;}
  </style>
 </defs>
 <g id="figure_1">
  <g id="patch_1">
   <path d="M 0 180.662125 
L 552.935089 180.662125 
L 552.935089 -0 
L 0 -0 
z
" style="fill:#ffffff;"/>
  </g>
  <g id="axes_1">
   <g id="patch_2">
    <path d="M 47.384375 142.311114 
L 414.070089 142.311114 
L 414.070089 21.789375 
L 47.384375 21.789375 
z
" style="fill:#ffffff;"/>
   </g>
   <g id="matplotlib.axis_1">
    <g id="xtick_1">
     <g id="line2d_1">
      <defs>
       <path d="M 0 0 
L 0 3.5 
" id="m46965706f3" style="stroke:#000000;stroke-width:0.8;"/>
      </defs>
      <g>
       <use style="stroke:#000000;stroke-width:0.8;" x="64.051907" xlink:href="#m46965706f3" y="142.311114"/>
      </g>
     </g>
     <g id="text_1">
      <!-- DPI 1 -->
      <defs>
       <path d="M 7.71875 0 
L 7.71875 71.578125 
L 32.375 71.578125 
Q 40.71875 71.578125 45.125 70.5625 
Q 51.265625 69.140625 55.609375 65.4375 
Q 61.28125 60.640625 64.078125 53.1875 
Q 66.890625 45.75 66.890625 36.1875 
Q 66.890625 28.03125 64.984375 21.734375 
Q 63.09375 15.4375 60.109375 11.296875 
Q 57.125 7.171875 53.578125 4.796875 
Q 50.046875 2.4375 45.046875 1.21875 
Q 40.046875 0 33.546875 0 
z
M 17.1875 8.453125 
L 32.46875 8.453125 
Q 39.546875 8.453125 43.578125 9.765625 
Q 47.609375 11.078125 50 13.484375 
Q 53.375 16.84375 55.25 22.53125 
Q 57.125 28.21875 57.125 36.328125 
Q 57.125 47.5625 53.4375 53.59375 
Q 49.75 59.625 44.484375 61.671875 
Q 40.671875 63.140625 32.234375 63.140625 
L 17.1875 63.140625 
z
" id="ArialMT-68"/>
       <path d="M 7.71875 0 
L 7.71875 71.578125 
L 34.71875 71.578125 
Q 41.84375 71.578125 45.609375 70.90625 
Q 50.875 70.015625 54.4375 67.546875 
Q 58.015625 65.09375 60.1875 60.640625 
Q 62.359375 56.203125 62.359375 50.875 
Q 62.359375 41.75 56.546875 35.421875 
Q 50.734375 29.109375 35.546875 29.109375 
L 17.1875 29.109375 
L 17.1875 0 
z
M 17.1875 37.546875 
L 35.6875 37.546875 
Q 44.875 37.546875 48.734375 40.96875 
Q 52.59375 44.390625 52.59375 50.59375 
Q 52.59375 55.078125 50.3125 58.265625 
Q 48.046875 61.46875 44.34375 62.5 
Q 41.9375 63.140625 35.5 63.140625 
L 17.1875 63.140625 
z
" id="ArialMT-80"/>
       <path d="M 9.328125 0 
L 9.328125 71.578125 
L 18.796875 71.578125 
L 18.796875 0 
z
" id="ArialMT-73"/>
       <path id="ArialMT-32"/>
       <path d="M 37.25 0 
L 28.46875 0 
L 28.46875 56 
Q 25.296875 52.984375 20.140625 49.953125 
Q 14.984375 46.921875 10.890625 45.40625 
L 10.890625 53.90625 
Q 18.265625 57.375 23.78125 62.296875 
Q 29.296875 67.234375 31.59375 71.875 
L 37.25 71.875 
z
" id="ArialMT-49"/>
      </defs>
      <g transform="translate(57.03774 172.056751)rotate(-45)scale(0.1 -0.1)">
       <use xlink:href="#ArialMT-68"/>
       <use x="72.216797" xlink:href="#ArialMT-80"/>
       <use x="138.916016" xlink:href="#ArialMT-73"/>
       <use x="166.699219" xlink:href="#ArialMT-32"/>
       <use x="194.482422" xlink:href="#ArialMT-49"/>
      </g>
     </g>
    </g>
    <g id="xtick_2">
     <g id="line2d_2">
      <g>
       <use style="stroke:#000000;stroke-width:0.8;" x="111.673429" xlink:href="#m46965706f3" y="142.311114"/>
      </g>
     </g>
     <g id="text_2">
      <!-- DPI 2 -->
      <defs>
       <path d="M 50.34375 8.453125 
L 50.34375 0 
L 3.03125 0 
Q 2.9375 3.171875 4.046875 6.109375 
Q 5.859375 10.9375 9.828125 15.625 
Q 13.8125 20.3125 21.34375 26.46875 
Q 33.015625 36.03125 37.109375 41.625 
Q 41.21875 47.21875 41.21875 52.203125 
Q 41.21875 57.421875 37.46875 61 
Q 33.734375 64.59375 27.734375 64.59375 
Q 21.390625 64.59375 17.578125 60.78125 
Q 13.765625 56.984375 13.71875 50.25 
L 4.6875 51.171875 
Q 5.609375 61.28125 11.65625 66.578125 
Q 17.71875 71.875 27.9375 71.875 
Q 38.234375 71.875 44.234375 66.15625 
Q 50.25 60.453125 50.25 52 
Q 50.25 47.703125 48.484375 43.546875 
Q 46.734375 39.40625 42.65625 34.8125 
Q 38.578125 30.21875 29.109375 22.21875 
Q 21.1875 15.578125 18.9375 13.203125 
Q 16.703125 10.84375 15.234375 8.453125 
z
" id="ArialMT-50"/>
      </defs>
      <g transform="translate(104.659261 172.056751)rotate(-45)scale(0.1 -0.1)">
       <use xlink:href="#ArialMT-68"/>
       <use x="72.216797" xlink:href="#ArialMT-80"/>
       <use x="138.916016" xlink:href="#ArialMT-73"/>
       <use x="166.699219" xlink:href="#ArialMT-32"/>
       <use x="194.482422" xlink:href="#ArialMT-50"/>
      </g>
     </g>
    </g>
    <g id="xtick_3">
     <g id="line2d_3">
      <g>
       <use style="stroke:#000000;stroke-width:0.8;" x="159.29495" xlink:href="#m46965706f3" y="142.311114"/>
      </g>
     </g>
     <g id="text_3">
      <!-- DPI 3 -->
      <defs>
       <path d="M 4.203125 18.890625 
L 12.984375 20.0625 
Q 14.5 12.59375 18.140625 9.296875 
Q 21.78125 6 27 6 
Q 33.203125 6 37.46875 10.296875 
Q 41.75 14.59375 41.75 20.953125 
Q 41.75 27 37.796875 30.921875 
Q 33.84375 34.859375 27.734375 34.859375 
Q 25.25 34.859375 21.53125 33.890625 
L 22.515625 41.609375 
Q 23.390625 41.5 23.921875 41.5 
Q 29.546875 41.5 34.03125 44.421875 
Q 38.53125 47.359375 38.53125 53.46875 
Q 38.53125 58.296875 35.25 61.46875 
Q 31.984375 64.65625 26.8125 64.65625 
Q 21.6875 64.65625 18.265625 61.421875 
Q 14.84375 58.203125 13.875 51.765625 
L 5.078125 53.328125 
Q 6.6875 62.15625 12.390625 67.015625 
Q 18.109375 71.875 26.609375 71.875 
Q 32.46875 71.875 37.390625 69.359375 
Q 42.328125 66.84375 44.9375 62.5 
Q 47.5625 58.15625 47.5625 53.265625 
Q 47.5625 48.640625 45.0625 44.828125 
Q 42.578125 41.015625 37.703125 38.765625 
Q 44.046875 37.3125 47.5625 32.6875 
Q 51.078125 28.078125 51.078125 21.140625 
Q 51.078125 11.765625 44.234375 5.25 
Q 37.40625 -1.265625 26.953125 -1.265625 
Q 17.53125 -1.265625 11.296875 4.34375 
Q 5.078125 9.96875 4.203125 18.890625 
z
" id="ArialMT-51"/>
      </defs>
      <g transform="translate(152.280782 172.056751)rotate(-45)scale(0.1 -0.1)">
       <use xlink:href="#ArialMT-68"/>
       <use x="72.216797" xlink:href="#ArialMT-80"/>
       <use x="138.916016" xlink:href="#ArialMT-73"/>
       <use x="166.699219" xlink:href="#ArialMT-32"/>
       <use x="194.482422" xlink:href="#ArialMT-51"/>
      </g>
     </g>
    </g>
    <g id="xtick_4">
     <g id="line2d_4">
      <g>
       <use style="stroke:#000000;stroke-width:0.8;" x="206.916471" xlink:href="#m46965706f3" y="142.311114"/>
      </g>
     </g>
     <g id="text_4">
      <!-- DPI 4 -->
      <defs>
       <path d="M 32.328125 0 
L 32.328125 17.140625 
L 1.265625 17.140625 
L 1.265625 25.203125 
L 33.9375 71.578125 
L 41.109375 71.578125 
L 41.109375 25.203125 
L 50.78125 25.203125 
L 50.78125 17.140625 
L 41.109375 17.140625 
L 41.109375 0 
z
M 32.328125 25.203125 
L 32.328125 57.46875 
L 9.90625 25.203125 
z
" id="ArialMT-52"/>
      </defs>
      <g transform="translate(199.902304 172.056751)rotate(-45)scale(0.1 -0.1)">
       <use xlink:href="#ArialMT-68"/>
       <use x="72.216797" xlink:href="#ArialMT-80"/>
       <use x="138.916016" xlink:href="#ArialMT-73"/>
       <use x="166.699219" xlink:href="#ArialMT-32"/>
       <use x="194.482422" xlink:href="#ArialMT-52"/>
      </g>
     </g>
    </g>
    <g id="xtick_5">
     <g id="line2d_5">
      <g>
       <use style="stroke:#000000;stroke-width:0.8;" x="254.537993" xlink:href="#m46965706f3" y="142.311114"/>
      </g>
     </g>
     <g id="text_5">
      <!-- DPI 5 -->
      <defs>
       <path d="M 4.15625 18.75 
L 13.375 19.53125 
Q 14.40625 12.796875 18.140625 9.390625 
Q 21.875 6 27.15625 6 
Q 33.5 6 37.890625 10.78125 
Q 42.28125 15.578125 42.28125 23.484375 
Q 42.28125 31 38.0625 35.34375 
Q 33.84375 39.703125 27 39.703125 
Q 22.75 39.703125 19.328125 37.765625 
Q 15.921875 35.84375 13.96875 32.765625 
L 5.71875 33.84375 
L 12.640625 70.609375 
L 48.25 70.609375 
L 48.25 62.203125 
L 19.671875 62.203125 
L 15.828125 42.96875 
Q 22.265625 47.46875 29.34375 47.46875 
Q 38.71875 47.46875 45.15625 40.96875 
Q 51.609375 34.46875 51.609375 24.265625 
Q 51.609375 14.546875 45.953125 7.46875 
Q 39.0625 -1.21875 27.15625 -1.21875 
Q 17.390625 -1.21875 11.203125 4.25 
Q 5.03125 9.71875 4.15625 18.75 
z
" id="ArialMT-53"/>
      </defs>
      <g transform="translate(247.523825 172.056751)rotate(-45)scale(0.1 -0.1)">
       <use xlink:href="#ArialMT-68"/>
       <use x="72.216797" xlink:href="#ArialMT-80"/>
       <use x="138.916016" xlink:href="#ArialMT-73"/>
       <use x="166.699219" xlink:href="#ArialMT-32"/>
       <use x="194.482422" xlink:href="#ArialMT-53"/>
      </g>
     </g>
    </g>
    <g id="xtick_6">
     <g id="line2d_6">
      <g>
       <use style="stroke:#000000;stroke-width:0.8;" x="302.159514" xlink:href="#m46965706f3" y="142.311114"/>
      </g>
     </g>
     <g id="text_6">
      <!-- DPI 6 -->
      <defs>
       <path d="M 49.75 54.046875 
L 41.015625 53.375 
Q 39.84375 58.546875 37.703125 60.890625 
Q 34.125 64.65625 28.90625 64.65625 
Q 24.703125 64.65625 21.53125 62.3125 
Q 17.390625 59.28125 14.984375 53.46875 
Q 12.59375 47.65625 12.5 36.921875 
Q 15.671875 41.75 20.265625 44.09375 
Q 24.859375 46.4375 29.890625 46.4375 
Q 38.671875 46.4375 44.84375 39.96875 
Q 51.03125 33.5 51.03125 23.25 
Q 51.03125 16.5 48.125 10.71875 
Q 45.21875 4.9375 40.140625 1.859375 
Q 35.0625 -1.21875 28.609375 -1.21875 
Q 17.625 -1.21875 10.6875 6.859375 
Q 3.765625 14.9375 3.765625 33.5 
Q 3.765625 54.25 11.421875 63.671875 
Q 18.109375 71.875 29.4375 71.875 
Q 37.890625 71.875 43.28125 67.140625 
Q 48.6875 62.40625 49.75 54.046875 
z
M 13.875 23.1875 
Q 13.875 18.65625 15.796875 14.5 
Q 17.71875 10.359375 21.1875 8.171875 
Q 24.65625 6 28.46875 6 
Q 34.03125 6 38.03125 10.484375 
Q 42.046875 14.984375 42.046875 22.703125 
Q 42.046875 30.125 38.078125 34.390625 
Q 34.125 38.671875 28.125 38.671875 
Q 22.171875 38.671875 18.015625 34.390625 
Q 13.875 30.125 13.875 23.1875 
z
" id="ArialMT-54"/>
      </defs>
      <g transform="translate(295.145346 172.056751)rotate(-45)scale(0.1 -0.1)">
       <use xlink:href="#ArialMT-68"/>
       <use x="72.216797" xlink:href="#ArialMT-80"/>
       <use x="138.916016" xlink:href="#ArialMT-73"/>
       <use x="166.699219" xlink:href="#ArialMT-32"/>
       <use x="194.482422" xlink:href="#ArialMT-54"/>
      </g>
     </g>
    </g>
    <g id="xtick_7">
     <g id="line2d_7">
      <g>
       <use style="stroke:#000000;stroke-width:0.8;" x="349.781035" xlink:href="#m46965706f3" y="142.311114"/>
      </g>
     </g>
     <g id="text_7">
      <!-- DPI 7 -->
      <defs>
       <path d="M 4.734375 62.203125 
L 4.734375 70.65625 
L 51.078125 70.65625 
L 51.078125 63.8125 
Q 44.234375 56.546875 37.515625 44.484375 
Q 30.8125 32.421875 27.15625 19.671875 
Q 24.515625 10.6875 23.78125 0 
L 14.75 0 
Q 14.890625 8.453125 18.0625 20.40625 
Q 21.234375 32.375 27.171875 43.484375 
Q 33.109375 54.59375 39.796875 62.203125 
z
" id="ArialMT-55"/>
      </defs>
      <g transform="translate(342.766868 172.056751)rotate(-45)scale(0.1 -0.1)">
       <use xlink:href="#ArialMT-68"/>
       <use x="72.216797" xlink:href="#ArialMT-80"/>
       <use x="138.916016" xlink:href="#ArialMT-73"/>
       <use x="166.699219" xlink:href="#ArialMT-32"/>
       <use x="194.482422" xlink:href="#ArialMT-55"/>
      </g>
     </g>
    </g>
    <g id="xtick_8">
     <g id="line2d_8">
      <g>
       <use style="stroke:#000000;stroke-width:0.8;" x="397.402557" xlink:href="#m46965706f3" y="142.311114"/>
      </g>
     </g>
     <g id="text_8">
      <!-- DPI 8 -->
      <defs>
       <path d="M 17.671875 38.8125 
Q 12.203125 40.828125 9.5625 44.53125 
Q 6.9375 48.25 6.9375 53.421875 
Q 6.9375 61.234375 12.546875 66.546875 
Q 18.171875 71.875 27.484375 71.875 
Q 36.859375 71.875 42.578125 66.421875 
Q 48.296875 60.984375 48.296875 53.171875 
Q 48.296875 48.1875 45.671875 44.5 
Q 43.0625 40.828125 37.75 38.8125 
Q 44.34375 36.671875 47.78125 31.875 
Q 51.21875 27.09375 51.21875 20.453125 
Q 51.21875 11.28125 44.71875 5.03125 
Q 38.234375 -1.21875 27.640625 -1.21875 
Q 17.046875 -1.21875 10.546875 5.046875 
Q 4.046875 11.328125 4.046875 20.703125 
Q 4.046875 27.6875 7.59375 32.390625 
Q 11.140625 37.109375 17.671875 38.8125 
z
M 15.921875 53.71875 
Q 15.921875 48.640625 19.1875 45.40625 
Q 22.46875 42.1875 27.6875 42.1875 
Q 32.765625 42.1875 36.015625 45.375 
Q 39.265625 48.578125 39.265625 53.21875 
Q 39.265625 58.0625 35.90625 61.359375 
Q 32.5625 64.65625 27.59375 64.65625 
Q 22.5625 64.65625 19.234375 61.421875 
Q 15.921875 58.203125 15.921875 53.71875 
z
M 13.09375 20.65625 
Q 13.09375 16.890625 14.875 13.375 
Q 16.65625 9.859375 20.171875 7.921875 
Q 23.6875 6 27.734375 6 
Q 34.03125 6 38.125 10.046875 
Q 42.234375 14.109375 42.234375 20.359375 
Q 42.234375 26.703125 38.015625 30.859375 
Q 33.796875 35.015625 27.4375 35.015625 
Q 21.234375 35.015625 17.15625 30.90625 
Q 13.09375 26.8125 13.09375 20.65625 
z
" id="ArialMT-56"/>
      </defs>
      <g transform="translate(390.388389 172.056751)rotate(-45)scale(0.1 -0.1)">
       <use xlink:href="#ArialMT-68"/>
       <use x="72.216797" xlink:href="#ArialMT-80"/>
       <use x="138.916016" xlink:href="#ArialMT-73"/>
       <use x="166.699219" xlink:href="#ArialMT-32"/>
       <use x="194.482422" xlink:href="#ArialMT-56"/>
      </g>
     </g>
    </g>
   </g>
   <g id="matplotlib.axis_2">
    <g id="ytick_1">
     <g id="line2d_9">
      <defs>
       <path d="M 0 0 
L -3.5 0 
" id="m8fa5a3999d" style="stroke:#000000;stroke-width:0.8;"/>
      </defs>
      <g>
       <use style="stroke:#000000;stroke-width:0.8;" x="47.384375" xlink:href="#m8fa5a3999d" y="142.311114"/>
      </g>
     </g>
     <g id="text_9">
      <!-- $\mathdefault{10^{-3}}$ -->
      <defs>
       <path d="M 4.15625 35.296875 
Q 4.15625 48 6.765625 55.734375 
Q 9.375 63.484375 14.515625 67.671875 
Q 19.671875 71.875 27.484375 71.875 
Q 33.25 71.875 37.59375 69.546875 
Q 41.9375 67.234375 44.765625 62.859375 
Q 47.609375 58.5 49.21875 52.21875 
Q 50.828125 45.953125 50.828125 35.296875 
Q 50.828125 22.703125 48.234375 14.96875 
Q 45.65625 7.234375 40.5 3 
Q 35.359375 -1.21875 27.484375 -1.21875 
Q 17.140625 -1.21875 11.234375 6.203125 
Q 4.15625 15.140625 4.15625 35.296875 
z
M 13.1875 35.296875 
Q 13.1875 17.671875 17.3125 11.828125 
Q 21.4375 6 27.484375 6 
Q 33.546875 6 37.671875 11.859375 
Q 41.796875 17.71875 41.796875 35.296875 
Q 41.796875 52.984375 37.671875 58.78125 
Q 33.546875 64.59375 27.390625 64.59375 
Q 21.34375 64.59375 17.71875 59.46875 
Q 13.1875 52.9375 13.1875 35.296875 
z
" id="ArialMT-48"/>
       <path d="M 52.828125 31.203125 
L 5.5625 31.203125 
L 5.5625 39.40625 
L 52.828125 39.40625 
z
" id="ArialMT-8722"/>
      </defs>
      <g transform="translate(20.584375 147.467364)scale(0.1 -0.1)">
       <use transform="translate(0 0.99375)" xlink:href="#ArialMT-49"/>
       <use transform="translate(55.615234 0.99375)" xlink:href="#ArialMT-48"/>
       <use transform="translate(112.972813 70.6875)scale(0.7)" xlink:href="#ArialMT-8722"/>
       <use transform="translate(153.851719 70.6875)scale(0.7)" xlink:href="#ArialMT-51"/>
      </g>
     </g>
    </g>
    <g id="ytick_2">
     <g id="line2d_10">
      <g>
       <use style="stroke:#000000;stroke-width:0.8;" x="47.384375" xlink:href="#m8fa5a3999d" y="82.050245"/>
      </g>
     </g>
     <g id="text_10">
      <!-- $\mathdefault{10^{-2}}$ -->
      <g transform="translate(20.584375 87.206495)scale(0.1 -0.1)">
       <use transform="translate(0 0.99375)" xlink:href="#ArialMT-49"/>
       <use transform="translate(55.615234 0.99375)" xlink:href="#ArialMT-48"/>
       <use transform="translate(112.972813 70.6875)scale(0.7)" xlink:href="#ArialMT-8722"/>
       <use transform="translate(153.851719 70.6875)scale(0.7)" xlink:href="#ArialMT-50"/>
      </g>
     </g>
    </g>
    <g id="ytick_3">
     <g id="line2d_11">
      <g>
       <use style="stroke:#000000;stroke-width:0.8;" x="47.384375" xlink:href="#m8fa5a3999d" y="21.789375"/>
      </g>
     </g>
     <g id="text_11">
      <!-- $\mathdefault{10^{-1}}$ -->
      <g transform="translate(20.584375 26.945625)scale(0.1 -0.1)">
       <use transform="translate(0 0.99375)" xlink:href="#ArialMT-49"/>
       <use transform="translate(55.615234 0.99375)" xlink:href="#ArialMT-48"/>
       <use transform="translate(112.972813 70.6875)scale(0.7)" xlink:href="#ArialMT-8722"/>
       <use transform="translate(153.851719 70.6875)scale(0.7)" xlink:href="#ArialMT-49"/>
      </g>
     </g>
    </g>
    <g id="ytick_4">
     <g id="line2d_12">
      <defs>
       <path d="M 0 0 
L -2 0 
" id="m208c53a6a0" style="stroke:#000000;stroke-width:0.6;"/>
      </defs>
      <g>
       <use style="stroke:#000000;stroke-width:0.6;" x="47.384375" xlink:href="#m208c53a6a0" y="124.170785"/>
      </g>
     </g>
    </g>
    <g id="ytick_5">
     <g id="line2d_13">
      <g>
       <use style="stroke:#000000;stroke-width:0.6;" x="47.384375" xlink:href="#m208c53a6a0" y="113.559372"/>
      </g>
     </g>
    </g>
    <g id="ytick_6">
     <g id="line2d_14">
      <g>
       <use style="stroke:#000000;stroke-width:0.6;" x="47.384375" xlink:href="#m208c53a6a0" y="106.030456"/>
      </g>
     </g>
    </g>
    <g id="ytick_7">
     <g id="line2d_15">
      <g>
       <use style="stroke:#000000;stroke-width:0.6;" x="47.384375" xlink:href="#m208c53a6a0" y="100.190574"/>
      </g>
     </g>
    </g>
    <g id="ytick_8">
     <g id="line2d_16">
      <g>
       <use style="stroke:#000000;stroke-width:0.6;" x="47.384375" xlink:href="#m208c53a6a0" y="95.419043"/>
      </g>
     </g>
    </g>
    <g id="ytick_9">
     <g id="line2d_17">
      <g>
       <use style="stroke:#000000;stroke-width:0.6;" x="47.384375" xlink:href="#m208c53a6a0" y="91.384771"/>
      </g>
     </g>
    </g>
    <g id="ytick_10">
     <g id="line2d_18">
      <g>
       <use style="stroke:#000000;stroke-width:0.6;" x="47.384375" xlink:href="#m208c53a6a0" y="87.890126"/>
      </g>
     </g>
    </g>
    <g id="ytick_11">
     <g id="line2d_19">
      <g>
       <use style="stroke:#000000;stroke-width:0.6;" x="47.384375" xlink:href="#m208c53a6a0" y="84.807631"/>
      </g>
     </g>
    </g>
    <g id="ytick_12">
     <g id="line2d_20">
      <g>
       <use style="stroke:#000000;stroke-width:0.6;" x="47.384375" xlink:href="#m208c53a6a0" y="63.909915"/>
      </g>
     </g>
    </g>
    <g id="ytick_13">
     <g id="line2d_21">
      <g>
       <use style="stroke:#000000;stroke-width:0.6;" x="47.384375" xlink:href="#m208c53a6a0" y="53.298503"/>
      </g>
     </g>
    </g>
    <g id="ytick_14">
     <g id="line2d_22">
      <g>
       <use style="stroke:#000000;stroke-width:0.6;" x="47.384375" xlink:href="#m208c53a6a0" y="45.769586"/>
      </g>
     </g>
    </g>
    <g id="ytick_15">
     <g id="line2d_23">
      <g>
       <use style="stroke:#000000;stroke-width:0.6;" x="47.384375" xlink:href="#m208c53a6a0" y="39.929704"/>
      </g>
     </g>
    </g>
    <g id="ytick_16">
     <g id="line2d_24">
      <g>
       <use style="stroke:#000000;stroke-width:0.6;" x="47.384375" xlink:href="#m208c53a6a0" y="35.158174"/>
      </g>
     </g>
    </g>
    <g id="ytick_17">
     <g id="line2d_25">
      <g>
       <use style="stroke:#000000;stroke-width:0.6;" x="47.384375" xlink:href="#m208c53a6a0" y="31.123902"/>
      </g>
     </g>
    </g>
    <g id="ytick_18">
     <g id="line2d_26">
      <g>
       <use style="stroke:#000000;stroke-width:0.6;" x="47.384375" xlink:href="#m208c53a6a0" y="27.629257"/>
      </g>
     </g>
    </g>
    <g id="ytick_19">
     <g id="line2d_27">
      <g>
       <use style="stroke:#000000;stroke-width:0.6;" x="47.384375" xlink:href="#m208c53a6a0" y="24.546761"/>
      </g>
     </g>
    </g>
    <g id="text_12">
     <!-- πS (dotted) or πN (solid) -->
     <defs>
      <path d="M 24.65625 44.734375 
L 24.65625 0 
L 15.875 0 
L 15.875 44.734375 
L 2.203125 44.734375 
L 2.203125 51.859375 
L 66.84375 51.859375 
L 66.84375 44.734375 
L 55.03125 44.734375 
L 55.03125 0 
L 46.234375 0 
L 46.234375 44.734375 
z
" id="ArialMT-960"/>
      <path d="M 4.5 23 
L 13.421875 23.78125 
Q 14.0625 18.40625 16.375 14.96875 
Q 18.703125 11.53125 23.578125 9.40625 
Q 28.46875 7.28125 34.578125 7.28125 
Q 39.984375 7.28125 44.140625 8.890625 
Q 48.296875 10.5 50.3125 13.296875 
Q 52.34375 16.109375 52.34375 19.4375 
Q 52.34375 22.796875 50.390625 25.3125 
Q 48.4375 27.828125 43.953125 29.546875 
Q 41.0625 30.671875 31.203125 33.03125 
Q 21.34375 35.40625 17.390625 37.5 
Q 12.25 40.1875 9.734375 44.15625 
Q 7.234375 48.140625 7.234375 53.078125 
Q 7.234375 58.5 10.296875 63.203125 
Q 13.375 67.921875 19.28125 70.359375 
Q 25.203125 72.796875 32.421875 72.796875 
Q 40.375 72.796875 46.453125 70.234375 
Q 52.546875 67.671875 55.8125 62.6875 
Q 59.078125 57.71875 59.328125 51.421875 
L 50.25 50.734375 
Q 49.515625 57.515625 45.28125 60.984375 
Q 41.0625 64.453125 32.8125 64.453125 
Q 24.21875 64.453125 20.28125 61.296875 
Q 16.359375 58.15625 16.359375 53.71875 
Q 16.359375 49.859375 19.140625 47.359375 
Q 21.875 44.875 33.421875 42.265625 
Q 44.96875 39.65625 49.265625 37.703125 
Q 55.515625 34.8125 58.484375 30.390625 
Q 61.46875 25.984375 61.46875 20.21875 
Q 61.46875 14.5 58.203125 9.4375 
Q 54.9375 4.390625 48.796875 1.578125 
Q 42.671875 -1.21875 35.015625 -1.21875 
Q 25.296875 -1.21875 18.71875 1.609375 
Q 12.15625 4.4375 8.421875 10.125 
Q 4.6875 15.828125 4.5 23 
z
" id="ArialMT-83"/>
      <path d="M 23.390625 -21.046875 
Q 16.109375 -11.859375 11.078125 0.4375 
Q 6.0625 12.75 6.0625 25.921875 
Q 6.0625 37.546875 9.8125 48.1875 
Q 14.203125 60.546875 23.390625 72.796875 
L 29.6875 72.796875 
Q 23.78125 62.640625 21.875 58.296875 
Q 18.890625 51.5625 17.1875 44.234375 
Q 15.09375 35.109375 15.09375 25.875 
Q 15.09375 2.390625 29.6875 -21.046875 
z
" id="ArialMT-40"/>
      <path d="M 40.234375 0 
L 40.234375 6.546875 
Q 35.296875 -1.171875 25.734375 -1.171875 
Q 19.53125 -1.171875 14.328125 2.25 
Q 9.125 5.671875 6.265625 11.796875 
Q 3.421875 17.921875 3.421875 25.875 
Q 3.421875 33.640625 6 39.96875 
Q 8.59375 46.296875 13.765625 49.65625 
Q 18.953125 53.03125 25.34375 53.03125 
Q 30.03125 53.03125 33.6875 51.046875 
Q 37.359375 49.078125 39.65625 45.90625 
L 39.65625 71.578125 
L 48.390625 71.578125 
L 48.390625 0 
z
M 12.453125 25.875 
Q 12.453125 15.921875 16.640625 10.984375 
Q 20.84375 6.0625 26.5625 6.0625 
Q 32.328125 6.0625 36.34375 10.765625 
Q 40.375 15.484375 40.375 25.140625 
Q 40.375 35.796875 36.265625 40.765625 
Q 32.171875 45.75 26.171875 45.75 
Q 20.3125 45.75 16.375 40.96875 
Q 12.453125 36.1875 12.453125 25.875 
z
" id="ArialMT-100"/>
      <path d="M 3.328125 25.921875 
Q 3.328125 40.328125 11.328125 47.265625 
Q 18.015625 53.03125 27.640625 53.03125 
Q 38.328125 53.03125 45.109375 46.015625 
Q 51.90625 39.015625 51.90625 26.65625 
Q 51.90625 16.65625 48.90625 10.90625 
Q 45.90625 5.171875 40.15625 2 
Q 34.421875 -1.171875 27.640625 -1.171875 
Q 16.75 -1.171875 10.03125 5.8125 
Q 3.328125 12.796875 3.328125 25.921875 
z
M 12.359375 25.921875 
Q 12.359375 15.96875 16.703125 11.015625 
Q 21.046875 6.0625 27.640625 6.0625 
Q 34.1875 6.0625 38.53125 11.03125 
Q 42.875 16.015625 42.875 26.21875 
Q 42.875 35.84375 38.5 40.796875 
Q 34.125 45.75 27.640625 45.75 
Q 21.046875 45.75 16.703125 40.8125 
Q 12.359375 35.890625 12.359375 25.921875 
z
" id="ArialMT-111"/>
      <path d="M 25.78125 7.859375 
L 27.046875 0.09375 
Q 23.34375 -0.6875 20.40625 -0.6875 
Q 15.625 -0.6875 12.984375 0.828125 
Q 10.359375 2.34375 9.28125 4.8125 
Q 8.203125 7.28125 8.203125 15.1875 
L 8.203125 45.015625 
L 1.765625 45.015625 
L 1.765625 51.859375 
L 8.203125 51.859375 
L 8.203125 64.703125 
L 16.9375 69.96875 
L 16.9375 51.859375 
L 25.78125 51.859375 
L 25.78125 45.015625 
L 16.9375 45.015625 
L 16.9375 14.703125 
Q 16.9375 10.9375 17.40625 9.859375 
Q 17.875 8.796875 18.921875 8.15625 
Q 19.96875 7.515625 21.921875 7.515625 
Q 23.390625 7.515625 25.78125 7.859375 
z
" id="ArialMT-116"/>
      <path d="M 42.09375 16.703125 
L 51.171875 15.578125 
Q 49.03125 7.625 43.21875 3.21875 
Q 37.40625 -1.171875 28.375 -1.171875 
Q 17 -1.171875 10.328125 5.828125 
Q 3.65625 12.84375 3.65625 25.484375 
Q 3.65625 38.578125 10.390625 45.796875 
Q 17.140625 53.03125 27.875 53.03125 
Q 38.28125 53.03125 44.875 45.953125 
Q 51.46875 38.875 51.46875 26.03125 
Q 51.46875 25.25 51.421875 23.6875 
L 12.75 23.6875 
Q 13.234375 15.140625 17.578125 10.59375 
Q 21.921875 6.0625 28.421875 6.0625 
Q 33.25 6.0625 36.671875 8.59375 
Q 40.09375 11.140625 42.09375 16.703125 
z
M 13.234375 30.90625 
L 42.1875 30.90625 
Q 41.609375 37.453125 38.875 40.71875 
Q 34.671875 45.796875 27.984375 45.796875 
Q 21.921875 45.796875 17.796875 41.75 
Q 13.671875 37.703125 13.234375 30.90625 
z
" id="ArialMT-101"/>
      <path d="M 12.359375 -21.046875 
L 6.0625 -21.046875 
Q 20.65625 2.390625 20.65625 25.875 
Q 20.65625 35.0625 18.5625 44.09375 
Q 16.890625 51.421875 13.921875 58.15625 
Q 12.015625 62.546875 6.0625 72.796875 
L 12.359375 72.796875 
Q 21.53125 60.546875 25.921875 48.1875 
Q 29.6875 37.546875 29.6875 25.921875 
Q 29.6875 12.75 24.625 0.4375 
Q 19.578125 -11.859375 12.359375 -21.046875 
z
" id="ArialMT-41"/>
      <path d="M 6.5 0 
L 6.5 51.859375 
L 14.40625 51.859375 
L 14.40625 44 
Q 17.4375 49.515625 20 51.265625 
Q 22.5625 53.03125 25.640625 53.03125 
Q 30.078125 53.03125 34.671875 50.203125 
L 31.640625 42.046875 
Q 28.421875 43.953125 25.203125 43.953125 
Q 22.3125 43.953125 20.015625 42.21875 
Q 17.71875 40.484375 16.75 37.40625 
Q 15.28125 32.71875 15.28125 27.15625 
L 15.28125 0 
z
" id="ArialMT-114"/>
      <path d="M 7.625 0 
L 7.625 71.578125 
L 17.328125 71.578125 
L 54.9375 15.375 
L 54.9375 71.578125 
L 64.015625 71.578125 
L 64.015625 0 
L 54.296875 0 
L 16.703125 56.25 
L 16.703125 0 
z
" id="ArialMT-78"/>
      <path d="M 3.078125 15.484375 
L 11.765625 16.84375 
Q 12.5 11.625 15.84375 8.84375 
Q 19.1875 6.0625 25.203125 6.0625 
Q 31.25 6.0625 34.171875 8.515625 
Q 37.109375 10.984375 37.109375 14.3125 
Q 37.109375 17.28125 34.515625 19 
Q 32.71875 20.171875 25.53125 21.96875 
Q 15.875 24.421875 12.140625 26.203125 
Q 8.40625 27.984375 6.46875 31.125 
Q 4.546875 34.28125 4.546875 38.09375 
Q 4.546875 41.546875 6.125 44.5 
Q 7.71875 47.46875 10.453125 49.421875 
Q 12.5 50.921875 16.03125 51.96875 
Q 19.578125 53.03125 23.640625 53.03125 
Q 29.734375 53.03125 34.34375 51.265625 
Q 38.96875 49.515625 41.15625 46.5 
Q 43.359375 43.5 44.1875 38.484375 
L 35.59375 37.3125 
Q 35.015625 41.3125 32.203125 43.546875 
Q 29.390625 45.796875 24.265625 45.796875 
Q 18.21875 45.796875 15.625 43.796875 
Q 13.03125 41.796875 13.03125 39.109375 
Q 13.03125 37.40625 14.109375 36.03125 
Q 15.1875 34.625 17.484375 33.6875 
Q 18.796875 33.203125 25.25 31.453125 
Q 34.578125 28.953125 38.25 27.359375 
Q 41.9375 25.78125 44.03125 22.75 
Q 46.140625 19.734375 46.140625 15.234375 
Q 46.140625 10.84375 43.578125 6.953125 
Q 41.015625 3.078125 36.171875 0.953125 
Q 31.34375 -1.171875 25.25 -1.171875 
Q 15.140625 -1.171875 9.84375 3.03125 
Q 4.546875 7.234375 3.078125 15.484375 
z
" id="ArialMT-115"/>
      <path d="M 6.390625 0 
L 6.390625 71.578125 
L 15.1875 71.578125 
L 15.1875 0 
z
" id="ArialMT-108"/>
      <path d="M 6.640625 61.46875 
L 6.640625 71.578125 
L 15.4375 71.578125 
L 15.4375 61.46875 
z
M 6.640625 0 
L 6.640625 51.859375 
L 15.4375 51.859375 
L 15.4375 0 
z
" id="ArialMT-105"/>
     </defs>
     <g transform="translate(14.479688 136.740088)rotate(-90)scale(0.1 -0.1)">
      <use xlink:href="#ArialMT-960"/>
      <use x="68.994141" xlink:href="#ArialMT-83"/>
      <use x="135.693359" xlink:href="#ArialMT-32"/>
      <use x="163.476562" xlink:href="#ArialMT-40"/>
      <use x="196.777344" xlink:href="#ArialMT-100"/>
      <use x="252.392578" xlink:href="#ArialMT-111"/>
      <use x="308.007812" xlink:href="#ArialMT-116"/>
      <use x="335.791016" xlink:href="#ArialMT-116"/>
      <use x="363.574219" xlink:href="#ArialMT-101"/>
      <use x="419.189453" xlink:href="#ArialMT-100"/>
      <use x="474.804688" xlink:href="#ArialMT-41"/>
      <use x="508.105469" xlink:href="#ArialMT-32"/>
      <use x="535.888672" xlink:href="#ArialMT-111"/>
      <use x="591.503906" xlink:href="#ArialMT-114"/>
      <use x="624.804688" xlink:href="#ArialMT-32"/>
      <use x="652.587891" xlink:href="#ArialMT-960"/>
      <use x="721.582031" xlink:href="#ArialMT-78"/>
      <use x="793.798828" xlink:href="#ArialMT-32"/>
      <use x="821.582031" xlink:href="#ArialMT-40"/>
      <use x="854.882812" xlink:href="#ArialMT-115"/>
      <use x="904.882812" xlink:href="#ArialMT-111"/>
      <use x="960.498047" xlink:href="#ArialMT-108"/>
      <use x="982.714844" xlink:href="#ArialMT-105"/>
      <use x="1004.931641" xlink:href="#ArialMT-100"/>
      <use x="1060.546875" xlink:href="#ArialMT-41"/>
     </g>
    </g>
   </g>
   <g id="line2d_28">
    <path clip-path="url(#p8d525e9b09)" d="M 64.051907 56.780083 
L 111.673429 68.922647 
L 159.29495 57.033693 
L 206.916471 67.1828 
L 254.537993 64.87421 
M 349.781035 52.86498 
L 397.402557 65.048116 
" style="fill:none;stroke:#8da395;stroke-dasharray:1,1.65;stroke-dashoffset:0;"/>
    <defs>
     <path d="M 0 1.5 
C 0.397805 1.5 0.77937 1.341951 1.06066 1.06066 
C 1.341951 0.77937 1.5 0.397805 1.5 0 
C 1.5 -0.397805 1.341951 -0.77937 1.06066 -1.06066 
C 0.77937 -1.341951 0.397805 -1.5 0 -1.5 
C -0.397805 -1.5 -0.77937 -1.341951 -1.06066 -1.06066 
C -1.341951 -0.77937 -1.5 -0.397805 -1.5 0 
C -1.5 0.397805 -1.341951 0.77937 -1.06066 1.06066 
C -0.77937 1.341951 -0.397805 1.5 0 1.5 
z
" id="m730f991ffb" style="stroke:#8da395;"/>
    </defs>
    <g clip-path="url(#p8d525e9b09)">
     <use style="fill:#8da395;stroke:#8da395;" x="64.051907" xlink:href="#m730f991ffb" y="56.780083"/>
     <use style="fill:#8da395;stroke:#8da395;" x="111.673429" xlink:href="#m730f991ffb" y="68.922647"/>
     <use style="fill:#8da395;stroke:#8da395;" x="159.29495" xlink:href="#m730f991ffb" y="57.033693"/>
     <use style="fill:#8da395;stroke:#8da395;" x="206.916471" xlink:href="#m730f991ffb" y="67.1828"/>
     <use style="fill:#8da395;stroke:#8da395;" x="254.537993" xlink:href="#m730f991ffb" y="64.87421"/>
     <use style="fill:#8da395;stroke:#8da395;" x="349.781035" xlink:href="#m730f991ffb" y="52.86498"/>
     <use style="fill:#8da395;stroke:#8da395;" x="397.402557" xlink:href="#m730f991ffb" y="65.048116"/>
    </g>
   </g>
   <g id="line2d_29">
    <path clip-path="url(#p8d525e9b09)" d="M 64.051907 137.061897 
L 111.673429 119.190969 
L 159.29495 101.369558 
L 206.916471 100.972612 
L 254.537993 108.380592 
M 349.781035 95.370086 
L 397.402557 119.505636 
" style="fill:none;stroke:#a86566;stroke-dasharray:1,1.65;stroke-dashoffset:0;"/>
    <defs>
     <path d="M 0 1.5 
C 0.397805 1.5 0.77937 1.341951 1.06066 1.06066 
C 1.341951 0.77937 1.5 0.397805 1.5 0 
C 1.5 -0.397805 1.341951 -0.77937 1.06066 -1.06066 
C 0.77937 -1.341951 0.397805 -1.5 0 -1.5 
C -0.397805 -1.5 -0.77937 -1.341951 -1.06066 -1.06066 
C -1.341951 -0.77937 -1.5 -0.397805 -1.5 0 
C -1.5 0.397805 -1.341951 0.77937 -1.06066 1.06066 
C -0.77937 1.341951 -0.397805 1.5 0 1.5 
z
" id="m211c5edc1c" style="stroke:#a86566;"/>
    </defs>
    <g clip-path="url(#p8d525e9b09)">
     <use style="fill:#a86566;stroke:#a86566;" x="64.051907" xlink:href="#m211c5edc1c" y="137.061897"/>
     <use style="fill:#a86566;stroke:#a86566;" x="111.673429" xlink:href="#m211c5edc1c" y="119.190969"/>
     <use style="fill:#a86566;stroke:#a86566;" x="159.29495" xlink:href="#m211c5edc1c" y="101.369558"/>
     <use style="fill:#a86566;stroke:#a86566;" x="206.916471" xlink:href="#m211c5edc1c" y="100.972612"/>
     <use style="fill:#a86566;stroke:#a86566;" x="254.537993" xlink:href="#m211c5edc1c" y="108.380592"/>
     <use style="fill:#a86566;stroke:#a86566;" x="349.781035" xlink:href="#m211c5edc1c" y="95.370086"/>
     <use style="fill:#a86566;stroke:#a86566;" x="397.402557" xlink:href="#m211c5edc1c" y="119.505636"/>
    </g>
   </g>
   <g id="line2d_30">
    <path clip-path="url(#p8d525e9b09)" d="M 64.051907 97.692176 
L 111.673429 97.480556 
M 206.916471 97.836017 
M 349.781035 97.473544 
" style="fill:none;stroke:#a4a58c;stroke-dasharray:1,1.65;stroke-dashoffset:0;"/>
    <defs>
     <path d="M 0 1.5 
C 0.397805 1.5 0.77937 1.341951 1.06066 1.06066 
C 1.341951 0.77937 1.5 0.397805 1.5 0 
C 1.5 -0.397805 1.341951 -0.77937 1.06066 -1.06066 
C 0.77937 -1.341951 0.397805 -1.5 0 -1.5 
C -0.397805 -1.5 -0.77937 -1.341951 -1.06066 -1.06066 
C -1.341951 -0.77937 -1.5 -0.397805 -1.5 0 
C -1.5 0.397805 -1.341951 0.77937 -1.06066 1.06066 
C -0.77937 1.341951 -0.397805 1.5 0 1.5 
z
" id="m8879f6064e" style="stroke:#a4a58c;"/>
    </defs>
    <g clip-path="url(#p8d525e9b09)">
     <use style="fill:#a4a58c;stroke:#a4a58c;" x="64.051907" xlink:href="#m8879f6064e" y="97.692176"/>
     <use style="fill:#a4a58c;stroke:#a4a58c;" x="111.673429" xlink:href="#m8879f6064e" y="97.480556"/>
     <use style="fill:#a4a58c;stroke:#a4a58c;" x="206.916471" xlink:href="#m8879f6064e" y="97.836017"/>
     <use style="fill:#a4a58c;stroke:#a4a58c;" x="349.781035" xlink:href="#m8879f6064e" y="97.473544"/>
    </g>
   </g>
   <g id="line2d_31">
    <path clip-path="url(#p8d525e9b09)" d="M 159.29495 70.030435 
L 206.916471 70.00738 
L 254.537993 69.63935 
M 349.781035 68.23427 
" style="fill:none;stroke:#cb997d;stroke-dasharray:1,1.65;stroke-dashoffset:0;"/>
    <defs>
     <path d="M 0 1.5 
C 0.397805 1.5 0.77937 1.341951 1.06066 1.06066 
C 1.341951 0.77937 1.5 0.397805 1.5 0 
C 1.5 -0.397805 1.341951 -0.77937 1.06066 -1.06066 
C 0.77937 -1.341951 0.397805 -1.5 0 -1.5 
C -0.397805 -1.5 -0.77937 -1.341951 -1.06066 -1.06066 
C -1.341951 -0.77937 -1.5 -0.397805 -1.5 0 
C -1.5 0.397805 -1.341951 0.77937 -1.06066 1.06066 
C -0.77937 1.341951 -0.397805 1.5 0 1.5 
z
" id="mcc0b8928ca" style="stroke:#cb997d;"/>
    </defs>
    <g clip-path="url(#p8d525e9b09)">
     <use style="fill:#cb997d;stroke:#cb997d;" x="159.29495" xlink:href="#mcc0b8928ca" y="70.030435"/>
     <use style="fill:#cb997d;stroke:#cb997d;" x="206.916471" xlink:href="#mcc0b8928ca" y="70.00738"/>
     <use style="fill:#cb997d;stroke:#cb997d;" x="254.537993" xlink:href="#mcc0b8928ca" y="69.63935"/>
     <use style="fill:#cb997d;stroke:#cb997d;" x="349.781035" xlink:href="#mcc0b8928ca" y="68.23427"/>
    </g>
   </g>
   <g id="line2d_32">
    <path clip-path="url(#p8d525e9b09)" d="M 159.29495 93.35707 
" style="fill:none;stroke:#c87f7f;stroke-dasharray:1,1.65;stroke-dashoffset:0;"/>
    <defs>
     <path d="M 0 1.5 
C 0.397805 1.5 0.77937 1.341951 1.06066 1.06066 
C 1.341951 0.77937 1.5 0.397805 1.5 0 
C 1.5 -0.397805 1.341951 -0.77937 1.06066 -1.06066 
C 0.77937 -1.341951 0.397805 -1.5 0 -1.5 
C -0.397805 -1.5 -0.77937 -1.341951 -1.06066 -1.06066 
C -1.341951 -0.77937 -1.5 -0.397805 -1.5 0 
C -1.5 0.397805 -1.341951 0.77937 -1.06066 1.06066 
C -0.77937 1.341951 -0.397805 1.5 0 1.5 
z
" id="m9f1cf60f8b" style="stroke:#c87f7f;"/>
    </defs>
    <g clip-path="url(#p8d525e9b09)">
     <use style="fill:#c87f7f;stroke:#c87f7f;" x="159.29495" xlink:href="#m9f1cf60f8b" y="93.35707"/>
    </g>
   </g>
   <g id="line2d_33">
    <path clip-path="url(#p8d525e9b09)" d="M 0 0 
" style="fill:none;stroke:#59667c;stroke-dasharray:1,1.65;stroke-dashoffset:0;"/>
    <defs>
     <path d="M 0 1.5 
C 0.397805 1.5 0.77937 1.341951 1.06066 1.06066 
C 1.341951 0.77937 1.5 0.397805 1.5 0 
C 1.5 -0.397805 1.341951 -0.77937 1.06066 -1.06066 
C 0.77937 -1.341951 0.397805 -1.5 0 -1.5 
C -0.397805 -1.5 -0.77937 -1.341951 -1.06066 -1.06066 
C -1.341951 -0.77937 -1.5 -0.397805 -1.5 0 
C -1.5 0.397805 -1.341951 0.77937 -1.06066 1.06066 
C -0.77937 1.341951 -0.397805 1.5 0 1.5 
z
" id="m30ea4b16f7" style="stroke:#59667c;"/>
    </defs>
    <g clip-path="url(#p8d525e9b09)">
     <use style="fill:#59667c;stroke:#59667c;" x="0" xlink:href="#m30ea4b16f7" y="0"/>
    </g>
   </g>
   <g id="line2d_34">
    <path clip-path="url(#p8d525e9b09)" d="M 111.673429 76.190161 
M 349.781035 77.109929 
" style="fill:none;stroke:#715c7c;stroke-dasharray:1,1.65;stroke-dashoffset:0;"/>
    <defs>
     <path d="M 0 1.5 
C 0.397805 1.5 0.77937 1.341951 1.06066 1.06066 
C 1.341951 0.77937 1.5 0.397805 1.5 0 
C 1.5 -0.397805 1.341951 -0.77937 1.06066 -1.06066 
C 0.77937 -1.341951 0.397805 -1.5 0 -1.5 
C -0.397805 -1.5 -0.77937 -1.341951 -1.06066 -1.06066 
C -1.341951 -0.77937 -1.5 -0.397805 -1.5 0 
C -1.5 0.397805 -1.341951 0.77937 -1.06066 1.06066 
C -0.77937 1.341951 -0.397805 1.5 0 1.5 
z
" id="meba5e25017" style="stroke:#715c7c;"/>
    </defs>
    <g clip-path="url(#p8d525e9b09)">
     <use style="fill:#715c7c;stroke:#715c7c;" x="111.673429" xlink:href="#meba5e25017" y="76.190161"/>
     <use style="fill:#715c7c;stroke:#715c7c;" x="349.781035" xlink:href="#meba5e25017" y="77.109929"/>
    </g>
   </g>
   <g id="line2d_35">
    <path clip-path="url(#p8d525e9b09)" d="M 64.051907 75.843276 
L 111.673429 76.009305 
M 254.537993 57.12663 
M 349.781035 57.669977 
L 397.402557 58.929651 
" style="fill:none;stroke:#ccba85;stroke-dasharray:1,1.65;stroke-dashoffset:0;"/>
    <defs>
     <path d="M 0 1.5 
C 0.397805 1.5 0.77937 1.341951 1.06066 1.06066 
C 1.341951 0.77937 1.5 0.397805 1.5 0 
C 1.5 -0.397805 1.341951 -0.77937 1.06066 -1.06066 
C 0.77937 -1.341951 0.397805 -1.5 0 -1.5 
C -0.397805 -1.5 -0.77937 -1.341951 -1.06066 -1.06066 
C -1.341951 -0.77937 -1.5 -0.397805 -1.5 0 
C -1.5 0.397805 -1.341951 0.77937 -1.06066 1.06066 
C -0.77937 1.341951 -0.397805 1.5 0 1.5 
z
" id="m2ff940a5c5" style="stroke:#ccba85;"/>
    </defs>
    <g clip-path="url(#p8d525e9b09)">
     <use style="fill:#ccba85;stroke:#ccba85;" x="64.051907" xlink:href="#m2ff940a5c5" y="75.843276"/>
     <use style="fill:#ccba85;stroke:#ccba85;" x="111.673429" xlink:href="#m2ff940a5c5" y="76.009305"/>
     <use style="fill:#ccba85;stroke:#ccba85;" x="254.537993" xlink:href="#m2ff940a5c5" y="57.12663"/>
     <use style="fill:#ccba85;stroke:#ccba85;" x="349.781035" xlink:href="#m2ff940a5c5" y="57.669977"/>
     <use style="fill:#ccba85;stroke:#ccba85;" x="397.402557" xlink:href="#m2ff940a5c5" y="58.929651"/>
    </g>
   </g>
   <g id="line2d_36">
    <path clip-path="url(#p8d525e9b09)" d="M 64.051907 109.551259 
L 111.673429 108.762706 
L 159.29495 91.06478 
L 206.916471 109.790078 
L 254.537993 90.186869 
M 397.402557 91.610003 
" style="fill:none;stroke:#8b9aa0;stroke-dasharray:1,1.65;stroke-dashoffset:0;"/>
    <defs>
     <path d="M 0 1.5 
C 0.397805 1.5 0.77937 1.341951 1.06066 1.06066 
C 1.341951 0.77937 1.5 0.397805 1.5 0 
C 1.5 -0.397805 1.341951 -0.77937 1.06066 -1.06066 
C 0.77937 -1.341951 0.397805 -1.5 0 -1.5 
C -0.397805 -1.5 -0.77937 -1.341951 -1.06066 -1.06066 
C -1.341951 -0.77937 -1.5 -0.397805 -1.5 0 
C -1.5 0.397805 -1.341951 0.77937 -1.06066 1.06066 
C -0.77937 1.341951 -0.397805 1.5 0 1.5 
z
" id="m4694a71677" style="stroke:#8b9aa0;"/>
    </defs>
    <g clip-path="url(#p8d525e9b09)">
     <use style="fill:#8b9aa0;stroke:#8b9aa0;" x="64.051907" xlink:href="#m4694a71677" y="109.551259"/>
     <use style="fill:#8b9aa0;stroke:#8b9aa0;" x="111.673429" xlink:href="#m4694a71677" y="108.762706"/>
     <use style="fill:#8b9aa0;stroke:#8b9aa0;" x="159.29495" xlink:href="#m4694a71677" y="91.06478"/>
     <use style="fill:#8b9aa0;stroke:#8b9aa0;" x="206.916471" xlink:href="#m4694a71677" y="109.790078"/>
     <use style="fill:#8b9aa0;stroke:#8b9aa0;" x="254.537993" xlink:href="#m4694a71677" y="90.186869"/>
     <use style="fill:#8b9aa0;stroke:#8b9aa0;" x="397.402557" xlink:href="#m4694a71677" y="91.610003"/>
    </g>
   </g>
   <g id="line2d_37">
    <path clip-path="url(#p8d525e9b09)" d="M 0 0 
" style="fill:none;stroke:#938aa0;stroke-dasharray:1,1.65;stroke-dashoffset:0;"/>
    <defs>
     <path d="M 0 1.5 
C 0.397805 1.5 0.77937 1.341951 1.06066 1.06066 
C 1.341951 0.77937 1.5 0.397805 1.5 0 
C 1.5 -0.397805 1.341951 -0.77937 1.06066 -1.06066 
C 0.77937 -1.341951 0.397805 -1.5 0 -1.5 
C -0.397805 -1.5 -0.77937 -1.341951 -1.06066 -1.06066 
C -1.341951 -0.77937 -1.5 -0.397805 -1.5 0 
C -1.5 0.397805 -1.341951 0.77937 -1.06066 1.06066 
C -0.77937 1.341951 -0.397805 1.5 0 1.5 
z
" id="m74256be915" style="stroke:#938aa0;"/>
    </defs>
    <g clip-path="url(#p8d525e9b09)">
     <use style="fill:#938aa0;stroke:#938aa0;" x="0" xlink:href="#m74256be915" y="0"/>
    </g>
   </g>
   <g id="line2d_38">
    <path clip-path="url(#p8d525e9b09)" d="M 64.051907 100.550522 
L 111.673429 99.684039 
L 159.29495 101.087587 
L 206.916471 94.394072 
L 254.537993 113.825035 
M 349.781035 101.530945 
L 397.402557 103.29334 
" style="fill:none;stroke:#8da395;stroke-linecap:square;"/>
    <defs>
     <path d="M 0 -3 
L -3 3 
L 3 3 
z
" id="m43f014cf66" style="stroke:#8da395;stroke-linejoin:miter;"/>
    </defs>
    <g clip-path="url(#p8d525e9b09)">
     <use style="fill:#8da395;stroke:#8da395;stroke-linejoin:miter;" x="64.051907" xlink:href="#m43f014cf66" y="100.550522"/>
     <use style="fill:#8da395;stroke:#8da395;stroke-linejoin:miter;" x="111.673429" xlink:href="#m43f014cf66" y="99.684039"/>
     <use style="fill:#8da395;stroke:#8da395;stroke-linejoin:miter;" x="159.29495" xlink:href="#m43f014cf66" y="101.087587"/>
     <use style="fill:#8da395;stroke:#8da395;stroke-linejoin:miter;" x="206.916471" xlink:href="#m43f014cf66" y="94.394072"/>
     <use style="fill:#8da395;stroke:#8da395;stroke-linejoin:miter;" x="254.537993" xlink:href="#m43f014cf66" y="113.825035"/>
     <use style="fill:#8da395;stroke:#8da395;stroke-linejoin:miter;" x="349.781035" xlink:href="#m43f014cf66" y="101.530945"/>
     <use style="fill:#8da395;stroke:#8da395;stroke-linejoin:miter;" x="397.402557" xlink:href="#m43f014cf66" y="103.29334"/>
    </g>
   </g>
   <g id="line2d_39">
    <path clip-path="url(#p8d525e9b09)" d="M 64.051907 139.189661 
L 111.673429 131.786916 
L 159.29495 118.022258 
L 206.916471 150.075246 
L 254.537993 110.752489 
M 349.781035 131.999044 
L 397.402557 168.35054 
" style="fill:none;stroke:#a86566;stroke-linecap:square;"/>
    <defs>
     <path d="M 0 -3 
L -3 3 
L 3 3 
z
" id="me6727f0853" style="stroke:#a86566;stroke-linejoin:miter;"/>
    </defs>
    <g clip-path="url(#p8d525e9b09)">
     <use style="fill:#a86566;stroke:#a86566;stroke-linejoin:miter;" x="64.051907" xlink:href="#me6727f0853" y="139.189661"/>
     <use style="fill:#a86566;stroke:#a86566;stroke-linejoin:miter;" x="111.673429" xlink:href="#me6727f0853" y="131.786916"/>
     <use style="fill:#a86566;stroke:#a86566;stroke-linejoin:miter;" x="159.29495" xlink:href="#me6727f0853" y="118.022258"/>
     <use style="fill:#a86566;stroke:#a86566;stroke-linejoin:miter;" x="206.916471" xlink:href="#me6727f0853" y="150.075246"/>
     <use style="fill:#a86566;stroke:#a86566;stroke-linejoin:miter;" x="254.537993" xlink:href="#me6727f0853" y="110.752489"/>
     <use style="fill:#a86566;stroke:#a86566;stroke-linejoin:miter;" x="349.781035" xlink:href="#me6727f0853" y="131.999044"/>
     <use style="fill:#a86566;stroke:#a86566;stroke-linejoin:miter;" x="397.402557" xlink:href="#me6727f0853" y="168.35054"/>
    </g>
   </g>
   <g id="line2d_40">
    <path clip-path="url(#p8d525e9b09)" d="M 64.051907 128.340975 
L 111.673429 110.426356 
L 159.29495 86.119352 
L 206.916471 81.832041 
L 254.537993 110.269902 
M 349.781035 129.28574 
L 397.402557 128.707166 
" style="fill:none;stroke:#a4a58c;stroke-linecap:square;"/>
    <defs>
     <path d="M 0 -3 
L -3 3 
L 3 3 
z
" id="m5bf384cd96" style="stroke:#a4a58c;stroke-linejoin:miter;"/>
    </defs>
    <g clip-path="url(#p8d525e9b09)">
     <use style="fill:#a4a58c;stroke:#a4a58c;stroke-linejoin:miter;" x="64.051907" xlink:href="#m5bf384cd96" y="128.340975"/>
     <use style="fill:#a4a58c;stroke:#a4a58c;stroke-linejoin:miter;" x="111.673429" xlink:href="#m5bf384cd96" y="110.426356"/>
     <use style="fill:#a4a58c;stroke:#a4a58c;stroke-linejoin:miter;" x="159.29495" xlink:href="#m5bf384cd96" y="86.119352"/>
     <use style="fill:#a4a58c;stroke:#a4a58c;stroke-linejoin:miter;" x="206.916471" xlink:href="#m5bf384cd96" y="81.832041"/>
     <use style="fill:#a4a58c;stroke:#a4a58c;stroke-linejoin:miter;" x="254.537993" xlink:href="#m5bf384cd96" y="110.269902"/>
     <use style="fill:#a4a58c;stroke:#a4a58c;stroke-linejoin:miter;" x="349.781035" xlink:href="#m5bf384cd96" y="129.28574"/>
     <use style="fill:#a4a58c;stroke:#a4a58c;stroke-linejoin:miter;" x="397.402557" xlink:href="#m5bf384cd96" y="128.707166"/>
    </g>
   </g>
   <g id="line2d_41">
    <path clip-path="url(#p8d525e9b09)" d="M 64.051907 57.71027 
L 111.673429 65.311785 
L 159.29495 52.501406 
L 206.916471 52.377993 
L 254.537993 58.171784 
M 349.781035 75.788123 
" style="fill:none;stroke:#cb997d;stroke-linecap:square;"/>
    <defs>
     <path d="M 0 -3 
L -3 3 
L 3 3 
z
" id="mf617dc85df" style="stroke:#cb997d;stroke-linejoin:miter;"/>
    </defs>
    <g clip-path="url(#p8d525e9b09)">
     <use style="fill:#cb997d;stroke:#cb997d;stroke-linejoin:miter;" x="64.051907" xlink:href="#mf617dc85df" y="57.71027"/>
     <use style="fill:#cb997d;stroke:#cb997d;stroke-linejoin:miter;" x="111.673429" xlink:href="#mf617dc85df" y="65.311785"/>
     <use style="fill:#cb997d;stroke:#cb997d;stroke-linejoin:miter;" x="159.29495" xlink:href="#mf617dc85df" y="52.501406"/>
     <use style="fill:#cb997d;stroke:#cb997d;stroke-linejoin:miter;" x="206.916471" xlink:href="#mf617dc85df" y="52.377993"/>
     <use style="fill:#cb997d;stroke:#cb997d;stroke-linejoin:miter;" x="254.537993" xlink:href="#mf617dc85df" y="58.171784"/>
     <use style="fill:#cb997d;stroke:#cb997d;stroke-linejoin:miter;" x="349.781035" xlink:href="#mf617dc85df" y="75.788123"/>
    </g>
   </g>
   <g id="line2d_42">
    <path clip-path="url(#p8d525e9b09)" d="M 111.673429 123.230255 
M 254.537993 123.106118 
" style="fill:none;stroke:#c87f7f;stroke-linecap:square;"/>
    <defs>
     <path d="M 0 -3 
L -3 3 
L 3 3 
z
" id="me0ddd43b5a" style="stroke:#c87f7f;stroke-linejoin:miter;"/>
    </defs>
    <g clip-path="url(#p8d525e9b09)">
     <use style="fill:#c87f7f;stroke:#c87f7f;stroke-linejoin:miter;" x="111.673429" xlink:href="#me0ddd43b5a" y="123.230255"/>
     <use style="fill:#c87f7f;stroke:#c87f7f;stroke-linejoin:miter;" x="254.537993" xlink:href="#me0ddd43b5a" y="123.106118"/>
    </g>
   </g>
   <g id="line2d_43">
    <path clip-path="url(#p8d525e9b09)" d="M 0 0 
" style="fill:none;stroke:#59667c;stroke-linecap:square;"/>
    <defs>
     <path d="M 0 -3 
L -3 3 
L 3 3 
z
" id="m2ed813ca9c" style="stroke:#59667c;stroke-linejoin:miter;"/>
    </defs>
    <g clip-path="url(#p8d525e9b09)">
     <use style="fill:#59667c;stroke:#59667c;stroke-linejoin:miter;" x="0" xlink:href="#m2ed813ca9c" y="0"/>
    </g>
   </g>
   <g id="line2d_44">
    <path clip-path="url(#p8d525e9b09)" d="M 0 0 
" style="fill:none;stroke:#715c7c;stroke-linecap:square;"/>
    <defs>
     <path d="M 0 -3 
L -3 3 
L 3 3 
z
" id="m543eda4ae2" style="stroke:#715c7c;stroke-linejoin:miter;"/>
    </defs>
    <g clip-path="url(#p8d525e9b09)">
     <use style="fill:#715c7c;stroke:#715c7c;stroke-linejoin:miter;" x="0" xlink:href="#m543eda4ae2" y="0"/>
    </g>
   </g>
   <g id="line2d_45">
    <path clip-path="url(#p8d525e9b09)" d="M 111.673429 90.101342 
L 159.29495 89.34654 
M 254.537993 78.848632 
" style="fill:none;stroke:#ccba85;stroke-linecap:square;"/>
    <defs>
     <path d="M 0 -3 
L -3 3 
L 3 3 
z
" id="mb6e123272c" style="stroke:#ccba85;stroke-linejoin:miter;"/>
    </defs>
    <g clip-path="url(#p8d525e9b09)">
     <use style="fill:#ccba85;stroke:#ccba85;stroke-linejoin:miter;" x="111.673429" xlink:href="#mb6e123272c" y="90.101342"/>
     <use style="fill:#ccba85;stroke:#ccba85;stroke-linejoin:miter;" x="159.29495" xlink:href="#mb6e123272c" y="89.34654"/>
     <use style="fill:#ccba85;stroke:#ccba85;stroke-linejoin:miter;" x="254.537993" xlink:href="#mb6e123272c" y="78.848632"/>
    </g>
   </g>
   <g id="line2d_46">
    <path clip-path="url(#p8d525e9b09)" d="M 111.673429 110.77807 
" style="fill:none;stroke:#8b9aa0;stroke-linecap:square;"/>
    <defs>
     <path d="M 0 -3 
L -3 3 
L 3 3 
z
" id="m55790898a0" style="stroke:#8b9aa0;stroke-linejoin:miter;"/>
    </defs>
    <g clip-path="url(#p8d525e9b09)">
     <use style="fill:#8b9aa0;stroke:#8b9aa0;stroke-linejoin:miter;" x="111.673429" xlink:href="#m55790898a0" y="110.77807"/>
    </g>
   </g>
   <g id="line2d_47">
    <path clip-path="url(#p8d525e9b09)" d="M 0 0 
" style="fill:none;stroke:#938aa0;stroke-linecap:square;"/>
    <defs>
     <path d="M 0 -3 
L -3 3 
L 3 3 
z
" id="ma7cd1a1c44" style="stroke:#938aa0;stroke-linejoin:miter;"/>
    </defs>
    <g clip-path="url(#p8d525e9b09)">
     <use style="fill:#938aa0;stroke:#938aa0;stroke-linejoin:miter;" x="0" xlink:href="#ma7cd1a1c44" y="0"/>
    </g>
   </g>
   <g id="patch_3">
    <path d="M 47.384375 142.311114 
L 47.384375 21.789375 
" style="fill:none;stroke:#000000;stroke-linecap:square;stroke-linejoin:miter;stroke-width:0.8;"/>
   </g>
   <g id="patch_4">
    <path d="M 47.384375 142.311114 
L 414.070089 142.311114 
" style="fill:none;stroke:#000000;stroke-linecap:square;stroke-linejoin:miter;stroke-width:0.8;"/>
   </g>
   <g id="text_13">
    <!-- index cat 3 -->
    <defs>
     <path d="M 6.59375 0 
L 6.59375 51.859375 
L 14.5 51.859375 
L 14.5 44.484375 
Q 20.21875 53.03125 31 53.03125 
Q 35.6875 53.03125 39.625 51.34375 
Q 43.5625 49.65625 45.515625 46.921875 
Q 47.46875 44.1875 48.25 40.4375 
Q 48.734375 37.984375 48.734375 31.890625 
L 48.734375 0 
L 39.9375 0 
L 39.9375 31.546875 
Q 39.9375 36.921875 38.90625 39.578125 
Q 37.890625 42.234375 35.28125 43.8125 
Q 32.671875 45.40625 29.15625 45.40625 
Q 23.53125 45.40625 19.453125 41.84375 
Q 15.375 38.28125 15.375 28.328125 
L 15.375 0 
z
" id="ArialMT-110"/>
     <path d="M 0.734375 0 
L 19.671875 26.953125 
L 2.15625 51.859375 
L 13.140625 51.859375 
L 21.09375 39.703125 
Q 23.34375 36.234375 24.703125 33.890625 
Q 26.859375 37.109375 28.65625 39.59375 
L 37.40625 51.859375 
L 47.90625 51.859375 
L 29.984375 27.4375 
L 49.265625 0 
L 38.484375 0 
L 27.828125 16.109375 
L 25 20.453125 
L 11.375 0 
z
" id="ArialMT-120"/>
     <path d="M 40.4375 19 
L 49.078125 17.875 
Q 47.65625 8.9375 41.8125 3.875 
Q 35.984375 -1.171875 27.484375 -1.171875 
Q 16.84375 -1.171875 10.375 5.78125 
Q 3.90625 12.75 3.90625 25.734375 
Q 3.90625 34.125 6.6875 40.421875 
Q 9.46875 46.734375 15.15625 49.875 
Q 20.84375 53.03125 27.546875 53.03125 
Q 35.984375 53.03125 41.359375 48.75 
Q 46.734375 44.484375 48.25 36.625 
L 39.703125 35.296875 
Q 38.484375 40.53125 35.375 43.15625 
Q 32.28125 45.796875 27.875 45.796875 
Q 21.234375 45.796875 17.078125 41.03125 
Q 12.9375 36.28125 12.9375 25.984375 
Q 12.9375 15.53125 16.9375 10.796875 
Q 20.953125 6.0625 27.390625 6.0625 
Q 32.5625 6.0625 36.03125 9.234375 
Q 39.5 12.40625 40.4375 19 
z
" id="ArialMT-99"/>
     <path d="M 40.4375 6.390625 
Q 35.546875 2.25 31.03125 0.53125 
Q 26.515625 -1.171875 21.34375 -1.171875 
Q 12.796875 -1.171875 8.203125 3 
Q 3.609375 7.171875 3.609375 13.671875 
Q 3.609375 17.484375 5.34375 20.625 
Q 7.078125 23.78125 9.890625 25.6875 
Q 12.703125 27.59375 16.21875 28.5625 
Q 18.796875 29.25 24.03125 29.890625 
Q 34.671875 31.15625 39.703125 32.90625 
Q 39.75 34.71875 39.75 35.203125 
Q 39.75 40.578125 37.25 42.78125 
Q 33.890625 45.75 27.25 45.75 
Q 21.046875 45.75 18.09375 43.578125 
Q 15.140625 41.40625 13.71875 35.890625 
L 5.125 37.0625 
Q 6.296875 42.578125 8.984375 45.96875 
Q 11.671875 49.359375 16.75 51.1875 
Q 21.828125 53.03125 28.515625 53.03125 
Q 35.15625 53.03125 39.296875 51.46875 
Q 43.453125 49.90625 45.40625 47.53125 
Q 47.359375 45.171875 48.140625 41.546875 
Q 48.578125 39.3125 48.578125 33.453125 
L 48.578125 21.734375 
Q 48.578125 9.46875 49.140625 6.21875 
Q 49.703125 2.984375 51.375 0 
L 42.1875 0 
Q 40.828125 2.734375 40.4375 6.390625 
z
M 39.703125 26.03125 
Q 34.90625 24.078125 25.34375 22.703125 
Q 19.921875 21.921875 17.671875 20.9375 
Q 15.4375 19.96875 14.203125 18.09375 
Q 12.984375 16.21875 12.984375 13.921875 
Q 12.984375 10.40625 15.640625 8.0625 
Q 18.3125 5.71875 23.4375 5.71875 
Q 28.515625 5.71875 32.46875 7.9375 
Q 36.421875 10.15625 38.28125 14.015625 
Q 39.703125 17 39.703125 22.796875 
z
" id="ArialMT-97"/>
    </defs>
    <g transform="translate(201.71067 15.789375)scale(0.12 -0.12)">
     <use xlink:href="#ArialMT-105"/>
     <use x="22.216797" xlink:href="#ArialMT-110"/>
     <use x="77.832031" xlink:href="#ArialMT-100"/>
     <use x="133.447266" xlink:href="#ArialMT-101"/>
     <use x="189.0625" xlink:href="#ArialMT-120"/>
     <use x="239.0625" xlink:href="#ArialMT-32"/>
     <use x="266.845703" xlink:href="#ArialMT-99"/>
     <use x="316.845703" xlink:href="#ArialMT-97"/>
     <use x="372.460938" xlink:href="#ArialMT-116"/>
     <use x="400.244141" xlink:href="#ArialMT-32"/>
     <use x="428.027344" xlink:href="#ArialMT-51"/>
    </g>
   </g>
   <g id="legend_1">
    <g id="line2d_48">
     <path d="M 421.270089 31.915625 
L 437.270089 31.915625 
" style="fill:none;stroke:#8da395;stroke-dasharray:1,1.65;stroke-dashoffset:0;"/>
    </g>
    <g id="line2d_49">
     <g>
      <use style="fill:#8da395;stroke:#8da395;" x="429.270089" xlink:href="#m730f991ffb" y="31.915625"/>
     </g>
    </g>
    <g id="text_14">
     <!-- ORF1ab -->
     <defs>
      <path d="M 4.828125 34.859375 
Q 4.828125 52.6875 14.390625 62.765625 
Q 23.96875 72.859375 39.109375 72.859375 
Q 49.03125 72.859375 56.984375 68.109375 
Q 64.9375 63.375 69.109375 54.90625 
Q 73.296875 46.4375 73.296875 35.6875 
Q 73.296875 24.8125 68.890625 16.21875 
Q 64.5 7.625 56.4375 3.203125 
Q 48.390625 -1.21875 39.0625 -1.21875 
Q 28.953125 -1.21875 20.984375 3.65625 
Q 13.03125 8.546875 8.921875 16.984375 
Q 4.828125 25.4375 4.828125 34.859375 
z
M 14.59375 34.71875 
Q 14.59375 21.78125 21.546875 14.328125 
Q 28.515625 6.890625 39.015625 6.890625 
Q 49.703125 6.890625 56.609375 14.40625 
Q 63.53125 21.921875 63.53125 35.75 
Q 63.53125 44.484375 60.578125 51 
Q 57.625 57.515625 51.921875 61.109375 
Q 46.234375 64.703125 39.15625 64.703125 
Q 29.109375 64.703125 21.84375 57.78125 
Q 14.59375 50.875 14.59375 34.71875 
z
" id="ArialMT-79"/>
      <path d="M 7.859375 0 
L 7.859375 71.578125 
L 39.59375 71.578125 
Q 49.171875 71.578125 54.140625 69.640625 
Q 59.125 67.71875 62.109375 62.828125 
Q 65.09375 57.953125 65.09375 52.046875 
Q 65.09375 44.4375 60.15625 39.203125 
Q 55.21875 33.984375 44.921875 32.5625 
Q 48.6875 30.765625 50.640625 29 
Q 54.78125 25.203125 58.5 19.484375 
L 70.953125 0 
L 59.03125 0 
L 49.5625 14.890625 
Q 45.40625 21.34375 42.71875 24.75 
Q 40.046875 28.171875 37.921875 29.53125 
Q 35.796875 30.90625 33.59375 31.453125 
Q 31.984375 31.78125 28.328125 31.78125 
L 17.328125 31.78125 
L 17.328125 0 
z
M 17.328125 39.984375 
L 37.703125 39.984375 
Q 44.1875 39.984375 47.84375 41.328125 
Q 51.515625 42.671875 53.421875 45.625 
Q 55.328125 48.578125 55.328125 52.046875 
Q 55.328125 57.125 51.640625 60.390625 
Q 47.953125 63.671875 39.984375 63.671875 
L 17.328125 63.671875 
z
" id="ArialMT-82"/>
      <path d="M 8.203125 0 
L 8.203125 71.578125 
L 56.5 71.578125 
L 56.5 63.140625 
L 17.671875 63.140625 
L 17.671875 40.96875 
L 51.265625 40.96875 
L 51.265625 32.515625 
L 17.671875 32.515625 
L 17.671875 0 
z
" id="ArialMT-70"/>
      <path d="M 14.703125 0 
L 6.546875 0 
L 6.546875 71.578125 
L 15.328125 71.578125 
L 15.328125 46.046875 
Q 20.90625 53.03125 29.546875 53.03125 
Q 34.328125 53.03125 38.59375 51.09375 
Q 42.875 49.171875 45.625 45.671875 
Q 48.390625 42.1875 49.953125 37.25 
Q 51.515625 32.328125 51.515625 26.703125 
Q 51.515625 13.375 44.921875 6.09375 
Q 38.328125 -1.171875 29.109375 -1.171875 
Q 19.921875 -1.171875 14.703125 6.5 
z
M 14.59375 26.3125 
Q 14.59375 17 17.140625 12.84375 
Q 21.296875 6.0625 28.375 6.0625 
Q 34.125 6.0625 38.328125 11.0625 
Q 42.53125 16.0625 42.53125 25.984375 
Q 42.53125 36.140625 38.5 40.96875 
Q 34.46875 45.796875 28.765625 45.796875 
Q 23 45.796875 18.796875 40.796875 
Q 14.59375 35.796875 14.59375 26.3125 
z
" id="ArialMT-98"/>
     </defs>
     <g transform="translate(443.670089 34.715625)scale(0.08 -0.08)">
      <use xlink:href="#ArialMT-79"/>
      <use x="77.783203" xlink:href="#ArialMT-82"/>
      <use x="150" xlink:href="#ArialMT-70"/>
      <use x="211.083984" xlink:href="#ArialMT-49"/>
      <use x="266.699219" xlink:href="#ArialMT-97"/>
      <use x="322.314453" xlink:href="#ArialMT-98"/>
     </g>
    </g>
    <g id="line2d_50">
     <path d="M 421.270089 43.231875 
L 437.270089 43.231875 
" style="fill:none;stroke:#a86566;stroke-dasharray:1,1.65;stroke-dashoffset:0;"/>
    </g>
    <g id="line2d_51">
     <g>
      <use style="fill:#a86566;stroke:#a86566;" x="429.270089" xlink:href="#m211c5edc1c" y="43.231875"/>
     </g>
    </g>
    <g id="text_15">
     <!-- S -->
     <g transform="translate(443.670089 46.031875)scale(0.08 -0.08)">
      <use xlink:href="#ArialMT-83"/>
     </g>
    </g>
    <g id="line2d_52">
     <path d="M 421.270089 54.548125 
L 437.270089 54.548125 
" style="fill:none;stroke:#a4a58c;stroke-dasharray:1,1.65;stroke-dashoffset:0;"/>
    </g>
    <g id="line2d_53">
     <g>
      <use style="fill:#a4a58c;stroke:#a4a58c;" x="429.270089" xlink:href="#m8879f6064e" y="54.548125"/>
     </g>
    </g>
    <g id="text_16">
     <!-- ORF3a -->
     <g transform="translate(443.670089 57.348125)scale(0.08 -0.08)">
      <use xlink:href="#ArialMT-79"/>
      <use x="77.783203" xlink:href="#ArialMT-82"/>
      <use x="150" xlink:href="#ArialMT-70"/>
      <use x="211.083984" xlink:href="#ArialMT-51"/>
      <use x="266.699219" xlink:href="#ArialMT-97"/>
     </g>
    </g>
    <g id="line2d_54">
     <path d="M 421.270089 65.864375 
L 437.270089 65.864375 
" style="fill:none;stroke:#cb997d;stroke-dasharray:1,1.65;stroke-dashoffset:0;"/>
    </g>
    <g id="line2d_55">
     <g>
      <use style="fill:#cb997d;stroke:#cb997d;" x="429.270089" xlink:href="#mcc0b8928ca" y="65.864375"/>
     </g>
    </g>
    <g id="text_17">
     <!-- E -->
     <defs>
      <path d="M 7.90625 0 
L 7.90625 71.578125 
L 59.671875 71.578125 
L 59.671875 63.140625 
L 17.390625 63.140625 
L 17.390625 41.21875 
L 56.984375 41.21875 
L 56.984375 32.8125 
L 17.390625 32.8125 
L 17.390625 8.453125 
L 61.328125 8.453125 
L 61.328125 0 
z
" id="ArialMT-69"/>
     </defs>
     <g transform="translate(443.670089 68.664375)scale(0.08 -0.08)">
      <use xlink:href="#ArialMT-69"/>
     </g>
    </g>
    <g id="line2d_56">
     <path d="M 421.270089 77.180625 
L 437.270089 77.180625 
" style="fill:none;stroke:#c87f7f;stroke-dasharray:1,1.65;stroke-dashoffset:0;"/>
    </g>
    <g id="line2d_57">
     <g>
      <use style="fill:#c87f7f;stroke:#c87f7f;" x="429.270089" xlink:href="#m9f1cf60f8b" y="77.180625"/>
     </g>
    </g>
    <g id="text_18">
     <!-- M -->
     <defs>
      <path d="M 7.421875 0 
L 7.421875 71.578125 
L 21.6875 71.578125 
L 38.625 20.90625 
Q 40.96875 13.8125 42.046875 10.296875 
Q 43.265625 14.203125 45.84375 21.78125 
L 62.984375 71.578125 
L 75.734375 71.578125 
L 75.734375 0 
L 66.609375 0 
L 66.609375 59.90625 
L 45.796875 0 
L 37.25 0 
L 16.546875 60.9375 
L 16.546875 0 
z
" id="ArialMT-77"/>
     </defs>
     <g transform="translate(443.670089 79.980625)scale(0.08 -0.08)">
      <use xlink:href="#ArialMT-77"/>
     </g>
    </g>
    <g id="line2d_58">
     <path d="M 421.270089 88.496875 
L 437.270089 88.496875 
" style="fill:none;stroke:#59667c;stroke-dasharray:1,1.65;stroke-dashoffset:0;"/>
    </g>
    <g id="line2d_59">
     <g>
      <use style="fill:#59667c;stroke:#59667c;" x="429.270089" xlink:href="#m30ea4b16f7" y="88.496875"/>
     </g>
    </g>
    <g id="text_19">
     <!-- ORF6 -->
     <g transform="translate(443.670089 91.296875)scale(0.08 -0.08)">
      <use xlink:href="#ArialMT-79"/>
      <use x="77.783203" xlink:href="#ArialMT-82"/>
      <use x="150" xlink:href="#ArialMT-70"/>
      <use x="211.083984" xlink:href="#ArialMT-54"/>
     </g>
    </g>
    <g id="line2d_60">
     <path d="M 421.270089 99.813125 
L 437.270089 99.813125 
" style="fill:none;stroke:#715c7c;stroke-dasharray:1,1.65;stroke-dashoffset:0;"/>
    </g>
    <g id="line2d_61">
     <g>
      <use style="fill:#715c7c;stroke:#715c7c;" x="429.270089" xlink:href="#meba5e25017" y="99.813125"/>
     </g>
    </g>
    <g id="text_20">
     <!-- ORF7a -->
     <g transform="translate(443.670089 102.613125)scale(0.08 -0.08)">
      <use xlink:href="#ArialMT-79"/>
      <use x="77.783203" xlink:href="#ArialMT-82"/>
      <use x="150" xlink:href="#ArialMT-70"/>
      <use x="211.083984" xlink:href="#ArialMT-55"/>
      <use x="266.699219" xlink:href="#ArialMT-97"/>
     </g>
    </g>
    <g id="line2d_62">
     <path d="M 421.270089 111.129375 
L 437.270089 111.129375 
" style="fill:none;stroke:#ccba85;stroke-dasharray:1,1.65;stroke-dashoffset:0;"/>
    </g>
    <g id="line2d_63">
     <g>
      <use style="fill:#ccba85;stroke:#ccba85;" x="429.270089" xlink:href="#m2ff940a5c5" y="111.129375"/>
     </g>
    </g>
    <g id="text_21">
     <!-- ORF8 -->
     <g transform="translate(443.670089 113.929375)scale(0.08 -0.08)">
      <use xlink:href="#ArialMT-79"/>
      <use x="77.783203" xlink:href="#ArialMT-82"/>
      <use x="150" xlink:href="#ArialMT-70"/>
      <use x="211.083984" xlink:href="#ArialMT-56"/>
     </g>
    </g>
    <g id="line2d_64">
     <path d="M 421.270089 122.445625 
L 437.270089 122.445625 
" style="fill:none;stroke:#8b9aa0;stroke-dasharray:1,1.65;stroke-dashoffset:0;"/>
    </g>
    <g id="line2d_65">
     <g>
      <use style="fill:#8b9aa0;stroke:#8b9aa0;" x="429.270089" xlink:href="#m4694a71677" y="122.445625"/>
     </g>
    </g>
    <g id="text_22">
     <!-- N -->
     <g transform="translate(443.670089 125.245625)scale(0.08 -0.08)">
      <use xlink:href="#ArialMT-78"/>
     </g>
    </g>
    <g id="line2d_66">
     <path d="M 421.270089 133.761875 
L 437.270089 133.761875 
" style="fill:none;stroke:#938aa0;stroke-dasharray:1,1.65;stroke-dashoffset:0;"/>
    </g>
    <g id="line2d_67">
     <g>
      <use style="fill:#938aa0;stroke:#938aa0;" x="429.270089" xlink:href="#m74256be915" y="133.761875"/>
     </g>
    </g>
    <g id="text_23">
     <!-- ORF10 -->
     <g transform="translate(443.670089 136.561875)scale(0.08 -0.08)">
      <use xlink:href="#ArialMT-79"/>
      <use x="77.783203" xlink:href="#ArialMT-82"/>
      <use x="150" xlink:href="#ArialMT-70"/>
      <use x="211.083984" xlink:href="#ArialMT-49"/>
      <use x="266.699219" xlink:href="#ArialMT-48"/>
     </g>
    </g>
    <g id="line2d_68">
     <path d="M 489.902589 31.915625 
L 505.902589 31.915625 
" style="fill:none;stroke:#8da395;stroke-linecap:square;"/>
    </g>
    <g id="line2d_69">
     <g>
      <use style="fill:#8da395;stroke:#8da395;stroke-linejoin:miter;" x="497.902589" xlink:href="#m43f014cf66" y="31.915625"/>
     </g>
    </g>
    <g id="text_24">
     <!-- ORF1ab -->
     <g transform="translate(512.302589 34.715625)scale(0.08 -0.08)">
      <use xlink:href="#ArialMT-79"/>
      <use x="77.783203" xlink:href="#ArialMT-82"/>
      <use x="150" xlink:href="#ArialMT-70"/>
      <use x="211.083984" xlink:href="#ArialMT-49"/>
      <use x="266.699219" xlink:href="#ArialMT-97"/>
      <use x="322.314453" xlink:href="#ArialMT-98"/>
     </g>
    </g>
    <g id="line2d_70">
     <path d="M 489.902589 43.231875 
L 505.902589 43.231875 
" style="fill:none;stroke:#a86566;stroke-linecap:square;"/>
    </g>
    <g id="line2d_71">
     <g>
      <use style="fill:#a86566;stroke:#a86566;stroke-linejoin:miter;" x="497.902589" xlink:href="#me6727f0853" y="43.231875"/>
     </g>
    </g>
    <g id="text_25">
     <!-- S -->
     <g transform="translate(512.302589 46.031875)scale(0.08 -0.08)">
      <use xlink:href="#ArialMT-83"/>
     </g>
    </g>
    <g id="line2d_72">
     <path d="M 489.902589 54.548125 
L 505.902589 54.548125 
" style="fill:none;stroke:#a4a58c;stroke-linecap:square;"/>
    </g>
    <g id="line2d_73">
     <g>
      <use style="fill:#a4a58c;stroke:#a4a58c;stroke-linejoin:miter;" x="497.902589" xlink:href="#m5bf384cd96" y="54.548125"/>
     </g>
    </g>
    <g id="text_26">
     <!-- ORF3a -->
     <g transform="translate(512.302589 57.348125)scale(0.08 -0.08)">
      <use xlink:href="#ArialMT-79"/>
      <use x="77.783203" xlink:href="#ArialMT-82"/>
      <use x="150" xlink:href="#ArialMT-70"/>
      <use x="211.083984" xlink:href="#ArialMT-51"/>
      <use x="266.699219" xlink:href="#ArialMT-97"/>
     </g>
    </g>
    <g id="line2d_74">
     <path d="M 489.902589 65.864375 
L 505.902589 65.864375 
" style="fill:none;stroke:#cb997d;stroke-linecap:square;"/>
    </g>
    <g id="line2d_75">
     <g>
      <use style="fill:#cb997d;stroke:#cb997d;stroke-linejoin:miter;" x="497.902589" xlink:href="#mf617dc85df" y="65.864375"/>
     </g>
    </g>
    <g id="text_27">
     <!-- E -->
     <g transform="translate(512.302589 68.664375)scale(0.08 -0.08)">
      <use xlink:href="#ArialMT-69"/>
     </g>
    </g>
    <g id="line2d_76">
     <path d="M 489.902589 77.180625 
L 505.902589 77.180625 
" style="fill:none;stroke:#c87f7f;stroke-linecap:square;"/>
    </g>
    <g id="line2d_77">
     <g>
      <use style="fill:#c87f7f;stroke:#c87f7f;stroke-linejoin:miter;" x="497.902589" xlink:href="#me0ddd43b5a" y="77.180625"/>
     </g>
    </g>
    <g id="text_28">
     <!-- M -->
     <g transform="translate(512.302589 79.980625)scale(0.08 -0.08)">
      <use xlink:href="#ArialMT-77"/>
     </g>
    </g>
    <g id="line2d_78">
     <path d="M 489.902589 88.496875 
L 505.902589 88.496875 
" style="fill:none;stroke:#59667c;stroke-linecap:square;"/>
    </g>
    <g id="line2d_79">
     <g>
      <use style="fill:#59667c;stroke:#59667c;stroke-linejoin:miter;" x="497.902589" xlink:href="#m2ed813ca9c" y="88.496875"/>
     </g>
    </g>
    <g id="text_29">
     <!-- ORF6 -->
     <g transform="translate(512.302589 91.296875)scale(0.08 -0.08)">
      <use xlink:href="#ArialMT-79"/>
      <use x="77.783203" xlink:href="#ArialMT-82"/>
      <use x="150" xlink:href="#ArialMT-70"/>
      <use x="211.083984" xlink:href="#ArialMT-54"/>
     </g>
    </g>
    <g id="line2d_80">
     <path d="M 489.902589 99.813125 
L 505.902589 99.813125 
" style="fill:none;stroke:#715c7c;stroke-linecap:square;"/>
    </g>
    <g id="line2d_81">
     <g>
      <use style="fill:#715c7c;stroke:#715c7c;stroke-linejoin:miter;" x="497.902589" xlink:href="#m543eda4ae2" y="99.813125"/>
     </g>
    </g>
    <g id="text_30">
     <!-- ORF7a -->
     <g transform="translate(512.302589 102.613125)scale(0.08 -0.08)">
      <use xlink:href="#ArialMT-79"/>
      <use x="77.783203" xlink:href="#ArialMT-82"/>
      <use x="150" xlink:href="#ArialMT-70"/>
      <use x="211.083984" xlink:href="#ArialMT-55"/>
      <use x="266.699219" xlink:href="#ArialMT-97"/>
     </g>
    </g>
    <g id="line2d_82">
     <path d="M 489.902589 111.129375 
L 505.902589 111.129375 
" style="fill:none;stroke:#ccba85;stroke-linecap:square;"/>
    </g>
    <g id="line2d_83">
     <g>
      <use style="fill:#ccba85;stroke:#ccba85;stroke-linejoin:miter;" x="497.902589" xlink:href="#mb6e123272c" y="111.129375"/>
     </g>
    </g>
    <g id="text_31">
     <!-- ORF8 -->
     <g transform="translate(512.302589 113.929375)scale(0.08 -0.08)">
      <use xlink:href="#ArialMT-79"/>
      <use x="77.783203" xlink:href="#ArialMT-82"/>
      <use x="150" xlink:href="#ArialMT-70"/>
      <use x="211.083984" xlink:href="#ArialMT-56"/>
     </g>
    </g>
    <g id="line2d_84">
     <path d="M 489.902589 122.445625 
L 505.902589 122.445625 
" style="fill:none;stroke:#8b9aa0;stroke-linecap:square;"/>
    </g>
    <g id="line2d_85">
     <g>
      <use style="fill:#8b9aa0;stroke:#8b9aa0;stroke-linejoin:miter;" x="497.902589" xlink:href="#m55790898a0" y="122.445625"/>
     </g>
    </g>
    <g id="text_32">
     <!-- N -->
     <g transform="translate(512.302589 125.245625)scale(0.08 -0.08)">
      <use xlink:href="#ArialMT-78"/>
     </g>
    </g>
    <g id="line2d_86">
     <path d="M 489.902589 133.761875 
L 505.902589 133.761875 
" style="fill:none;stroke:#938aa0;stroke-linecap:square;"/>
    </g>
    <g id="line2d_87">
     <g>
      <use style="fill:#938aa0;stroke:#938aa0;stroke-linejoin:miter;" x="497.902589" xlink:href="#ma7cd1a1c44" y="133.761875"/>
     </g>
    </g>
    <g id="text_33">
     <!-- ORF10 -->
     <g transform="translate(512.302589 136.561875)scale(0.08 -0.08)">
      <use xlink:href="#ArialMT-79"/>
      <use x="77.783203" xlink:href="#ArialMT-82"/>
      <use x="150" xlink:href="#ArialMT-70"/>
      <use x="211.083984" xlink:href="#ArialMT-49"/>
      <use x="266.699219" xlink:href="#ArialMT-48"/>
     </g>
    </g>
   </g>
  </g>
 </g>
 <defs>
  <clipPath id="p8d525e9b09">
   <rect height="120.521739" width="366.685714" x="47.384375" y="21.789375"/>
  </clipPath>
 </defs>
</svg>
