<?xml version="1.0" encoding="utf-8" standalone="no"?>
<!DOCTYPE svg PUBLIC "-//W3C//DTD SVG 1.1//EN"
  "http://www.w3.org/Graphics/SVG/1.1/DTD/svg11.dtd">
<!-- Created with matplotlib (https://matplotlib.org/) -->
<svg height="199.831746pt" version="1.1" viewBox="0 0 545.333279 199.831746" width="545.333279pt" xmlns="http://www.w3.org/2000/svg" xmlns:xlink="http://www.w3.org/1999/xlink">
 <defs>
  <style type="text/css">
*{stroke-linecap:butt;stroke-linejoin:round;}
  </style>
 </defs>
 <g id="figure_1">
  <g id="patch_1">
   <path d="M 0 199.831746 
L 545.333279 199.831746 
L 545.333279 0 
L 0 0 
z
" style="fill:#ffffff;"/>
  </g>
  <g id="axes_1">
   <g id="patch_2">
    <path d="M 47.145313 161.480735 
L 454.642029 161.480735 
L 454.642029 21.789375 
L 47.145313 21.789375 
z
" style="fill:#ffffff;"/>
   </g>
   <g id="matplotlib.axis_1">
    <g id="xtick_1">
     <g id="line2d_1">
      <defs>
       <path d="M 0 0 
L 0 3.5 
" id="m7586c7bbe0" style="stroke:#000000;stroke-width:0.8;"/>
      </defs>
      <g>
       <use style="stroke:#000000;stroke-width:0.8;" x="65.667891" xlink:href="#m7586c7bbe0" y="161.480735"/>
      </g>
     </g>
     <g id="text_1">
      <!-- DPI 4 -->
      <defs>
       <path d="M 7.71875 0 
L 7.71875 71.578125 
L 32.375 71.578125 
Q 40.71875 71.578125 45.125 70.5625 
Q 51.265625 69.140625 55.609375 65.4375 
Q 61.28125 60.640625 64.078125 53.1875 
Q 66.890625 45.75 66.890625 36.1875 
Q 66.890625 28.03125 64.984375 21.734375 
Q 63.09375 15.4375 60.109375 11.296875 
Q 57.125 7.171875 53.578125 4.796875 
Q 50.046875 2.4375 45.046875 1.21875 
Q 40.046875 0 33.546875 0 
z
M 17.1875 8.453125 
L 32.46875 8.453125 
Q 39.546875 8.453125 43.578125 9.765625 
Q 47.609375 11.078125 50 13.484375 
Q 53.375 16.84375 55.25 22.53125 
Q 57.125 28.21875 57.125 36.328125 
Q 57.125 47.5625 53.4375 53.59375 
Q 49.75 59.625 44.484375 61.671875 
Q 40.671875 63.140625 32.234375 63.140625 
L 17.1875 63.140625 
z
" id="ArialMT-68"/>
       <path d="M 7.71875 0 
L 7.71875 71.578125 
L 34.71875 71.578125 
Q 41.84375 71.578125 45.609375 70.90625 
Q 50.875 70.015625 54.4375 67.546875 
Q 58.015625 65.09375 60.1875 60.640625 
Q 62.359375 56.203125 62.359375 50.875 
Q 62.359375 41.75 56.546875 35.421875 
Q 50.734375 29.109375 35.546875 29.109375 
L 17.1875 29.109375 
L 17.1875 0 
z
M 17.1875 37.546875 
L 35.6875 37.546875 
Q 44.875 37.546875 48.734375 40.96875 
Q 52.59375 44.390625 52.59375 50.59375 
Q 52.59375 55.078125 50.3125 58.265625 
Q 48.046875 61.46875 44.34375 62.5 
Q 41.9375 63.140625 35.5 63.140625 
L 17.1875 63.140625 
z
" id="ArialMT-80"/>
       <path d="M 9.328125 0 
L 9.328125 71.578125 
L 18.796875 71.578125 
L 18.796875 0 
z
" id="ArialMT-73"/>
       <path id="ArialMT-32"/>
       <path d="M 32.328125 0 
L 32.328125 17.140625 
L 1.265625 17.140625 
L 1.265625 25.203125 
L 33.9375 71.578125 
L 41.109375 71.578125 
L 41.109375 25.203125 
L 50.78125 25.203125 
L 50.78125 17.140625 
L 41.109375 17.140625 
L 41.109375 0 
z
M 32.328125 25.203125 
L 32.328125 57.46875 
L 9.90625 25.203125 
z
" id="ArialMT-52"/>
      </defs>
      <g transform="translate(58.653723 191.226371)rotate(-45)scale(0.1 -0.1)">
       <use xlink:href="#ArialMT-68"/>
       <use x="72.216797" xlink:href="#ArialMT-80"/>
       <use x="138.916016" xlink:href="#ArialMT-73"/>
       <use x="166.699219" xlink:href="#ArialMT-32"/>
       <use x="194.482422" xlink:href="#ArialMT-52"/>
      </g>
     </g>
    </g>
    <g id="xtick_2">
     <g id="line2d_2">
      <g>
       <use style="stroke:#000000;stroke-width:0.8;" x="139.758203" xlink:href="#m7586c7bbe0" y="161.480735"/>
      </g>
     </g>
     <g id="text_2">
      <!-- DPI 5 -->
      <defs>
       <path d="M 4.15625 18.75 
L 13.375 19.53125 
Q 14.40625 12.796875 18.140625 9.390625 
Q 21.875 6 27.15625 6 
Q 33.5 6 37.890625 10.78125 
Q 42.28125 15.578125 42.28125 23.484375 
Q 42.28125 31 38.0625 35.34375 
Q 33.84375 39.703125 27 39.703125 
Q 22.75 39.703125 19.328125 37.765625 
Q 15.921875 35.84375 13.96875 32.765625 
L 5.71875 33.84375 
L 12.640625 70.609375 
L 48.25 70.609375 
L 48.25 62.203125 
L 19.671875 62.203125 
L 15.828125 42.96875 
Q 22.265625 47.46875 29.34375 47.46875 
Q 38.71875 47.46875 45.15625 40.96875 
Q 51.609375 34.46875 51.609375 24.265625 
Q 51.609375 14.546875 45.953125 7.46875 
Q 39.0625 -1.21875 27.15625 -1.21875 
Q 17.390625 -1.21875 11.203125 4.25 
Q 5.03125 9.71875 4.15625 18.75 
z
" id="ArialMT-53"/>
      </defs>
      <g transform="translate(132.744035 191.226371)rotate(-45)scale(0.1 -0.1)">
       <use xlink:href="#ArialMT-68"/>
       <use x="72.216797" xlink:href="#ArialMT-80"/>
       <use x="138.916016" xlink:href="#ArialMT-73"/>
       <use x="166.699219" xlink:href="#ArialMT-32"/>
       <use x="194.482422" xlink:href="#ArialMT-53"/>
      </g>
     </g>
    </g>
    <g id="xtick_3">
     <g id="line2d_3">
      <g>
       <use style="stroke:#000000;stroke-width:0.8;" x="213.848515" xlink:href="#m7586c7bbe0" y="161.480735"/>
      </g>
     </g>
     <g id="text_3">
      <!-- DPI 6 -->
      <defs>
       <path d="M 49.75 54.046875 
L 41.015625 53.375 
Q 39.84375 58.546875 37.703125 60.890625 
Q 34.125 64.65625 28.90625 64.65625 
Q 24.703125 64.65625 21.53125 62.3125 
Q 17.390625 59.28125 14.984375 53.46875 
Q 12.59375 47.65625 12.5 36.921875 
Q 15.671875 41.75 20.265625 44.09375 
Q 24.859375 46.4375 29.890625 46.4375 
Q 38.671875 46.4375 44.84375 39.96875 
Q 51.03125 33.5 51.03125 23.25 
Q 51.03125 16.5 48.125 10.71875 
Q 45.21875 4.9375 40.140625 1.859375 
Q 35.0625 -1.21875 28.609375 -1.21875 
Q 17.625 -1.21875 10.6875 6.859375 
Q 3.765625 14.9375 3.765625 33.5 
Q 3.765625 54.25 11.421875 63.671875 
Q 18.109375 71.875 29.4375 71.875 
Q 37.890625 71.875 43.28125 67.140625 
Q 48.6875 62.40625 49.75 54.046875 
z
M 13.875 23.1875 
Q 13.875 18.65625 15.796875 14.5 
Q 17.71875 10.359375 21.1875 8.171875 
Q 24.65625 6 28.46875 6 
Q 34.03125 6 38.03125 10.484375 
Q 42.046875 14.984375 42.046875 22.703125 
Q 42.046875 30.125 38.078125 34.390625 
Q 34.125 38.671875 28.125 38.671875 
Q 22.171875 38.671875 18.015625 34.390625 
Q 13.875 30.125 13.875 23.1875 
z
" id="ArialMT-54"/>
      </defs>
      <g transform="translate(206.834347 191.226371)rotate(-45)scale(0.1 -0.1)">
       <use xlink:href="#ArialMT-68"/>
       <use x="72.216797" xlink:href="#ArialMT-80"/>
       <use x="138.916016" xlink:href="#ArialMT-73"/>
       <use x="166.699219" xlink:href="#ArialMT-32"/>
       <use x="194.482422" xlink:href="#ArialMT-54"/>
      </g>
     </g>
    </g>
    <g id="xtick_4">
     <g id="line2d_4">
      <g>
       <use style="stroke:#000000;stroke-width:0.8;" x="287.938827" xlink:href="#m7586c7bbe0" y="161.480735"/>
      </g>
     </g>
     <g id="text_4">
      <!-- DPI 7 -->
      <defs>
       <path d="M 4.734375 62.203125 
L 4.734375 70.65625 
L 51.078125 70.65625 
L 51.078125 63.8125 
Q 44.234375 56.546875 37.515625 44.484375 
Q 30.8125 32.421875 27.15625 19.671875 
Q 24.515625 10.6875 23.78125 0 
L 14.75 0 
Q 14.890625 8.453125 18.0625 20.40625 
Q 21.234375 32.375 27.171875 43.484375 
Q 33.109375 54.59375 39.796875 62.203125 
z
" id="ArialMT-55"/>
      </defs>
      <g transform="translate(280.924659 191.226371)rotate(-45)scale(0.1 -0.1)">
       <use xlink:href="#ArialMT-68"/>
       <use x="72.216797" xlink:href="#ArialMT-80"/>
       <use x="138.916016" xlink:href="#ArialMT-73"/>
       <use x="166.699219" xlink:href="#ArialMT-32"/>
       <use x="194.482422" xlink:href="#ArialMT-55"/>
      </g>
     </g>
    </g>
    <g id="xtick_5">
     <g id="line2d_5">
      <g>
       <use style="stroke:#000000;stroke-width:0.8;" x="362.029139" xlink:href="#m7586c7bbe0" y="161.480735"/>
      </g>
     </g>
     <g id="text_5">
      <!-- DPI 8 -->
      <defs>
       <path d="M 17.671875 38.8125 
Q 12.203125 40.828125 9.5625 44.53125 
Q 6.9375 48.25 6.9375 53.421875 
Q 6.9375 61.234375 12.546875 66.546875 
Q 18.171875 71.875 27.484375 71.875 
Q 36.859375 71.875 42.578125 66.421875 
Q 48.296875 60.984375 48.296875 53.171875 
Q 48.296875 48.1875 45.671875 44.5 
Q 43.0625 40.828125 37.75 38.8125 
Q 44.34375 36.671875 47.78125 31.875 
Q 51.21875 27.09375 51.21875 20.453125 
Q 51.21875 11.28125 44.71875 5.03125 
Q 38.234375 -1.21875 27.640625 -1.21875 
Q 17.046875 -1.21875 10.546875 5.046875 
Q 4.046875 11.328125 4.046875 20.703125 
Q 4.046875 27.6875 7.59375 32.390625 
Q 11.140625 37.109375 17.671875 38.8125 
z
M 15.921875 53.71875 
Q 15.921875 48.640625 19.1875 45.40625 
Q 22.46875 42.1875 27.6875 42.1875 
Q 32.765625 42.1875 36.015625 45.375 
Q 39.265625 48.578125 39.265625 53.21875 
Q 39.265625 58.0625 35.90625 61.359375 
Q 32.5625 64.65625 27.59375 64.65625 
Q 22.5625 64.65625 19.234375 61.421875 
Q 15.921875 58.203125 15.921875 53.71875 
z
M 13.09375 20.65625 
Q 13.09375 16.890625 14.875 13.375 
Q 16.65625 9.859375 20.171875 7.921875 
Q 23.6875 6 27.734375 6 
Q 34.03125 6 38.125 10.046875 
Q 42.234375 14.109375 42.234375 20.359375 
Q 42.234375 26.703125 38.015625 30.859375 
Q 33.796875 35.015625 27.4375 35.015625 
Q 21.234375 35.015625 17.15625 30.90625 
Q 13.09375 26.8125 13.09375 20.65625 
z
" id="ArialMT-56"/>
      </defs>
      <g transform="translate(355.014971 191.226371)rotate(-45)scale(0.1 -0.1)">
       <use xlink:href="#ArialMT-68"/>
       <use x="72.216797" xlink:href="#ArialMT-80"/>
       <use x="138.916016" xlink:href="#ArialMT-73"/>
       <use x="166.699219" xlink:href="#ArialMT-32"/>
       <use x="194.482422" xlink:href="#ArialMT-56"/>
      </g>
     </g>
    </g>
    <g id="xtick_6">
     <g id="line2d_6">
      <g>
       <use style="stroke:#000000;stroke-width:0.8;" x="436.119451" xlink:href="#m7586c7bbe0" y="161.480735"/>
      </g>
     </g>
     <g id="text_6">
      <!-- DPI 9 -->
      <defs>
       <path d="M 5.46875 16.546875 
L 13.921875 17.328125 
Q 14.984375 11.375 18.015625 8.6875 
Q 21.046875 6 25.78125 6 
Q 29.828125 6 32.875 7.859375 
Q 35.9375 9.71875 37.890625 12.8125 
Q 39.84375 15.921875 41.15625 21.1875 
Q 42.484375 26.46875 42.484375 31.9375 
Q 42.484375 32.515625 42.4375 33.6875 
Q 39.796875 29.5 35.234375 26.875 
Q 30.671875 24.265625 25.34375 24.265625 
Q 16.453125 24.265625 10.296875 30.703125 
Q 4.15625 37.15625 4.15625 47.703125 
Q 4.15625 58.59375 10.578125 65.234375 
Q 17 71.875 26.65625 71.875 
Q 33.640625 71.875 39.421875 68.109375 
Q 45.21875 64.359375 48.21875 57.390625 
Q 51.21875 50.4375 51.21875 37.25 
Q 51.21875 23.53125 48.234375 15.40625 
Q 45.265625 7.28125 39.375 3.03125 
Q 33.5 -1.21875 25.59375 -1.21875 
Q 17.1875 -1.21875 11.859375 3.4375 
Q 6.546875 8.109375 5.46875 16.546875 
z
M 41.453125 48.140625 
Q 41.453125 55.71875 37.421875 60.15625 
Q 33.40625 64.59375 27.734375 64.59375 
Q 21.875 64.59375 17.53125 59.8125 
Q 13.1875 55.03125 13.1875 47.40625 
Q 13.1875 40.578125 17.3125 36.296875 
Q 21.4375 32.03125 27.484375 32.03125 
Q 33.59375 32.03125 37.515625 36.296875 
Q 41.453125 40.578125 41.453125 48.140625 
z
" id="ArialMT-57"/>
      </defs>
      <g transform="translate(429.105283 191.226371)rotate(-45)scale(0.1 -0.1)">
       <use xlink:href="#ArialMT-68"/>
       <use x="72.216797" xlink:href="#ArialMT-80"/>
       <use x="138.916016" xlink:href="#ArialMT-73"/>
       <use x="166.699219" xlink:href="#ArialMT-32"/>
       <use x="194.482422" xlink:href="#ArialMT-57"/>
      </g>
     </g>
    </g>
   </g>
   <g id="matplotlib.axis_2">
    <g id="ytick_1">
     <g id="line2d_7">
      <defs>
       <path d="M 0 0 
L -3.5 0 
" id="m06aec731f3" style="stroke:#000000;stroke-width:0.8;"/>
      </defs>
      <g>
       <use style="stroke:#000000;stroke-width:0.8;" x="47.145313" xlink:href="#m06aec731f3" y="161.480735"/>
      </g>
     </g>
     <g id="text_7">
      <!-- $\mathdefault{10^{-3}}$ -->
      <defs>
       <path d="M 37.25 0 
L 28.46875 0 
L 28.46875 56 
Q 25.296875 52.984375 20.140625 49.953125 
Q 14.984375 46.921875 10.890625 45.40625 
L 10.890625 53.90625 
Q 18.265625 57.375 23.78125 62.296875 
Q 29.296875 67.234375 31.59375 71.875 
L 37.25 71.875 
z
" id="ArialMT-49"/>
       <path d="M 4.15625 35.296875 
Q 4.15625 48 6.765625 55.734375 
Q 9.375 63.484375 14.515625 67.671875 
Q 19.671875 71.875 27.484375 71.875 
Q 33.25 71.875 37.59375 69.546875 
Q 41.9375 67.234375 44.765625 62.859375 
Q 47.609375 58.5 49.21875 52.21875 
Q 50.828125 45.953125 50.828125 35.296875 
Q 50.828125 22.703125 48.234375 14.96875 
Q 45.65625 7.234375 40.5 3 
Q 35.359375 -1.21875 27.484375 -1.21875 
Q 17.140625 -1.21875 11.234375 6.203125 
Q 4.15625 15.140625 4.15625 35.296875 
z
M 13.1875 35.296875 
Q 13.1875 17.671875 17.3125 11.828125 
Q 21.4375 6 27.484375 6 
Q 33.546875 6 37.671875 11.859375 
Q 41.796875 17.71875 41.796875 35.296875 
Q 41.796875 52.984375 37.671875 58.78125 
Q 33.546875 64.59375 27.390625 64.59375 
Q 21.34375 64.59375 17.71875 59.46875 
Q 13.1875 52.9375 13.1875 35.296875 
z
" id="ArialMT-48"/>
       <path d="M 52.828125 31.203125 
L 5.5625 31.203125 
L 5.5625 39.40625 
L 52.828125 39.40625 
z
" id="ArialMT-8722"/>
       <path d="M 4.203125 18.890625 
L 12.984375 20.0625 
Q 14.5 12.59375 18.140625 9.296875 
Q 21.78125 6 27 6 
Q 33.203125 6 37.46875 10.296875 
Q 41.75 14.59375 41.75 20.953125 
Q 41.75 27 37.796875 30.921875 
Q 33.84375 34.859375 27.734375 34.859375 
Q 25.25 34.859375 21.53125 33.890625 
L 22.515625 41.609375 
Q 23.390625 41.5 23.921875 41.5 
Q 29.546875 41.5 34.03125 44.421875 
Q 38.53125 47.359375 38.53125 53.46875 
Q 38.53125 58.296875 35.25 61.46875 
Q 31.984375 64.65625 26.8125 64.65625 
Q 21.6875 64.65625 18.265625 61.421875 
Q 14.84375 58.203125 13.875 51.765625 
L 5.078125 53.328125 
Q 6.6875 62.15625 12.390625 67.015625 
Q 18.109375 71.875 26.609375 71.875 
Q 32.46875 71.875 37.390625 69.359375 
Q 42.328125 66.84375 44.9375 62.5 
Q 47.5625 58.15625 47.5625 53.265625 
Q 47.5625 48.640625 45.0625 44.828125 
Q 42.578125 41.015625 37.703125 38.765625 
Q 44.046875 37.3125 47.5625 32.6875 
Q 51.078125 28.078125 51.078125 21.140625 
Q 51.078125 11.765625 44.234375 5.25 
Q 37.40625 -1.265625 26.953125 -1.265625 
Q 17.53125 -1.265625 11.296875 4.34375 
Q 5.078125 9.96875 4.203125 18.890625 
z
" id="ArialMT-51"/>
      </defs>
      <g transform="translate(20.345313 166.636985)scale(0.1 -0.1)">
       <use transform="translate(0 0.99375)" xlink:href="#ArialMT-49"/>
       <use transform="translate(55.615234 0.99375)" xlink:href="#ArialMT-48"/>
       <use transform="translate(112.972813 70.6875)scale(0.7)" xlink:href="#ArialMT-8722"/>
       <use transform="translate(153.851719 70.6875)scale(0.7)" xlink:href="#ArialMT-51"/>
      </g>
     </g>
    </g>
    <g id="ytick_2">
     <g id="line2d_8">
      <g>
       <use style="stroke:#000000;stroke-width:0.8;" x="47.145313" xlink:href="#m06aec731f3" y="121.568918"/>
      </g>
     </g>
     <g id="text_8">
      <!-- $\mathdefault{10^{-1}}$ -->
      <g transform="translate(20.345313 126.725168)scale(0.1 -0.1)">
       <use transform="translate(0 0.99375)" xlink:href="#ArialMT-49"/>
       <use transform="translate(55.615234 0.99375)" xlink:href="#ArialMT-48"/>
       <use transform="translate(112.972813 70.6875)scale(0.7)" xlink:href="#ArialMT-8722"/>
       <use transform="translate(153.851719 70.6875)scale(0.7)" xlink:href="#ArialMT-49"/>
      </g>
     </g>
    </g>
    <g id="ytick_3">
     <g id="line2d_9">
      <g>
       <use style="stroke:#000000;stroke-width:0.8;" x="47.145313" xlink:href="#m06aec731f3" y="81.657101"/>
      </g>
     </g>
     <g id="text_9">
      <!-- $\mathdefault{10^{1}}$ -->
      <g transform="translate(24.445312 86.813351)scale(0.1 -0.1)">
       <use transform="translate(0 0.99375)" xlink:href="#ArialMT-49"/>
       <use transform="translate(55.615234 0.99375)" xlink:href="#ArialMT-48"/>
       <use transform="translate(112.972813 70.6875)scale(0.7)" xlink:href="#ArialMT-49"/>
      </g>
     </g>
    </g>
    <g id="ytick_4">
     <g id="line2d_10">
      <g>
       <use style="stroke:#000000;stroke-width:0.8;" x="47.145313" xlink:href="#m06aec731f3" y="41.745284"/>
      </g>
     </g>
     <g id="text_10">
      <!-- $\mathdefault{10^{3}}$ -->
      <g transform="translate(24.445312 46.901534)scale(0.1 -0.1)">
       <use transform="translate(0 0.99375)" xlink:href="#ArialMT-49"/>
       <use transform="translate(55.615234 0.99375)" xlink:href="#ArialMT-48"/>
       <use transform="translate(112.972813 70.6875)scale(0.7)" xlink:href="#ArialMT-51"/>
      </g>
     </g>
    </g>
    <g id="text_11">
     <!-- πN/πS -->
     <defs>
      <path d="M 24.65625 44.734375 
L 24.65625 0 
L 15.875 0 
L 15.875 44.734375 
L 2.203125 44.734375 
L 2.203125 51.859375 
L 66.84375 51.859375 
L 66.84375 44.734375 
L 55.03125 44.734375 
L 55.03125 0 
L 46.234375 0 
L 46.234375 44.734375 
z
" id="ArialMT-960"/>
      <path d="M 7.625 0 
L 7.625 71.578125 
L 17.328125 71.578125 
L 54.9375 15.375 
L 54.9375 71.578125 
L 64.015625 71.578125 
L 64.015625 0 
L 54.296875 0 
L 16.703125 56.25 
L 16.703125 0 
z
" id="ArialMT-78"/>
      <path d="M 0 -1.21875 
L 20.75 72.796875 
L 27.78125 72.796875 
L 7.078125 -1.21875 
z
" id="ArialMT-47"/>
      <path d="M 4.5 23 
L 13.421875 23.78125 
Q 14.0625 18.40625 16.375 14.96875 
Q 18.703125 11.53125 23.578125 9.40625 
Q 28.46875 7.28125 34.578125 7.28125 
Q 39.984375 7.28125 44.140625 8.890625 
Q 48.296875 10.5 50.3125 13.296875 
Q 52.34375 16.109375 52.34375 19.4375 
Q 52.34375 22.796875 50.390625 25.3125 
Q 48.4375 27.828125 43.953125 29.546875 
Q 41.0625 30.671875 31.203125 33.03125 
Q 21.34375 35.40625 17.390625 37.5 
Q 12.25 40.1875 9.734375 44.15625 
Q 7.234375 48.140625 7.234375 53.078125 
Q 7.234375 58.5 10.296875 63.203125 
Q 13.375 67.921875 19.28125 70.359375 
Q 25.203125 72.796875 32.421875 72.796875 
Q 40.375 72.796875 46.453125 70.234375 
Q 52.546875 67.671875 55.8125 62.6875 
Q 59.078125 57.71875 59.328125 51.421875 
L 50.25 50.734375 
Q 49.515625 57.515625 45.28125 60.984375 
Q 41.0625 64.453125 32.8125 64.453125 
Q 24.21875 64.453125 20.28125 61.296875 
Q 16.359375 58.15625 16.359375 53.71875 
Q 16.359375 49.859375 19.140625 47.359375 
Q 21.875 44.875 33.421875 42.265625 
Q 44.96875 39.65625 49.265625 37.703125 
Q 55.515625 34.8125 58.484375 30.390625 
Q 61.46875 25.984375 61.46875 20.21875 
Q 61.46875 14.5 58.203125 9.4375 
Q 54.9375 4.390625 48.796875 1.578125 
Q 42.671875 -1.21875 35.015625 -1.21875 
Q 25.296875 -1.21875 18.71875 1.609375 
Q 12.15625 4.4375 8.421875 10.125 
Q 4.6875 15.828125 4.5 23 
z
" id="ArialMT-83"/>
     </defs>
     <g transform="translate(14.357812 106.870211)rotate(-90)scale(0.1 -0.1)">
      <use xlink:href="#ArialMT-960"/>
      <use x="68.994141" xlink:href="#ArialMT-78"/>
      <use x="141.210938" xlink:href="#ArialMT-47"/>
      <use x="168.994141" xlink:href="#ArialMT-960"/>
      <use x="237.988281" xlink:href="#ArialMT-83"/>
     </g>
    </g>
   </g>
   <g id="line2d_11">
    <path clip-path="url(#p63c9e61c84)" d="M 65.667891 118.526043 
L 139.758203 115.343091 
L 213.848515 119.353694 
M 362.029139 117.7855 
L 436.119451 122.220352 
" style="fill:none;stroke:#8da395;stroke-linecap:square;"/>
    <defs>
     <path d="M 0 1.5 
C 0.397805 1.5 0.77937 1.341951 1.06066 1.06066 
C 1.341951 0.77937 1.5 0.397805 1.5 0 
C 1.5 -0.397805 1.341951 -0.77937 1.06066 -1.06066 
C 0.77937 -1.341951 0.397805 -1.5 0 -1.5 
C -0.397805 -1.5 -0.77937 -1.341951 -1.06066 -1.06066 
C -1.341951 -0.77937 -1.5 -0.397805 -1.5 0 
C -1.5 0.397805 -1.341951 0.77937 -1.06066 1.06066 
C -0.77937 1.341951 -0.397805 1.5 0 1.5 
z
" id="m5e885b9fac" style="stroke:#8da395;"/>
    </defs>
    <g clip-path="url(#p63c9e61c84)">
     <use style="fill:#8da395;stroke:#8da395;" x="65.667891" xlink:href="#m5e885b9fac" y="118.526043"/>
     <use style="fill:#8da395;stroke:#8da395;" x="139.758203" xlink:href="#m5e885b9fac" y="115.343091"/>
     <use style="fill:#8da395;stroke:#8da395;" x="213.848515" xlink:href="#m5e885b9fac" y="119.353694"/>
     <use style="fill:#8da395;stroke:#8da395;" x="362.029139" xlink:href="#m5e885b9fac" y="117.7855"/>
     <use style="fill:#8da395;stroke:#8da395;" x="436.119451" xlink:href="#m5e885b9fac" y="122.220352"/>
    </g>
   </g>
   <g id="line2d_12">
    <path clip-path="url(#p63c9e61c84)" d="M 65.667891 118.2206 
L 139.758203 118.174736 
L 213.848515 182.873857 
M 362.029139 109.479603 
L 436.119451 78.755151 
" style="fill:none;stroke:#a86566;stroke-linecap:square;"/>
    <defs>
     <path d="M 0 1.5 
C 0.397805 1.5 0.77937 1.341951 1.06066 1.06066 
C 1.341951 0.77937 1.5 0.397805 1.5 0 
C 1.5 -0.397805 1.341951 -0.77937 1.06066 -1.06066 
C 0.77937 -1.341951 0.397805 -1.5 0 -1.5 
C -0.397805 -1.5 -0.77937 -1.341951 -1.06066 -1.06066 
C -1.341951 -0.77937 -1.5 -0.397805 -1.5 0 
C -1.5 0.397805 -1.341951 0.77937 -1.06066 1.06066 
C -0.77937 1.341951 -0.397805 1.5 0 1.5 
z
" id="mf636844f64" style="stroke:#a86566;"/>
    </defs>
    <g clip-path="url(#p63c9e61c84)">
     <use style="fill:#a86566;stroke:#a86566;" x="65.667891" xlink:href="#mf636844f64" y="118.2206"/>
     <use style="fill:#a86566;stroke:#a86566;" x="139.758203" xlink:href="#mf636844f64" y="118.174736"/>
     <use style="fill:#a86566;stroke:#a86566;" x="213.848515" xlink:href="#mf636844f64" y="182.873857"/>
     <use style="fill:#a86566;stroke:#a86566;" x="362.029139" xlink:href="#mf636844f64" y="109.479603"/>
     <use style="fill:#a86566;stroke:#a86566;" x="436.119451" xlink:href="#mf636844f64" y="78.755151"/>
    </g>
   </g>
   <g id="line2d_13">
    <path clip-path="url(#p63c9e61c84)" d="M 362.029139 111.694199 
" style="fill:none;stroke:#a4a58c;stroke-linecap:square;"/>
    <defs>
     <path d="M 0 1.5 
C 0.397805 1.5 0.77937 1.341951 1.06066 1.06066 
C 1.341951 0.77937 1.5 0.397805 1.5 0 
C 1.5 -0.397805 1.341951 -0.77937 1.06066 -1.06066 
C 0.77937 -1.341951 0.397805 -1.5 0 -1.5 
C -0.397805 -1.5 -0.77937 -1.341951 -1.06066 -1.06066 
C -1.341951 -0.77937 -1.5 -0.397805 -1.5 0 
C -1.5 0.397805 -1.341951 0.77937 -1.06066 1.06066 
C -0.77937 1.341951 -0.397805 1.5 0 1.5 
z
" id="m2396968117" style="stroke:#a4a58c;"/>
    </defs>
    <g clip-path="url(#p63c9e61c84)">
     <use style="fill:#a4a58c;stroke:#a4a58c;" x="362.029139" xlink:href="#m2396968117" y="111.694199"/>
    </g>
   </g>
   <g id="line2d_14">
    <path clip-path="url(#p63c9e61c84)" d="M 0 0 
" style="fill:none;stroke:#cb997d;stroke-linecap:square;"/>
    <defs>
     <path d="M 0 1.5 
C 0.397805 1.5 0.77937 1.341951 1.06066 1.06066 
C 1.341951 0.77937 1.5 0.397805 1.5 0 
C 1.5 -0.397805 1.341951 -0.77937 1.06066 -1.06066 
C 0.77937 -1.341951 0.397805 -1.5 0 -1.5 
C -0.397805 -1.5 -0.77937 -1.341951 -1.06066 -1.06066 
C -1.341951 -0.77937 -1.5 -0.397805 -1.5 0 
C -1.5 0.397805 -1.341951 0.77937 -1.06066 1.06066 
C -0.77937 1.341951 -0.397805 1.5 0 1.5 
z
" id="m2d1bac8f72" style="stroke:#cb997d;"/>
    </defs>
    <g clip-path="url(#p63c9e61c84)">
     <use style="fill:#cb997d;stroke:#cb997d;" x="0" xlink:href="#m2d1bac8f72" y="0"/>
    </g>
   </g>
   <g id="line2d_15">
    <path clip-path="url(#p63c9e61c84)" d="M 0 0 
" style="fill:none;stroke:#c87f7f;stroke-linecap:square;"/>
    <defs>
     <path d="M 0 1.5 
C 0.397805 1.5 0.77937 1.341951 1.06066 1.06066 
C 1.341951 0.77937 1.5 0.397805 1.5 0 
C 1.5 -0.397805 1.341951 -0.77937 1.06066 -1.06066 
C 0.77937 -1.341951 0.397805 -1.5 0 -1.5 
C -0.397805 -1.5 -0.77937 -1.341951 -1.06066 -1.06066 
C -1.341951 -0.77937 -1.5 -0.397805 -1.5 0 
C -1.5 0.397805 -1.341951 0.77937 -1.06066 1.06066 
C -0.77937 1.341951 -0.397805 1.5 0 1.5 
z
" id="md859208784" style="stroke:#c87f7f;"/>
    </defs>
    <g clip-path="url(#p63c9e61c84)">
     <use style="fill:#c87f7f;stroke:#c87f7f;" x="0" xlink:href="#md859208784" y="0"/>
    </g>
   </g>
   <g id="line2d_16">
    <path clip-path="url(#p63c9e61c84)" d="M 0 0 
" style="fill:none;stroke:#59667c;stroke-linecap:square;"/>
    <defs>
     <path d="M 0 1.5 
C 0.397805 1.5 0.77937 1.341951 1.06066 1.06066 
C 1.341951 0.77937 1.5 0.397805 1.5 0 
C 1.5 -0.397805 1.341951 -0.77937 1.06066 -1.06066 
C 0.77937 -1.341951 0.397805 -1.5 0 -1.5 
C -0.397805 -1.5 -0.77937 -1.341951 -1.06066 -1.06066 
C -1.341951 -0.77937 -1.5 -0.397805 -1.5 0 
C -1.5 0.397805 -1.341951 0.77937 -1.06066 1.06066 
C -0.77937 1.341951 -0.397805 1.5 0 1.5 
z
" id="mfd6a62c82e" style="stroke:#59667c;"/>
    </defs>
    <g clip-path="url(#p63c9e61c84)">
     <use style="fill:#59667c;stroke:#59667c;" x="0" xlink:href="#mfd6a62c82e" y="0"/>
    </g>
   </g>
   <g id="line2d_17">
    <path clip-path="url(#p63c9e61c84)" d="M 0 0 
" style="fill:none;stroke:#715c7c;stroke-linecap:square;"/>
    <defs>
     <path d="M 0 1.5 
C 0.397805 1.5 0.77937 1.341951 1.06066 1.06066 
C 1.341951 0.77937 1.5 0.397805 1.5 0 
C 1.5 -0.397805 1.341951 -0.77937 1.06066 -1.06066 
C 0.77937 -1.341951 0.397805 -1.5 0 -1.5 
C -0.397805 -1.5 -0.77937 -1.341951 -1.06066 -1.06066 
C -1.341951 -0.77937 -1.5 -0.397805 -1.5 0 
C -1.5 0.397805 -1.341951 0.77937 -1.06066 1.06066 
C -0.77937 1.341951 -0.397805 1.5 0 1.5 
z
" id="m7ef239c49d" style="stroke:#715c7c;"/>
    </defs>
    <g clip-path="url(#p63c9e61c84)">
     <use style="fill:#715c7c;stroke:#715c7c;" x="0" xlink:href="#m7ef239c49d" y="0"/>
    </g>
   </g>
   <g id="line2d_18">
    <path clip-path="url(#p63c9e61c84)" d="M 0 0 
" style="fill:none;stroke:#ccba85;stroke-linecap:square;"/>
    <defs>
     <path d="M 0 1.5 
C 0.397805 1.5 0.77937 1.341951 1.06066 1.06066 
C 1.341951 0.77937 1.5 0.397805 1.5 0 
C 1.5 -0.397805 1.341951 -0.77937 1.06066 -1.06066 
C 0.77937 -1.341951 0.397805 -1.5 0 -1.5 
C -0.397805 -1.5 -0.77937 -1.341951 -1.06066 -1.06066 
C -1.341951 -0.77937 -1.5 -0.397805 -1.5 0 
C -1.5 0.397805 -1.341951 0.77937 -1.06066 1.06066 
C -0.77937 1.341951 -0.397805 1.5 0 1.5 
z
" id="me362492f7d" style="stroke:#ccba85;"/>
    </defs>
    <g clip-path="url(#p63c9e61c84)">
     <use style="fill:#ccba85;stroke:#ccba85;" x="0" xlink:href="#me362492f7d" y="0"/>
    </g>
   </g>
   <g id="line2d_19">
    <path clip-path="url(#p63c9e61c84)" d="M 139.758203 117.532098 
" style="fill:none;stroke:#8b9aa0;stroke-linecap:square;"/>
    <defs>
     <path d="M 0 1.5 
C 0.397805 1.5 0.77937 1.341951 1.06066 1.06066 
C 1.341951 0.77937 1.5 0.397805 1.5 0 
C 1.5 -0.397805 1.341951 -0.77937 1.06066 -1.06066 
C 0.77937 -1.341951 0.397805 -1.5 0 -1.5 
C -0.397805 -1.5 -0.77937 -1.341951 -1.06066 -1.06066 
C -1.341951 -0.77937 -1.5 -0.397805 -1.5 0 
C -1.5 0.397805 -1.341951 0.77937 -1.06066 1.06066 
C -0.77937 1.341951 -0.397805 1.5 0 1.5 
z
" id="m7da0eada27" style="stroke:#8b9aa0;"/>
    </defs>
    <g clip-path="url(#p63c9e61c84)">
     <use style="fill:#8b9aa0;stroke:#8b9aa0;" x="139.758203" xlink:href="#m7da0eada27" y="117.532098"/>
    </g>
   </g>
   <g id="line2d_20">
    <path clip-path="url(#p63c9e61c84)" d="M 0 0 
" style="fill:none;stroke:#938aa0;stroke-linecap:square;"/>
    <defs>
     <path d="M 0 1.5 
C 0.397805 1.5 0.77937 1.341951 1.06066 1.06066 
C 1.341951 0.77937 1.5 0.397805 1.5 0 
C 1.5 -0.397805 1.341951 -0.77937 1.06066 -1.06066 
C 0.77937 -1.341951 0.397805 -1.5 0 -1.5 
C -0.397805 -1.5 -0.77937 -1.341951 -1.06066 -1.06066 
C -1.341951 -0.77937 -1.5 -0.397805 -1.5 0 
C -1.5 0.397805 -1.341951 0.77937 -1.06066 1.06066 
C -0.77937 1.341951 -0.397805 1.5 0 1.5 
z
" id="m1aa7a8a181" style="stroke:#938aa0;"/>
    </defs>
    <g clip-path="url(#p63c9e61c84)">
     <use style="fill:#938aa0;stroke:#938aa0;" x="0" xlink:href="#m1aa7a8a181" y="0"/>
    </g>
   </g>
   <g id="line2d_21">
    <path clip-path="url(#p63c9e61c84)" d="M 47.145313 101.613009 
L 454.642029 101.613009 
" style="fill:none;stroke:#808080;stroke-dasharray:1.5,2.475;stroke-dashoffset:0;stroke-width:1.5;"/>
   </g>
   <g id="patch_3">
    <path d="M 47.145313 161.480735 
L 47.145313 21.789375 
" style="fill:none;stroke:#000000;stroke-linecap:square;stroke-linejoin:miter;stroke-width:0.8;"/>
   </g>
   <g id="patch_4">
    <path d="M 47.145313 161.480735 
L 454.642029 161.480735 
" style="fill:none;stroke:#000000;stroke-linecap:square;stroke-linejoin:miter;stroke-width:0.8;"/>
   </g>
   <g id="text_12">
    <!-- πN/πS cat 6 -->
    <defs>
     <path d="M 40.4375 19 
L 49.078125 17.875 
Q 47.65625 8.9375 41.8125 3.875 
Q 35.984375 -1.171875 27.484375 -1.171875 
Q 16.84375 -1.171875 10.375 5.78125 
Q 3.90625 12.75 3.90625 25.734375 
Q 3.90625 34.125 6.6875 40.421875 
Q 9.46875 46.734375 15.15625 49.875 
Q 20.84375 53.03125 27.546875 53.03125 
Q 35.984375 53.03125 41.359375 48.75 
Q 46.734375 44.484375 48.25 36.625 
L 39.703125 35.296875 
Q 38.484375 40.53125 35.375 43.15625 
Q 32.28125 45.796875 27.875 45.796875 
Q 21.234375 45.796875 17.078125 41.03125 
Q 12.9375 36.28125 12.9375 25.984375 
Q 12.9375 15.53125 16.9375 10.796875 
Q 20.953125 6.0625 27.390625 6.0625 
Q 32.5625 6.0625 36.03125 9.234375 
Q 39.5 12.40625 40.4375 19 
z
" id="ArialMT-99"/>
     <path d="M 40.4375 6.390625 
Q 35.546875 2.25 31.03125 0.53125 
Q 26.515625 -1.171875 21.34375 -1.171875 
Q 12.796875 -1.171875 8.203125 3 
Q 3.609375 7.171875 3.609375 13.671875 
Q 3.609375 17.484375 5.34375 20.625 
Q 7.078125 23.78125 9.890625 25.6875 
Q 12.703125 27.59375 16.21875 28.5625 
Q 18.796875 29.25 24.03125 29.890625 
Q 34.671875 31.15625 39.703125 32.90625 
Q 39.75 34.71875 39.75 35.203125 
Q 39.75 40.578125 37.25 42.78125 
Q 33.890625 45.75 27.25 45.75 
Q 21.046875 45.75 18.09375 43.578125 
Q 15.140625 41.40625 13.71875 35.890625 
L 5.125 37.0625 
Q 6.296875 42.578125 8.984375 45.96875 
Q 11.671875 49.359375 16.75 51.1875 
Q 21.828125 53.03125 28.515625 53.03125 
Q 35.15625 53.03125 39.296875 51.46875 
Q 43.453125 49.90625 45.40625 47.53125 
Q 47.359375 45.171875 48.140625 41.546875 
Q 48.578125 39.3125 48.578125 33.453125 
L 48.578125 21.734375 
Q 48.578125 9.46875 49.140625 6.21875 
Q 49.703125 2.984375 51.375 0 
L 42.1875 0 
Q 40.828125 2.734375 40.4375 6.390625 
z
M 39.703125 26.03125 
Q 34.90625 24.078125 25.34375 22.703125 
Q 19.921875 21.921875 17.671875 20.9375 
Q 15.4375 19.96875 14.203125 18.09375 
Q 12.984375 16.21875 12.984375 13.921875 
Q 12.984375 10.40625 15.640625 8.0625 
Q 18.3125 5.71875 23.4375 5.71875 
Q 28.515625 5.71875 32.46875 7.9375 
Q 36.421875 10.15625 38.28125 14.015625 
Q 39.703125 17 39.703125 22.796875 
z
" id="ArialMT-97"/>
     <path d="M 25.78125 7.859375 
L 27.046875 0.09375 
Q 23.34375 -0.6875 20.40625 -0.6875 
Q 15.625 -0.6875 12.984375 0.828125 
Q 10.359375 2.34375 9.28125 4.8125 
Q 8.203125 7.28125 8.203125 15.1875 
L 8.203125 45.015625 
L 1.765625 45.015625 
L 1.765625 51.859375 
L 8.203125 51.859375 
L 8.203125 64.703125 
L 16.9375 69.96875 
L 16.9375 51.859375 
L 25.78125 51.859375 
L 25.78125 45.015625 
L 16.9375 45.015625 
L 16.9375 14.703125 
Q 16.9375 10.9375 17.40625 9.859375 
Q 17.875 8.796875 18.921875 8.15625 
Q 19.96875 7.515625 21.921875 7.515625 
Q 23.390625 7.515625 25.78125 7.859375 
z
" id="ArialMT-116"/>
    </defs>
    <g transform="translate(217.937733 15.789375)scale(0.12 -0.12)">
     <use xlink:href="#ArialMT-960"/>
     <use x="68.994141" xlink:href="#ArialMT-78"/>
     <use x="141.210938" xlink:href="#ArialMT-47"/>
     <use x="168.994141" xlink:href="#ArialMT-960"/>
     <use x="237.988281" xlink:href="#ArialMT-83"/>
     <use x="304.6875" xlink:href="#ArialMT-32"/>
     <use x="332.470703" xlink:href="#ArialMT-99"/>
     <use x="382.470703" xlink:href="#ArialMT-97"/>
     <use x="438.085938" xlink:href="#ArialMT-116"/>
     <use x="465.869141" xlink:href="#ArialMT-32"/>
     <use x="493.652344" xlink:href="#ArialMT-54"/>
    </g>
   </g>
   <g id="legend_1">
    <g id="line2d_22">
     <path d="M 461.842029 32.018125 
L 477.842029 32.018125 
" style="fill:none;stroke:#8da395;stroke-linecap:square;"/>
    </g>
    <g id="line2d_23">
     <g>
      <use style="fill:#8da395;stroke:#8da395;" x="469.842029" xlink:href="#m5e885b9fac" y="32.018125"/>
     </g>
    </g>
    <g id="text_13">
     <!-- gene-ORF1ab -->
     <defs>
      <path d="M 4.984375 -4.296875 
L 13.53125 -5.5625 
Q 14.0625 -9.515625 16.5 -11.328125 
Q 19.78125 -13.765625 25.4375 -13.765625 
Q 31.546875 -13.765625 34.859375 -11.328125 
Q 38.1875 -8.890625 39.359375 -4.5 
Q 40.046875 -1.8125 39.984375 6.78125 
Q 34.234375 0 25.640625 0 
Q 14.9375 0 9.078125 7.71875 
Q 3.21875 15.4375 3.21875 26.21875 
Q 3.21875 33.640625 5.90625 39.90625 
Q 8.59375 46.1875 13.6875 49.609375 
Q 18.796875 53.03125 25.6875 53.03125 
Q 34.859375 53.03125 40.828125 45.609375 
L 40.828125 51.859375 
L 48.921875 51.859375 
L 48.921875 7.03125 
Q 48.921875 -5.078125 46.453125 -10.125 
Q 44 -15.1875 38.640625 -18.109375 
Q 33.296875 -21.046875 25.484375 -21.046875 
Q 16.21875 -21.046875 10.5 -16.875 
Q 4.78125 -12.703125 4.984375 -4.296875 
z
M 12.25 26.859375 
Q 12.25 16.65625 16.296875 11.96875 
Q 20.359375 7.28125 26.46875 7.28125 
Q 32.515625 7.28125 36.609375 11.9375 
Q 40.71875 16.609375 40.71875 26.5625 
Q 40.71875 36.078125 36.5 40.90625 
Q 32.28125 45.75 26.3125 45.75 
Q 20.453125 45.75 16.34375 40.984375 
Q 12.25 36.234375 12.25 26.859375 
z
" id="ArialMT-103"/>
      <path d="M 42.09375 16.703125 
L 51.171875 15.578125 
Q 49.03125 7.625 43.21875 3.21875 
Q 37.40625 -1.171875 28.375 -1.171875 
Q 17 -1.171875 10.328125 5.828125 
Q 3.65625 12.84375 3.65625 25.484375 
Q 3.65625 38.578125 10.390625 45.796875 
Q 17.140625 53.03125 27.875 53.03125 
Q 38.28125 53.03125 44.875 45.953125 
Q 51.46875 38.875 51.46875 26.03125 
Q 51.46875 25.25 51.421875 23.6875 
L 12.75 23.6875 
Q 13.234375 15.140625 17.578125 10.59375 
Q 21.921875 6.0625 28.421875 6.0625 
Q 33.25 6.0625 36.671875 8.59375 
Q 40.09375 11.140625 42.09375 16.703125 
z
M 13.234375 30.90625 
L 42.1875 30.90625 
Q 41.609375 37.453125 38.875 40.71875 
Q 34.671875 45.796875 27.984375 45.796875 
Q 21.921875 45.796875 17.796875 41.75 
Q 13.671875 37.703125 13.234375 30.90625 
z
" id="ArialMT-101"/>
      <path d="M 6.59375 0 
L 6.59375 51.859375 
L 14.5 51.859375 
L 14.5 44.484375 
Q 20.21875 53.03125 31 53.03125 
Q 35.6875 53.03125 39.625 51.34375 
Q 43.5625 49.65625 45.515625 46.921875 
Q 47.46875 44.1875 48.25 40.4375 
Q 48.734375 37.984375 48.734375 31.890625 
L 48.734375 0 
L 39.9375 0 
L 39.9375 31.546875 
Q 39.9375 36.921875 38.90625 39.578125 
Q 37.890625 42.234375 35.28125 43.8125 
Q 32.671875 45.40625 29.15625 45.40625 
Q 23.53125 45.40625 19.453125 41.84375 
Q 15.375 38.28125 15.375 28.328125 
L 15.375 0 
z
" id="ArialMT-110"/>
      <path d="M 3.171875 21.484375 
L 3.171875 30.328125 
L 30.171875 30.328125 
L 30.171875 21.484375 
z
" id="ArialMT-45"/>
      <path d="M 4.828125 34.859375 
Q 4.828125 52.6875 14.390625 62.765625 
Q 23.96875 72.859375 39.109375 72.859375 
Q 49.03125 72.859375 56.984375 68.109375 
Q 64.9375 63.375 69.109375 54.90625 
Q 73.296875 46.4375 73.296875 35.6875 
Q 73.296875 24.8125 68.890625 16.21875 
Q 64.5 7.625 56.4375 3.203125 
Q 48.390625 -1.21875 39.0625 -1.21875 
Q 28.953125 -1.21875 20.984375 3.65625 
Q 13.03125 8.546875 8.921875 16.984375 
Q 4.828125 25.4375 4.828125 34.859375 
z
M 14.59375 34.71875 
Q 14.59375 21.78125 21.546875 14.328125 
Q 28.515625 6.890625 39.015625 6.890625 
Q 49.703125 6.890625 56.609375 14.40625 
Q 63.53125 21.921875 63.53125 35.75 
Q 63.53125 44.484375 60.578125 51 
Q 57.625 57.515625 51.921875 61.109375 
Q 46.234375 64.703125 39.15625 64.703125 
Q 29.109375 64.703125 21.84375 57.78125 
Q 14.59375 50.875 14.59375 34.71875 
z
" id="ArialMT-79"/>
      <path d="M 7.859375 0 
L 7.859375 71.578125 
L 39.59375 71.578125 
Q 49.171875 71.578125 54.140625 69.640625 
Q 59.125 67.71875 62.109375 62.828125 
Q 65.09375 57.953125 65.09375 52.046875 
Q 65.09375 44.4375 60.15625 39.203125 
Q 55.21875 33.984375 44.921875 32.5625 
Q 48.6875 30.765625 50.640625 29 
Q 54.78125 25.203125 58.5 19.484375 
L 70.953125 0 
L 59.03125 0 
L 49.5625 14.890625 
Q 45.40625 21.34375 42.71875 24.75 
Q 40.046875 28.171875 37.921875 29.53125 
Q 35.796875 30.90625 33.59375 31.453125 
Q 31.984375 31.78125 28.328125 31.78125 
L 17.328125 31.78125 
L 17.328125 0 
z
M 17.328125 39.984375 
L 37.703125 39.984375 
Q 44.1875 39.984375 47.84375 41.328125 
Q 51.515625 42.671875 53.421875 45.625 
Q 55.328125 48.578125 55.328125 52.046875 
Q 55.328125 57.125 51.640625 60.390625 
Q 47.953125 63.671875 39.984375 63.671875 
L 17.328125 63.671875 
z
" id="ArialMT-82"/>
      <path d="M 8.203125 0 
L 8.203125 71.578125 
L 56.5 71.578125 
L 56.5 63.140625 
L 17.671875 63.140625 
L 17.671875 40.96875 
L 51.265625 40.96875 
L 51.265625 32.515625 
L 17.671875 32.515625 
L 17.671875 0 
z
" id="ArialMT-70"/>
      <path d="M 14.703125 0 
L 6.546875 0 
L 6.546875 71.578125 
L 15.328125 71.578125 
L 15.328125 46.046875 
Q 20.90625 53.03125 29.546875 53.03125 
Q 34.328125 53.03125 38.59375 51.09375 
Q 42.875 49.171875 45.625 45.671875 
Q 48.390625 42.1875 49.953125 37.25 
Q 51.515625 32.328125 51.515625 26.703125 
Q 51.515625 13.375 44.921875 6.09375 
Q 38.328125 -1.171875 29.109375 -1.171875 
Q 19.921875 -1.171875 14.703125 6.5 
z
M 14.59375 26.3125 
Q 14.59375 17 17.140625 12.84375 
Q 21.296875 6.0625 28.375 6.0625 
Q 34.125 6.0625 38.328125 11.0625 
Q 42.53125 16.0625 42.53125 25.984375 
Q 42.53125 36.140625 38.5 40.96875 
Q 34.46875 45.796875 28.765625 45.796875 
Q 23 45.796875 18.796875 40.796875 
Q 14.59375 35.796875 14.59375 26.3125 
z
" id="ArialMT-98"/>
     </defs>
     <g transform="translate(484.242029 34.818125)scale(0.08 -0.08)">
      <use xlink:href="#ArialMT-103"/>
      <use x="55.615234" xlink:href="#ArialMT-101"/>
      <use x="111.230469" xlink:href="#ArialMT-110"/>
      <use x="166.845703" xlink:href="#ArialMT-101"/>
      <use x="222.460938" xlink:href="#ArialMT-45"/>
      <use x="255.761719" xlink:href="#ArialMT-79"/>
      <use x="333.544922" xlink:href="#ArialMT-82"/>
      <use x="405.761719" xlink:href="#ArialMT-70"/>
      <use x="466.845703" xlink:href="#ArialMT-49"/>
      <use x="522.460938" xlink:href="#ArialMT-97"/>
      <use x="578.076172" xlink:href="#ArialMT-98"/>
     </g>
    </g>
    <g id="line2d_24">
     <path d="M 461.842029 43.525625 
L 477.842029 43.525625 
" style="fill:none;stroke:#a86566;stroke-linecap:square;"/>
    </g>
    <g id="line2d_25">
     <g>
      <use style="fill:#a86566;stroke:#a86566;" x="469.842029" xlink:href="#mf636844f64" y="43.525625"/>
     </g>
    </g>
    <g id="text_14">
     <!-- gene-S -->
     <g transform="translate(484.242029 46.325625)scale(0.08 -0.08)">
      <use xlink:href="#ArialMT-103"/>
      <use x="55.615234" xlink:href="#ArialMT-101"/>
      <use x="111.230469" xlink:href="#ArialMT-110"/>
      <use x="166.845703" xlink:href="#ArialMT-101"/>
      <use x="222.460938" xlink:href="#ArialMT-45"/>
      <use x="255.761719" xlink:href="#ArialMT-83"/>
     </g>
    </g>
    <g id="line2d_26">
     <path d="M 461.842029 55.038125 
L 477.842029 55.038125 
" style="fill:none;stroke:#a4a58c;stroke-linecap:square;"/>
    </g>
    <g id="line2d_27">
     <g>
      <use style="fill:#a4a58c;stroke:#a4a58c;" x="469.842029" xlink:href="#m2396968117" y="55.038125"/>
     </g>
    </g>
    <g id="text_15">
     <!-- gene-ORF3a -->
     <g transform="translate(484.242029 57.838125)scale(0.08 -0.08)">
      <use xlink:href="#ArialMT-103"/>
      <use x="55.615234" xlink:href="#ArialMT-101"/>
      <use x="111.230469" xlink:href="#ArialMT-110"/>
      <use x="166.845703" xlink:href="#ArialMT-101"/>
      <use x="222.460938" xlink:href="#ArialMT-45"/>
      <use x="255.761719" xlink:href="#ArialMT-79"/>
      <use x="333.544922" xlink:href="#ArialMT-82"/>
      <use x="405.761719" xlink:href="#ArialMT-70"/>
      <use x="466.845703" xlink:href="#ArialMT-51"/>
      <use x="522.460938" xlink:href="#ArialMT-97"/>
     </g>
    </g>
    <g id="line2d_28">
     <path d="M 461.842029 66.448125 
L 477.842029 66.448125 
" style="fill:none;stroke:#cb997d;stroke-linecap:square;"/>
    </g>
    <g id="line2d_29">
     <g>
      <use style="fill:#cb997d;stroke:#cb997d;" x="469.842029" xlink:href="#m2d1bac8f72" y="66.448125"/>
     </g>
    </g>
    <g id="text_16">
     <!-- gene-E -->
     <defs>
      <path d="M 7.90625 0 
L 7.90625 71.578125 
L 59.671875 71.578125 
L 59.671875 63.140625 
L 17.390625 63.140625 
L 17.390625 41.21875 
L 56.984375 41.21875 
L 56.984375 32.8125 
L 17.390625 32.8125 
L 17.390625 8.453125 
L 61.328125 8.453125 
L 61.328125 0 
z
" id="ArialMT-69"/>
     </defs>
     <g transform="translate(484.242029 69.248125)scale(0.08 -0.08)">
      <use xlink:href="#ArialMT-103"/>
      <use x="55.615234" xlink:href="#ArialMT-101"/>
      <use x="111.230469" xlink:href="#ArialMT-110"/>
      <use x="166.845703" xlink:href="#ArialMT-101"/>
      <use x="222.460938" xlink:href="#ArialMT-45"/>
      <use x="255.761719" xlink:href="#ArialMT-69"/>
     </g>
    </g>
    <g id="line2d_30">
     <path d="M 461.842029 77.858125 
L 477.842029 77.858125 
" style="fill:none;stroke:#c87f7f;stroke-linecap:square;"/>
    </g>
    <g id="line2d_31">
     <g>
      <use style="fill:#c87f7f;stroke:#c87f7f;" x="469.842029" xlink:href="#md859208784" y="77.858125"/>
     </g>
    </g>
    <g id="text_17">
     <!-- gene-M -->
     <defs>
      <path d="M 7.421875 0 
L 7.421875 71.578125 
L 21.6875 71.578125 
L 38.625 20.90625 
Q 40.96875 13.8125 42.046875 10.296875 
Q 43.265625 14.203125 45.84375 21.78125 
L 62.984375 71.578125 
L 75.734375 71.578125 
L 75.734375 0 
L 66.609375 0 
L 66.609375 59.90625 
L 45.796875 0 
L 37.25 0 
L 16.546875 60.9375 
L 16.546875 0 
z
" id="ArialMT-77"/>
     </defs>
     <g transform="translate(484.242029 80.658125)scale(0.08 -0.08)">
      <use xlink:href="#ArialMT-103"/>
      <use x="55.615234" xlink:href="#ArialMT-101"/>
      <use x="111.230469" xlink:href="#ArialMT-110"/>
      <use x="166.845703" xlink:href="#ArialMT-101"/>
      <use x="222.460938" xlink:href="#ArialMT-45"/>
      <use x="255.761719" xlink:href="#ArialMT-77"/>
     </g>
    </g>
    <g id="line2d_32">
     <path d="M 461.842029 89.370625 
L 477.842029 89.370625 
" style="fill:none;stroke:#59667c;stroke-linecap:square;"/>
    </g>
    <g id="line2d_33">
     <g>
      <use style="fill:#59667c;stroke:#59667c;" x="469.842029" xlink:href="#mfd6a62c82e" y="89.370625"/>
     </g>
    </g>
    <g id="text_18">
     <!-- gene-ORF6 -->
     <g transform="translate(484.242029 92.170625)scale(0.08 -0.08)">
      <use xlink:href="#ArialMT-103"/>
      <use x="55.615234" xlink:href="#ArialMT-101"/>
      <use x="111.230469" xlink:href="#ArialMT-110"/>
      <use x="166.845703" xlink:href="#ArialMT-101"/>
      <use x="222.460938" xlink:href="#ArialMT-45"/>
      <use x="255.761719" xlink:href="#ArialMT-79"/>
      <use x="333.544922" xlink:href="#ArialMT-82"/>
      <use x="405.761719" xlink:href="#ArialMT-70"/>
      <use x="466.845703" xlink:href="#ArialMT-54"/>
     </g>
    </g>
    <g id="line2d_34">
     <path d="M 461.842029 100.883125 
L 477.842029 100.883125 
" style="fill:none;stroke:#715c7c;stroke-linecap:square;"/>
    </g>
    <g id="line2d_35">
     <g>
      <use style="fill:#715c7c;stroke:#715c7c;" x="469.842029" xlink:href="#m7ef239c49d" y="100.883125"/>
     </g>
    </g>
    <g id="text_19">
     <!-- gene-ORF7a -->
     <g transform="translate(484.242029 103.683125)scale(0.08 -0.08)">
      <use xlink:href="#ArialMT-103"/>
      <use x="55.615234" xlink:href="#ArialMT-101"/>
      <use x="111.230469" xlink:href="#ArialMT-110"/>
      <use x="166.845703" xlink:href="#ArialMT-101"/>
      <use x="222.460938" xlink:href="#ArialMT-45"/>
      <use x="255.761719" xlink:href="#ArialMT-79"/>
      <use x="333.544922" xlink:href="#ArialMT-82"/>
      <use x="405.761719" xlink:href="#ArialMT-70"/>
      <use x="466.845703" xlink:href="#ArialMT-55"/>
      <use x="522.460938" xlink:href="#ArialMT-97"/>
     </g>
    </g>
    <g id="line2d_36">
     <path d="M 461.842029 112.395625 
L 477.842029 112.395625 
" style="fill:none;stroke:#ccba85;stroke-linecap:square;"/>
    </g>
    <g id="line2d_37">
     <g>
      <use style="fill:#ccba85;stroke:#ccba85;" x="469.842029" xlink:href="#me362492f7d" y="112.395625"/>
     </g>
    </g>
    <g id="text_20">
     <!-- gene-ORF8 -->
     <g transform="translate(484.242029 115.195625)scale(0.08 -0.08)">
      <use xlink:href="#ArialMT-103"/>
      <use x="55.615234" xlink:href="#ArialMT-101"/>
      <use x="111.230469" xlink:href="#ArialMT-110"/>
      <use x="166.845703" xlink:href="#ArialMT-101"/>
      <use x="222.460938" xlink:href="#ArialMT-45"/>
      <use x="255.761719" xlink:href="#ArialMT-79"/>
      <use x="333.544922" xlink:href="#ArialMT-82"/>
      <use x="405.761719" xlink:href="#ArialMT-70"/>
      <use x="466.845703" xlink:href="#ArialMT-56"/>
     </g>
    </g>
    <g id="line2d_38">
     <path d="M 461.842029 123.805625 
L 477.842029 123.805625 
" style="fill:none;stroke:#8b9aa0;stroke-linecap:square;"/>
    </g>
    <g id="line2d_39">
     <g>
      <use style="fill:#8b9aa0;stroke:#8b9aa0;" x="469.842029" xlink:href="#m7da0eada27" y="123.805625"/>
     </g>
    </g>
    <g id="text_21">
     <!-- gene-N -->
     <g transform="translate(484.242029 126.605625)scale(0.08 -0.08)">
      <use xlink:href="#ArialMT-103"/>
      <use x="55.615234" xlink:href="#ArialMT-101"/>
      <use x="111.230469" xlink:href="#ArialMT-110"/>
      <use x="166.845703" xlink:href="#ArialMT-101"/>
      <use x="222.460938" xlink:href="#ArialMT-45"/>
      <use x="255.761719" xlink:href="#ArialMT-78"/>
     </g>
    </g>
    <g id="line2d_40">
     <path d="M 461.842029 135.318125 
L 477.842029 135.318125 
" style="fill:none;stroke:#938aa0;stroke-linecap:square;"/>
    </g>
    <g id="line2d_41">
     <g>
      <use style="fill:#938aa0;stroke:#938aa0;" x="469.842029" xlink:href="#m1aa7a8a181" y="135.318125"/>
     </g>
    </g>
    <g id="text_22">
     <!-- gene-ORF10 -->
     <g transform="translate(484.242029 138.118125)scale(0.08 -0.08)">
      <use xlink:href="#ArialMT-103"/>
      <use x="55.615234" xlink:href="#ArialMT-101"/>
      <use x="111.230469" xlink:href="#ArialMT-110"/>
      <use x="166.845703" xlink:href="#ArialMT-101"/>
      <use x="222.460938" xlink:href="#ArialMT-45"/>
      <use x="255.761719" xlink:href="#ArialMT-79"/>
      <use x="333.544922" xlink:href="#ArialMT-82"/>
      <use x="405.761719" xlink:href="#ArialMT-70"/>
      <use x="466.845703" xlink:href="#ArialMT-49"/>
      <use x="522.460938" xlink:href="#ArialMT-48"/>
     </g>
    </g>
   </g>
  </g>
 </g>
 <defs>
  <clipPath id="p63c9e61c84">
   <rect height="139.69136" width="407.496716" x="47.145313" y="21.789375"/>
  </clipPath>
 </defs>
</svg>
