<?xml version="1.0" encoding="utf-8" standalone="no"?>
<!DOCTYPE svg PUBLIC "-//W3C//DTD SVG 1.1//EN"
  "http://www.w3.org/Graphics/SVG/1.1/DTD/svg11.dtd">
<!-- Created with matplotlib (https://matplotlib.org/) -->
<svg height="351.557556pt" version="1.1" viewBox="0 0 664.048344 351.557556" width="664.048344pt" xmlns="http://www.w3.org/2000/svg" xmlns:xlink="http://www.w3.org/1999/xlink">
 <defs>
  <style type="text/css">
*{stroke-linecap:butt;stroke-linejoin:round;}
  </style>
 </defs>
 <g id="figure_1">
  <g id="patch_1">
   <path d="M 0 351.557556 
L 664.048344 351.557556 
L 664.048344 0 
L 0 0 
z
" style="fill:#ffffff;"/>
  </g>
  <g id="axes_1">
   <g id="patch_2">
    <path d="M 47.045313 265.602924 
L 289.427299 265.602924 
L 289.427299 23.220937 
L 47.045313 23.220937 
z
" style="fill:#ffffff;"/>
   </g>
   <g id="PathCollection_1">
    <defs>
     <path d="M 0 3 
C 0.795609 3 1.55874 2.683901 2.12132 2.12132 
C 2.683901 1.55874 3 0.795609 3 0 
C 3 -0.795609 2.683901 -1.55874 2.12132 -2.12132 
C 1.55874 -2.683901 0.795609 -3 0 -3 
C -0.795609 -3 -1.55874 -2.683901 -2.12132 -2.12132 
C -2.683901 -1.55874 -3 -0.795609 -3 0 
C -3 0.795609 -2.683901 1.55874 -2.12132 2.12132 
C -1.55874 2.683901 -0.795609 3 0 3 
z
" id="C0_0_15f40aa041"/>
    </defs>
    <g clip-path="url(#pe582935ee8)">
     <use style="fill:none;stroke:#59667c;" x="81.92008" xlink:href="#C0_0_15f40aa041" y="234.187394"/>
    </g>
    <g clip-path="url(#pe582935ee8)">
     <use style="fill:none;stroke:#59667c;" x="79.966905" xlink:href="#C0_0_15f40aa041" y="245.52993"/>
    </g>
    <g clip-path="url(#pe582935ee8)">
     <use style="fill:none;stroke:#59667c;" x="251.58747" xlink:href="#C0_0_15f40aa041" y="56.024868"/>
    </g>
    <g clip-path="url(#pe582935ee8)">
     <use style="fill:none;stroke:#59667c;" x="252.034583" xlink:href="#C0_0_15f40aa041" y="50.565391"/>
    </g>
   </g>
   <g id="PathCollection_2">
    <defs>
     <path d="M 0 3 
C 0.795609 3 1.55874 2.683901 2.12132 2.12132 
C 2.683901 1.55874 3 0.795609 3 0 
C 3 -0.795609 2.683901 -1.55874 2.12132 -2.12132 
C 1.55874 -2.683901 0.795609 -3 0 -3 
C -0.795609 -3 -1.55874 -2.683901 -2.12132 -2.12132 
C -2.683901 -1.55874 -3 -0.795609 -3 0 
C -3 0.795609 -2.683901 1.55874 -2.12132 2.12132 
C -1.55874 2.683901 -0.795609 3 0 3 
z
" id="C1_0_aa6e6cc8fc"/>
    </defs>
    <g clip-path="url(#pe582935ee8)">
     <use style="fill:none;stroke:#8b9aa0;" x="72.813106" xlink:href="#C1_0_aa6e6cc8fc" y="237.905487"/>
    </g>
    <g clip-path="url(#pe582935ee8)">
     <use style="fill:none;stroke:#8b9aa0;" x="58.458445" xlink:href="#C1_0_aa6e6cc8fc" y="255.578193"/>
    </g>
    <g clip-path="url(#pe582935ee8)">
     <use style="fill:none;stroke:#8b9aa0;" x="88.320847" xlink:href="#C1_0_aa6e6cc8fc" y="225.17455"/>
    </g>
    <g clip-path="url(#pe582935ee8)">
     <use style="fill:none;stroke:#8b9aa0;" x="83.967384" xlink:href="#C1_0_aa6e6cc8fc" y="216.797075"/>
    </g>
    <g clip-path="url(#pe582935ee8)">
     <use style="fill:none;stroke:#8b9aa0;" x="184.426481" xlink:href="#C1_0_aa6e6cc8fc" y="123.915357"/>
    </g>
   </g>
   <g id="PathCollection_3">
    <defs>
     <path d="M 0 3 
C 0.795609 3 1.55874 2.683901 2.12132 2.12132 
C 2.683901 1.55874 3 0.795609 3 0 
C 3 -0.795609 2.683901 -1.55874 2.12132 -2.12132 
C 1.55874 -2.683901 0.795609 -3 0 -3 
C -0.795609 -3 -1.55874 -2.683901 -2.12132 -2.12132 
C -2.683901 -1.55874 -3 -0.795609 -3 0 
C -3 0.795609 -2.683901 1.55874 -2.12132 2.12132 
C -1.55874 2.683901 -0.795609 3 0 3 
z
" id="C2_0_24a4742e47"/>
    </defs>
    <g clip-path="url(#pe582935ee8)">
     <use style="fill:none;stroke:#8da395;" x="57.281833" xlink:href="#C2_0_24a4742e47" y="257.696094"/>
    </g>
    <g clip-path="url(#pe582935ee8)">
     <use style="fill:none;stroke:#8da395;" x="60.435152" xlink:href="#C2_0_24a4742e47" y="256.754805"/>
    </g>
    <g clip-path="url(#pe582935ee8)">
     <use style="fill:none;stroke:#8da395;" x="94.298034" xlink:href="#C2_0_24a4742e47" y="220.585764"/>
    </g>
    <g clip-path="url(#pe582935ee8)">
     <use style="fill:none;stroke:#8da395;" x="60.8352" xlink:href="#C2_0_24a4742e47" y="244.823963"/>
    </g>
    <g clip-path="url(#pe582935ee8)">
     <use style="fill:none;stroke:#8da395;" x="121.760148" xlink:href="#C2_0_24a4742e47" y="220.609297"/>
    </g>
    <g clip-path="url(#pe582935ee8)">
     <use style="fill:none;stroke:#8da395;" x="84.320367" xlink:href="#C2_0_24a4742e47" y="223.574358"/>
    </g>
    <g clip-path="url(#pe582935ee8)">
     <use style="fill:none;stroke:#8da395;" x="82.531918" xlink:href="#C2_0_24a4742e47" y="236.470021"/>
    </g>
   </g>
   <g id="PathCollection_4">
    <defs>
     <path d="M 0 3 
C 0.795609 3 1.55874 2.683901 2.12132 2.12132 
C 2.683901 1.55874 3 0.795609 3 0 
C 3 -0.795609 2.683901 -1.55874 2.12132 -2.12132 
C 1.55874 -2.683901 0.795609 -3 0 -3 
C -0.795609 -3 -1.55874 -2.683901 -2.12132 -2.12132 
C -2.683901 -1.55874 -3 -0.795609 -3 0 
C -3 0.795609 -2.683901 1.55874 -2.12132 2.12132 
C -1.55874 2.683901 -0.795609 3 0 3 
z
" id="C3_0_49512d42de"/>
    </defs>
    <g clip-path="url(#pe582935ee8)">
     <use style="fill:none;stroke:#a4a58c;" x="54.340304" xlink:href="#C3_0_49512d42de" y="252.966115"/>
    </g>
    <g clip-path="url(#pe582935ee8)">
     <use style="fill:none;stroke:#a4a58c;" x="82.955498" xlink:href="#C3_0_49512d42de" y="211.14934"/>
    </g>
    <g clip-path="url(#pe582935ee8)">
     <use style="fill:none;stroke:#a4a58c;" x="172.354446" xlink:href="#C3_0_49512d42de" y="115.137834"/>
    </g>
    <g clip-path="url(#pe582935ee8)">
     <use style="fill:none;stroke:#a4a58c;" x="129.831704" xlink:href="#C3_0_49512d42de" y="177.874764"/>
    </g>
   </g>
   <g id="PathCollection_5">
    <defs>
     <path d="M 0 3 
C 0.795609 3 1.55874 2.683901 2.12132 2.12132 
C 2.683901 1.55874 3 0.795609 3 0 
C 3 -0.795609 2.683901 -1.55874 2.12132 -2.12132 
C 1.55874 -2.683901 0.795609 -3 0 -3 
C -0.795609 -3 -1.55874 -2.683901 -2.12132 -2.12132 
C -2.683901 -1.55874 -3 -0.795609 -3 0 
C -3 0.795609 -2.683901 1.55874 -2.12132 2.12132 
C -1.55874 2.683901 -0.795609 3 0 3 
z
" id="C4_0_42f21614b1"/>
    </defs>
    <g clip-path="url(#pe582935ee8)">
     <use style="fill:none;stroke:#ccba85;" x="55.35219" xlink:href="#C4_0_42f21614b1" y="255.931176"/>
    </g>
    <g clip-path="url(#pe582935ee8)">
     <use style="fill:none;stroke:#ccba85;" x="57.493623" xlink:href="#C4_0_42f21614b1" y="254.025066"/>
    </g>
    <g clip-path="url(#pe582935ee8)">
     <use style="fill:none;stroke:#ccba85;" x="55.210997" xlink:href="#C4_0_42f21614b1" y="257.013659"/>
    </g>
    <g clip-path="url(#pe582935ee8)">
     <use style="fill:none;stroke:#ccba85;" x="209.605969" xlink:href="#C4_0_42f21614b1" y="101.159689"/>
    </g>
    <g clip-path="url(#pe582935ee8)">
     <use style="fill:none;stroke:#ccba85;" x="80.884662" xlink:href="#C4_0_42f21614b1" y="232.798993"/>
    </g>
    <g clip-path="url(#pe582935ee8)">
     <use style="fill:none;stroke:#ccba85;" x="58.152526" xlink:href="#C4_0_42f21614b1" y="251.107069"/>
    </g>
   </g>
   <g id="PathCollection_6">
    <defs>
     <path d="M 0 3 
C 0.795609 3 1.55874 2.683901 2.12132 2.12132 
C 2.683901 1.55874 3 0.795609 3 0 
C 3 -0.795609 2.683901 -1.55874 2.12132 -2.12132 
C 1.55874 -2.683901 0.795609 -3 0 -3 
C -0.795609 -3 -1.55874 -2.683901 -2.12132 -2.12132 
C -2.683901 -1.55874 -3 -0.795609 -3 0 
C -3 0.795609 -2.683901 1.55874 -2.12132 2.12132 
C -1.55874 2.683901 -0.795609 3 0 3 
z
" id="C5_0_d78f267966"/>
    </defs>
    <g clip-path="url(#pe582935ee8)">
     <use style="fill:none;stroke:#cb997d;" x="58.929089" xlink:href="#C5_0_d78f267966" y="245.859381"/>
    </g>
    <g clip-path="url(#pe582935ee8)">
     <use style="fill:none;stroke:#cb997d;" x="67.212435" xlink:href="#C5_0_d78f267966" y="250.259909"/>
    </g>
    <g clip-path="url(#pe582935ee8)">
     <use style="fill:none;stroke:#cb997d;" x="54.50503" xlink:href="#C5_0_d78f267966" y="254.778097"/>
    </g>
    <g clip-path="url(#pe582935ee8)">
     <use style="fill:none;stroke:#cb997d;" x="180.449534" xlink:href="#C5_0_d78f267966" y="136.575697"/>
    </g>
    <g clip-path="url(#pe582935ee8)">
     <use style="fill:none;stroke:#cb997d;" x="83.661465" xlink:href="#C5_0_d78f267966" y="234.116798"/>
    </g>
    <g clip-path="url(#pe582935ee8)">
     <use style="fill:none;stroke:#cb997d;" x="150.634196" xlink:href="#C5_0_d78f267966" y="148.765393"/>
    </g>
   </g>
   <g id="PathCollection_7">
    <defs>
     <path d="M 0 3 
C 0.795609 3 1.55874 2.683901 2.12132 2.12132 
C 2.683901 1.55874 3 0.795609 3 0 
C 3 -0.795609 2.683901 -1.55874 2.12132 -2.12132 
C 1.55874 -2.683901 0.795609 -3 0 -3 
C -0.795609 -3 -1.55874 -2.683901 -2.12132 -2.12132 
C -2.683901 -1.55874 -3 -0.795609 -3 0 
C -3 0.795609 -2.683901 1.55874 -2.12132 2.12132 
C -1.55874 2.683901 -0.795609 3 0 3 
z
" id="C6_0_81498ffe4e"/>
    </defs>
    <g clip-path="url(#pe582935ee8)">
     <use style="fill:none;stroke:#c87f7f;" x="60.741071" xlink:href="#C6_0_81498ffe4e" y="247.459573"/>
    </g>
    <g clip-path="url(#pe582935ee8)">
     <use style="fill:none;stroke:#c87f7f;" x="247.89291" xlink:href="#C6_0_81498ffe4e" y="64.119956"/>
    </g>
    <g clip-path="url(#pe582935ee8)">
     <use style="fill:none;stroke:#c87f7f;" x="113.641528" xlink:href="#C6_0_81498ffe4e" y="198.700789"/>
    </g>
   </g>
   <g id="PathCollection_8">
    <defs>
     <path d="M 0 3 
C 0.795609 3 1.55874 2.683901 2.12132 2.12132 
C 2.683901 1.55874 3 0.795609 3 0 
C 3 -0.795609 2.683901 -1.55874 2.12132 -2.12132 
C 1.55874 -2.683901 0.795609 -3 0 -3 
C -0.795609 -3 -1.55874 -2.683901 -2.12132 -2.12132 
C -2.683901 -1.55874 -3 -0.795609 -3 0 
C -3 0.795609 -2.683901 1.55874 -2.12132 2.12132 
C -1.55874 2.683901 -0.795609 3 0 3 
z
" id="C7_0_f6dcabd8af"/>
    </defs>
    <g clip-path="url(#pe582935ee8)">
     <use style="fill:none;stroke:#a86566;" x="56.246415" xlink:href="#C7_0_f6dcabd8af" y="247.647831"/>
    </g>
    <g clip-path="url(#pe582935ee8)">
     <use style="fill:none;stroke:#a86566;" x="155.811287" xlink:href="#C7_0_f6dcabd8af" y="157.825303"/>
    </g>
    <g clip-path="url(#pe582935ee8)">
     <use style="fill:none;stroke:#a86566;" x="115.359381" xlink:href="#C7_0_f6dcabd8af" y="195.665131"/>
    </g>
   </g>
   <g id="matplotlib.axis_1">
    <g id="xtick_1">
     <g id="line2d_1">
      <defs>
       <path d="M 0 0 
L 0 3.5 
" id="m309f777731" style="stroke:#000000;stroke-width:0.8;"/>
      </defs>
      <g>
       <use style="stroke:#000000;stroke-width:0.8;" x="47.045313" xlink:href="#m309f777731" y="265.602924"/>
      </g>
     </g>
     <g id="text_1">
      <!-- 0.00 -->
      <defs>
       <path d="M 4.15625 35.296875 
Q 4.15625 48 6.765625 55.734375 
Q 9.375 63.484375 14.515625 67.671875 
Q 19.671875 71.875 27.484375 71.875 
Q 33.25 71.875 37.59375 69.546875 
Q 41.9375 67.234375 44.765625 62.859375 
Q 47.609375 58.5 49.21875 52.21875 
Q 50.828125 45.953125 50.828125 35.296875 
Q 50.828125 22.703125 48.234375 14.96875 
Q 45.65625 7.234375 40.5 3 
Q 35.359375 -1.21875 27.484375 -1.21875 
Q 17.140625 -1.21875 11.234375 6.203125 
Q 4.15625 15.140625 4.15625 35.296875 
z
M 13.1875 35.296875 
Q 13.1875 17.671875 17.3125 11.828125 
Q 21.4375 6 27.484375 6 
Q 33.546875 6 37.671875 11.859375 
Q 41.796875 17.71875 41.796875 35.296875 
Q 41.796875 52.984375 37.671875 58.78125 
Q 33.546875 64.59375 27.390625 64.59375 
Q 21.34375 64.59375 17.71875 59.46875 
Q 13.1875 52.9375 13.1875 35.296875 
z
" id="ArialMT-48"/>
       <path d="M 9.078125 0 
L 9.078125 10.015625 
L 19.09375 10.015625 
L 19.09375 0 
z
" id="ArialMT-46"/>
      </defs>
      <g transform="translate(37.314844 279.760736)scale(0.1 -0.1)">
       <use xlink:href="#ArialMT-48"/>
       <use x="55.615234" xlink:href="#ArialMT-46"/>
       <use x="83.398438" xlink:href="#ArialMT-48"/>
       <use x="139.013672" xlink:href="#ArialMT-48"/>
      </g>
     </g>
    </g>
    <g id="xtick_2">
     <g id="line2d_2">
      <g>
       <use style="stroke:#000000;stroke-width:0.8;" x="105.875892" xlink:href="#m309f777731" y="265.602924"/>
      </g>
     </g>
     <g id="text_2">
      <!-- 0.25 -->
      <defs>
       <path d="M 50.34375 8.453125 
L 50.34375 0 
L 3.03125 0 
Q 2.9375 3.171875 4.046875 6.109375 
Q 5.859375 10.9375 9.828125 15.625 
Q 13.8125 20.3125 21.34375 26.46875 
Q 33.015625 36.03125 37.109375 41.625 
Q 41.21875 47.21875 41.21875 52.203125 
Q 41.21875 57.421875 37.46875 61 
Q 33.734375 64.59375 27.734375 64.59375 
Q 21.390625 64.59375 17.578125 60.78125 
Q 13.765625 56.984375 13.71875 50.25 
L 4.6875 51.171875 
Q 5.609375 61.28125 11.65625 66.578125 
Q 17.71875 71.875 27.9375 71.875 
Q 38.234375 71.875 44.234375 66.15625 
Q 50.25 60.453125 50.25 52 
Q 50.25 47.703125 48.484375 43.546875 
Q 46.734375 39.40625 42.65625 34.8125 
Q 38.578125 30.21875 29.109375 22.21875 
Q 21.1875 15.578125 18.9375 13.203125 
Q 16.703125 10.84375 15.234375 8.453125 
z
" id="ArialMT-50"/>
       <path d="M 4.15625 18.75 
L 13.375 19.53125 
Q 14.40625 12.796875 18.140625 9.390625 
Q 21.875 6 27.15625 6 
Q 33.5 6 37.890625 10.78125 
Q 42.28125 15.578125 42.28125 23.484375 
Q 42.28125 31 38.0625 35.34375 
Q 33.84375 39.703125 27 39.703125 
Q 22.75 39.703125 19.328125 37.765625 
Q 15.921875 35.84375 13.96875 32.765625 
L 5.71875 33.84375 
L 12.640625 70.609375 
L 48.25 70.609375 
L 48.25 62.203125 
L 19.671875 62.203125 
L 15.828125 42.96875 
Q 22.265625 47.46875 29.34375 47.46875 
Q 38.71875 47.46875 45.15625 40.96875 
Q 51.609375 34.46875 51.609375 24.265625 
Q 51.609375 14.546875 45.953125 7.46875 
Q 39.0625 -1.21875 27.15625 -1.21875 
Q 17.390625 -1.21875 11.203125 4.25 
Q 5.03125 9.71875 4.15625 18.75 
z
" id="ArialMT-53"/>
      </defs>
      <g transform="translate(96.145423 279.760736)scale(0.1 -0.1)">
       <use xlink:href="#ArialMT-48"/>
       <use x="55.615234" xlink:href="#ArialMT-46"/>
       <use x="83.398438" xlink:href="#ArialMT-50"/>
       <use x="139.013672" xlink:href="#ArialMT-53"/>
      </g>
     </g>
    </g>
    <g id="xtick_3">
     <g id="line2d_3">
      <g>
       <use style="stroke:#000000;stroke-width:0.8;" x="164.706471" xlink:href="#m309f777731" y="265.602924"/>
      </g>
     </g>
     <g id="text_3">
      <!-- 0.50 -->
      <g transform="translate(154.976002 279.760736)scale(0.1 -0.1)">
       <use xlink:href="#ArialMT-48"/>
       <use x="55.615234" xlink:href="#ArialMT-46"/>
       <use x="83.398438" xlink:href="#ArialMT-53"/>
       <use x="139.013672" xlink:href="#ArialMT-48"/>
      </g>
     </g>
    </g>
    <g id="xtick_4">
     <g id="line2d_4">
      <g>
       <use style="stroke:#000000;stroke-width:0.8;" x="223.53705" xlink:href="#m309f777731" y="265.602924"/>
      </g>
     </g>
     <g id="text_4">
      <!-- 0.75 -->
      <defs>
       <path d="M 4.734375 62.203125 
L 4.734375 70.65625 
L 51.078125 70.65625 
L 51.078125 63.8125 
Q 44.234375 56.546875 37.515625 44.484375 
Q 30.8125 32.421875 27.15625 19.671875 
Q 24.515625 10.6875 23.78125 0 
L 14.75 0 
Q 14.890625 8.453125 18.0625 20.40625 
Q 21.234375 32.375 27.171875 43.484375 
Q 33.109375 54.59375 39.796875 62.203125 
z
" id="ArialMT-55"/>
      </defs>
      <g transform="translate(213.806581 279.760736)scale(0.1 -0.1)">
       <use xlink:href="#ArialMT-48"/>
       <use x="55.615234" xlink:href="#ArialMT-46"/>
       <use x="83.398438" xlink:href="#ArialMT-55"/>
       <use x="139.013672" xlink:href="#ArialMT-53"/>
      </g>
     </g>
    </g>
    <g id="xtick_5">
     <g id="line2d_5">
      <g>
       <use style="stroke:#000000;stroke-width:0.8;" x="282.367629" xlink:href="#m309f777731" y="265.602924"/>
      </g>
     </g>
     <g id="text_5">
      <!-- 1.00 -->
      <defs>
       <path d="M 37.25 0 
L 28.46875 0 
L 28.46875 56 
Q 25.296875 52.984375 20.140625 49.953125 
Q 14.984375 46.921875 10.890625 45.40625 
L 10.890625 53.90625 
Q 18.265625 57.375 23.78125 62.296875 
Q 29.296875 67.234375 31.59375 71.875 
L 37.25 71.875 
z
" id="ArialMT-49"/>
      </defs>
      <g transform="translate(272.63716 279.760736)scale(0.1 -0.1)">
       <use xlink:href="#ArialMT-49"/>
       <use x="55.615234" xlink:href="#ArialMT-46"/>
       <use x="83.398438" xlink:href="#ArialMT-48"/>
       <use x="139.013672" xlink:href="#ArialMT-48"/>
      </g>
     </g>
    </g>
    <g id="text_6">
     <!-- replicate A SNV and indel frequency -->
     <defs>
      <path d="M 6.5 0 
L 6.5 51.859375 
L 14.40625 51.859375 
L 14.40625 44 
Q 17.4375 49.515625 20 51.265625 
Q 22.5625 53.03125 25.640625 53.03125 
Q 30.078125 53.03125 34.671875 50.203125 
L 31.640625 42.046875 
Q 28.421875 43.953125 25.203125 43.953125 
Q 22.3125 43.953125 20.015625 42.21875 
Q 17.71875 40.484375 16.75 37.40625 
Q 15.28125 32.71875 15.28125 27.15625 
L 15.28125 0 
z
" id="ArialMT-114"/>
      <path d="M 42.09375 16.703125 
L 51.171875 15.578125 
Q 49.03125 7.625 43.21875 3.21875 
Q 37.40625 -1.171875 28.375 -1.171875 
Q 17 -1.171875 10.328125 5.828125 
Q 3.65625 12.84375 3.65625 25.484375 
Q 3.65625 38.578125 10.390625 45.796875 
Q 17.140625 53.03125 27.875 53.03125 
Q 38.28125 53.03125 44.875 45.953125 
Q 51.46875 38.875 51.46875 26.03125 
Q 51.46875 25.25 51.421875 23.6875 
L 12.75 23.6875 
Q 13.234375 15.140625 17.578125 10.59375 
Q 21.921875 6.0625 28.421875 6.0625 
Q 33.25 6.0625 36.671875 8.59375 
Q 40.09375 11.140625 42.09375 16.703125 
z
M 13.234375 30.90625 
L 42.1875 30.90625 
Q 41.609375 37.453125 38.875 40.71875 
Q 34.671875 45.796875 27.984375 45.796875 
Q 21.921875 45.796875 17.796875 41.75 
Q 13.671875 37.703125 13.234375 30.90625 
z
" id="ArialMT-101"/>
      <path d="M 6.59375 -19.875 
L 6.59375 51.859375 
L 14.59375 51.859375 
L 14.59375 45.125 
Q 17.4375 49.078125 21 51.046875 
Q 24.5625 53.03125 29.640625 53.03125 
Q 36.28125 53.03125 41.359375 49.609375 
Q 46.4375 46.1875 49.015625 39.953125 
Q 51.609375 33.734375 51.609375 26.3125 
Q 51.609375 18.359375 48.75 11.984375 
Q 45.90625 5.609375 40.453125 2.21875 
Q 35.015625 -1.171875 29 -1.171875 
Q 24.609375 -1.171875 21.109375 0.6875 
Q 17.625 2.546875 15.375 5.375 
L 15.375 -19.875 
z
M 14.546875 25.640625 
Q 14.546875 15.625 18.59375 10.84375 
Q 22.65625 6.0625 28.421875 6.0625 
Q 34.28125 6.0625 38.453125 11.015625 
Q 42.625 15.96875 42.625 26.375 
Q 42.625 36.28125 38.546875 41.203125 
Q 34.46875 46.140625 28.8125 46.140625 
Q 23.1875 46.140625 18.859375 40.890625 
Q 14.546875 35.640625 14.546875 25.640625 
z
" id="ArialMT-112"/>
      <path d="M 6.390625 0 
L 6.390625 71.578125 
L 15.1875 71.578125 
L 15.1875 0 
z
" id="ArialMT-108"/>
      <path d="M 6.640625 61.46875 
L 6.640625 71.578125 
L 15.4375 71.578125 
L 15.4375 61.46875 
z
M 6.640625 0 
L 6.640625 51.859375 
L 15.4375 51.859375 
L 15.4375 0 
z
" id="ArialMT-105"/>
      <path d="M 40.4375 19 
L 49.078125 17.875 
Q 47.65625 8.9375 41.8125 3.875 
Q 35.984375 -1.171875 27.484375 -1.171875 
Q 16.84375 -1.171875 10.375 5.78125 
Q 3.90625 12.75 3.90625 25.734375 
Q 3.90625 34.125 6.6875 40.421875 
Q 9.46875 46.734375 15.15625 49.875 
Q 20.84375 53.03125 27.546875 53.03125 
Q 35.984375 53.03125 41.359375 48.75 
Q 46.734375 44.484375 48.25 36.625 
L 39.703125 35.296875 
Q 38.484375 40.53125 35.375 43.15625 
Q 32.28125 45.796875 27.875 45.796875 
Q 21.234375 45.796875 17.078125 41.03125 
Q 12.9375 36.28125 12.9375 25.984375 
Q 12.9375 15.53125 16.9375 10.796875 
Q 20.953125 6.0625 27.390625 6.0625 
Q 32.5625 6.0625 36.03125 9.234375 
Q 39.5 12.40625 40.4375 19 
z
" id="ArialMT-99"/>
      <path d="M 40.4375 6.390625 
Q 35.546875 2.25 31.03125 0.53125 
Q 26.515625 -1.171875 21.34375 -1.171875 
Q 12.796875 -1.171875 8.203125 3 
Q 3.609375 7.171875 3.609375 13.671875 
Q 3.609375 17.484375 5.34375 20.625 
Q 7.078125 23.78125 9.890625 25.6875 
Q 12.703125 27.59375 16.21875 28.5625 
Q 18.796875 29.25 24.03125 29.890625 
Q 34.671875 31.15625 39.703125 32.90625 
Q 39.75 34.71875 39.75 35.203125 
Q 39.75 40.578125 37.25 42.78125 
Q 33.890625 45.75 27.25 45.75 
Q 21.046875 45.75 18.09375 43.578125 
Q 15.140625 41.40625 13.71875 35.890625 
L 5.125 37.0625 
Q 6.296875 42.578125 8.984375 45.96875 
Q 11.671875 49.359375 16.75 51.1875 
Q 21.828125 53.03125 28.515625 53.03125 
Q 35.15625 53.03125 39.296875 51.46875 
Q 43.453125 49.90625 45.40625 47.53125 
Q 47.359375 45.171875 48.140625 41.546875 
Q 48.578125 39.3125 48.578125 33.453125 
L 48.578125 21.734375 
Q 48.578125 9.46875 49.140625 6.21875 
Q 49.703125 2.984375 51.375 0 
L 42.1875 0 
Q 40.828125 2.734375 40.4375 6.390625 
z
M 39.703125 26.03125 
Q 34.90625 24.078125 25.34375 22.703125 
Q 19.921875 21.921875 17.671875 20.9375 
Q 15.4375 19.96875 14.203125 18.09375 
Q 12.984375 16.21875 12.984375 13.921875 
Q 12.984375 10.40625 15.640625 8.0625 
Q 18.3125 5.71875 23.4375 5.71875 
Q 28.515625 5.71875 32.46875 7.9375 
Q 36.421875 10.15625 38.28125 14.015625 
Q 39.703125 17 39.703125 22.796875 
z
" id="ArialMT-97"/>
      <path d="M 25.78125 7.859375 
L 27.046875 0.09375 
Q 23.34375 -0.6875 20.40625 -0.6875 
Q 15.625 -0.6875 12.984375 0.828125 
Q 10.359375 2.34375 9.28125 4.8125 
Q 8.203125 7.28125 8.203125 15.1875 
L 8.203125 45.015625 
L 1.765625 45.015625 
L 1.765625 51.859375 
L 8.203125 51.859375 
L 8.203125 64.703125 
L 16.9375 69.96875 
L 16.9375 51.859375 
L 25.78125 51.859375 
L 25.78125 45.015625 
L 16.9375 45.015625 
L 16.9375 14.703125 
Q 16.9375 10.9375 17.40625 9.859375 
Q 17.875 8.796875 18.921875 8.15625 
Q 19.96875 7.515625 21.921875 7.515625 
Q 23.390625 7.515625 25.78125 7.859375 
z
" id="ArialMT-116"/>
      <path id="ArialMT-32"/>
      <path d="M -0.140625 0 
L 27.34375 71.578125 
L 37.546875 71.578125 
L 66.84375 0 
L 56.0625 0 
L 47.703125 21.6875 
L 17.78125 21.6875 
L 9.90625 0 
z
M 20.515625 29.390625 
L 44.78125 29.390625 
L 37.3125 49.21875 
Q 33.890625 58.25 32.234375 64.0625 
Q 30.859375 57.171875 28.375 50.390625 
z
" id="ArialMT-65"/>
      <path d="M 4.5 23 
L 13.421875 23.78125 
Q 14.0625 18.40625 16.375 14.96875 
Q 18.703125 11.53125 23.578125 9.40625 
Q 28.46875 7.28125 34.578125 7.28125 
Q 39.984375 7.28125 44.140625 8.890625 
Q 48.296875 10.5 50.3125 13.296875 
Q 52.34375 16.109375 52.34375 19.4375 
Q 52.34375 22.796875 50.390625 25.3125 
Q 48.4375 27.828125 43.953125 29.546875 
Q 41.0625 30.671875 31.203125 33.03125 
Q 21.34375 35.40625 17.390625 37.5 
Q 12.25 40.1875 9.734375 44.15625 
Q 7.234375 48.140625 7.234375 53.078125 
Q 7.234375 58.5 10.296875 63.203125 
Q 13.375 67.921875 19.28125 70.359375 
Q 25.203125 72.796875 32.421875 72.796875 
Q 40.375 72.796875 46.453125 70.234375 
Q 52.546875 67.671875 55.8125 62.6875 
Q 59.078125 57.71875 59.328125 51.421875 
L 50.25 50.734375 
Q 49.515625 57.515625 45.28125 60.984375 
Q 41.0625 64.453125 32.8125 64.453125 
Q 24.21875 64.453125 20.28125 61.296875 
Q 16.359375 58.15625 16.359375 53.71875 
Q 16.359375 49.859375 19.140625 47.359375 
Q 21.875 44.875 33.421875 42.265625 
Q 44.96875 39.65625 49.265625 37.703125 
Q 55.515625 34.8125 58.484375 30.390625 
Q 61.46875 25.984375 61.46875 20.21875 
Q 61.46875 14.5 58.203125 9.4375 
Q 54.9375 4.390625 48.796875 1.578125 
Q 42.671875 -1.21875 35.015625 -1.21875 
Q 25.296875 -1.21875 18.71875 1.609375 
Q 12.15625 4.4375 8.421875 10.125 
Q 4.6875 15.828125 4.5 23 
z
" id="ArialMT-83"/>
      <path d="M 7.625 0 
L 7.625 71.578125 
L 17.328125 71.578125 
L 54.9375 15.375 
L 54.9375 71.578125 
L 64.015625 71.578125 
L 64.015625 0 
L 54.296875 0 
L 16.703125 56.25 
L 16.703125 0 
z
" id="ArialMT-78"/>
      <path d="M 28.171875 0 
L 0.4375 71.578125 
L 10.6875 71.578125 
L 29.296875 19.578125 
Q 31.546875 13.328125 33.0625 7.859375 
Q 34.71875 13.71875 36.921875 19.578125 
L 56.25 71.578125 
L 65.921875 71.578125 
L 37.890625 0 
z
" id="ArialMT-86"/>
      <path d="M 6.59375 0 
L 6.59375 51.859375 
L 14.5 51.859375 
L 14.5 44.484375 
Q 20.21875 53.03125 31 53.03125 
Q 35.6875 53.03125 39.625 51.34375 
Q 43.5625 49.65625 45.515625 46.921875 
Q 47.46875 44.1875 48.25 40.4375 
Q 48.734375 37.984375 48.734375 31.890625 
L 48.734375 0 
L 39.9375 0 
L 39.9375 31.546875 
Q 39.9375 36.921875 38.90625 39.578125 
Q 37.890625 42.234375 35.28125 43.8125 
Q 32.671875 45.40625 29.15625 45.40625 
Q 23.53125 45.40625 19.453125 41.84375 
Q 15.375 38.28125 15.375 28.328125 
L 15.375 0 
z
" id="ArialMT-110"/>
      <path d="M 40.234375 0 
L 40.234375 6.546875 
Q 35.296875 -1.171875 25.734375 -1.171875 
Q 19.53125 -1.171875 14.328125 2.25 
Q 9.125 5.671875 6.265625 11.796875 
Q 3.421875 17.921875 3.421875 25.875 
Q 3.421875 33.640625 6 39.96875 
Q 8.59375 46.296875 13.765625 49.65625 
Q 18.953125 53.03125 25.34375 53.03125 
Q 30.03125 53.03125 33.6875 51.046875 
Q 37.359375 49.078125 39.65625 45.90625 
L 39.65625 71.578125 
L 48.390625 71.578125 
L 48.390625 0 
z
M 12.453125 25.875 
Q 12.453125 15.921875 16.640625 10.984375 
Q 20.84375 6.0625 26.5625 6.0625 
Q 32.328125 6.0625 36.34375 10.765625 
Q 40.375 15.484375 40.375 25.140625 
Q 40.375 35.796875 36.265625 40.765625 
Q 32.171875 45.75 26.171875 45.75 
Q 20.3125 45.75 16.375 40.96875 
Q 12.453125 36.1875 12.453125 25.875 
z
" id="ArialMT-100"/>
      <path d="M 8.6875 0 
L 8.6875 45.015625 
L 0.921875 45.015625 
L 0.921875 51.859375 
L 8.6875 51.859375 
L 8.6875 57.375 
Q 8.6875 62.59375 9.625 65.140625 
Q 10.890625 68.5625 14.078125 70.671875 
Q 17.28125 72.796875 23.046875 72.796875 
Q 26.765625 72.796875 31.25 71.921875 
L 29.9375 64.265625 
Q 27.203125 64.75 24.75 64.75 
Q 20.75 64.75 19.09375 63.03125 
Q 17.4375 61.328125 17.4375 56.640625 
L 17.4375 51.859375 
L 27.546875 51.859375 
L 27.546875 45.015625 
L 17.4375 45.015625 
L 17.4375 0 
z
" id="ArialMT-102"/>
      <path d="M 39.65625 -19.875 
L 39.65625 5.515625 
Q 37.59375 2.640625 33.90625 0.734375 
Q 30.21875 -1.171875 26.078125 -1.171875 
Q 16.84375 -1.171875 10.171875 6.203125 
Q 3.515625 13.578125 3.515625 26.421875 
Q 3.515625 34.234375 6.21875 40.421875 
Q 8.9375 46.625 14.078125 49.828125 
Q 19.234375 53.03125 25.390625 53.03125 
Q 35.015625 53.03125 40.53125 44.921875 
L 40.53125 51.859375 
L 48.4375 51.859375 
L 48.4375 -19.875 
z
M 12.546875 26.078125 
Q 12.546875 16.0625 16.75 11.0625 
Q 20.953125 6.0625 26.8125 6.0625 
Q 32.421875 6.0625 36.46875 10.8125 
Q 40.53125 15.578125 40.53125 25.296875 
Q 40.53125 35.640625 36.25 40.859375 
Q 31.984375 46.09375 26.21875 46.09375 
Q 20.515625 46.09375 16.53125 41.234375 
Q 12.546875 36.375 12.546875 26.078125 
z
" id="ArialMT-113"/>
      <path d="M 40.578125 0 
L 40.578125 7.625 
Q 34.515625 -1.171875 24.125 -1.171875 
Q 19.53125 -1.171875 15.546875 0.578125 
Q 11.578125 2.34375 9.640625 5 
Q 7.71875 7.671875 6.9375 11.53125 
Q 6.390625 14.109375 6.390625 19.734375 
L 6.390625 51.859375 
L 15.1875 51.859375 
L 15.1875 23.09375 
Q 15.1875 16.21875 15.71875 13.8125 
Q 16.546875 10.359375 19.234375 8.375 
Q 21.921875 6.390625 25.875 6.390625 
Q 29.828125 6.390625 33.296875 8.421875 
Q 36.765625 10.453125 38.203125 13.9375 
Q 39.65625 17.4375 39.65625 24.078125 
L 39.65625 51.859375 
L 48.4375 51.859375 
L 48.4375 0 
z
" id="ArialMT-117"/>
      <path d="M 6.203125 -19.96875 
L 5.21875 -11.71875 
Q 8.109375 -12.5 10.25 -12.5 
Q 13.1875 -12.5 14.9375 -11.515625 
Q 16.703125 -10.546875 17.828125 -8.796875 
Q 18.65625 -7.46875 20.515625 -2.25 
Q 20.75 -1.515625 21.296875 -0.09375 
L 1.609375 51.859375 
L 11.078125 51.859375 
L 21.875 21.828125 
Q 23.96875 16.109375 25.640625 9.8125 
Q 27.15625 15.875 29.25 21.625 
L 40.328125 51.859375 
L 49.125 51.859375 
L 29.390625 -0.875 
Q 26.21875 -9.421875 24.46875 -12.640625 
Q 22.125 -17 19.09375 -19.015625 
Q 16.0625 -21.046875 11.859375 -21.046875 
Q 9.328125 -21.046875 6.203125 -19.96875 
z
" id="ArialMT-121"/>
     </defs>
     <g transform="translate(87.923806 293.027924)scale(0.1 -0.1)">
      <use xlink:href="#ArialMT-114"/>
      <use x="33.300781" xlink:href="#ArialMT-101"/>
      <use x="88.916016" xlink:href="#ArialMT-112"/>
      <use x="144.53125" xlink:href="#ArialMT-108"/>
      <use x="166.748047" xlink:href="#ArialMT-105"/>
      <use x="188.964844" xlink:href="#ArialMT-99"/>
      <use x="238.964844" xlink:href="#ArialMT-97"/>
      <use x="294.580078" xlink:href="#ArialMT-116"/>
      <use x="322.363281" xlink:href="#ArialMT-101"/>
      <use x="377.978516" xlink:href="#ArialMT-32"/>
      <use x="405.683594" xlink:href="#ArialMT-65"/>
      <use x="472.304688" xlink:href="#ArialMT-32"/>
      <use x="500.087891" xlink:href="#ArialMT-83"/>
      <use x="566.787109" xlink:href="#ArialMT-78"/>
      <use x="639.003906" xlink:href="#ArialMT-86"/>
      <use x="705.703125" xlink:href="#ArialMT-32"/>
      <use x="733.486328" xlink:href="#ArialMT-97"/>
      <use x="789.101562" xlink:href="#ArialMT-110"/>
      <use x="844.716797" xlink:href="#ArialMT-100"/>
      <use x="900.332031" xlink:href="#ArialMT-32"/>
      <use x="928.115234" xlink:href="#ArialMT-105"/>
      <use x="950.332031" xlink:href="#ArialMT-110"/>
      <use x="1005.947266" xlink:href="#ArialMT-100"/>
      <use x="1061.5625" xlink:href="#ArialMT-101"/>
      <use x="1117.177734" xlink:href="#ArialMT-108"/>
      <use x="1139.394531" xlink:href="#ArialMT-32"/>
      <use x="1167.177734" xlink:href="#ArialMT-102"/>
      <use x="1194.960938" xlink:href="#ArialMT-114"/>
      <use x="1228.261719" xlink:href="#ArialMT-101"/>
      <use x="1283.876953" xlink:href="#ArialMT-113"/>
      <use x="1339.492188" xlink:href="#ArialMT-117"/>
      <use x="1395.107422" xlink:href="#ArialMT-101"/>
      <use x="1450.722656" xlink:href="#ArialMT-110"/>
      <use x="1506.337891" xlink:href="#ArialMT-99"/>
      <use x="1556.337891" xlink:href="#ArialMT-121"/>
     </g>
    </g>
   </g>
   <g id="matplotlib.axis_2">
    <g id="ytick_1">
     <g id="line2d_6">
      <defs>
       <path d="M 0 0 
L -3.5 0 
" id="mc9124ae29d" style="stroke:#000000;stroke-width:0.8;"/>
      </defs>
      <g>
       <use style="stroke:#000000;stroke-width:0.8;" x="47.045313" xlink:href="#mc9124ae29d" y="265.602924"/>
      </g>
     </g>
     <g id="text_7">
      <!-- 0.00 -->
      <g transform="translate(20.584375 269.18183)scale(0.1 -0.1)">
       <use xlink:href="#ArialMT-48"/>
       <use x="55.615234" xlink:href="#ArialMT-46"/>
       <use x="83.398438" xlink:href="#ArialMT-48"/>
       <use x="139.013672" xlink:href="#ArialMT-48"/>
      </g>
     </g>
    </g>
    <g id="ytick_2">
     <g id="line2d_7">
      <g>
       <use style="stroke:#000000;stroke-width:0.8;" x="47.045313" xlink:href="#mc9124ae29d" y="206.772344"/>
      </g>
     </g>
     <g id="text_8">
      <!-- 0.25 -->
      <g transform="translate(20.584375 210.351251)scale(0.1 -0.1)">
       <use xlink:href="#ArialMT-48"/>
       <use x="55.615234" xlink:href="#ArialMT-46"/>
       <use x="83.398438" xlink:href="#ArialMT-50"/>
       <use x="139.013672" xlink:href="#ArialMT-53"/>
      </g>
     </g>
    </g>
    <g id="ytick_3">
     <g id="line2d_8">
      <g>
       <use style="stroke:#000000;stroke-width:0.8;" x="47.045313" xlink:href="#mc9124ae29d" y="147.941765"/>
      </g>
     </g>
     <g id="text_9">
      <!-- 0.50 -->
      <g transform="translate(20.584375 151.520672)scale(0.1 -0.1)">
       <use xlink:href="#ArialMT-48"/>
       <use x="55.615234" xlink:href="#ArialMT-46"/>
       <use x="83.398438" xlink:href="#ArialMT-53"/>
       <use x="139.013672" xlink:href="#ArialMT-48"/>
      </g>
     </g>
    </g>
    <g id="ytick_4">
     <g id="line2d_9">
      <g>
       <use style="stroke:#000000;stroke-width:0.8;" x="47.045313" xlink:href="#mc9124ae29d" y="89.111186"/>
      </g>
     </g>
     <g id="text_10">
      <!-- 0.75 -->
      <g transform="translate(20.584375 92.690092)scale(0.1 -0.1)">
       <use xlink:href="#ArialMT-48"/>
       <use x="55.615234" xlink:href="#ArialMT-46"/>
       <use x="83.398438" xlink:href="#ArialMT-55"/>
       <use x="139.013672" xlink:href="#ArialMT-53"/>
      </g>
     </g>
    </g>
    <g id="ytick_5">
     <g id="line2d_10">
      <g>
       <use style="stroke:#000000;stroke-width:0.8;" x="47.045313" xlink:href="#mc9124ae29d" y="30.280607"/>
      </g>
     </g>
     <g id="text_11">
      <!-- 1.00 -->
      <g transform="translate(20.584375 33.859513)scale(0.1 -0.1)">
       <use xlink:href="#ArialMT-49"/>
       <use x="55.615234" xlink:href="#ArialMT-46"/>
       <use x="83.398438" xlink:href="#ArialMT-48"/>
       <use x="139.013672" xlink:href="#ArialMT-48"/>
      </g>
     </g>
    </g>
    <g id="text_12">
     <!-- replicate B SNV and indel frequency -->
     <defs>
      <path d="M 7.328125 0 
L 7.328125 71.578125 
L 34.1875 71.578125 
Q 42.390625 71.578125 47.34375 69.40625 
Q 52.296875 67.234375 55.09375 62.71875 
Q 57.90625 58.203125 57.90625 53.265625 
Q 57.90625 48.6875 55.421875 44.625 
Q 52.9375 40.578125 47.90625 38.09375 
Q 54.390625 36.1875 57.875 31.59375 
Q 61.375 27 61.375 20.75 
Q 61.375 15.71875 59.25 11.390625 
Q 57.125 7.078125 54 4.734375 
Q 50.875 2.390625 46.15625 1.1875 
Q 41.453125 0 34.625 0 
z
M 16.796875 41.5 
L 32.28125 41.5 
Q 38.578125 41.5 41.3125 42.328125 
Q 44.921875 43.40625 46.75 45.890625 
Q 48.578125 48.390625 48.578125 52.15625 
Q 48.578125 55.71875 46.875 58.421875 
Q 45.171875 61.140625 41.984375 62.140625 
Q 38.8125 63.140625 31.109375 63.140625 
L 16.796875 63.140625 
z
M 16.796875 8.453125 
L 34.625 8.453125 
Q 39.203125 8.453125 41.0625 8.796875 
Q 44.34375 9.375 46.53125 10.734375 
Q 48.734375 12.109375 50.140625 14.71875 
Q 51.5625 17.328125 51.5625 20.75 
Q 51.5625 24.75 49.515625 27.703125 
Q 47.46875 30.671875 43.828125 31.859375 
Q 40.1875 33.0625 33.34375 33.0625 
L 16.796875 33.0625 
z
" id="ArialMT-66"/>
     </defs>
     <g transform="translate(14.479688 224.732243)rotate(-90)scale(0.1 -0.1)">
      <use xlink:href="#ArialMT-114"/>
      <use x="33.300781" xlink:href="#ArialMT-101"/>
      <use x="88.916016" xlink:href="#ArialMT-112"/>
      <use x="144.53125" xlink:href="#ArialMT-108"/>
      <use x="166.748047" xlink:href="#ArialMT-105"/>
      <use x="188.964844" xlink:href="#ArialMT-99"/>
      <use x="238.964844" xlink:href="#ArialMT-97"/>
      <use x="294.580078" xlink:href="#ArialMT-116"/>
      <use x="322.363281" xlink:href="#ArialMT-101"/>
      <use x="377.978516" xlink:href="#ArialMT-32"/>
      <use x="405.761719" xlink:href="#ArialMT-66"/>
      <use x="472.460938" xlink:href="#ArialMT-32"/>
      <use x="500.244141" xlink:href="#ArialMT-83"/>
      <use x="566.943359" xlink:href="#ArialMT-78"/>
      <use x="639.160156" xlink:href="#ArialMT-86"/>
      <use x="705.859375" xlink:href="#ArialMT-32"/>
      <use x="733.642578" xlink:href="#ArialMT-97"/>
      <use x="789.257812" xlink:href="#ArialMT-110"/>
      <use x="844.873047" xlink:href="#ArialMT-100"/>
      <use x="900.488281" xlink:href="#ArialMT-32"/>
      <use x="928.271484" xlink:href="#ArialMT-105"/>
      <use x="950.488281" xlink:href="#ArialMT-110"/>
      <use x="1006.103516" xlink:href="#ArialMT-100"/>
      <use x="1061.71875" xlink:href="#ArialMT-101"/>
      <use x="1117.333984" xlink:href="#ArialMT-108"/>
      <use x="1139.550781" xlink:href="#ArialMT-32"/>
      <use x="1167.333984" xlink:href="#ArialMT-102"/>
      <use x="1195.117188" xlink:href="#ArialMT-114"/>
      <use x="1228.417969" xlink:href="#ArialMT-101"/>
      <use x="1284.033203" xlink:href="#ArialMT-113"/>
      <use x="1339.648438" xlink:href="#ArialMT-117"/>
      <use x="1395.263672" xlink:href="#ArialMT-101"/>
      <use x="1450.878906" xlink:href="#ArialMT-110"/>
      <use x="1506.494141" xlink:href="#ArialMT-99"/>
      <use x="1556.494141" xlink:href="#ArialMT-121"/>
     </g>
    </g>
   </g>
   <g id="patch_3">
    <path d="M 47.045313 265.602924 
L 47.045313 23.220937 
" style="fill:none;stroke:#000000;stroke-linecap:square;stroke-linejoin:miter;stroke-width:0.8;"/>
   </g>
   <g id="patch_4">
    <path d="M 47.045313 265.602924 
L 289.427299 265.602924 
" style="fill:none;stroke:#000000;stroke-linecap:square;stroke-linejoin:miter;stroke-width:0.8;"/>
   </g>
   <g id="text_13">
    <!-- index cat 1 -->
    <defs>
     <path d="M 0.734375 0 
L 19.671875 26.953125 
L 2.15625 51.859375 
L 13.140625 51.859375 
L 21.09375 39.703125 
Q 23.34375 36.234375 24.703125 33.890625 
Q 26.859375 37.109375 28.65625 39.59375 
L 37.40625 51.859375 
L 47.90625 51.859375 
L 29.984375 27.4375 
L 49.265625 0 
L 38.484375 0 
L 27.828125 16.109375 
L 25 20.453125 
L 11.375 0 
z
" id="ArialMT-120"/>
    </defs>
    <g transform="translate(134.383649 17.220937)scale(0.14 -0.14)">
     <use xlink:href="#ArialMT-105"/>
     <use x="22.216797" xlink:href="#ArialMT-110"/>
     <use x="77.832031" xlink:href="#ArialMT-100"/>
     <use x="133.447266" xlink:href="#ArialMT-101"/>
     <use x="189.0625" xlink:href="#ArialMT-120"/>
     <use x="239.0625" xlink:href="#ArialMT-32"/>
     <use x="266.845703" xlink:href="#ArialMT-99"/>
     <use x="316.845703" xlink:href="#ArialMT-97"/>
     <use x="372.460938" xlink:href="#ArialMT-116"/>
     <use x="400.244141" xlink:href="#ArialMT-32"/>
     <use x="428.027344" xlink:href="#ArialMT-49"/>
    </g>
   </g>
  </g>
  <g id="axes_2">
   <g id="patch_5">
    <path d="M 326.73189 265.602924 
L 569.113876 265.602924 
L 569.113876 23.220937 
L 326.73189 23.220937 
z
" style="fill:#ffffff;"/>
   </g>
   <g id="PathCollection_9">
    <defs>
     <path d="M 0 3 
C 0.795609 3 1.55874 2.683901 2.12132 2.12132 
C 2.683901 1.55874 3 0.795609 3 0 
C 3 -0.795609 2.683901 -1.55874 2.12132 -2.12132 
C 1.55874 -2.683901 0.795609 -3 0 -3 
C -0.795609 -3 -1.55874 -2.683901 -2.12132 -2.12132 
C -2.683901 -1.55874 -3 -0.795609 -3 0 
C -3 0.795609 -2.683901 1.55874 -2.12132 2.12132 
C -1.55874 2.683901 -0.795609 3 0 3 
z
" id="C8_0_aac520942e"/>
    </defs>
    <g clip-path="url(#p2db899ef41)">
     <use style="fill:none;stroke:#59667c;" x="566.224555" xlink:href="#C8_0_aac520942e" y="49.706386"/>
    </g>
    <g clip-path="url(#p2db899ef41)">
     <use style="fill:none;stroke:#59667c;" x="552.901571" xlink:href="#C8_0_aac520942e" y="127.076"/>
    </g>
    <g clip-path="url(#p2db899ef41)">
     <use style="fill:none;stroke:#59667c;" x="1723.558409" xlink:href="#C8_0_aac520942e" y="-1165.57442"/>
    </g>
    <g clip-path="url(#p2db899ef41)">
     <use style="fill:none;stroke:#59667c;" x="1726.608249" xlink:href="#C8_0_aac520942e" y="-1202.814566"/>
    </g>
   </g>
   <g id="PathCollection_10">
    <defs>
     <path d="M 0 3 
C 0.795609 3 1.55874 2.683901 2.12132 2.12132 
C 2.683901 1.55874 3 0.795609 3 0 
C 3 -0.795609 2.683901 -1.55874 2.12132 -2.12132 
C 1.55874 -2.683901 0.795609 -3 0 -3 
C -0.795609 -3 -1.55874 -2.683901 -2.12132 -2.12132 
C -2.683901 -1.55874 -3 -0.795609 -3 0 
C -3 0.795609 -2.683901 1.55874 -2.12132 2.12132 
C -1.55874 2.683901 -0.795609 3 0 3 
z
" id="C9_0_37c65dab6b"/>
    </defs>
    <g clip-path="url(#p2db899ef41)">
     <use style="fill:none;stroke:#8b9aa0;" x="504.104138" xlink:href="#C9_0_37c65dab6b" y="75.06821"/>
    </g>
    <g clip-path="url(#p2db899ef41)">
     <use style="fill:none;stroke:#8b9aa0;" x="406.188237" xlink:href="#C9_0_37c65dab6b" y="195.617132"/>
    </g>
    <g clip-path="url(#p2db899ef41)">
     <use style="fill:none;stroke:#8b9aa0;" x="609.885416" xlink:href="#C9_0_37c65dab6b" y="-11.771959"/>
    </g>
    <g clip-path="url(#p2db899ef41)">
     <use style="fill:none;stroke:#8b9aa0;" x="580.189609" xlink:href="#C9_0_37c65dab6b" y="-68.916321"/>
    </g>
    <g clip-path="url(#p2db899ef41)">
     <use style="fill:none;stroke:#8b9aa0;" x="1265.440403" xlink:href="#C9_0_37c65dab6b" y="-702.48036"/>
    </g>
   </g>
   <g id="PathCollection_11">
    <defs>
     <path d="M 0 3 
C 0.795609 3 1.55874 2.683901 2.12132 2.12132 
C 2.683901 1.55874 3 0.795609 3 0 
C 3 -0.795609 2.683901 -1.55874 2.12132 -2.12132 
C 1.55874 -2.683901 0.795609 -3 0 -3 
C -0.795609 -3 -1.55874 -2.683901 -2.12132 -2.12132 
C -2.683901 -1.55874 -3 -0.795609 -3 0 
C -3 0.795609 -2.683901 1.55874 -2.12132 2.12132 
C -1.55874 2.683901 -0.795609 3 0 3 
z
" id="Ca_0_c85e222175"/>
    </defs>
    <g clip-path="url(#p2db899ef41)">
     <use style="fill:none;stroke:#8da395;" x="398.162343" xlink:href="#Ca_0_c85e222175" y="210.06374"/>
    </g>
    <g clip-path="url(#p2db899ef41)">
     <use style="fill:none;stroke:#8da395;" x="419.671738" xlink:href="#Ca_0_c85e222175" y="203.643025"/>
    </g>
    <g clip-path="url(#p2db899ef41)">
     <use style="fill:none;stroke:#8da395;" x="650.656955" xlink:href="#Ca_0_c85e222175" y="-43.072943"/>
    </g>
    <g clip-path="url(#p2db899ef41)">
     <use style="fill:none;stroke:#8da395;" x="422.400542" xlink:href="#Ca_0_c85e222175" y="122.260464"/>
    </g>
    <g clip-path="url(#p2db899ef41)">
     <use style="fill:none;stroke:#8da395;" x="837.981311" xlink:href="#Ca_0_c85e222175" y="-42.912426"/>
    </g>
    <g clip-path="url(#p2db899ef41)">
     <use style="fill:none;stroke:#8da395;" x="582.597378" xlink:href="#Ca_0_c85e222175" y="-22.687174"/>
    </g>
    <g clip-path="url(#p2db899ef41)">
     <use style="fill:none;stroke:#8da395;" x="570.398019" xlink:href="#Ca_0_c85e222175" y="65.27662"/>
    </g>
   </g>
   <g id="PathCollection_12">
    <defs>
     <path d="M 0 3 
C 0.795609 3 1.55874 2.683901 2.12132 2.12132 
C 2.683901 1.55874 3 0.795609 3 0 
C 3 -0.795609 2.683901 -1.55874 2.12132 -2.12132 
C 1.55874 -2.683901 0.795609 -3 0 -3 
C -0.795609 -3 -1.55874 -2.683901 -2.12132 -2.12132 
C -2.683901 -1.55874 -3 -0.795609 -3 0 
C -3 0.795609 -2.683901 1.55874 -2.12132 2.12132 
C -1.55874 2.683901 -0.795609 3 0 3 
z
" id="Cb_0_b52aef3c72"/>
    </defs>
    <g clip-path="url(#p2db899ef41)">
     <use style="fill:none;stroke:#a4a58c;" x="378.097609" xlink:href="#Cb_0_b52aef3c72" y="177.799648"/>
    </g>
    <g clip-path="url(#p2db899ef41)">
     <use style="fill:none;stroke:#a4a58c;" x="573.287341" xlink:href="#Cb_0_b52aef3c72" y="-107.44061"/>
    </g>
    <g clip-path="url(#p2db899ef41)">
     <use style="fill:none;stroke:#a4a58c;" x="1183.094735" xlink:href="#Cb_0_b52aef3c72" y="-762.353526"/>
    </g>
    <g clip-path="url(#p2db899ef41)">
     <use style="fill:none;stroke:#a4a58c;" x="893.038941" xlink:href="#Cb_0_b52aef3c72" y="-334.41288"/>
    </g>
   </g>
   <g id="PathCollection_13">
    <defs>
     <path d="M 0 3 
C 0.795609 3 1.55874 2.683901 2.12132 2.12132 
C 2.683901 1.55874 3 0.795609 3 0 
C 3 -0.795609 2.683901 -1.55874 2.12132 -2.12132 
C 1.55874 -2.683901 0.795609 -3 0 -3 
C -0.795609 -3 -1.55874 -2.683901 -2.12132 -2.12132 
C -2.683901 -1.55874 -3 -0.795609 -3 0 
C -3 0.795609 -2.683901 1.55874 -2.12132 2.12132 
C -1.55874 2.683901 -0.795609 3 0 3 
z
" id="Cc_0_ca2405572b"/>
    </defs>
    <g clip-path="url(#p2db899ef41)">
     <use style="fill:none;stroke:#ccba85;" x="384.999878" xlink:href="#Cc_0_ca2405572b" y="198.0249"/>
    </g>
    <g clip-path="url(#p2db899ef41)">
     <use style="fill:none;stroke:#ccba85;" x="399.607004" xlink:href="#Cc_0_ca2405572b" y="185.022952"/>
    </g>
    <g clip-path="url(#p2db899ef41)">
     <use style="fill:none;stroke:#ccba85;" x="384.03677" xlink:href="#Cc_0_ca2405572b" y="205.408722"/>
    </g>
    <g clip-path="url(#p2db899ef41)">
     <use style="fill:none;stroke:#ccba85;" x="1437.194526" xlink:href="#Cc_0_ca2405572b" y="-857.701142"/>
    </g>
    <g clip-path="url(#p2db899ef41)">
     <use style="fill:none;stroke:#ccba85;" x="559.161768" xlink:href="#Cc_0_ca2405572b" y="40.235832"/>
    </g>
    <g clip-path="url(#p2db899ef41)">
     <use style="fill:none;stroke:#ccba85;" x="404.101504" xlink:href="#Cc_0_ca2405572b" y="165.118736"/>
    </g>
   </g>
   <g id="PathCollection_14">
    <defs>
     <path d="M 0 3 
C 0.795609 3 1.55874 2.683901 2.12132 2.12132 
C 2.683901 1.55874 3 0.795609 3 0 
C 3 -0.795609 2.683901 -1.55874 2.12132 -2.12132 
C 1.55874 -2.683901 0.795609 -3 0 -3 
C -0.795609 -3 -1.55874 -2.683901 -2.12132 -2.12132 
C -2.683901 -1.55874 -3 -0.795609 -3 0 
C -3 0.795609 -2.683901 1.55874 -2.12132 2.12132 
C -1.55874 2.683901 -0.795609 3 0 3 
z
" id="Cd_0_8d4867b3a4"/>
    </defs>
    <g clip-path="url(#p2db899ef41)">
     <use style="fill:none;stroke:#cb997d;" x="409.398594" xlink:href="#Cd_0_8d4867b3a4" y="129.323251"/>
    </g>
    <g clip-path="url(#p2db899ef41)">
     <use style="fill:none;stroke:#cb997d;" x="465.900885" xlink:href="#Cd_0_8d4867b3a4" y="159.340093"/>
    </g>
    <g clip-path="url(#p2db899ef41)">
     <use style="fill:none;stroke:#cb997d;" x="379.221234" xlink:href="#Cd_0_8d4867b3a4" y="190.159524"/>
    </g>
    <g clip-path="url(#p2db899ef41)">
     <use style="fill:none;stroke:#cb997d;" x="1238.312883" xlink:href="#Cd_0_8d4867b3a4" y="-616.121745"/>
    </g>
    <g clip-path="url(#p2db899ef41)">
     <use style="fill:none;stroke:#cb997d;" x="578.102877" xlink:href="#Cd_0_8d4867b3a4" y="49.224833"/>
    </g>
    <g clip-path="url(#p2db899ef41)">
     <use style="fill:none;stroke:#cb997d;" x="1034.93674" xlink:href="#Cd_0_8d4867b3a4" y="-532.973488"/>
    </g>
   </g>
   <g id="PathCollection_15">
    <defs>
     <path d="M 0 3 
C 0.795609 3 1.55874 2.683901 2.12132 2.12132 
C 2.683901 1.55874 3 0.795609 3 0 
C 3 -0.795609 2.683901 -1.55874 2.12132 -2.12132 
C 1.55874 -2.683901 0.795609 -3 0 -3 
C -0.795609 -3 -1.55874 -2.683901 -2.12132 -2.12132 
C -2.683901 -1.55874 -3 -0.795609 -3 0 
C -3 0.795609 -2.683901 1.55874 -2.12132 2.12132 
C -1.55874 2.683901 -0.795609 3 0 3 
z
" id="Ce_0_baf0e50c1b"/>
    </defs>
    <g clip-path="url(#p2db899ef41)">
     <use style="fill:none;stroke:#c87f7f;" x="421.75847" xlink:href="#Ce_0_baf0e50c1b" y="140.238466"/>
    </g>
    <g clip-path="url(#p2db899ef41)">
     <use style="fill:none;stroke:#c87f7f;" x="1698.357103" xlink:href="#Ce_0_baf0e50c1b" y="-1110.356272"/>
    </g>
    <g clip-path="url(#p2db899ef41)">
     <use style="fill:none;stroke:#c87f7f;" x="782.602646" xlink:href="#Ce_0_baf0e50c1b" y="-192.354564"/>
    </g>
   </g>
   <g id="PathCollection_16">
    <defs>
     <path d="M 0 3 
C 0.795609 3 1.55874 2.683901 2.12132 2.12132 
C 2.683901 1.55874 3 0.795609 3 0 
C 3 -0.795609 2.683901 -1.55874 2.12132 -2.12132 
C 1.55874 -2.683901 0.795609 -3 0 -3 
C -0.795609 -3 -1.55874 -2.683901 -2.12132 -2.12132 
C -2.683901 -1.55874 -3 -0.795609 -3 0 
C -3 0.795609 -2.683901 1.55874 -2.12132 2.12132 
C -1.55874 2.683901 -0.795609 3 0 3 
z
" id="Cf_0_d8950d04dc"/>
    </defs>
    <g clip-path="url(#p2db899ef41)">
     <use style="fill:none;stroke:#a86566;" x="391.099557" xlink:href="#Cf_0_d8950d04dc" y="141.522609"/>
    </g>
    <g clip-path="url(#p2db899ef41)">
     <use style="fill:none;stroke:#a86566;" x="1070.250672" xlink:href="#Cf_0_d8950d04dc" y="-471.174107"/>
    </g>
    <g clip-path="url(#p2db899ef41)">
     <use style="fill:none;stroke:#a86566;" x="794.32045" xlink:href="#Cf_0_d8950d04dc" y="-213.06137"/>
    </g>
   </g>
   <g id="matplotlib.axis_3">
    <g id="xtick_6">
     <g id="line2d_11">
      <g>
       <use style="stroke:#000000;stroke-width:0.8;" x="408.596005" xlink:href="#m309f777731" y="265.602924"/>
      </g>
     </g>
     <g id="text_14">
      <!-- 0.05 -->
      <g transform="translate(398.865536 279.760736)scale(0.1 -0.1)">
       <use xlink:href="#ArialMT-48"/>
       <use x="55.615234" xlink:href="#ArialMT-46"/>
       <use x="83.398438" xlink:href="#ArialMT-48"/>
       <use x="139.013672" xlink:href="#ArialMT-53"/>
      </g>
     </g>
    </g>
    <g id="xtick_7">
     <g id="line2d_12">
      <g>
       <use style="stroke:#000000;stroke-width:0.8;" x="488.854941" xlink:href="#m309f777731" y="265.602924"/>
      </g>
     </g>
     <g id="text_15">
      <!-- 0.10 -->
      <g transform="translate(479.124472 279.760736)scale(0.1 -0.1)">
       <use xlink:href="#ArialMT-48"/>
       <use x="55.615234" xlink:href="#ArialMT-46"/>
       <use x="83.398438" xlink:href="#ArialMT-49"/>
       <use x="139.013672" xlink:href="#ArialMT-48"/>
      </g>
     </g>
    </g>
    <g id="xtick_8">
     <g id="line2d_13">
      <g>
       <use style="stroke:#000000;stroke-width:0.8;" x="569.113876" xlink:href="#m309f777731" y="265.602924"/>
      </g>
     </g>
     <g id="text_16">
      <!-- 0.15 -->
      <g transform="translate(559.383408 279.760736)scale(0.1 -0.1)">
       <use xlink:href="#ArialMT-48"/>
       <use x="55.615234" xlink:href="#ArialMT-46"/>
       <use x="83.398438" xlink:href="#ArialMT-49"/>
       <use x="139.013672" xlink:href="#ArialMT-53"/>
      </g>
     </g>
    </g>
    <g id="text_17">
     <!-- replicate A SNV and indel frequency 1-10% -->
     <defs>
      <path d="M 3.171875 21.484375 
L 3.171875 30.328125 
L 30.171875 30.328125 
L 30.171875 21.484375 
z
" id="ArialMT-45"/>
      <path d="M 5.8125 54.390625 
Q 5.8125 62.0625 9.671875 67.421875 
Q 13.53125 72.796875 20.84375 72.796875 
Q 27.59375 72.796875 32 67.984375 
Q 36.421875 63.1875 36.421875 53.859375 
Q 36.421875 44.78125 31.953125 39.875 
Q 27.484375 34.96875 20.953125 34.96875 
Q 14.453125 34.96875 10.125 39.796875 
Q 5.8125 44.625 5.8125 54.390625 
z
M 21.09375 66.75 
Q 17.828125 66.75 15.65625 63.90625 
Q 13.484375 61.078125 13.484375 53.515625 
Q 13.484375 46.625 15.671875 43.8125 
Q 17.875 41.015625 21.09375 41.015625 
Q 24.421875 41.015625 26.59375 43.84375 
Q 28.765625 46.6875 28.765625 54.203125 
Q 28.765625 61.140625 26.5625 63.9375 
Q 24.359375 66.75 21.09375 66.75 
z
M 21.140625 -2.640625 
L 60.296875 72.796875 
L 67.4375 72.796875 
L 28.421875 -2.640625 
z
M 52.09375 16.796875 
Q 52.09375 24.515625 55.953125 29.859375 
Q 59.8125 35.203125 67.1875 35.203125 
Q 73.921875 35.203125 78.34375 30.390625 
Q 82.765625 25.59375 82.765625 16.265625 
Q 82.765625 7.171875 78.296875 2.265625 
Q 73.828125 -2.640625 67.234375 -2.640625 
Q 60.75 -2.640625 56.421875 2.21875 
Q 52.09375 7.078125 52.09375 16.796875 
z
M 67.4375 29.15625 
Q 64.109375 29.15625 61.9375 26.3125 
Q 59.765625 23.484375 59.765625 15.921875 
Q 59.765625 9.078125 61.953125 6.25 
Q 64.15625 3.421875 67.390625 3.421875 
Q 70.75 3.421875 72.921875 6.25 
Q 75.09375 9.078125 75.09375 16.609375 
Q 75.09375 23.53125 72.890625 26.34375 
Q 70.703125 29.15625 67.4375 29.15625 
z
" id="ArialMT-37"/>
     </defs>
     <g transform="translate(351.768977 293.027924)scale(0.1 -0.1)">
      <use xlink:href="#ArialMT-114"/>
      <use x="33.300781" xlink:href="#ArialMT-101"/>
      <use x="88.916016" xlink:href="#ArialMT-112"/>
      <use x="144.53125" xlink:href="#ArialMT-108"/>
      <use x="166.748047" xlink:href="#ArialMT-105"/>
      <use x="188.964844" xlink:href="#ArialMT-99"/>
      <use x="238.964844" xlink:href="#ArialMT-97"/>
      <use x="294.580078" xlink:href="#ArialMT-116"/>
      <use x="322.363281" xlink:href="#ArialMT-101"/>
      <use x="377.978516" xlink:href="#ArialMT-32"/>
      <use x="405.683594" xlink:href="#ArialMT-65"/>
      <use x="472.304688" xlink:href="#ArialMT-32"/>
      <use x="500.087891" xlink:href="#ArialMT-83"/>
      <use x="566.787109" xlink:href="#ArialMT-78"/>
      <use x="639.003906" xlink:href="#ArialMT-86"/>
      <use x="705.703125" xlink:href="#ArialMT-32"/>
      <use x="733.486328" xlink:href="#ArialMT-97"/>
      <use x="789.101562" xlink:href="#ArialMT-110"/>
      <use x="844.716797" xlink:href="#ArialMT-100"/>
      <use x="900.332031" xlink:href="#ArialMT-32"/>
      <use x="928.115234" xlink:href="#ArialMT-105"/>
      <use x="950.332031" xlink:href="#ArialMT-110"/>
      <use x="1005.947266" xlink:href="#ArialMT-100"/>
      <use x="1061.5625" xlink:href="#ArialMT-101"/>
      <use x="1117.177734" xlink:href="#ArialMT-108"/>
      <use x="1139.394531" xlink:href="#ArialMT-32"/>
      <use x="1167.177734" xlink:href="#ArialMT-102"/>
      <use x="1194.960938" xlink:href="#ArialMT-114"/>
      <use x="1228.261719" xlink:href="#ArialMT-101"/>
      <use x="1283.876953" xlink:href="#ArialMT-113"/>
      <use x="1339.492188" xlink:href="#ArialMT-117"/>
      <use x="1395.107422" xlink:href="#ArialMT-101"/>
      <use x="1450.722656" xlink:href="#ArialMT-110"/>
      <use x="1506.337891" xlink:href="#ArialMT-99"/>
      <use x="1556.337891" xlink:href="#ArialMT-121"/>
      <use x="1606.337891" xlink:href="#ArialMT-32"/>
      <use x="1634.121094" xlink:href="#ArialMT-49"/>
      <use x="1689.736328" xlink:href="#ArialMT-45"/>
      <use x="1723.037109" xlink:href="#ArialMT-49"/>
      <use x="1778.652344" xlink:href="#ArialMT-48"/>
      <use x="1834.267578" xlink:href="#ArialMT-37"/>
     </g>
    </g>
   </g>
   <g id="matplotlib.axis_4">
    <g id="ytick_6">
     <g id="line2d_14">
      <g>
       <use style="stroke:#000000;stroke-width:0.8;" x="326.73189" xlink:href="#mc9124ae29d" y="183.738809"/>
      </g>
     </g>
     <g id="text_18">
      <!-- 0.05 -->
      <g transform="translate(300.270953 187.317715)scale(0.1 -0.1)">
       <use xlink:href="#ArialMT-48"/>
       <use x="55.615234" xlink:href="#ArialMT-46"/>
       <use x="83.398438" xlink:href="#ArialMT-48"/>
       <use x="139.013672" xlink:href="#ArialMT-53"/>
      </g>
     </g>
    </g>
    <g id="ytick_7">
     <g id="line2d_15">
      <g>
       <use style="stroke:#000000;stroke-width:0.8;" x="326.73189" xlink:href="#mc9124ae29d" y="103.479873"/>
      </g>
     </g>
     <g id="text_19">
      <!-- 0.10 -->
      <g transform="translate(300.270953 107.05878)scale(0.1 -0.1)">
       <use xlink:href="#ArialMT-48"/>
       <use x="55.615234" xlink:href="#ArialMT-46"/>
       <use x="83.398438" xlink:href="#ArialMT-49"/>
       <use x="139.013672" xlink:href="#ArialMT-48"/>
      </g>
     </g>
    </g>
    <g id="ytick_8">
     <g id="line2d_16">
      <g>
       <use style="stroke:#000000;stroke-width:0.8;" x="326.73189" xlink:href="#mc9124ae29d" y="23.220937"/>
      </g>
     </g>
     <g id="text_20">
      <!-- 0.15 -->
      <g transform="translate(300.270953 26.799844)scale(0.1 -0.1)">
       <use xlink:href="#ArialMT-48"/>
       <use x="55.615234" xlink:href="#ArialMT-46"/>
       <use x="83.398438" xlink:href="#ArialMT-49"/>
       <use x="139.013672" xlink:href="#ArialMT-53"/>
      </g>
     </g>
    </g>
    <g id="text_21">
     <!-- replicate B SNV and indel frequency 1-10% -->
     <g transform="translate(294.166265 240.573649)rotate(-90)scale(0.1 -0.1)">
      <use xlink:href="#ArialMT-114"/>
      <use x="33.300781" xlink:href="#ArialMT-101"/>
      <use x="88.916016" xlink:href="#ArialMT-112"/>
      <use x="144.53125" xlink:href="#ArialMT-108"/>
      <use x="166.748047" xlink:href="#ArialMT-105"/>
      <use x="188.964844" xlink:href="#ArialMT-99"/>
      <use x="238.964844" xlink:href="#ArialMT-97"/>
      <use x="294.580078" xlink:href="#ArialMT-116"/>
      <use x="322.363281" xlink:href="#ArialMT-101"/>
      <use x="377.978516" xlink:href="#ArialMT-32"/>
      <use x="405.761719" xlink:href="#ArialMT-66"/>
      <use x="472.460938" xlink:href="#ArialMT-32"/>
      <use x="500.244141" xlink:href="#ArialMT-83"/>
      <use x="566.943359" xlink:href="#ArialMT-78"/>
      <use x="639.160156" xlink:href="#ArialMT-86"/>
      <use x="705.859375" xlink:href="#ArialMT-32"/>
      <use x="733.642578" xlink:href="#ArialMT-97"/>
      <use x="789.257812" xlink:href="#ArialMT-110"/>
      <use x="844.873047" xlink:href="#ArialMT-100"/>
      <use x="900.488281" xlink:href="#ArialMT-32"/>
      <use x="928.271484" xlink:href="#ArialMT-105"/>
      <use x="950.488281" xlink:href="#ArialMT-110"/>
      <use x="1006.103516" xlink:href="#ArialMT-100"/>
      <use x="1061.71875" xlink:href="#ArialMT-101"/>
      <use x="1117.333984" xlink:href="#ArialMT-108"/>
      <use x="1139.550781" xlink:href="#ArialMT-32"/>
      <use x="1167.333984" xlink:href="#ArialMT-102"/>
      <use x="1195.117188" xlink:href="#ArialMT-114"/>
      <use x="1228.417969" xlink:href="#ArialMT-101"/>
      <use x="1284.033203" xlink:href="#ArialMT-113"/>
      <use x="1339.648438" xlink:href="#ArialMT-117"/>
      <use x="1395.263672" xlink:href="#ArialMT-101"/>
      <use x="1450.878906" xlink:href="#ArialMT-110"/>
      <use x="1506.494141" xlink:href="#ArialMT-99"/>
      <use x="1556.494141" xlink:href="#ArialMT-121"/>
      <use x="1606.494141" xlink:href="#ArialMT-32"/>
      <use x="1634.277344" xlink:href="#ArialMT-49"/>
      <use x="1689.892578" xlink:href="#ArialMT-45"/>
      <use x="1723.193359" xlink:href="#ArialMT-49"/>
      <use x="1778.808594" xlink:href="#ArialMT-48"/>
      <use x="1834.423828" xlink:href="#ArialMT-37"/>
     </g>
    </g>
   </g>
   <g id="patch_6">
    <path d="M 326.73189 265.602924 
L 326.73189 23.220937 
" style="fill:none;stroke:#000000;stroke-linecap:square;stroke-linejoin:miter;stroke-width:0.8;"/>
   </g>
   <g id="patch_7">
    <path d="M 326.73189 265.602924 
L 569.113876 265.602924 
" style="fill:none;stroke:#000000;stroke-linecap:square;stroke-linejoin:miter;stroke-width:0.8;"/>
   </g>
   <g id="text_22">
    <!-- index cat 1 -->
    <g transform="translate(414.070227 17.220937)scale(0.14 -0.14)">
     <use xlink:href="#ArialMT-105"/>
     <use x="22.216797" xlink:href="#ArialMT-110"/>
     <use x="77.832031" xlink:href="#ArialMT-100"/>
     <use x="133.447266" xlink:href="#ArialMT-101"/>
     <use x="189.0625" xlink:href="#ArialMT-120"/>
     <use x="239.0625" xlink:href="#ArialMT-32"/>
     <use x="266.845703" xlink:href="#ArialMT-99"/>
     <use x="316.845703" xlink:href="#ArialMT-97"/>
     <use x="372.460938" xlink:href="#ArialMT-116"/>
     <use x="400.244141" xlink:href="#ArialMT-32"/>
     <use x="428.027344" xlink:href="#ArialMT-49"/>
    </g>
   </g>
  </g>
  <g id="legend_1">
   <g id="line2d_17"/>
   <g id="line2d_18">
    <defs>
     <path d="M 0 4 
C 1.060812 4 2.078319 3.578535 2.828427 2.828427 
C 3.578535 2.078319 4 1.060812 4 0 
C 4 -1.060812 3.578535 -2.078319 2.828427 -2.828427 
C 2.078319 -3.578535 1.060812 -4 0 -4 
C -1.060812 -4 -2.078319 -3.578535 -2.828427 -2.828427 
C -3.578535 -2.078319 -4 -1.060812 -4 0 
C -4 1.060812 -3.578535 2.078319 -2.828427 2.828427 
C -2.078319 3.578535 -1.060812 4 0 4 
z
" id="m10436b0a05" style="stroke:#a86566;"/>
    </defs>
    <g>
     <use style="fill-opacity:0;stroke:#a86566;" x="604.630625" xlink:href="#m10436b0a05" y="18.615368"/>
    </g>
   </g>
   <g id="text_23">
    <!-- 1 DPI -->
    <defs>
     <path d="M 7.71875 0 
L 7.71875 71.578125 
L 32.375 71.578125 
Q 40.71875 71.578125 45.125 70.5625 
Q 51.265625 69.140625 55.609375 65.4375 
Q 61.28125 60.640625 64.078125 53.1875 
Q 66.890625 45.75 66.890625 36.1875 
Q 66.890625 28.03125 64.984375 21.734375 
Q 63.09375 15.4375 60.109375 11.296875 
Q 57.125 7.171875 53.578125 4.796875 
Q 50.046875 2.4375 45.046875 1.21875 
Q 40.046875 0 33.546875 0 
z
M 17.1875 8.453125 
L 32.46875 8.453125 
Q 39.546875 8.453125 43.578125 9.765625 
Q 47.609375 11.078125 50 13.484375 
Q 53.375 16.84375 55.25 22.53125 
Q 57.125 28.21875 57.125 36.328125 
Q 57.125 47.5625 53.4375 53.59375 
Q 49.75 59.625 44.484375 61.671875 
Q 40.671875 63.140625 32.234375 63.140625 
L 17.1875 63.140625 
z
" id="ArialMT-68"/>
     <path d="M 7.71875 0 
L 7.71875 71.578125 
L 34.71875 71.578125 
Q 41.84375 71.578125 45.609375 70.90625 
Q 50.875 70.015625 54.4375 67.546875 
Q 58.015625 65.09375 60.1875 60.640625 
Q 62.359375 56.203125 62.359375 50.875 
Q 62.359375 41.75 56.546875 35.421875 
Q 50.734375 29.109375 35.546875 29.109375 
L 17.1875 29.109375 
L 17.1875 0 
z
M 17.1875 37.546875 
L 35.6875 37.546875 
Q 44.875 37.546875 48.734375 40.96875 
Q 52.59375 44.390625 52.59375 50.59375 
Q 52.59375 55.078125 50.3125 58.265625 
Q 48.046875 61.46875 44.34375 62.5 
Q 41.9375 63.140625 35.5 63.140625 
L 17.1875 63.140625 
z
" id="ArialMT-80"/>
     <path d="M 9.328125 0 
L 9.328125 71.578125 
L 18.796875 71.578125 
L 18.796875 0 
z
" id="ArialMT-73"/>
    </defs>
    <g transform="translate(622.630625 22.115368)scale(0.1 -0.1)">
     <use xlink:href="#ArialMT-49"/>
     <use x="55.615234" xlink:href="#ArialMT-32"/>
     <use x="83.398438" xlink:href="#ArialMT-68"/>
     <use x="155.615234" xlink:href="#ArialMT-80"/>
     <use x="222.314453" xlink:href="#ArialMT-73"/>
    </g>
   </g>
   <g id="line2d_19"/>
   <g id="line2d_20">
    <defs>
     <path d="M 0 4 
C 1.060812 4 2.078319 3.578535 2.828427 2.828427 
C 3.578535 2.078319 4 1.060812 4 0 
C 4 -1.060812 3.578535 -2.078319 2.828427 -2.828427 
C 2.078319 -3.578535 1.060812 -4 0 -4 
C -1.060812 -4 -2.078319 -3.578535 -2.828427 -2.828427 
C -3.578535 -2.078319 -4 -1.060812 -4 0 
C -4 1.060812 -3.578535 2.078319 -2.828427 2.828427 
C -2.078319 3.578535 -1.060812 4 0 4 
z
" id="m3fb4b926b6" style="stroke:#c87f7f;"/>
    </defs>
    <g>
     <use style="fill-opacity:0;stroke:#c87f7f;" x="604.630625" xlink:href="#m3fb4b926b6" y="32.760681"/>
    </g>
   </g>
   <g id="text_24">
    <!-- 2 DPI -->
    <g transform="translate(622.630625 36.260681)scale(0.1 -0.1)">
     <use xlink:href="#ArialMT-50"/>
     <use x="55.615234" xlink:href="#ArialMT-32"/>
     <use x="83.398438" xlink:href="#ArialMT-68"/>
     <use x="155.615234" xlink:href="#ArialMT-80"/>
     <use x="222.314453" xlink:href="#ArialMT-73"/>
    </g>
   </g>
   <g id="line2d_21"/>
   <g id="line2d_22">
    <defs>
     <path d="M 0 4 
C 1.060812 4 2.078319 3.578535 2.828427 2.828427 
C 3.578535 2.078319 4 1.060812 4 0 
C 4 -1.060812 3.578535 -2.078319 2.828427 -2.828427 
C 2.078319 -3.578535 1.060812 -4 0 -4 
C -1.060812 -4 -2.078319 -3.578535 -2.828427 -2.828427 
C -3.578535 -2.078319 -4 -1.060812 -4 0 
C -4 1.060812 -3.578535 2.078319 -2.828427 2.828427 
C -2.078319 3.578535 -1.060812 4 0 4 
z
" id="m2c0837ea80" style="stroke:#cb997d;"/>
    </defs>
    <g>
     <use style="fill-opacity:0;stroke:#cb997d;" x="604.630625" xlink:href="#m2c0837ea80" y="46.905993"/>
    </g>
   </g>
   <g id="text_25">
    <!-- 3 DPI -->
    <defs>
     <path d="M 4.203125 18.890625 
L 12.984375 20.0625 
Q 14.5 12.59375 18.140625 9.296875 
Q 21.78125 6 27 6 
Q 33.203125 6 37.46875 10.296875 
Q 41.75 14.59375 41.75 20.953125 
Q 41.75 27 37.796875 30.921875 
Q 33.84375 34.859375 27.734375 34.859375 
Q 25.25 34.859375 21.53125 33.890625 
L 22.515625 41.609375 
Q 23.390625 41.5 23.921875 41.5 
Q 29.546875 41.5 34.03125 44.421875 
Q 38.53125 47.359375 38.53125 53.46875 
Q 38.53125 58.296875 35.25 61.46875 
Q 31.984375 64.65625 26.8125 64.65625 
Q 21.6875 64.65625 18.265625 61.421875 
Q 14.84375 58.203125 13.875 51.765625 
L 5.078125 53.328125 
Q 6.6875 62.15625 12.390625 67.015625 
Q 18.109375 71.875 26.609375 71.875 
Q 32.46875 71.875 37.390625 69.359375 
Q 42.328125 66.84375 44.9375 62.5 
Q 47.5625 58.15625 47.5625 53.265625 
Q 47.5625 48.640625 45.0625 44.828125 
Q 42.578125 41.015625 37.703125 38.765625 
Q 44.046875 37.3125 47.5625 32.6875 
Q 51.078125 28.078125 51.078125 21.140625 
Q 51.078125 11.765625 44.234375 5.25 
Q 37.40625 -1.265625 26.953125 -1.265625 
Q 17.53125 -1.265625 11.296875 4.34375 
Q 5.078125 9.96875 4.203125 18.890625 
z
" id="ArialMT-51"/>
    </defs>
    <g transform="translate(622.630625 50.405993)scale(0.1 -0.1)">
     <use xlink:href="#ArialMT-51"/>
     <use x="55.615234" xlink:href="#ArialMT-32"/>
     <use x="83.398438" xlink:href="#ArialMT-68"/>
     <use x="155.615234" xlink:href="#ArialMT-80"/>
     <use x="222.314453" xlink:href="#ArialMT-73"/>
    </g>
   </g>
   <g id="line2d_23"/>
   <g id="line2d_24">
    <defs>
     <path d="M 0 4 
C 1.060812 4 2.078319 3.578535 2.828427 2.828427 
C 3.578535 2.078319 4 1.060812 4 0 
C 4 -1.060812 3.578535 -2.078319 2.828427 -2.828427 
C 2.078319 -3.578535 1.060812 -4 0 -4 
C -1.060812 -4 -2.078319 -3.578535 -2.828427 -2.828427 
C -3.578535 -2.078319 -4 -1.060812 -4 0 
C -4 1.060812 -3.578535 2.078319 -2.828427 2.828427 
C -2.078319 3.578535 -1.060812 4 0 4 
z
" id="m329e2b6ffc" style="stroke:#ccba85;"/>
    </defs>
    <g>
     <use style="fill-opacity:0;stroke:#ccba85;" x="604.630625" xlink:href="#m329e2b6ffc" y="61.051306"/>
    </g>
   </g>
   <g id="text_26">
    <!-- 4 DPI -->
    <defs>
     <path d="M 32.328125 0 
L 32.328125 17.140625 
L 1.265625 17.140625 
L 1.265625 25.203125 
L 33.9375 71.578125 
L 41.109375 71.578125 
L 41.109375 25.203125 
L 50.78125 25.203125 
L 50.78125 17.140625 
L 41.109375 17.140625 
L 41.109375 0 
z
M 32.328125 25.203125 
L 32.328125 57.46875 
L 9.90625 25.203125 
z
" id="ArialMT-52"/>
    </defs>
    <g transform="translate(622.630625 64.551306)scale(0.1 -0.1)">
     <use xlink:href="#ArialMT-52"/>
     <use x="55.615234" xlink:href="#ArialMT-32"/>
     <use x="83.398438" xlink:href="#ArialMT-68"/>
     <use x="155.615234" xlink:href="#ArialMT-80"/>
     <use x="222.314453" xlink:href="#ArialMT-73"/>
    </g>
   </g>
   <g id="line2d_25"/>
   <g id="line2d_26">
    <defs>
     <path d="M 0 4 
C 1.060812 4 2.078319 3.578535 2.828427 2.828427 
C 3.578535 2.078319 4 1.060812 4 0 
C 4 -1.060812 3.578535 -2.078319 2.828427 -2.828427 
C 2.078319 -3.578535 1.060812 -4 0 -4 
C -1.060812 -4 -2.078319 -3.578535 -2.828427 -2.828427 
C -3.578535 -2.078319 -4 -1.060812 -4 0 
C -4 1.060812 -3.578535 2.078319 -2.828427 2.828427 
C -2.078319 3.578535 -1.060812 4 0 4 
z
" id="m988eea5982" style="stroke:#a4a58c;"/>
    </defs>
    <g>
     <use style="fill-opacity:0;stroke:#a4a58c;" x="604.630625" xlink:href="#m988eea5982" y="75.196618"/>
    </g>
   </g>
   <g id="text_27">
    <!-- 5 DPI -->
    <g transform="translate(622.630625 78.696618)scale(0.1 -0.1)">
     <use xlink:href="#ArialMT-53"/>
     <use x="55.615234" xlink:href="#ArialMT-32"/>
     <use x="83.398438" xlink:href="#ArialMT-68"/>
     <use x="155.615234" xlink:href="#ArialMT-80"/>
     <use x="222.314453" xlink:href="#ArialMT-73"/>
    </g>
   </g>
   <g id="line2d_27"/>
   <g id="line2d_28">
    <defs>
     <path d="M 0 4 
C 1.060812 4 2.078319 3.578535 2.828427 2.828427 
C 3.578535 2.078319 4 1.060812 4 0 
C 4 -1.060812 3.578535 -2.078319 2.828427 -2.828427 
C 2.078319 -3.578535 1.060812 -4 0 -4 
C -1.060812 -4 -2.078319 -3.578535 -2.828427 -2.828427 
C -3.578535 -2.078319 -4 -1.060812 -4 0 
C -4 1.060812 -3.578535 2.078319 -2.828427 2.828427 
C -2.078319 3.578535 -1.060812 4 0 4 
z
" id="ma57a882047" style="stroke:#8da395;"/>
    </defs>
    <g>
     <use style="fill-opacity:0;stroke:#8da395;" x="604.630625" xlink:href="#ma57a882047" y="89.341931"/>
    </g>
   </g>
   <g id="text_28">
    <!-- 6 DPI -->
    <defs>
     <path d="M 49.75 54.046875 
L 41.015625 53.375 
Q 39.84375 58.546875 37.703125 60.890625 
Q 34.125 64.65625 28.90625 64.65625 
Q 24.703125 64.65625 21.53125 62.3125 
Q 17.390625 59.28125 14.984375 53.46875 
Q 12.59375 47.65625 12.5 36.921875 
Q 15.671875 41.75 20.265625 44.09375 
Q 24.859375 46.4375 29.890625 46.4375 
Q 38.671875 46.4375 44.84375 39.96875 
Q 51.03125 33.5 51.03125 23.25 
Q 51.03125 16.5 48.125 10.71875 
Q 45.21875 4.9375 40.140625 1.859375 
Q 35.0625 -1.21875 28.609375 -1.21875 
Q 17.625 -1.21875 10.6875 6.859375 
Q 3.765625 14.9375 3.765625 33.5 
Q 3.765625 54.25 11.421875 63.671875 
Q 18.109375 71.875 29.4375 71.875 
Q 37.890625 71.875 43.28125 67.140625 
Q 48.6875 62.40625 49.75 54.046875 
z
M 13.875 23.1875 
Q 13.875 18.65625 15.796875 14.5 
Q 17.71875 10.359375 21.1875 8.171875 
Q 24.65625 6 28.46875 6 
Q 34.03125 6 38.03125 10.484375 
Q 42.046875 14.984375 42.046875 22.703125 
Q 42.046875 30.125 38.078125 34.390625 
Q 34.125 38.671875 28.125 38.671875 
Q 22.171875 38.671875 18.015625 34.390625 
Q 13.875 30.125 13.875 23.1875 
z
" id="ArialMT-54"/>
    </defs>
    <g transform="translate(622.630625 92.841931)scale(0.1 -0.1)">
     <use xlink:href="#ArialMT-54"/>
     <use x="55.615234" xlink:href="#ArialMT-32"/>
     <use x="83.398438" xlink:href="#ArialMT-68"/>
     <use x="155.615234" xlink:href="#ArialMT-80"/>
     <use x="222.314453" xlink:href="#ArialMT-73"/>
    </g>
   </g>
   <g id="line2d_29"/>
   <g id="line2d_30">
    <defs>
     <path d="M 0 4 
C 1.060812 4 2.078319 3.578535 2.828427 2.828427 
C 3.578535 2.078319 4 1.060812 4 0 
C 4 -1.060812 3.578535 -2.078319 2.828427 -2.828427 
C 2.078319 -3.578535 1.060812 -4 0 -4 
C -1.060812 -4 -2.078319 -3.578535 -2.828427 -2.828427 
C -3.578535 -2.078319 -4 -1.060812 -4 0 
C -4 1.060812 -3.578535 2.078319 -2.828427 2.828427 
C -2.078319 3.578535 -1.060812 4 0 4 
z
" id="md942928386" style="stroke:#8b9aa0;"/>
    </defs>
    <g>
     <use style="fill-opacity:0;stroke:#8b9aa0;" x="604.630625" xlink:href="#md942928386" y="103.487243"/>
    </g>
   </g>
   <g id="text_29">
    <!-- 7 DPI -->
    <g transform="translate(622.630625 106.987243)scale(0.1 -0.1)">
     <use xlink:href="#ArialMT-55"/>
     <use x="55.615234" xlink:href="#ArialMT-32"/>
     <use x="83.398438" xlink:href="#ArialMT-68"/>
     <use x="155.615234" xlink:href="#ArialMT-80"/>
     <use x="222.314453" xlink:href="#ArialMT-73"/>
    </g>
   </g>
   <g id="line2d_31"/>
   <g id="line2d_32">
    <defs>
     <path d="M 0 4 
C 1.060812 4 2.078319 3.578535 2.828427 2.828427 
C 3.578535 2.078319 4 1.060812 4 0 
C 4 -1.060812 3.578535 -2.078319 2.828427 -2.828427 
C 2.078319 -3.578535 1.060812 -4 0 -4 
C -1.060812 -4 -2.078319 -3.578535 -2.828427 -2.828427 
C -3.578535 -2.078319 -4 -1.060812 -4 0 
C -4 1.060812 -3.578535 2.078319 -2.828427 2.828427 
C -2.078319 3.578535 -1.060812 4 0 4 
z
" id="m5b5010efab" style="stroke:#59667c;"/>
    </defs>
    <g>
     <use style="fill-opacity:0;stroke:#59667c;" x="604.630625" xlink:href="#m5b5010efab" y="117.632556"/>
    </g>
   </g>
   <g id="text_30">
    <!-- 8 DPI -->
    <defs>
     <path d="M 17.671875 38.8125 
Q 12.203125 40.828125 9.5625 44.53125 
Q 6.9375 48.25 6.9375 53.421875 
Q 6.9375 61.234375 12.546875 66.546875 
Q 18.171875 71.875 27.484375 71.875 
Q 36.859375 71.875 42.578125 66.421875 
Q 48.296875 60.984375 48.296875 53.171875 
Q 48.296875 48.1875 45.671875 44.5 
Q 43.0625 40.828125 37.75 38.8125 
Q 44.34375 36.671875 47.78125 31.875 
Q 51.21875 27.09375 51.21875 20.453125 
Q 51.21875 11.28125 44.71875 5.03125 
Q 38.234375 -1.21875 27.640625 -1.21875 
Q 17.046875 -1.21875 10.546875 5.046875 
Q 4.046875 11.328125 4.046875 20.703125 
Q 4.046875 27.6875 7.59375 32.390625 
Q 11.140625 37.109375 17.671875 38.8125 
z
M 15.921875 53.71875 
Q 15.921875 48.640625 19.1875 45.40625 
Q 22.46875 42.1875 27.6875 42.1875 
Q 32.765625 42.1875 36.015625 45.375 
Q 39.265625 48.578125 39.265625 53.21875 
Q 39.265625 58.0625 35.90625 61.359375 
Q 32.5625 64.65625 27.59375 64.65625 
Q 22.5625 64.65625 19.234375 61.421875 
Q 15.921875 58.203125 15.921875 53.71875 
z
M 13.09375 20.65625 
Q 13.09375 16.890625 14.875 13.375 
Q 16.65625 9.859375 20.171875 7.921875 
Q 23.6875 6 27.734375 6 
Q 34.03125 6 38.125 10.046875 
Q 42.234375 14.109375 42.234375 20.359375 
Q 42.234375 26.703125 38.015625 30.859375 
Q 33.796875 35.015625 27.4375 35.015625 
Q 21.234375 35.015625 17.15625 30.90625 
Q 13.09375 26.8125 13.09375 20.65625 
z
" id="ArialMT-56"/>
    </defs>
    <g transform="translate(622.630625 121.132556)scale(0.1 -0.1)">
     <use xlink:href="#ArialMT-56"/>
     <use x="55.615234" xlink:href="#ArialMT-32"/>
     <use x="83.398438" xlink:href="#ArialMT-68"/>
     <use x="155.615234" xlink:href="#ArialMT-80"/>
     <use x="222.314453" xlink:href="#ArialMT-73"/>
    </g>
   </g>
  </g>
 </g>
 <defs>
  <clipPath id="pe582935ee8">
   <rect height="242.381986" width="242.381986" x="47.045313" y="23.220937"/>
  </clipPath>
  <clipPath id="p2db899ef41">
   <rect height="242.381986" width="242.381986" x="326.73189" y="23.220937"/>
  </clipPath>
 </defs>
</svg>
