<?xml version="1.0" encoding="utf-8" standalone="no"?>
<!DOCTYPE svg PUBLIC "-//W3C//DTD SVG 1.1//EN"
  "http://www.w3.org/Graphics/SVG/1.1/DTD/svg11.dtd">
<!-- Created with matplotlib (https://matplotlib.org/) -->
<svg height="319.216095pt" version="1.1" viewBox="0 0 857.724062 319.216095" width="857.724062pt" xmlns="http://www.w3.org/2000/svg" xmlns:xlink="http://www.w3.org/1999/xlink">
 <defs>
  <style type="text/css">
*{stroke-linecap:butt;stroke-linejoin:round;}
  </style>
 </defs>
 <g id="figure_1">
  <g id="patch_1">
   <path d="M 0 319.216095 
L 857.724062 319.216095 
L 857.724062 0 
L 0 0 
z
" style="fill:#ffffff;"/>
  </g>
  <g id="axes_1">
   <g id="patch_2">
    <path d="M 50.634063 261.84347 
L 420.424062 261.84347 
L 420.424062 23.220937 
L 50.634063 23.220937 
z
" style="fill:#ffffff;"/>
   </g>
   <g id="patch_3">
    <path clip-path="url(#p6e5a7d2129)" d="M 67.75397 261.84347 
L 129.385637 261.84347 
L 129.385637 215.610354 
L 67.75397 215.610354 
z
" style="fill:#a5628d;opacity:0.8;"/>
   </g>
   <g id="patch_4">
    <path clip-path="url(#p6e5a7d2129)" d="M 136.2336 261.84347 
L 197.865266 261.84347 
L 197.865266 206.662009 
L 136.2336 206.662009 
z
" style="fill:#a5628d;opacity:0.8;"/>
   </g>
   <g id="patch_5">
    <path clip-path="url(#p6e5a7d2129)" d="M 204.713229 261.84347 
L 266.344896 261.84347 
L 266.344896 226.05009 
L 204.713229 226.05009 
z
" style="fill:#a5628d;opacity:0.8;"/>
   </g>
   <g id="patch_6">
    <path clip-path="url(#p6e5a7d2129)" d="M 273.192859 261.84347 
L 334.824525 261.84347 
L 334.824525 254.386516 
L 273.192859 254.386516 
z
" style="fill:#a5628d;opacity:0.8;"/>
   </g>
   <g id="patch_7">
    <path clip-path="url(#p6e5a7d2129)" d="M 341.672488 261.84347 
L 403.304155 261.84347 
L 403.304155 240.963998 
L 341.672488 240.963998 
z
" style="fill:#a5628d;opacity:0.8;"/>
   </g>
   <g id="patch_8">
    <path clip-path="url(#p6e5a7d2129)" d="M 67.75397 261.84347 
L 129.385637 261.84347 
L 129.385637 159.727189 
L 67.75397 159.727189 
z
" style="fill:#d3d3d3;opacity:0.5;"/>
   </g>
   <g id="patch_9">
    <path clip-path="url(#p6e5a7d2129)" d="M 136.2336 261.84347 
L 197.865266 261.84347 
L 197.865266 203.053427 
L 136.2336 203.053427 
z
" style="fill:#d3d3d3;opacity:0.5;"/>
   </g>
   <g id="patch_10">
    <path clip-path="url(#p6e5a7d2129)" d="M 204.713229 261.84347 
L 266.344896 261.84347 
L 266.344896 227.4535 
L 204.713229 227.4535 
z
" style="fill:#d3d3d3;opacity:0.5;"/>
   </g>
   <g id="patch_11">
    <path clip-path="url(#p6e5a7d2129)" d="M 273.192859 261.84347 
L 334.824525 261.84347 
L 334.824525 237.443398 
L 273.192859 237.443398 
z
" style="fill:#d3d3d3;opacity:0.5;"/>
   </g>
   <g id="patch_12">
    <path clip-path="url(#p6e5a7d2129)" d="M 341.672488 261.84347 
L 403.304155 261.84347 
L 403.304155 242.917304 
L 341.672488 242.917304 
z
" style="fill:#d3d3d3;opacity:0.5;"/>
   </g>
   <g id="matplotlib.axis_1">
    <g id="xtick_1">
     <g id="line2d_1">
      <defs>
       <path d="M 0 0 
L 0 3.5 
" id="md00a0b9b04" style="stroke:#000000;stroke-width:0.8;"/>
      </defs>
      <g>
       <use style="stroke:#000000;stroke-width:0.8;" x="98.569803" xlink:href="#md00a0b9b04" y="261.84347"/>
      </g>
     </g>
     <g id="text_1">
      <!-- 3-10% -->
      <defs>
       <path d="M 4.203125 18.890625 
L 12.984375 20.0625 
Q 14.5 12.59375 18.140625 9.296875 
Q 21.78125 6 27 6 
Q 33.203125 6 37.46875 10.296875 
Q 41.75 14.59375 41.75 20.953125 
Q 41.75 27 37.796875 30.921875 
Q 33.84375 34.859375 27.734375 34.859375 
Q 25.25 34.859375 21.53125 33.890625 
L 22.515625 41.609375 
Q 23.390625 41.5 23.921875 41.5 
Q 29.546875 41.5 34.03125 44.421875 
Q 38.53125 47.359375 38.53125 53.46875 
Q 38.53125 58.296875 35.25 61.46875 
Q 31.984375 64.65625 26.8125 64.65625 
Q 21.6875 64.65625 18.265625 61.421875 
Q 14.84375 58.203125 13.875 51.765625 
L 5.078125 53.328125 
Q 6.6875 62.15625 12.390625 67.015625 
Q 18.109375 71.875 26.609375 71.875 
Q 32.46875 71.875 37.390625 69.359375 
Q 42.328125 66.84375 44.9375 62.5 
Q 47.5625 58.15625 47.5625 53.265625 
Q 47.5625 48.640625 45.0625 44.828125 
Q 42.578125 41.015625 37.703125 38.765625 
Q 44.046875 37.3125 47.5625 32.6875 
Q 51.078125 28.078125 51.078125 21.140625 
Q 51.078125 11.765625 44.234375 5.25 
Q 37.40625 -1.265625 26.953125 -1.265625 
Q 17.53125 -1.265625 11.296875 4.34375 
Q 5.078125 9.96875 4.203125 18.890625 
z
" id="ArialMT-51"/>
       <path d="M 3.171875 21.484375 
L 3.171875 30.328125 
L 30.171875 30.328125 
L 30.171875 21.484375 
z
" id="ArialMT-45"/>
       <path d="M 37.25 0 
L 28.46875 0 
L 28.46875 56 
Q 25.296875 52.984375 20.140625 49.953125 
Q 14.984375 46.921875 10.890625 45.40625 
L 10.890625 53.90625 
Q 18.265625 57.375 23.78125 62.296875 
Q 29.296875 67.234375 31.59375 71.875 
L 37.25 71.875 
z
" id="ArialMT-49"/>
       <path d="M 4.15625 35.296875 
Q 4.15625 48 6.765625 55.734375 
Q 9.375 63.484375 14.515625 67.671875 
Q 19.671875 71.875 27.484375 71.875 
Q 33.25 71.875 37.59375 69.546875 
Q 41.9375 67.234375 44.765625 62.859375 
Q 47.609375 58.5 49.21875 52.21875 
Q 50.828125 45.953125 50.828125 35.296875 
Q 50.828125 22.703125 48.234375 14.96875 
Q 45.65625 7.234375 40.5 3 
Q 35.359375 -1.21875 27.484375 -1.21875 
Q 17.140625 -1.21875 11.234375 6.203125 
Q 4.15625 15.140625 4.15625 35.296875 
z
M 13.1875 35.296875 
Q 13.1875 17.671875 17.3125 11.828125 
Q 21.4375 6 27.484375 6 
Q 33.546875 6 37.671875 11.859375 
Q 41.796875 17.71875 41.796875 35.296875 
Q 41.796875 52.984375 37.671875 58.78125 
Q 33.546875 64.59375 27.390625 64.59375 
Q 21.34375 64.59375 17.71875 59.46875 
Q 13.1875 52.9375 13.1875 35.296875 
z
" id="ArialMT-48"/>
       <path d="M 5.8125 54.390625 
Q 5.8125 62.0625 9.671875 67.421875 
Q 13.53125 72.796875 20.84375 72.796875 
Q 27.59375 72.796875 32 67.984375 
Q 36.421875 63.1875 36.421875 53.859375 
Q 36.421875 44.78125 31.953125 39.875 
Q 27.484375 34.96875 20.953125 34.96875 
Q 14.453125 34.96875 10.125 39.796875 
Q 5.8125 44.625 5.8125 54.390625 
z
M 21.09375 66.75 
Q 17.828125 66.75 15.65625 63.90625 
Q 13.484375 61.078125 13.484375 53.515625 
Q 13.484375 46.625 15.671875 43.8125 
Q 17.875 41.015625 21.09375 41.015625 
Q 24.421875 41.015625 26.59375 43.84375 
Q 28.765625 46.6875 28.765625 54.203125 
Q 28.765625 61.140625 26.5625 63.9375 
Q 24.359375 66.75 21.09375 66.75 
z
M 21.140625 -2.640625 
L 60.296875 72.796875 
L 67.4375 72.796875 
L 28.421875 -2.640625 
z
M 52.09375 16.796875 
Q 52.09375 24.515625 55.953125 29.859375 
Q 59.8125 35.203125 67.1875 35.203125 
Q 73.921875 35.203125 78.34375 30.390625 
Q 82.765625 25.59375 82.765625 16.265625 
Q 82.765625 7.171875 78.296875 2.265625 
Q 73.828125 -2.640625 67.234375 -2.640625 
Q 60.75 -2.640625 56.421875 2.21875 
Q 52.09375 7.078125 52.09375 16.796875 
z
M 67.4375 29.15625 
Q 64.109375 29.15625 61.9375 26.3125 
Q 59.765625 23.484375 59.765625 15.921875 
Q 59.765625 9.078125 61.953125 6.25 
Q 64.15625 3.421875 67.390625 3.421875 
Q 70.75 3.421875 72.921875 6.25 
Q 75.09375 9.078125 75.09375 16.609375 
Q 75.09375 23.53125 72.890625 26.34375 
Q 70.703125 29.15625 67.4375 29.15625 
z
" id="ArialMT-37"/>
      </defs>
      <g transform="translate(86.821887 304.543524)rotate(-45)scale(0.14 -0.14)">
       <use xlink:href="#ArialMT-51"/>
       <use x="55.615234" xlink:href="#ArialMT-45"/>
       <use x="88.916016" xlink:href="#ArialMT-49"/>
       <use x="144.53125" xlink:href="#ArialMT-48"/>
       <use x="200.146484" xlink:href="#ArialMT-37"/>
      </g>
     </g>
    </g>
    <g id="xtick_2">
     <g id="line2d_2">
      <g>
       <use style="stroke:#000000;stroke-width:0.8;" x="167.049433" xlink:href="#md00a0b9b04" y="261.84347"/>
      </g>
     </g>
     <g id="text_2">
      <!-- 10-20% -->
      <defs>
       <path d="M 50.34375 8.453125 
L 50.34375 0 
L 3.03125 0 
Q 2.9375 3.171875 4.046875 6.109375 
Q 5.859375 10.9375 9.828125 15.625 
Q 13.8125 20.3125 21.34375 26.46875 
Q 33.015625 36.03125 37.109375 41.625 
Q 41.21875 47.21875 41.21875 52.203125 
Q 41.21875 57.421875 37.46875 61 
Q 33.734375 64.59375 27.734375 64.59375 
Q 21.390625 64.59375 17.578125 60.78125 
Q 13.765625 56.984375 13.71875 50.25 
L 4.6875 51.171875 
Q 5.609375 61.28125 11.65625 66.578125 
Q 17.71875 71.875 27.9375 71.875 
Q 38.234375 71.875 44.234375 66.15625 
Q 50.25 60.453125 50.25 52 
Q 50.25 47.703125 48.484375 43.546875 
Q 46.734375 39.40625 42.65625 34.8125 
Q 38.578125 30.21875 29.109375 22.21875 
Q 21.1875 15.578125 18.9375 13.203125 
Q 16.703125 10.84375 15.234375 8.453125 
z
" id="ArialMT-50"/>
      </defs>
      <g transform="translate(152.548993 310.048571)rotate(-45)scale(0.14 -0.14)">
       <use xlink:href="#ArialMT-49"/>
       <use x="55.615234" xlink:href="#ArialMT-48"/>
       <use x="111.230469" xlink:href="#ArialMT-45"/>
       <use x="144.53125" xlink:href="#ArialMT-50"/>
       <use x="200.146484" xlink:href="#ArialMT-48"/>
       <use x="255.761719" xlink:href="#ArialMT-37"/>
      </g>
     </g>
    </g>
    <g id="xtick_3">
     <g id="line2d_3">
      <g>
       <use style="stroke:#000000;stroke-width:0.8;" x="235.529062" xlink:href="#md00a0b9b04" y="261.84347"/>
      </g>
     </g>
     <g id="text_3">
      <!-- 20-30% -->
      <g transform="translate(221.028623 310.048571)rotate(-45)scale(0.14 -0.14)">
       <use xlink:href="#ArialMT-50"/>
       <use x="55.615234" xlink:href="#ArialMT-48"/>
       <use x="111.230469" xlink:href="#ArialMT-45"/>
       <use x="144.53125" xlink:href="#ArialMT-51"/>
       <use x="200.146484" xlink:href="#ArialMT-48"/>
       <use x="255.761719" xlink:href="#ArialMT-37"/>
      </g>
     </g>
    </g>
    <g id="xtick_4">
     <g id="line2d_4">
      <g>
       <use style="stroke:#000000;stroke-width:0.8;" x="304.008692" xlink:href="#md00a0b9b04" y="261.84347"/>
      </g>
     </g>
     <g id="text_4">
      <!-- 30-40% -->
      <defs>
       <path d="M 32.328125 0 
L 32.328125 17.140625 
L 1.265625 17.140625 
L 1.265625 25.203125 
L 33.9375 71.578125 
L 41.109375 71.578125 
L 41.109375 25.203125 
L 50.78125 25.203125 
L 50.78125 17.140625 
L 41.109375 17.140625 
L 41.109375 0 
z
M 32.328125 25.203125 
L 32.328125 57.46875 
L 9.90625 25.203125 
z
" id="ArialMT-52"/>
      </defs>
      <g transform="translate(289.508252 310.048571)rotate(-45)scale(0.14 -0.14)">
       <use xlink:href="#ArialMT-51"/>
       <use x="55.615234" xlink:href="#ArialMT-48"/>
       <use x="111.230469" xlink:href="#ArialMT-45"/>
       <use x="144.53125" xlink:href="#ArialMT-52"/>
       <use x="200.146484" xlink:href="#ArialMT-48"/>
       <use x="255.761719" xlink:href="#ArialMT-37"/>
      </g>
     </g>
    </g>
    <g id="xtick_5">
     <g id="line2d_5">
      <g>
       <use style="stroke:#000000;stroke-width:0.8;" x="372.488322" xlink:href="#md00a0b9b04" y="261.84347"/>
      </g>
     </g>
     <g id="text_5">
      <!-- 40-50% -->
      <defs>
       <path d="M 4.15625 18.75 
L 13.375 19.53125 
Q 14.40625 12.796875 18.140625 9.390625 
Q 21.875 6 27.15625 6 
Q 33.5 6 37.890625 10.78125 
Q 42.28125 15.578125 42.28125 23.484375 
Q 42.28125 31 38.0625 35.34375 
Q 33.84375 39.703125 27 39.703125 
Q 22.75 39.703125 19.328125 37.765625 
Q 15.921875 35.84375 13.96875 32.765625 
L 5.71875 33.84375 
L 12.640625 70.609375 
L 48.25 70.609375 
L 48.25 62.203125 
L 19.671875 62.203125 
L 15.828125 42.96875 
Q 22.265625 47.46875 29.34375 47.46875 
Q 38.71875 47.46875 45.15625 40.96875 
Q 51.609375 34.46875 51.609375 24.265625 
Q 51.609375 14.546875 45.953125 7.46875 
Q 39.0625 -1.21875 27.15625 -1.21875 
Q 17.390625 -1.21875 11.203125 4.25 
Q 5.03125 9.71875 4.15625 18.75 
z
" id="ArialMT-53"/>
      </defs>
      <g transform="translate(357.987882 310.048571)rotate(-45)scale(0.14 -0.14)">
       <use xlink:href="#ArialMT-52"/>
       <use x="55.615234" xlink:href="#ArialMT-48"/>
       <use x="111.230469" xlink:href="#ArialMT-45"/>
       <use x="144.53125" xlink:href="#ArialMT-53"/>
       <use x="200.146484" xlink:href="#ArialMT-48"/>
       <use x="255.761719" xlink:href="#ArialMT-37"/>
      </g>
     </g>
    </g>
   </g>
   <g id="matplotlib.axis_2">
    <g id="ytick_1">
     <g id="line2d_6">
      <defs>
       <path d="M 0 0 
L -3.5 0 
" id="ma86727b142" style="stroke:#000000;stroke-width:0.8;"/>
      </defs>
      <g>
       <use style="stroke:#000000;stroke-width:0.8;" x="50.634063" xlink:href="#ma86727b142" y="261.84347"/>
      </g>
     </g>
     <g id="text_6">
      <!-- 0.0 -->
      <defs>
       <path d="M 9.078125 0 
L 9.078125 10.015625 
L 19.09375 10.015625 
L 19.09375 0 
z
" id="ArialMT-46"/>
      </defs>
      <g transform="translate(24.174063 266.853939)scale(0.14 -0.14)">
       <use xlink:href="#ArialMT-48"/>
       <use x="55.615234" xlink:href="#ArialMT-46"/>
       <use x="83.398438" xlink:href="#ArialMT-48"/>
      </g>
     </g>
    </g>
    <g id="ytick_2">
     <g id="line2d_7">
      <g>
       <use style="stroke:#000000;stroke-width:0.8;" x="50.634063" xlink:href="#ma86727b142" y="214.118963"/>
      </g>
     </g>
     <g id="text_7">
      <!-- 0.2 -->
      <g transform="translate(24.174063 219.129432)scale(0.14 -0.14)">
       <use xlink:href="#ArialMT-48"/>
       <use x="55.615234" xlink:href="#ArialMT-46"/>
       <use x="83.398438" xlink:href="#ArialMT-50"/>
      </g>
     </g>
    </g>
    <g id="ytick_3">
     <g id="line2d_8">
      <g>
       <use style="stroke:#000000;stroke-width:0.8;" x="50.634063" xlink:href="#ma86727b142" y="166.394457"/>
      </g>
     </g>
     <g id="text_8">
      <!-- 0.4 -->
      <g transform="translate(24.174063 171.404926)scale(0.14 -0.14)">
       <use xlink:href="#ArialMT-48"/>
       <use x="55.615234" xlink:href="#ArialMT-46"/>
       <use x="83.398438" xlink:href="#ArialMT-52"/>
      </g>
     </g>
    </g>
    <g id="ytick_4">
     <g id="line2d_9">
      <g>
       <use style="stroke:#000000;stroke-width:0.8;" x="50.634063" xlink:href="#ma86727b142" y="118.66995"/>
      </g>
     </g>
     <g id="text_9">
      <!-- 0.6 -->
      <defs>
       <path d="M 49.75 54.046875 
L 41.015625 53.375 
Q 39.84375 58.546875 37.703125 60.890625 
Q 34.125 64.65625 28.90625 64.65625 
Q 24.703125 64.65625 21.53125 62.3125 
Q 17.390625 59.28125 14.984375 53.46875 
Q 12.59375 47.65625 12.5 36.921875 
Q 15.671875 41.75 20.265625 44.09375 
Q 24.859375 46.4375 29.890625 46.4375 
Q 38.671875 46.4375 44.84375 39.96875 
Q 51.03125 33.5 51.03125 23.25 
Q 51.03125 16.5 48.125 10.71875 
Q 45.21875 4.9375 40.140625 1.859375 
Q 35.0625 -1.21875 28.609375 -1.21875 
Q 17.625 -1.21875 10.6875 6.859375 
Q 3.765625 14.9375 3.765625 33.5 
Q 3.765625 54.25 11.421875 63.671875 
Q 18.109375 71.875 29.4375 71.875 
Q 37.890625 71.875 43.28125 67.140625 
Q 48.6875 62.40625 49.75 54.046875 
z
M 13.875 23.1875 
Q 13.875 18.65625 15.796875 14.5 
Q 17.71875 10.359375 21.1875 8.171875 
Q 24.65625 6 28.46875 6 
Q 34.03125 6 38.03125 10.484375 
Q 42.046875 14.984375 42.046875 22.703125 
Q 42.046875 30.125 38.078125 34.390625 
Q 34.125 38.671875 28.125 38.671875 
Q 22.171875 38.671875 18.015625 34.390625 
Q 13.875 30.125 13.875 23.1875 
z
" id="ArialMT-54"/>
      </defs>
      <g transform="translate(24.174063 123.680419)scale(0.14 -0.14)">
       <use xlink:href="#ArialMT-48"/>
       <use x="55.615234" xlink:href="#ArialMT-46"/>
       <use x="83.398438" xlink:href="#ArialMT-54"/>
      </g>
     </g>
    </g>
    <g id="ytick_5">
     <g id="line2d_10">
      <g>
       <use style="stroke:#000000;stroke-width:0.8;" x="50.634063" xlink:href="#ma86727b142" y="70.945444"/>
      </g>
     </g>
     <g id="text_10">
      <!-- 0.8 -->
      <defs>
       <path d="M 17.671875 38.8125 
Q 12.203125 40.828125 9.5625 44.53125 
Q 6.9375 48.25 6.9375 53.421875 
Q 6.9375 61.234375 12.546875 66.546875 
Q 18.171875 71.875 27.484375 71.875 
Q 36.859375 71.875 42.578125 66.421875 
Q 48.296875 60.984375 48.296875 53.171875 
Q 48.296875 48.1875 45.671875 44.5 
Q 43.0625 40.828125 37.75 38.8125 
Q 44.34375 36.671875 47.78125 31.875 
Q 51.21875 27.09375 51.21875 20.453125 
Q 51.21875 11.28125 44.71875 5.03125 
Q 38.234375 -1.21875 27.640625 -1.21875 
Q 17.046875 -1.21875 10.546875 5.046875 
Q 4.046875 11.328125 4.046875 20.703125 
Q 4.046875 27.6875 7.59375 32.390625 
Q 11.140625 37.109375 17.671875 38.8125 
z
M 15.921875 53.71875 
Q 15.921875 48.640625 19.1875 45.40625 
Q 22.46875 42.1875 27.6875 42.1875 
Q 32.765625 42.1875 36.015625 45.375 
Q 39.265625 48.578125 39.265625 53.21875 
Q 39.265625 58.0625 35.90625 61.359375 
Q 32.5625 64.65625 27.59375 64.65625 
Q 22.5625 64.65625 19.234375 61.421875 
Q 15.921875 58.203125 15.921875 53.71875 
z
M 13.09375 20.65625 
Q 13.09375 16.890625 14.875 13.375 
Q 16.65625 9.859375 20.171875 7.921875 
Q 23.6875 6 27.734375 6 
Q 34.03125 6 38.125 10.046875 
Q 42.234375 14.109375 42.234375 20.359375 
Q 42.234375 26.703125 38.015625 30.859375 
Q 33.796875 35.015625 27.4375 35.015625 
Q 21.234375 35.015625 17.15625 30.90625 
Q 13.09375 26.8125 13.09375 20.65625 
z
" id="ArialMT-56"/>
      </defs>
      <g transform="translate(24.174063 75.955913)scale(0.14 -0.14)">
       <use xlink:href="#ArialMT-48"/>
       <use x="55.615234" xlink:href="#ArialMT-46"/>
       <use x="83.398438" xlink:href="#ArialMT-56"/>
      </g>
     </g>
    </g>
    <g id="ytick_6">
     <g id="line2d_11">
      <g>
       <use style="stroke:#000000;stroke-width:0.8;" x="50.634063" xlink:href="#ma86727b142" y="23.220937"/>
      </g>
     </g>
     <g id="text_11">
      <!-- 1.0 -->
      <g transform="translate(24.174063 28.231406)scale(0.14 -0.14)">
       <use xlink:href="#ArialMT-49"/>
       <use x="55.615234" xlink:href="#ArialMT-46"/>
       <use x="83.398438" xlink:href="#ArialMT-48"/>
      </g>
     </g>
    </g>
    <g id="text_12">
     <!-- proportion of SNVs -->
     <defs>
      <path d="M 6.59375 -19.875 
L 6.59375 51.859375 
L 14.59375 51.859375 
L 14.59375 45.125 
Q 17.4375 49.078125 21 51.046875 
Q 24.5625 53.03125 29.640625 53.03125 
Q 36.28125 53.03125 41.359375 49.609375 
Q 46.4375 46.1875 49.015625 39.953125 
Q 51.609375 33.734375 51.609375 26.3125 
Q 51.609375 18.359375 48.75 11.984375 
Q 45.90625 5.609375 40.453125 2.21875 
Q 35.015625 -1.171875 29 -1.171875 
Q 24.609375 -1.171875 21.109375 0.6875 
Q 17.625 2.546875 15.375 5.375 
L 15.375 -19.875 
z
M 14.546875 25.640625 
Q 14.546875 15.625 18.59375 10.84375 
Q 22.65625 6.0625 28.421875 6.0625 
Q 34.28125 6.0625 38.453125 11.015625 
Q 42.625 15.96875 42.625 26.375 
Q 42.625 36.28125 38.546875 41.203125 
Q 34.46875 46.140625 28.8125 46.140625 
Q 23.1875 46.140625 18.859375 40.890625 
Q 14.546875 35.640625 14.546875 25.640625 
z
" id="ArialMT-112"/>
      <path d="M 6.5 0 
L 6.5 51.859375 
L 14.40625 51.859375 
L 14.40625 44 
Q 17.4375 49.515625 20 51.265625 
Q 22.5625 53.03125 25.640625 53.03125 
Q 30.078125 53.03125 34.671875 50.203125 
L 31.640625 42.046875 
Q 28.421875 43.953125 25.203125 43.953125 
Q 22.3125 43.953125 20.015625 42.21875 
Q 17.71875 40.484375 16.75 37.40625 
Q 15.28125 32.71875 15.28125 27.15625 
L 15.28125 0 
z
" id="ArialMT-114"/>
      <path d="M 3.328125 25.921875 
Q 3.328125 40.328125 11.328125 47.265625 
Q 18.015625 53.03125 27.640625 53.03125 
Q 38.328125 53.03125 45.109375 46.015625 
Q 51.90625 39.015625 51.90625 26.65625 
Q 51.90625 16.65625 48.90625 10.90625 
Q 45.90625 5.171875 40.15625 2 
Q 34.421875 -1.171875 27.640625 -1.171875 
Q 16.75 -1.171875 10.03125 5.8125 
Q 3.328125 12.796875 3.328125 25.921875 
z
M 12.359375 25.921875 
Q 12.359375 15.96875 16.703125 11.015625 
Q 21.046875 6.0625 27.640625 6.0625 
Q 34.1875 6.0625 38.53125 11.03125 
Q 42.875 16.015625 42.875 26.21875 
Q 42.875 35.84375 38.5 40.796875 
Q 34.125 45.75 27.640625 45.75 
Q 21.046875 45.75 16.703125 40.8125 
Q 12.359375 35.890625 12.359375 25.921875 
z
" id="ArialMT-111"/>
      <path d="M 25.78125 7.859375 
L 27.046875 0.09375 
Q 23.34375 -0.6875 20.40625 -0.6875 
Q 15.625 -0.6875 12.984375 0.828125 
Q 10.359375 2.34375 9.28125 4.8125 
Q 8.203125 7.28125 8.203125 15.1875 
L 8.203125 45.015625 
L 1.765625 45.015625 
L 1.765625 51.859375 
L 8.203125 51.859375 
L 8.203125 64.703125 
L 16.9375 69.96875 
L 16.9375 51.859375 
L 25.78125 51.859375 
L 25.78125 45.015625 
L 16.9375 45.015625 
L 16.9375 14.703125 
Q 16.9375 10.9375 17.40625 9.859375 
Q 17.875 8.796875 18.921875 8.15625 
Q 19.96875 7.515625 21.921875 7.515625 
Q 23.390625 7.515625 25.78125 7.859375 
z
" id="ArialMT-116"/>
      <path d="M 6.640625 61.46875 
L 6.640625 71.578125 
L 15.4375 71.578125 
L 15.4375 61.46875 
z
M 6.640625 0 
L 6.640625 51.859375 
L 15.4375 51.859375 
L 15.4375 0 
z
" id="ArialMT-105"/>
      <path d="M 6.59375 0 
L 6.59375 51.859375 
L 14.5 51.859375 
L 14.5 44.484375 
Q 20.21875 53.03125 31 53.03125 
Q 35.6875 53.03125 39.625 51.34375 
Q 43.5625 49.65625 45.515625 46.921875 
Q 47.46875 44.1875 48.25 40.4375 
Q 48.734375 37.984375 48.734375 31.890625 
L 48.734375 0 
L 39.9375 0 
L 39.9375 31.546875 
Q 39.9375 36.921875 38.90625 39.578125 
Q 37.890625 42.234375 35.28125 43.8125 
Q 32.671875 45.40625 29.15625 45.40625 
Q 23.53125 45.40625 19.453125 41.84375 
Q 15.375 38.28125 15.375 28.328125 
L 15.375 0 
z
" id="ArialMT-110"/>
      <path id="ArialMT-32"/>
      <path d="M 8.6875 0 
L 8.6875 45.015625 
L 0.921875 45.015625 
L 0.921875 51.859375 
L 8.6875 51.859375 
L 8.6875 57.375 
Q 8.6875 62.59375 9.625 65.140625 
Q 10.890625 68.5625 14.078125 70.671875 
Q 17.28125 72.796875 23.046875 72.796875 
Q 26.765625 72.796875 31.25 71.921875 
L 29.9375 64.265625 
Q 27.203125 64.75 24.75 64.75 
Q 20.75 64.75 19.09375 63.03125 
Q 17.4375 61.328125 17.4375 56.640625 
L 17.4375 51.859375 
L 27.546875 51.859375 
L 27.546875 45.015625 
L 17.4375 45.015625 
L 17.4375 0 
z
" id="ArialMT-102"/>
      <path d="M 4.5 23 
L 13.421875 23.78125 
Q 14.0625 18.40625 16.375 14.96875 
Q 18.703125 11.53125 23.578125 9.40625 
Q 28.46875 7.28125 34.578125 7.28125 
Q 39.984375 7.28125 44.140625 8.890625 
Q 48.296875 10.5 50.3125 13.296875 
Q 52.34375 16.109375 52.34375 19.4375 
Q 52.34375 22.796875 50.390625 25.3125 
Q 48.4375 27.828125 43.953125 29.546875 
Q 41.0625 30.671875 31.203125 33.03125 
Q 21.34375 35.40625 17.390625 37.5 
Q 12.25 40.1875 9.734375 44.15625 
Q 7.234375 48.140625 7.234375 53.078125 
Q 7.234375 58.5 10.296875 63.203125 
Q 13.375 67.921875 19.28125 70.359375 
Q 25.203125 72.796875 32.421875 72.796875 
Q 40.375 72.796875 46.453125 70.234375 
Q 52.546875 67.671875 55.8125 62.6875 
Q 59.078125 57.71875 59.328125 51.421875 
L 50.25 50.734375 
Q 49.515625 57.515625 45.28125 60.984375 
Q 41.0625 64.453125 32.8125 64.453125 
Q 24.21875 64.453125 20.28125 61.296875 
Q 16.359375 58.15625 16.359375 53.71875 
Q 16.359375 49.859375 19.140625 47.359375 
Q 21.875 44.875 33.421875 42.265625 
Q 44.96875 39.65625 49.265625 37.703125 
Q 55.515625 34.8125 58.484375 30.390625 
Q 61.46875 25.984375 61.46875 20.21875 
Q 61.46875 14.5 58.203125 9.4375 
Q 54.9375 4.390625 48.796875 1.578125 
Q 42.671875 -1.21875 35.015625 -1.21875 
Q 25.296875 -1.21875 18.71875 1.609375 
Q 12.15625 4.4375 8.421875 10.125 
Q 4.6875 15.828125 4.5 23 
z
" id="ArialMT-83"/>
      <path d="M 7.625 0 
L 7.625 71.578125 
L 17.328125 71.578125 
L 54.9375 15.375 
L 54.9375 71.578125 
L 64.015625 71.578125 
L 64.015625 0 
L 54.296875 0 
L 16.703125 56.25 
L 16.703125 0 
z
" id="ArialMT-78"/>
      <path d="M 28.171875 0 
L 0.4375 71.578125 
L 10.6875 71.578125 
L 29.296875 19.578125 
Q 31.546875 13.328125 33.0625 7.859375 
Q 34.71875 13.71875 36.921875 19.578125 
L 56.25 71.578125 
L 65.921875 71.578125 
L 37.890625 0 
z
" id="ArialMT-86"/>
      <path d="M 3.078125 15.484375 
L 11.765625 16.84375 
Q 12.5 11.625 15.84375 8.84375 
Q 19.1875 6.0625 25.203125 6.0625 
Q 31.25 6.0625 34.171875 8.515625 
Q 37.109375 10.984375 37.109375 14.3125 
Q 37.109375 17.28125 34.515625 19 
Q 32.71875 20.171875 25.53125 21.96875 
Q 15.875 24.421875 12.140625 26.203125 
Q 8.40625 27.984375 6.46875 31.125 
Q 4.546875 34.28125 4.546875 38.09375 
Q 4.546875 41.546875 6.125 44.5 
Q 7.71875 47.46875 10.453125 49.421875 
Q 12.5 50.921875 16.03125 51.96875 
Q 19.578125 53.03125 23.640625 53.03125 
Q 29.734375 53.03125 34.34375 51.265625 
Q 38.96875 49.515625 41.15625 46.5 
Q 43.359375 43.5 44.1875 38.484375 
L 35.59375 37.3125 
Q 35.015625 41.3125 32.203125 43.546875 
Q 29.390625 45.796875 24.265625 45.796875 
Q 18.21875 45.796875 15.625 43.796875 
Q 13.03125 41.796875 13.03125 39.109375 
Q 13.03125 37.40625 14.109375 36.03125 
Q 15.1875 34.625 17.484375 33.6875 
Q 18.796875 33.203125 25.25 31.453125 
Q 34.578125 28.953125 38.25 27.359375 
Q 41.9375 25.78125 44.03125 22.75 
Q 46.140625 19.734375 46.140625 15.234375 
Q 46.140625 10.84375 43.578125 6.953125 
Q 41.015625 3.078125 36.171875 0.953125 
Q 31.34375 -1.171875 25.25 -1.171875 
Q 15.140625 -1.171875 9.84375 3.03125 
Q 4.546875 7.234375 3.078125 15.484375 
z
" id="ArialMT-115"/>
     </defs>
     <g transform="translate(17.391562 201.670172)rotate(-90)scale(0.14 -0.14)">
      <use xlink:href="#ArialMT-112"/>
      <use x="55.615234" xlink:href="#ArialMT-114"/>
      <use x="88.916016" xlink:href="#ArialMT-111"/>
      <use x="144.53125" xlink:href="#ArialMT-112"/>
      <use x="200.146484" xlink:href="#ArialMT-111"/>
      <use x="255.761719" xlink:href="#ArialMT-114"/>
      <use x="289.0625" xlink:href="#ArialMT-116"/>
      <use x="316.845703" xlink:href="#ArialMT-105"/>
      <use x="339.0625" xlink:href="#ArialMT-111"/>
      <use x="394.677734" xlink:href="#ArialMT-110"/>
      <use x="450.292969" xlink:href="#ArialMT-32"/>
      <use x="478.076172" xlink:href="#ArialMT-111"/>
      <use x="533.691406" xlink:href="#ArialMT-102"/>
      <use x="561.474609" xlink:href="#ArialMT-32"/>
      <use x="589.257812" xlink:href="#ArialMT-83"/>
      <use x="655.957031" xlink:href="#ArialMT-78"/>
      <use x="728.173828" xlink:href="#ArialMT-86"/>
      <use x="794.873047" xlink:href="#ArialMT-115"/>
     </g>
    </g>
   </g>
   <g id="LineCollection_1">
    <path clip-path="url(#p6e5a7d2129)" d="M 98.569803 264.235185 
L 98.569803 166.985524 
" style="fill:none;stroke:#a5628d;stroke-width:1.5;"/>
    <path clip-path="url(#p6e5a7d2129)" d="M 167.049433 263.862243 
L 167.049433 149.461776 
" style="fill:none;stroke:#a5628d;stroke-width:1.5;"/>
    <path clip-path="url(#p6e5a7d2129)" d="M 235.529062 276.669573 
L 235.529062 175.430607 
" style="fill:none;stroke:#a5628d;stroke-width:1.5;"/>
    <path clip-path="url(#p6e5a7d2129)" d="M 304.008692 274.115762 
L 304.008692 234.65727 
" style="fill:none;stroke:#a5628d;stroke-width:1.5;"/>
    <path clip-path="url(#p6e5a7d2129)" d="M 372.488322 281.314321 
L 372.488322 200.613676 
" style="fill:none;stroke:#a5628d;stroke-width:1.5;"/>
   </g>
   <g id="line2d_12">
    <defs>
     <path d="M 3 0 
L -3 -0 
" id="mbb0d85b2c8" style="stroke:#a5628d;"/>
    </defs>
    <g clip-path="url(#p6e5a7d2129)">
     <use style="fill:#a5628d;stroke:#a5628d;" x="98.569803" xlink:href="#mbb0d85b2c8" y="264.235185"/>
     <use style="fill:#a5628d;stroke:#a5628d;" x="167.049433" xlink:href="#mbb0d85b2c8" y="263.862243"/>
     <use style="fill:#a5628d;stroke:#a5628d;" x="235.529062" xlink:href="#mbb0d85b2c8" y="276.669573"/>
     <use style="fill:#a5628d;stroke:#a5628d;" x="304.008692" xlink:href="#mbb0d85b2c8" y="274.115762"/>
     <use style="fill:#a5628d;stroke:#a5628d;" x="372.488322" xlink:href="#mbb0d85b2c8" y="281.314321"/>
    </g>
   </g>
   <g id="line2d_13">
    <g clip-path="url(#p6e5a7d2129)">
     <use style="fill:#a5628d;stroke:#a5628d;" x="98.569803" xlink:href="#mbb0d85b2c8" y="166.985524"/>
     <use style="fill:#a5628d;stroke:#a5628d;" x="167.049433" xlink:href="#mbb0d85b2c8" y="149.461776"/>
     <use style="fill:#a5628d;stroke:#a5628d;" x="235.529062" xlink:href="#mbb0d85b2c8" y="175.430607"/>
     <use style="fill:#a5628d;stroke:#a5628d;" x="304.008692" xlink:href="#mbb0d85b2c8" y="234.65727"/>
     <use style="fill:#a5628d;stroke:#a5628d;" x="372.488322" xlink:href="#mbb0d85b2c8" y="200.613676"/>
    </g>
   </g>
   <g id="patch_13">
    <path d="M 50.634063 261.84347 
L 50.634063 23.220937 
" style="fill:none;stroke:#000000;stroke-linecap:square;stroke-linejoin:miter;stroke-width:0.8;"/>
   </g>
   <g id="patch_14">
    <path d="M 50.634063 261.84347 
L 420.424062 261.84347 
" style="fill:none;stroke:#000000;stroke-linecap:square;stroke-linejoin:miter;stroke-width:0.8;"/>
   </g>
   <g id="text_13">
    <!-- index - cat 1 -->
    <defs>
     <path d="M 40.234375 0 
L 40.234375 6.546875 
Q 35.296875 -1.171875 25.734375 -1.171875 
Q 19.53125 -1.171875 14.328125 2.25 
Q 9.125 5.671875 6.265625 11.796875 
Q 3.421875 17.921875 3.421875 25.875 
Q 3.421875 33.640625 6 39.96875 
Q 8.59375 46.296875 13.765625 49.65625 
Q 18.953125 53.03125 25.34375 53.03125 
Q 30.03125 53.03125 33.6875 51.046875 
Q 37.359375 49.078125 39.65625 45.90625 
L 39.65625 71.578125 
L 48.390625 71.578125 
L 48.390625 0 
z
M 12.453125 25.875 
Q 12.453125 15.921875 16.640625 10.984375 
Q 20.84375 6.0625 26.5625 6.0625 
Q 32.328125 6.0625 36.34375 10.765625 
Q 40.375 15.484375 40.375 25.140625 
Q 40.375 35.796875 36.265625 40.765625 
Q 32.171875 45.75 26.171875 45.75 
Q 20.3125 45.75 16.375 40.96875 
Q 12.453125 36.1875 12.453125 25.875 
z
" id="ArialMT-100"/>
     <path d="M 42.09375 16.703125 
L 51.171875 15.578125 
Q 49.03125 7.625 43.21875 3.21875 
Q 37.40625 -1.171875 28.375 -1.171875 
Q 17 -1.171875 10.328125 5.828125 
Q 3.65625 12.84375 3.65625 25.484375 
Q 3.65625 38.578125 10.390625 45.796875 
Q 17.140625 53.03125 27.875 53.03125 
Q 38.28125 53.03125 44.875 45.953125 
Q 51.46875 38.875 51.46875 26.03125 
Q 51.46875 25.25 51.421875 23.6875 
L 12.75 23.6875 
Q 13.234375 15.140625 17.578125 10.59375 
Q 21.921875 6.0625 28.421875 6.0625 
Q 33.25 6.0625 36.671875 8.59375 
Q 40.09375 11.140625 42.09375 16.703125 
z
M 13.234375 30.90625 
L 42.1875 30.90625 
Q 41.609375 37.453125 38.875 40.71875 
Q 34.671875 45.796875 27.984375 45.796875 
Q 21.921875 45.796875 17.796875 41.75 
Q 13.671875 37.703125 13.234375 30.90625 
z
" id="ArialMT-101"/>
     <path d="M 0.734375 0 
L 19.671875 26.953125 
L 2.15625 51.859375 
L 13.140625 51.859375 
L 21.09375 39.703125 
Q 23.34375 36.234375 24.703125 33.890625 
Q 26.859375 37.109375 28.65625 39.59375 
L 37.40625 51.859375 
L 47.90625 51.859375 
L 29.984375 27.4375 
L 49.265625 0 
L 38.484375 0 
L 27.828125 16.109375 
L 25 20.453125 
L 11.375 0 
z
" id="ArialMT-120"/>
     <path d="M 40.4375 19 
L 49.078125 17.875 
Q 47.65625 8.9375 41.8125 3.875 
Q 35.984375 -1.171875 27.484375 -1.171875 
Q 16.84375 -1.171875 10.375 5.78125 
Q 3.90625 12.75 3.90625 25.734375 
Q 3.90625 34.125 6.6875 40.421875 
Q 9.46875 46.734375 15.15625 49.875 
Q 20.84375 53.03125 27.546875 53.03125 
Q 35.984375 53.03125 41.359375 48.75 
Q 46.734375 44.484375 48.25 36.625 
L 39.703125 35.296875 
Q 38.484375 40.53125 35.375 43.15625 
Q 32.28125 45.796875 27.875 45.796875 
Q 21.234375 45.796875 17.078125 41.03125 
Q 12.9375 36.28125 12.9375 25.984375 
Q 12.9375 15.53125 16.9375 10.796875 
Q 20.953125 6.0625 27.390625 6.0625 
Q 32.5625 6.0625 36.03125 9.234375 
Q 39.5 12.40625 40.4375 19 
z
" id="ArialMT-99"/>
     <path d="M 40.4375 6.390625 
Q 35.546875 2.25 31.03125 0.53125 
Q 26.515625 -1.171875 21.34375 -1.171875 
Q 12.796875 -1.171875 8.203125 3 
Q 3.609375 7.171875 3.609375 13.671875 
Q 3.609375 17.484375 5.34375 20.625 
Q 7.078125 23.78125 9.890625 25.6875 
Q 12.703125 27.59375 16.21875 28.5625 
Q 18.796875 29.25 24.03125 29.890625 
Q 34.671875 31.15625 39.703125 32.90625 
Q 39.75 34.71875 39.75 35.203125 
Q 39.75 40.578125 37.25 42.78125 
Q 33.890625 45.75 27.25 45.75 
Q 21.046875 45.75 18.09375 43.578125 
Q 15.140625 41.40625 13.71875 35.890625 
L 5.125 37.0625 
Q 6.296875 42.578125 8.984375 45.96875 
Q 11.671875 49.359375 16.75 51.1875 
Q 21.828125 53.03125 28.515625 53.03125 
Q 35.15625 53.03125 39.296875 51.46875 
Q 43.453125 49.90625 45.40625 47.53125 
Q 47.359375 45.171875 48.140625 41.546875 
Q 48.578125 39.3125 48.578125 33.453125 
L 48.578125 21.734375 
Q 48.578125 9.46875 49.140625 6.21875 
Q 49.703125 2.984375 51.375 0 
L 42.1875 0 
Q 40.828125 2.734375 40.4375 6.390625 
z
M 39.703125 26.03125 
Q 34.90625 24.078125 25.34375 22.703125 
Q 19.921875 21.921875 17.671875 20.9375 
Q 15.4375 19.96875 14.203125 18.09375 
Q 12.984375 16.21875 12.984375 13.921875 
Q 12.984375 10.40625 15.640625 8.0625 
Q 18.3125 5.71875 23.4375 5.71875 
Q 28.515625 5.71875 32.46875 7.9375 
Q 36.421875 10.15625 38.28125 14.015625 
Q 39.703125 17 39.703125 22.796875 
z
" id="ArialMT-97"/>
    </defs>
    <g transform="translate(197.400937 17.220937)scale(0.14 -0.14)">
     <use xlink:href="#ArialMT-105"/>
     <use x="22.216797" xlink:href="#ArialMT-110"/>
     <use x="77.832031" xlink:href="#ArialMT-100"/>
     <use x="133.447266" xlink:href="#ArialMT-101"/>
     <use x="189.0625" xlink:href="#ArialMT-120"/>
     <use x="239.0625" xlink:href="#ArialMT-32"/>
     <use x="266.845703" xlink:href="#ArialMT-45"/>
     <use x="300.146484" xlink:href="#ArialMT-32"/>
     <use x="327.929688" xlink:href="#ArialMT-99"/>
     <use x="377.929688" xlink:href="#ArialMT-97"/>
     <use x="433.544922" xlink:href="#ArialMT-116"/>
     <use x="461.328125" xlink:href="#ArialMT-32"/>
     <use x="489.111328" xlink:href="#ArialMT-49"/>
    </g>
   </g>
  </g>
  <g id="axes_2">
   <g id="patch_15">
    <path d="M 477.234062 261.84347 
L 847.024063 261.84347 
L 847.024063 23.220937 
L 477.234062 23.220937 
z
" style="fill:#ffffff;"/>
   </g>
   <g id="patch_16">
    <path clip-path="url(#p9959889d24)" d="M 494.35397 261.84347 
L 555.985637 261.84347 
L 555.985637 131.169226 
L 494.35397 131.169226 
z
" style="fill:#a5628d;opacity:0.8;"/>
   </g>
   <g id="patch_17">
    <path clip-path="url(#p9959889d24)" d="M 562.8336 261.84347 
L 624.465266 261.84347 
L 624.465266 233.436026 
L 562.8336 233.436026 
z
" style="fill:#a5628d;opacity:0.8;"/>
   </g>
   <g id="patch_18">
    <path clip-path="url(#p9959889d24)" d="M 631.313229 261.84347 
L 692.944896 261.84347 
L 692.944896 261.84347 
L 631.313229 261.84347 
z
" style="fill:#a5628d;opacity:0.8;"/>
   </g>
   <g id="patch_19">
    <path clip-path="url(#p9959889d24)" d="M 699.792859 261.84347 
L 761.424525 261.84347 
L 761.424525 261.84347 
L 699.792859 261.84347 
z
" style="fill:#a5628d;opacity:0.8;"/>
   </g>
   <g id="patch_20">
    <path clip-path="url(#p9959889d24)" d="M 768.272488 261.84347 
L 829.904155 261.84347 
L 829.904155 261.84347 
L 768.272488 261.84347 
z
" style="fill:#a5628d;opacity:0.8;"/>
   </g>
   <g id="matplotlib.axis_3">
    <g id="xtick_6">
     <g id="line2d_14">
      <g>
       <use style="stroke:#000000;stroke-width:0.8;" x="525.169803" xlink:href="#md00a0b9b04" y="261.84347"/>
      </g>
     </g>
     <g id="text_14">
      <!-- 3-10% -->
      <g transform="translate(513.421887 304.543524)rotate(-45)scale(0.14 -0.14)">
       <use xlink:href="#ArialMT-51"/>
       <use x="55.615234" xlink:href="#ArialMT-45"/>
       <use x="88.916016" xlink:href="#ArialMT-49"/>
       <use x="144.53125" xlink:href="#ArialMT-48"/>
       <use x="200.146484" xlink:href="#ArialMT-37"/>
      </g>
     </g>
    </g>
    <g id="xtick_7">
     <g id="line2d_15">
      <g>
       <use style="stroke:#000000;stroke-width:0.8;" x="593.649433" xlink:href="#md00a0b9b04" y="261.84347"/>
      </g>
     </g>
     <g id="text_15">
      <!-- 10-20% -->
      <g transform="translate(579.148993 310.048571)rotate(-45)scale(0.14 -0.14)">
       <use xlink:href="#ArialMT-49"/>
       <use x="55.615234" xlink:href="#ArialMT-48"/>
       <use x="111.230469" xlink:href="#ArialMT-45"/>
       <use x="144.53125" xlink:href="#ArialMT-50"/>
       <use x="200.146484" xlink:href="#ArialMT-48"/>
       <use x="255.761719" xlink:href="#ArialMT-37"/>
      </g>
     </g>
    </g>
    <g id="xtick_8">
     <g id="line2d_16">
      <g>
       <use style="stroke:#000000;stroke-width:0.8;" x="662.129062" xlink:href="#md00a0b9b04" y="261.84347"/>
      </g>
     </g>
     <g id="text_16">
      <!-- 20-30% -->
      <g transform="translate(647.628623 310.048571)rotate(-45)scale(0.14 -0.14)">
       <use xlink:href="#ArialMT-50"/>
       <use x="55.615234" xlink:href="#ArialMT-48"/>
       <use x="111.230469" xlink:href="#ArialMT-45"/>
       <use x="144.53125" xlink:href="#ArialMT-51"/>
       <use x="200.146484" xlink:href="#ArialMT-48"/>
       <use x="255.761719" xlink:href="#ArialMT-37"/>
      </g>
     </g>
    </g>
    <g id="xtick_9">
     <g id="line2d_17">
      <g>
       <use style="stroke:#000000;stroke-width:0.8;" x="730.608692" xlink:href="#md00a0b9b04" y="261.84347"/>
      </g>
     </g>
     <g id="text_17">
      <!-- 30-40% -->
      <g transform="translate(716.108252 310.048571)rotate(-45)scale(0.14 -0.14)">
       <use xlink:href="#ArialMT-51"/>
       <use x="55.615234" xlink:href="#ArialMT-48"/>
       <use x="111.230469" xlink:href="#ArialMT-45"/>
       <use x="144.53125" xlink:href="#ArialMT-52"/>
       <use x="200.146484" xlink:href="#ArialMT-48"/>
       <use x="255.761719" xlink:href="#ArialMT-37"/>
      </g>
     </g>
    </g>
    <g id="xtick_10">
     <g id="line2d_18">
      <g>
       <use style="stroke:#000000;stroke-width:0.8;" x="799.088322" xlink:href="#md00a0b9b04" y="261.84347"/>
      </g>
     </g>
     <g id="text_18">
      <!-- 40-50% -->
      <g transform="translate(784.587882 310.048571)rotate(-45)scale(0.14 -0.14)">
       <use xlink:href="#ArialMT-52"/>
       <use x="55.615234" xlink:href="#ArialMT-48"/>
       <use x="111.230469" xlink:href="#ArialMT-45"/>
       <use x="144.53125" xlink:href="#ArialMT-53"/>
       <use x="200.146484" xlink:href="#ArialMT-48"/>
       <use x="255.761719" xlink:href="#ArialMT-37"/>
      </g>
     </g>
    </g>
   </g>
   <g id="matplotlib.axis_4">
    <g id="ytick_7">
     <g id="line2d_19">
      <g>
       <use style="stroke:#000000;stroke-width:0.8;" x="477.234062" xlink:href="#ma86727b142" y="261.84347"/>
      </g>
     </g>
     <g id="text_19">
      <!-- 0.0 -->
      <g transform="translate(450.774062 266.853939)scale(0.14 -0.14)">
       <use xlink:href="#ArialMT-48"/>
       <use x="55.615234" xlink:href="#ArialMT-46"/>
       <use x="83.398438" xlink:href="#ArialMT-48"/>
      </g>
     </g>
    </g>
    <g id="ytick_8">
     <g id="line2d_20">
      <g>
       <use style="stroke:#000000;stroke-width:0.8;" x="477.234062" xlink:href="#ma86727b142" y="214.118963"/>
      </g>
     </g>
     <g id="text_20">
      <!-- 0.2 -->
      <g transform="translate(450.774062 219.129432)scale(0.14 -0.14)">
       <use xlink:href="#ArialMT-48"/>
       <use x="55.615234" xlink:href="#ArialMT-46"/>
       <use x="83.398438" xlink:href="#ArialMT-50"/>
      </g>
     </g>
    </g>
    <g id="ytick_9">
     <g id="line2d_21">
      <g>
       <use style="stroke:#000000;stroke-width:0.8;" x="477.234062" xlink:href="#ma86727b142" y="166.394457"/>
      </g>
     </g>
     <g id="text_21">
      <!-- 0.4 -->
      <g transform="translate(450.774062 171.404926)scale(0.14 -0.14)">
       <use xlink:href="#ArialMT-48"/>
       <use x="55.615234" xlink:href="#ArialMT-46"/>
       <use x="83.398438" xlink:href="#ArialMT-52"/>
      </g>
     </g>
    </g>
    <g id="ytick_10">
     <g id="line2d_22">
      <g>
       <use style="stroke:#000000;stroke-width:0.8;" x="477.234062" xlink:href="#ma86727b142" y="118.66995"/>
      </g>
     </g>
     <g id="text_22">
      <!-- 0.6 -->
      <g transform="translate(450.774062 123.680419)scale(0.14 -0.14)">
       <use xlink:href="#ArialMT-48"/>
       <use x="55.615234" xlink:href="#ArialMT-46"/>
       <use x="83.398438" xlink:href="#ArialMT-54"/>
      </g>
     </g>
    </g>
    <g id="ytick_11">
     <g id="line2d_23">
      <g>
       <use style="stroke:#000000;stroke-width:0.8;" x="477.234062" xlink:href="#ma86727b142" y="70.945444"/>
      </g>
     </g>
     <g id="text_23">
      <!-- 0.8 -->
      <g transform="translate(450.774062 75.955913)scale(0.14 -0.14)">
       <use xlink:href="#ArialMT-48"/>
       <use x="55.615234" xlink:href="#ArialMT-46"/>
       <use x="83.398438" xlink:href="#ArialMT-56"/>
      </g>
     </g>
    </g>
    <g id="ytick_12">
     <g id="line2d_24">
      <g>
       <use style="stroke:#000000;stroke-width:0.8;" x="477.234062" xlink:href="#ma86727b142" y="23.220937"/>
      </g>
     </g>
     <g id="text_24">
      <!-- 1.0 -->
      <g transform="translate(450.774062 28.231406)scale(0.14 -0.14)">
       <use xlink:href="#ArialMT-49"/>
       <use x="55.615234" xlink:href="#ArialMT-46"/>
       <use x="83.398438" xlink:href="#ArialMT-48"/>
      </g>
     </g>
    </g>
    <g id="text_25">
     <!-- proportion of SNVs -->
     <g transform="translate(443.991562 201.670172)rotate(-90)scale(0.14 -0.14)">
      <use xlink:href="#ArialMT-112"/>
      <use x="55.615234" xlink:href="#ArialMT-114"/>
      <use x="88.916016" xlink:href="#ArialMT-111"/>
      <use x="144.53125" xlink:href="#ArialMT-112"/>
      <use x="200.146484" xlink:href="#ArialMT-111"/>
      <use x="255.761719" xlink:href="#ArialMT-114"/>
      <use x="289.0625" xlink:href="#ArialMT-116"/>
      <use x="316.845703" xlink:href="#ArialMT-105"/>
      <use x="339.0625" xlink:href="#ArialMT-111"/>
      <use x="394.677734" xlink:href="#ArialMT-110"/>
      <use x="450.292969" xlink:href="#ArialMT-32"/>
      <use x="478.076172" xlink:href="#ArialMT-111"/>
      <use x="533.691406" xlink:href="#ArialMT-102"/>
      <use x="561.474609" xlink:href="#ArialMT-32"/>
      <use x="589.257812" xlink:href="#ArialMT-83"/>
      <use x="655.957031" xlink:href="#ArialMT-78"/>
      <use x="728.173828" xlink:href="#ArialMT-86"/>
      <use x="794.873047" xlink:href="#ArialMT-115"/>
     </g>
    </g>
   </g>
   <g id="LineCollection_2">
    <path clip-path="url(#p9959889d24)" d="M 525.169803 232.484686 
L 525.169803 29.853766 
" style="fill:none;stroke:#a5628d;stroke-width:1.5;"/>
    <path clip-path="url(#p9959889d24)" d="M 593.649433 279.592659 
L 593.649433 187.279392 
" style="fill:none;stroke:#a5628d;stroke-width:1.5;"/>
    <path clip-path="url(#p9959889d24)" d="M 662.129062 261.84347 
L 662.129062 261.84347 
" style="fill:none;stroke:#a5628d;stroke-width:1.5;"/>
    <path clip-path="url(#p9959889d24)" d="M 730.608692 261.84347 
L 730.608692 261.84347 
" style="fill:none;stroke:#a5628d;stroke-width:1.5;"/>
    <path clip-path="url(#p9959889d24)" d="M 799.088322 261.84347 
L 799.088322 261.84347 
" style="fill:none;stroke:#a5628d;stroke-width:1.5;"/>
   </g>
   <g id="line2d_25">
    <g clip-path="url(#p9959889d24)">
     <use style="fill:#a5628d;stroke:#a5628d;" x="525.169803" xlink:href="#mbb0d85b2c8" y="232.484686"/>
     <use style="fill:#a5628d;stroke:#a5628d;" x="593.649433" xlink:href="#mbb0d85b2c8" y="279.592659"/>
     <use style="fill:#a5628d;stroke:#a5628d;" x="662.129062" xlink:href="#mbb0d85b2c8" y="261.84347"/>
     <use style="fill:#a5628d;stroke:#a5628d;" x="730.608692" xlink:href="#mbb0d85b2c8" y="261.84347"/>
     <use style="fill:#a5628d;stroke:#a5628d;" x="799.088322" xlink:href="#mbb0d85b2c8" y="261.84347"/>
    </g>
   </g>
   <g id="line2d_26">
    <g clip-path="url(#p9959889d24)">
     <use style="fill:#a5628d;stroke:#a5628d;" x="525.169803" xlink:href="#mbb0d85b2c8" y="29.853766"/>
     <use style="fill:#a5628d;stroke:#a5628d;" x="593.649433" xlink:href="#mbb0d85b2c8" y="187.279392"/>
     <use style="fill:#a5628d;stroke:#a5628d;" x="662.129062" xlink:href="#mbb0d85b2c8" y="261.84347"/>
     <use style="fill:#a5628d;stroke:#a5628d;" x="730.608692" xlink:href="#mbb0d85b2c8" y="261.84347"/>
     <use style="fill:#a5628d;stroke:#a5628d;" x="799.088322" xlink:href="#mbb0d85b2c8" y="261.84347"/>
    </g>
   </g>
   <g id="patch_21">
    <path d="M 477.234062 261.84347 
L 477.234062 23.220937 
" style="fill:none;stroke:#000000;stroke-linecap:square;stroke-linejoin:miter;stroke-width:0.8;"/>
   </g>
   <g id="patch_22">
    <path d="M 477.234062 261.84347 
L 847.024062 261.84347 
" style="fill:none;stroke:#000000;stroke-linecap:square;stroke-linejoin:miter;stroke-width:0.8;"/>
   </g>
   <g id="text_26">
    <!-- contact - cat 4 -->
    <g transform="translate(618.166875 17.220937)scale(0.14 -0.14)">
     <use xlink:href="#ArialMT-99"/>
     <use x="50" xlink:href="#ArialMT-111"/>
     <use x="105.615234" xlink:href="#ArialMT-110"/>
     <use x="161.230469" xlink:href="#ArialMT-116"/>
     <use x="189.013672" xlink:href="#ArialMT-97"/>
     <use x="244.628906" xlink:href="#ArialMT-99"/>
     <use x="294.628906" xlink:href="#ArialMT-116"/>
     <use x="322.412109" xlink:href="#ArialMT-32"/>
     <use x="350.195312" xlink:href="#ArialMT-45"/>
     <use x="383.496094" xlink:href="#ArialMT-32"/>
     <use x="411.279297" xlink:href="#ArialMT-99"/>
     <use x="461.279297" xlink:href="#ArialMT-97"/>
     <use x="516.894531" xlink:href="#ArialMT-116"/>
     <use x="544.677734" xlink:href="#ArialMT-32"/>
     <use x="572.460938" xlink:href="#ArialMT-52"/>
    </g>
   </g>
  </g>
 </g>
 <defs>
  <clipPath id="p6e5a7d2129">
   <rect height="238.622532" width="369.79" x="50.634063" y="23.220937"/>
  </clipPath>
  <clipPath id="p9959889d24">
   <rect height="238.622532" width="369.79" x="477.234062" y="23.220937"/>
  </clipPath>
 </defs>
</svg>
